%TF.GenerationSoftware,KiCad,Pcbnew,(7.0.0)*%
%TF.CreationDate,2023-08-02T11:08:07+03:00*%
%TF.ProjectId,Digital_Timer_Switch,44696769-7461-46c5-9f54-696d65725f53,rev?*%
%TF.SameCoordinates,Original*%
%TF.FileFunction,Paste,Top*%
%TF.FilePolarity,Positive*%
%FSLAX46Y46*%
G04 Gerber Fmt 4.6, Leading zero omitted, Abs format (unit mm)*
G04 Created by KiCad (PCBNEW (7.0.0)) date 2023-08-02 11:08:07*
%MOMM*%
%LPD*%
G01*
G04 APERTURE LIST*
G04 Aperture macros list*
%AMRoundRect*
0 Rectangle with rounded corners*
0 $1 Rounding radius*
0 $2 $3 $4 $5 $6 $7 $8 $9 X,Y pos of 4 corners*
0 Add a 4 corners polygon primitive as box body*
4,1,4,$2,$3,$4,$5,$6,$7,$8,$9,$2,$3,0*
0 Add four circle primitives for the rounded corners*
1,1,$1+$1,$2,$3*
1,1,$1+$1,$4,$5*
1,1,$1+$1,$6,$7*
1,1,$1+$1,$8,$9*
0 Add four rect primitives between the rounded corners*
20,1,$1+$1,$2,$3,$4,$5,0*
20,1,$1+$1,$4,$5,$6,$7,0*
20,1,$1+$1,$6,$7,$8,$9,0*
20,1,$1+$1,$8,$9,$2,$3,0*%
%AMRotRect*
0 Rectangle, with rotation*
0 The origin of the aperture is its center*
0 $1 length*
0 $2 width*
0 $3 Rotation angle, in degrees counterclockwise*
0 Add horizontal line*
21,1,$1,$2,0,0,$3*%
G04 Aperture macros list end*
%ADD10R,1.600000X1.400000*%
%ADD11RoundRect,0.125000X0.125000X0.125000X-0.125000X0.125000X-0.125000X-0.125000X0.125000X-0.125000X0*%
%ADD12R,2.000000X1.300000*%
%ADD13R,2.000000X2.000000*%
%ADD14RoundRect,0.135000X0.135000X0.185000X-0.135000X0.185000X-0.135000X-0.185000X0.135000X-0.185000X0*%
%ADD15RoundRect,0.225000X-0.017678X0.335876X-0.335876X0.017678X0.017678X-0.335876X0.335876X-0.017678X0*%
%ADD16RoundRect,0.225000X-0.225000X-0.250000X0.225000X-0.250000X0.225000X0.250000X-0.225000X0.250000X0*%
%ADD17RoundRect,0.200000X-0.200000X-0.275000X0.200000X-0.275000X0.200000X0.275000X-0.200000X0.275000X0*%
%ADD18RoundRect,0.140000X-0.140000X-0.170000X0.140000X-0.170000X0.140000X0.170000X-0.140000X0.170000X0*%
%ADD19RoundRect,0.218750X-0.218750X-0.256250X0.218750X-0.256250X0.218750X0.256250X-0.218750X0.256250X0*%
%ADD20RoundRect,0.225000X0.250000X-0.225000X0.250000X0.225000X-0.250000X0.225000X-0.250000X-0.225000X0*%
%ADD21RoundRect,0.135000X0.185000X-0.135000X0.185000X0.135000X-0.185000X0.135000X-0.185000X-0.135000X0*%
%ADD22RoundRect,0.140000X0.170000X-0.140000X0.170000X0.140000X-0.170000X0.140000X-0.170000X-0.140000X0*%
%ADD23RoundRect,0.150000X0.150000X-0.587500X0.150000X0.587500X-0.150000X0.587500X-0.150000X-0.587500X0*%
%ADD24R,0.900000X0.800000*%
%ADD25R,0.700000X0.700000*%
%ADD26RoundRect,0.200000X0.200000X0.275000X-0.200000X0.275000X-0.200000X-0.275000X0.200000X-0.275000X0*%
%ADD27RoundRect,0.207500X-0.207500X-0.207500X0.207500X-0.207500X0.207500X0.207500X-0.207500X0.207500X0*%
%ADD28RoundRect,0.062500X-0.375000X-0.062500X0.375000X-0.062500X0.375000X0.062500X-0.375000X0.062500X0*%
%ADD29RoundRect,0.062500X-0.062500X-0.375000X0.062500X-0.375000X0.062500X0.375000X-0.062500X0.375000X0*%
%ADD30RoundRect,0.150000X-0.150000X0.512500X-0.150000X-0.512500X0.150000X-0.512500X0.150000X0.512500X0*%
%ADD31RoundRect,0.200000X0.275000X-0.200000X0.275000X0.200000X-0.275000X0.200000X-0.275000X-0.200000X0*%
%ADD32RoundRect,0.225000X0.225000X0.250000X-0.225000X0.250000X-0.225000X-0.250000X0.225000X-0.250000X0*%
%ADD33RoundRect,0.225000X0.335876X0.017678X0.017678X0.335876X-0.335876X-0.017678X-0.017678X-0.335876X0*%
%ADD34R,1.700000X0.900000*%
%ADD35RotRect,0.900000X0.800000X45.000000*%
%ADD36RoundRect,0.200000X-0.275000X0.200000X-0.275000X-0.200000X0.275000X-0.200000X0.275000X0.200000X0*%
G04 APERTURE END LIST*
D10*
%TO.C,SW307*%
X123837199Y-130483999D03*
X115837199Y-130483999D03*
X123837199Y-125983999D03*
X115837199Y-125983999D03*
%TD*%
D11*
%TO.C,D201*%
X119937800Y-113819700D03*
X117737800Y-113819700D03*
%TD*%
D12*
%TO.C,RV401*%
X120885199Y-105275999D03*
D13*
X124885199Y-106425999D03*
D12*
X120885199Y-107575999D03*
%TD*%
D14*
%TO.C,R202*%
X169879200Y-105537000D03*
X168859200Y-105537000D03*
%TD*%
D15*
%TO.C,C315*%
X105802442Y-119847992D03*
X104706426Y-120944008D03*
%TD*%
D10*
%TO.C,SW302*%
X123900199Y-138865999D03*
X115900199Y-138865999D03*
X123900199Y-134365999D03*
X115900199Y-134365999D03*
%TD*%
D16*
%TO.C,C203*%
X122999200Y-120650000D03*
X124549200Y-120650000D03*
%TD*%
D10*
%TO.C,SW301*%
X113359199Y-138865999D03*
X105359199Y-138865999D03*
X113359199Y-134365999D03*
X105359199Y-134365999D03*
%TD*%
D17*
%TO.C,R302*%
X119075200Y-132425000D03*
X120725200Y-132425000D03*
%TD*%
D18*
%TO.C,C313*%
X107317400Y-129771400D03*
X108277400Y-129771400D03*
%TD*%
D16*
%TO.C,C306*%
X123888200Y-136525000D03*
X125438200Y-136525000D03*
%TD*%
D17*
%TO.C,R307*%
X119139200Y-124007000D03*
X120789200Y-124007000D03*
%TD*%
D19*
%TO.C,FB201*%
X121386500Y-113360200D03*
X122961500Y-113360200D03*
%TD*%
D20*
%TO.C,C301*%
X116967000Y-121306800D03*
X116967000Y-119756800D03*
%TD*%
D21*
%TO.C,R402*%
X127000000Y-110263400D03*
X127000000Y-109243400D03*
%TD*%
D17*
%TO.C,R306*%
X129743200Y-115661000D03*
X131393200Y-115661000D03*
%TD*%
D16*
%TO.C,C307*%
X134556200Y-136525000D03*
X136106200Y-136525000D03*
%TD*%
D22*
%TO.C,C302*%
X107696000Y-119134800D03*
X107696000Y-118174800D03*
%TD*%
D17*
%TO.C,R301*%
X108534200Y-132425000D03*
X110184200Y-132425000D03*
%TD*%
D23*
%TO.C,Q101*%
X116474200Y-107935500D03*
X118374200Y-107935500D03*
X117424200Y-106060500D03*
%TD*%
D20*
%TO.C,C204*%
X124536200Y-118771000D03*
X124536200Y-117221000D03*
%TD*%
%TO.C,C201*%
X121361200Y-111849200D03*
X121361200Y-110299200D03*
%TD*%
D24*
%TO.C,U302*%
X109005599Y-115064599D03*
X107605599Y-115064599D03*
X107605599Y-116164599D03*
X109005599Y-116164599D03*
%TD*%
D25*
%TO.C,D301*%
X107256399Y-128601399D03*
X108356399Y-128601399D03*
X108356399Y-126771399D03*
X107256399Y-126771399D03*
%TD*%
D16*
%TO.C,C311*%
X123850400Y-128270000D03*
X125400400Y-128270000D03*
%TD*%
%TO.C,C310*%
X134581600Y-119862600D03*
X136131600Y-119862600D03*
%TD*%
D26*
%TO.C,R304*%
X106082600Y-118033800D03*
X104432600Y-118033800D03*
%TD*%
D27*
%TO.C,U301*%
X111897500Y-119021800D03*
X111897500Y-120051800D03*
X111897500Y-121081800D03*
X112927500Y-119021800D03*
X112927500Y-120051800D03*
X112927500Y-121081800D03*
X113957500Y-119021800D03*
X113957500Y-120051800D03*
X113957500Y-121081800D03*
D28*
X110490000Y-118301800D03*
X110490000Y-118801800D03*
X110490000Y-119301800D03*
X110490000Y-119801800D03*
X110490000Y-120301800D03*
X110490000Y-120801800D03*
X110490000Y-121301800D03*
X110490000Y-121801800D03*
D29*
X111177500Y-122489300D03*
X111677500Y-122489300D03*
X112177500Y-122489300D03*
X112677500Y-122489300D03*
X113177500Y-122489300D03*
X113677500Y-122489300D03*
X114177500Y-122489300D03*
X114677500Y-122489300D03*
D28*
X115365000Y-121801800D03*
X115365000Y-121301800D03*
X115365000Y-120801800D03*
X115365000Y-120301800D03*
X115365000Y-119801800D03*
X115365000Y-119301800D03*
X115365000Y-118801800D03*
X115365000Y-118301800D03*
D29*
X114677500Y-117614300D03*
X114177500Y-117614300D03*
X113677500Y-117614300D03*
X113177500Y-117614300D03*
X112677500Y-117614300D03*
X112177500Y-117614300D03*
X111677500Y-117614300D03*
X111177500Y-117614300D03*
%TD*%
D23*
%TO.C,Q201*%
X117906800Y-111836200D03*
X119806800Y-111836200D03*
X118856800Y-109961200D03*
%TD*%
D30*
%TO.C,U201*%
X122971600Y-116662200D03*
X122021600Y-116662200D03*
X121071600Y-116662200D03*
X121071600Y-118937200D03*
X122971600Y-118937200D03*
%TD*%
D31*
%TO.C,R201*%
X116382800Y-114236000D03*
X116382800Y-112586000D03*
%TD*%
D16*
%TO.C,C305*%
X113347200Y-136652000D03*
X114897200Y-136652000D03*
%TD*%
D31*
%TO.C,R401*%
X130505200Y-107632000D03*
X130505200Y-105982000D03*
%TD*%
D22*
%TO.C,C312*%
X110236000Y-116075400D03*
X110236000Y-115115400D03*
%TD*%
D32*
%TO.C,C401*%
X147951300Y-66411500D03*
X146401300Y-66411500D03*
%TD*%
D17*
%TO.C,R403*%
X128220200Y-109601000D03*
X129870200Y-109601000D03*
%TD*%
D32*
%TO.C,C403*%
X114423300Y-66284500D03*
X112873300Y-66284500D03*
%TD*%
D16*
%TO.C,C309*%
X134556200Y-128270000D03*
X136106200Y-128270000D03*
%TD*%
D32*
%TO.C,C205*%
X122985400Y-114952900D03*
X121435400Y-114952900D03*
%TD*%
D20*
%TO.C,C202*%
X122936000Y-111849200D03*
X122936000Y-110299200D03*
%TD*%
D33*
%TO.C,C314*%
X105548442Y-123865008D03*
X104452426Y-122768992D03*
%TD*%
D10*
%TO.C,SW303*%
X134568199Y-138865999D03*
X126568199Y-138865999D03*
X134568199Y-134365999D03*
X126568199Y-134365999D03*
%TD*%
%TO.C,SW306*%
X134517399Y-122137999D03*
X126517399Y-122137999D03*
X134517399Y-117637999D03*
X126517399Y-117637999D03*
%TD*%
D34*
%TO.C,SW304*%
X105155999Y-113156999D03*
X105155999Y-116556999D03*
%TD*%
D23*
%TO.C,Q401*%
X127015200Y-107793000D03*
X128915200Y-107793000D03*
X127965200Y-105918000D03*
%TD*%
D35*
%TO.C,Y301*%
X106594867Y-122846482D03*
X107584816Y-121856533D03*
X106806999Y-121078716D03*
X105817050Y-122068665D03*
%TD*%
D20*
%TO.C,C303*%
X108966000Y-119681200D03*
X108966000Y-118131200D03*
%TD*%
D17*
%TO.C,R305*%
X129807200Y-124043000D03*
X131457200Y-124043000D03*
%TD*%
D16*
%TO.C,C402*%
X115921300Y-66284500D03*
X117471300Y-66284500D03*
%TD*%
D10*
%TO.C,SW305*%
X134568199Y-130483999D03*
X126568199Y-130483999D03*
X134568199Y-125983999D03*
X126568199Y-125983999D03*
%TD*%
D36*
%TO.C,R101*%
X116408200Y-109602000D03*
X116408200Y-111252000D03*
%TD*%
D16*
%TO.C,C308*%
X107632200Y-113157000D03*
X109182200Y-113157000D03*
%TD*%
D20*
%TO.C,C304*%
X118491000Y-121293800D03*
X118491000Y-119743800D03*
%TD*%
D17*
%TO.C,R303*%
X129997200Y-132425000D03*
X131647200Y-132425000D03*
%TD*%
M02*
