%TF.GenerationSoftware,KiCad,Pcbnew,(7.0.0)*%
%TF.CreationDate,2023-08-02T11:08:07+03:00*%
%TF.ProjectId,Digital_Timer_Switch,44696769-7461-46c5-9f54-696d65725f53,rev?*%
%TF.SameCoordinates,Original*%
%TF.FileFunction,Copper,L2,Bot*%
%TF.FilePolarity,Positive*%
%FSLAX46Y46*%
G04 Gerber Fmt 4.6, Leading zero omitted, Abs format (unit mm)*
G04 Created by KiCad (PCBNEW (7.0.0)) date 2023-08-02 11:08:07*
%MOMM*%
%LPD*%
G01*
G04 APERTURE LIST*
G04 Aperture macros list*
%AMRoundRect*
0 Rectangle with rounded corners*
0 $1 Rounding radius*
0 $2 $3 $4 $5 $6 $7 $8 $9 X,Y pos of 4 corners*
0 Add a 4 corners polygon primitive as box body*
4,1,4,$2,$3,$4,$5,$6,$7,$8,$9,$2,$3,0*
0 Add four circle primitives for the rounded corners*
1,1,$1+$1,$2,$3*
1,1,$1+$1,$4,$5*
1,1,$1+$1,$6,$7*
1,1,$1+$1,$8,$9*
0 Add four rect primitives between the rounded corners*
20,1,$1+$1,$2,$3,$4,$5,0*
20,1,$1+$1,$4,$5,$6,$7,0*
20,1,$1+$1,$6,$7,$8,$9,0*
20,1,$1+$1,$8,$9,$2,$3,0*%
G04 Aperture macros list end*
%TA.AperFunction,ComponentPad*%
%ADD10R,2.540000X2.540000*%
%TD*%
%TA.AperFunction,ComponentPad*%
%ADD11C,2.540000*%
%TD*%
%TA.AperFunction,ComponentPad*%
%ADD12R,2.600000X2.600000*%
%TD*%
%TA.AperFunction,ComponentPad*%
%ADD13C,2.600000*%
%TD*%
%TA.AperFunction,ComponentPad*%
%ADD14C,2.000000*%
%TD*%
%TA.AperFunction,ComponentPad*%
%ADD15RoundRect,0.250000X-0.750000X0.600000X-0.750000X-0.600000X0.750000X-0.600000X0.750000X0.600000X0*%
%TD*%
%TA.AperFunction,ComponentPad*%
%ADD16O,2.000000X1.700000*%
%TD*%
%TA.AperFunction,ComponentPad*%
%ADD17C,3.000000*%
%TD*%
%TA.AperFunction,ComponentPad*%
%ADD18R,1.800000X2.600000*%
%TD*%
%TA.AperFunction,ComponentPad*%
%ADD19O,1.800000X2.600000*%
%TD*%
%TA.AperFunction,ComponentPad*%
%ADD20C,1.800000*%
%TD*%
%TA.AperFunction,ComponentPad*%
%ADD21R,2.000000X2.300000*%
%TD*%
%TA.AperFunction,ComponentPad*%
%ADD22C,2.300000*%
%TD*%
%TA.AperFunction,SMDPad,CuDef*%
%ADD23C,1.500000*%
%TD*%
%TA.AperFunction,ViaPad*%
%ADD24C,0.800000*%
%TD*%
%TA.AperFunction,Conductor*%
%ADD25C,2.000000*%
%TD*%
%TA.AperFunction,Conductor*%
%ADD26C,0.500000*%
%TD*%
%TA.AperFunction,Conductor*%
%ADD27C,0.200000*%
%TD*%
%TA.AperFunction,Conductor*%
%ADD28C,0.250000*%
%TD*%
G04 APERTURE END LIST*
D10*
%TO.P,U202,1*%
%TO.N,/Digital_Timer_Switch_Power/AC_OUT*%
X181305199Y-109092999D03*
D11*
%TO.P,U202,2*%
%TO.N,/Digital_Timer_Switch_Power/AC_L*%
X177495200Y-109093000D03*
%TO.P,U202,3*%
%TO.N,Net-(R202-Pad1)*%
X169875200Y-109093000D03*
%TO.P,U202,4*%
%TO.N,GND*%
X166065200Y-109093000D03*
%TD*%
D12*
%TO.P,J101,1,Pin_1*%
%TO.N,/Digital_Timer_Switch_Power/AC_IN_L*%
X178892199Y-132527999D03*
D13*
%TO.P,J101,2,Pin_2*%
%TO.N,/Digital_Timer_Switch_Power/AC_IN_N*%
X178892200Y-127448000D03*
%TD*%
D14*
%TO.P,C207,1*%
%TO.N,/Digital_Timer_Switch_Power/AC_L*%
X163966200Y-118872000D03*
%TO.P,C207,2*%
%TO.N,/Digital_Timer_Switch_Power/AC_IN_N*%
X171466200Y-118872000D03*
%TD*%
%TO.P,C206,1*%
%TO.N,/Digital_Timer_Switch_Power/AC_L*%
X163966200Y-122555000D03*
%TO.P,C206,2*%
%TO.N,/Digital_Timer_Switch_Power/AC_IN_N*%
X171466200Y-122555000D03*
%TD*%
D15*
%TO.P,J102,1,Pin_1*%
%TO.N,Net-(J102-Pin_1)*%
X112819200Y-106803500D03*
D16*
%TO.P,J102,2,Pin_2*%
%TO.N,GND*%
X112819199Y-109303499D03*
%TD*%
D17*
%TO.P,DS401,*%
%TO.N,*%
X106883200Y-69977000D03*
X106883200Y-100977700D03*
X181881780Y-100977700D03*
X181882300Y-69977000D03*
D18*
%TO.P,DS401,1,VSS*%
%TO.N,GND*%
X112382299Y-69976999D03*
D19*
%TO.P,DS401,2,VDD*%
%TO.N,+5V*%
X114922299Y-69976999D03*
%TO.P,DS401,3,VO*%
%TO.N,/MODULE_LCD1602_4BIT/CONTRAST*%
X117462299Y-69976999D03*
%TO.P,DS401,4,RS*%
%TO.N,/MCU_ATMEGA328P-M/PC5*%
X120002299Y-69976999D03*
%TO.P,DS401,5,R/W*%
%TO.N,GND*%
X122542299Y-69976999D03*
%TO.P,DS401,6,E*%
%TO.N,/MCU_ATMEGA328P-M/PC4*%
X125082299Y-69976999D03*
%TO.P,DS401,7,D0*%
%TO.N,unconnected-(DS401-D0-Pad7)*%
X127622299Y-69976999D03*
%TO.P,DS401,8,D1*%
%TO.N,unconnected-(DS401-D1-Pad8)*%
X130162299Y-69976999D03*
%TO.P,DS401,9,D2*%
%TO.N,unconnected-(DS401-D2-Pad9)*%
X132702299Y-69976999D03*
%TO.P,DS401,10,D3*%
%TO.N,unconnected-(DS401-D3-Pad10)*%
X135242299Y-69976999D03*
%TO.P,DS401,11,D4*%
%TO.N,/MCU_ATMEGA328P-M/PC3*%
X137782299Y-69976999D03*
%TO.P,DS401,12,D5*%
%TO.N,/MCU_ATMEGA328P-M/PC2*%
X140322299Y-69976999D03*
%TO.P,DS401,13,D6*%
%TO.N,/MCU_ATMEGA328P-M/PC1*%
X142862299Y-69976999D03*
%TO.P,DS401,14,D7*%
%TO.N,/MCU_ATMEGA328P-M/PC0*%
X145402299Y-69976999D03*
%TO.P,DS401,15,LED(+)*%
%TO.N,+5V*%
X147942299Y-69976999D03*
%TO.P,DS401,16,LED(-)*%
%TO.N,/MODULE_LCD1602_4BIT/CATHODE*%
X150482299Y-69976999D03*
%TD*%
D20*
%TO.P,MOV201,1*%
%TO.N,Net-(F201-Pad1)*%
X169229700Y-136311000D03*
%TO.P,MOV201,2*%
%TO.N,/Digital_Timer_Switch_Power/AC_IN_N*%
X171429700Y-128811000D03*
%TD*%
D14*
%TO.P,TH201,1*%
%TO.N,/Digital_Timer_Switch_Power/AC_L*%
X164922200Y-138557000D03*
%TO.P,TH201,2*%
%TO.N,Net-(F201-Pad1)*%
X164932200Y-133477000D03*
%TD*%
D21*
%TO.P,PS201,1,AC/L*%
%TO.N,/Digital_Timer_Switch_Power/AC_L*%
X149087199Y-137117499D03*
D22*
%TO.P,PS201,2,AC/N*%
%TO.N,/Digital_Timer_Switch_Power/AC_IN_N*%
X154087200Y-137117500D03*
%TO.P,PS201,3,-Vout*%
%TO.N,GND*%
X143887200Y-107717500D03*
%TO.P,PS201,4,+Vout*%
%TO.N,Net-(D201-A)*%
X159287200Y-107717500D03*
%TD*%
D12*
%TO.P,J103,1,Pin_1*%
%TO.N,/Digital_Timer_Switch_Power/AC_IN_N*%
X178892199Y-121356999D03*
D13*
%TO.P,J103,2,Pin_2*%
%TO.N,/Digital_Timer_Switch_Power/AC_OUT*%
X178892200Y-116277000D03*
%TD*%
D14*
%TO.P,F201,1*%
%TO.N,Net-(F201-Pad1)*%
X175158200Y-138243000D03*
%TO.P,F201,2*%
%TO.N,/Digital_Timer_Switch_Power/AC_IN_L*%
X180238200Y-138253000D03*
%TD*%
D23*
%TO.P,TP306,1,1*%
%TO.N,GND*%
X105232200Y-105537000D03*
%TD*%
%TO.P,TP303,1,1*%
%TO.N,/MCU_ATMEGA328P-M/PB4*%
X107772200Y-108077000D03*
%TD*%
%TO.P,TP301,1,1*%
%TO.N,/MCU_ATMEGA328P-M/PB3*%
X107772200Y-110617000D03*
%TD*%
%TO.P,TP304,1,1*%
%TO.N,/MCU_ATMEGA328P-M/NRST*%
X105232200Y-108077000D03*
%TD*%
%TO.P,TP302,1,1*%
%TO.N,+3V3*%
X105232200Y-110617000D03*
%TD*%
%TO.P,TP305,1,1*%
%TO.N,/MCU_ATMEGA328P-M/PB5*%
X107772200Y-105537000D03*
%TD*%
D24*
%TO.N,GND*%
X118059200Y-130911600D03*
X114274600Y-126441200D03*
X106832400Y-138861800D03*
X125171200Y-137566400D03*
X117703600Y-118999000D03*
X107696000Y-117322600D03*
X119176800Y-126542800D03*
X125653800Y-119583200D03*
X122529600Y-84328000D03*
X122986800Y-88925400D03*
X114655600Y-137668000D03*
X135712200Y-120954800D03*
X135356600Y-137566400D03*
X108314503Y-130505200D03*
X104292400Y-119354600D03*
X115265200Y-112598200D03*
X108201235Y-121262365D03*
X122123200Y-109397800D03*
X117881400Y-110413800D03*
X117475000Y-89941400D03*
X108788200Y-111633000D03*
X125171200Y-129387600D03*
X105156000Y-114071400D03*
X123139200Y-92456000D03*
X135966200Y-129387600D03*
X123113800Y-105156000D03*
X118160800Y-124536200D03*
X147193000Y-74142600D03*
X110209408Y-114491500D03*
X128447800Y-78562200D03*
X119964200Y-108966000D03*
%TO.N,+3V3*%
X107315000Y-130505200D03*
X121945400Y-120650000D03*
X106832400Y-119126000D03*
X118033800Y-132410200D03*
X111074200Y-116332000D03*
X128930400Y-132410200D03*
X119126000Y-125476000D03*
X107492800Y-132410200D03*
%TO.N,Net-(D201-A)*%
X118837800Y-113819700D03*
%TO.N,/MCU_ATMEGA328P-M/NRST*%
X106502200Y-109347000D03*
%TO.N,/MCU_ATMEGA328P-M/PB3*%
X120853200Y-122174000D03*
%TO.N,/MCU_ATMEGA328P-M/PB4*%
X168021000Y-105537000D03*
X115392200Y-123106500D03*
%TO.N,/MCU_ATMEGA328P-M/PC0*%
X117060200Y-117847600D03*
%TO.N,/MCU_ATMEGA328P-M/PC1*%
X117170200Y-116713000D03*
%TO.N,/MCU_ATMEGA328P-M/PB5*%
X116320072Y-122495977D03*
X127000000Y-111074200D03*
%TO.N,/MCU_ATMEGA328P-M/PC2*%
X115900200Y-116459000D03*
%TO.N,/MCU_ATMEGA328P-M/PC3*%
X115265200Y-115443000D03*
%TO.N,/MCU_ATMEGA328P-M/PC4*%
X114173200Y-115497000D03*
%TO.N,/MCU_ATMEGA328P-M/PC5*%
X113233200Y-114300000D03*
%TD*%
D25*
%TO.N,/Digital_Timer_Switch_Power/AC_L*%
X149087200Y-127112400D02*
X153644600Y-122555000D01*
X161243800Y-139797000D02*
X150084000Y-139797000D01*
X173355000Y-115493800D02*
X165328600Y-115493800D01*
X150084000Y-139797000D02*
X149087200Y-138800200D01*
X149087200Y-137117500D02*
X149087200Y-127112400D01*
X149087200Y-138800200D02*
X149087200Y-137117500D01*
X177495200Y-109093000D02*
X177495200Y-111353600D01*
X177495200Y-111353600D02*
X173355000Y-115493800D01*
X162483800Y-138557000D02*
X161243800Y-139797000D01*
X163966200Y-122555000D02*
X163966200Y-118872000D01*
X165328600Y-115493800D02*
X163966200Y-116856200D01*
X153644600Y-122555000D02*
X163966200Y-122555000D01*
X163966200Y-116856200D02*
X163966200Y-118872000D01*
X164922200Y-138557000D02*
X162483800Y-138557000D01*
%TO.N,/Digital_Timer_Switch_Power/AC_IN_N*%
X154087200Y-131104000D02*
X156380200Y-128811000D01*
X171466200Y-122555000D02*
X171466200Y-128774500D01*
X177529200Y-128811000D02*
X178892200Y-127448000D01*
X171429700Y-128811000D02*
X177529200Y-128811000D01*
X154087200Y-137117500D02*
X154087200Y-131104000D01*
X156380200Y-128811000D02*
X171429700Y-128811000D01*
X171466200Y-118872000D02*
X171466200Y-121208800D01*
X178892200Y-121357000D02*
X178892200Y-127448000D01*
X171466200Y-121208800D02*
X171466200Y-122555000D01*
X178892200Y-121357000D02*
X171614400Y-121357000D01*
X171614400Y-121357000D02*
X171466200Y-121208800D01*
X171466200Y-128774500D02*
X171429700Y-128811000D01*
D26*
%TO.N,+3V3*%
X111074200Y-116332000D02*
X104724200Y-116332000D01*
X111074200Y-116332000D02*
X111201200Y-116459000D01*
X111887000Y-125476000D02*
X119126000Y-125476000D01*
X111201200Y-124790200D02*
X111887000Y-125476000D01*
X119126000Y-125476000D02*
X121945400Y-125476000D01*
X121945400Y-124866400D02*
X121945400Y-132410200D01*
X118033800Y-132410200D02*
X121945400Y-132410200D01*
X104190800Y-115798600D02*
X104190800Y-111658400D01*
X107492800Y-132410200D02*
X118033800Y-132410200D01*
X104190800Y-111658400D02*
X105232200Y-110617000D01*
X107315000Y-130505200D02*
X107315000Y-132232400D01*
X121945400Y-124866400D02*
X121945400Y-120650000D01*
X121945400Y-132410200D02*
X128930400Y-132410200D01*
X111201200Y-116459000D02*
X111201200Y-124790200D01*
X107315000Y-132232400D02*
X107492800Y-132410200D01*
X104724200Y-116332000D02*
X104190800Y-115798600D01*
X111201200Y-119126000D02*
X106832400Y-119126000D01*
%TO.N,Net-(D201-A)*%
X158064200Y-104597200D02*
X159287200Y-105820200D01*
X159287200Y-105820200D02*
X159287200Y-107717500D01*
X122146300Y-113819700D02*
X131368800Y-104597200D01*
X131368800Y-104597200D02*
X158064200Y-104597200D01*
X118837800Y-113819700D02*
X122146300Y-113819700D01*
D25*
%TO.N,/Digital_Timer_Switch_Power/AC_IN_L*%
X178892200Y-132528000D02*
X178892200Y-136907000D01*
X178892200Y-136907000D02*
X180238200Y-138253000D01*
%TO.N,Net-(F201-Pad1)*%
X171161700Y-138243000D02*
X169229700Y-136311000D01*
X164932200Y-133477000D02*
X166395700Y-133477000D01*
X166395700Y-133477000D02*
X169229700Y-136311000D01*
X175158200Y-138243000D02*
X171161700Y-138243000D01*
D27*
%TO.N,/MCU_ATMEGA328P-M/NRST*%
X106502200Y-109347000D02*
X105232200Y-108077000D01*
%TO.N,/MCU_ATMEGA328P-M/PB3*%
X112725200Y-124891800D02*
X111810800Y-123977400D01*
X120853200Y-122174000D02*
X119151400Y-122174000D01*
X108458000Y-113309400D02*
X107772200Y-112623600D01*
X110017258Y-113309400D02*
X108458000Y-113309400D01*
X107772200Y-112623600D02*
X107772200Y-110617000D01*
X111810800Y-123977400D02*
X111810800Y-115102942D01*
X111810800Y-115102942D02*
X110017258Y-113309400D01*
X116433600Y-124891800D02*
X112725200Y-124891800D01*
X119151400Y-122174000D02*
X116433600Y-124891800D01*
%TO.N,/MCU_ATMEGA328P-M/PB4*%
X115392200Y-123106500D02*
X115704300Y-123418600D01*
X117070100Y-120978700D02*
X117602000Y-120446800D01*
X160934400Y-109982000D02*
X165379400Y-105537000D01*
X112979200Y-116840000D02*
X112979200Y-115627685D01*
X109531200Y-112179685D02*
X109531200Y-108566000D01*
X129895600Y-109982000D02*
X160934400Y-109982000D01*
X118516400Y-120446800D02*
X120091200Y-118872000D01*
X117602000Y-120446800D02*
X118516400Y-120446800D01*
X116433600Y-123418600D02*
X117070100Y-122782100D01*
X112979200Y-115627685D02*
X109531200Y-112179685D01*
X165379400Y-105537000D02*
X168021000Y-105537000D01*
X109042200Y-108077000D02*
X107772200Y-108077000D01*
X115704300Y-123418600D02*
X116433600Y-123418600D01*
X121005600Y-118872000D02*
X129895600Y-109982000D01*
X117070100Y-122782100D02*
X117070100Y-120978700D01*
X120091200Y-118872000D02*
X121005600Y-118872000D01*
X115392200Y-123106500D02*
X115392200Y-119253000D01*
X115392200Y-119253000D02*
X112979200Y-116840000D01*
X109531200Y-108566000D02*
X109042200Y-108077000D01*
D25*
%TO.N,/Digital_Timer_Switch_Power/AC_OUT*%
X181305200Y-109093000D02*
X181305200Y-113864000D01*
X181305200Y-113864000D02*
X178892200Y-116277000D01*
D28*
%TO.N,/MCU_ATMEGA328P-M/PC0*%
X145402300Y-87439500D02*
X145402300Y-69977000D01*
X118033800Y-113030000D02*
X120726200Y-110337600D01*
X120726200Y-110337600D02*
X122504200Y-110337600D01*
X122504200Y-110337600D02*
X145402300Y-87439500D01*
X118033800Y-116874000D02*
X118033800Y-113030000D01*
X117060200Y-117847600D02*
X118033800Y-116874000D01*
%TO.N,/MCU_ATMEGA328P-M/PC1*%
X121361200Y-96012000D02*
X142862300Y-74510900D01*
X142862300Y-74510900D02*
X142862300Y-69977000D01*
X117170200Y-116713000D02*
X117271800Y-116611400D01*
X117271800Y-112864900D02*
X121361200Y-108775500D01*
X121361200Y-108775500D02*
X121361200Y-96012000D01*
X117271800Y-116611400D02*
X117271800Y-112864900D01*
D27*
%TO.N,/MCU_ATMEGA328P-M/PB5*%
X116320072Y-122495977D02*
X116320072Y-120738128D01*
X116320072Y-119699000D02*
X118375200Y-119699000D01*
X113473200Y-115556000D02*
X109931200Y-112014000D01*
X109931200Y-112014000D02*
X109931200Y-105918000D01*
X113473200Y-116572000D02*
X113473200Y-115556000D01*
X116320072Y-120738128D02*
X116320072Y-119418872D01*
X118375200Y-119699000D02*
X127000000Y-111074200D01*
X116320072Y-119418872D02*
X113473200Y-116572000D01*
X109931200Y-105918000D02*
X109550200Y-105537000D01*
X109550200Y-105537000D02*
X107772200Y-105537000D01*
D28*
%TO.N,/MCU_ATMEGA328P-M/PC2*%
X116509800Y-115849400D02*
X116509800Y-110515400D01*
X119188400Y-94628800D02*
X140322300Y-73494900D01*
X140322300Y-73494900D02*
X140322300Y-69977000D01*
X116509800Y-110515400D02*
X119188400Y-107836800D01*
X119188400Y-107836800D02*
X119188400Y-94628800D01*
X115900200Y-116459000D02*
X116509800Y-115849400D01*
%TO.N,/MCU_ATMEGA328P-M/PC3*%
X115951000Y-110490000D02*
X115951000Y-93675200D01*
X114223800Y-112217200D02*
X115951000Y-110490000D01*
X114223800Y-112953800D02*
X114223800Y-112217200D01*
X115265200Y-113995200D02*
X114223800Y-112953800D01*
X115265200Y-115443000D02*
X115265200Y-113995200D01*
X115951000Y-93675200D02*
X137782300Y-71843900D01*
X137782300Y-71843900D02*
X137782300Y-69977000D01*
%TO.N,/MCU_ATMEGA328P-M/PC4*%
X114173200Y-115497000D02*
X114173200Y-113970000D01*
X114503200Y-90043000D02*
X125082300Y-79463900D01*
X125082300Y-79463900D02*
X125082300Y-69977000D01*
X114173200Y-113970000D02*
X113131600Y-112928400D01*
X113131600Y-112928400D02*
X113131600Y-111785400D01*
X114503200Y-110413800D02*
X114503200Y-90043000D01*
X113131600Y-111785400D02*
X114503200Y-110413800D01*
%TO.N,/MCU_ATMEGA328P-M/PC5*%
X120002300Y-75907900D02*
X120002300Y-69977000D01*
X110947200Y-112014000D02*
X110947200Y-84963000D01*
X110947200Y-84963000D02*
X120002300Y-75907900D01*
X113233200Y-114300000D02*
X110947200Y-112014000D01*
%TD*%
%TA.AperFunction,Conductor*%
%TO.N,GND*%
G36*
X120297262Y-122538704D02*
G01*
X120341684Y-122578058D01*
X120362717Y-122608530D01*
X120368327Y-122613500D01*
X120368329Y-122613502D01*
X120434327Y-122671970D01*
X120480960Y-122713283D01*
X120620835Y-122786696D01*
X120774215Y-122824500D01*
X120924685Y-122824500D01*
X120932185Y-122824500D01*
X121085565Y-122786696D01*
X121225440Y-122713283D01*
X121238673Y-122701559D01*
X121288326Y-122674731D01*
X121344725Y-122672686D01*
X121396189Y-122695849D01*
X121432057Y-122739421D01*
X121444900Y-122794376D01*
X121444900Y-124851500D01*
X121428287Y-124913500D01*
X121382900Y-124958887D01*
X121320900Y-124975500D01*
X119589043Y-124975500D01*
X119545071Y-124967442D01*
X119506817Y-124944316D01*
X119498240Y-124936717D01*
X119423868Y-124897683D01*
X119365006Y-124866789D01*
X119365002Y-124866787D01*
X119358365Y-124863304D01*
X119351087Y-124861510D01*
X119351084Y-124861509D01*
X119212267Y-124827294D01*
X119212260Y-124827293D01*
X119204985Y-124825500D01*
X119047015Y-124825500D01*
X119039740Y-124827292D01*
X119039732Y-124827294D01*
X118900915Y-124861509D01*
X118900909Y-124861510D01*
X118893635Y-124863304D01*
X118887000Y-124866786D01*
X118886993Y-124866789D01*
X118760403Y-124933230D01*
X118760400Y-124933231D01*
X118753760Y-124936717D01*
X118745182Y-124944316D01*
X118706929Y-124967442D01*
X118662957Y-124975500D01*
X117144944Y-124975500D01*
X117088649Y-124961985D01*
X117044626Y-124924385D01*
X117022471Y-124870898D01*
X117027013Y-124813182D01*
X117057263Y-124763819D01*
X119260263Y-122560819D01*
X119300491Y-122533939D01*
X119347944Y-122524500D01*
X120239636Y-122524500D01*
X120297262Y-122538704D01*
G37*
%TD.AperFunction*%
%TA.AperFunction,Conductor*%
G36*
X106859926Y-109968792D02*
G01*
X106899237Y-110013501D01*
X106913180Y-110071379D01*
X106898541Y-110129084D01*
X106873847Y-110175284D01*
X106843386Y-110232273D01*
X106841619Y-110238096D01*
X106841618Y-110238100D01*
X106787944Y-110415037D01*
X106787942Y-110415044D01*
X106786176Y-110420868D01*
X106785579Y-110426924D01*
X106785578Y-110426932D01*
X106768228Y-110603099D01*
X106766859Y-110617000D01*
X106767456Y-110623062D01*
X106785578Y-110807067D01*
X106785579Y-110807073D01*
X106786176Y-110813132D01*
X106787943Y-110818957D01*
X106787944Y-110818962D01*
X106805279Y-110876106D01*
X106843386Y-111001727D01*
X106846255Y-111007095D01*
X106846257Y-111007099D01*
X106933415Y-111170161D01*
X106933419Y-111170167D01*
X106936290Y-111175538D01*
X106940156Y-111180249D01*
X106940157Y-111180250D01*
X107010893Y-111266442D01*
X107061317Y-111327883D01*
X107213662Y-111452910D01*
X107219034Y-111455781D01*
X107219038Y-111455784D01*
X107356153Y-111529073D01*
X107404058Y-111574682D01*
X107421700Y-111638431D01*
X107421700Y-112574388D01*
X107419333Y-112597205D01*
X107419264Y-112598864D01*
X107417157Y-112608915D01*
X107418427Y-112619104D01*
X107418427Y-112619109D01*
X107420852Y-112638556D01*
X107421380Y-112643655D01*
X107421700Y-112647517D01*
X107421700Y-112652640D01*
X107422543Y-112657691D01*
X107424866Y-112671616D01*
X107425603Y-112676677D01*
X107427417Y-112691231D01*
X107431627Y-112724993D01*
X107434886Y-112731660D01*
X107436108Y-112738981D01*
X107440996Y-112748013D01*
X107440997Y-112748016D01*
X107459281Y-112781802D01*
X107461621Y-112786347D01*
X107483002Y-112830084D01*
X107488250Y-112835332D01*
X107491782Y-112841858D01*
X107499338Y-112848814D01*
X107499339Y-112848815D01*
X107527599Y-112874830D01*
X107531297Y-112878379D01*
X108175362Y-113522444D01*
X108189823Y-113540251D01*
X108190944Y-113541469D01*
X108196563Y-113550069D01*
X108220143Y-113568422D01*
X108224110Y-113571644D01*
X108227064Y-113574146D01*
X108230694Y-113577776D01*
X108246374Y-113588971D01*
X108250465Y-113592023D01*
X108280762Y-113615604D01*
X108280765Y-113615605D01*
X108288874Y-113621917D01*
X108295892Y-113624326D01*
X108301934Y-113628640D01*
X108348593Y-113642531D01*
X108353423Y-113644077D01*
X108399512Y-113659900D01*
X108406935Y-113659900D01*
X108414046Y-113662017D01*
X108462678Y-113660006D01*
X108467802Y-113659900D01*
X109820714Y-113659900D01*
X109868167Y-113669339D01*
X109908395Y-113696219D01*
X111423981Y-115211805D01*
X111450861Y-115252033D01*
X111460300Y-115299486D01*
X111460300Y-115598930D01*
X111446045Y-115656654D01*
X111406558Y-115701105D01*
X111350917Y-115722065D01*
X111307225Y-115716622D01*
X111306565Y-115719304D01*
X111160467Y-115683294D01*
X111160460Y-115683293D01*
X111153185Y-115681500D01*
X110995215Y-115681500D01*
X110987940Y-115683292D01*
X110987932Y-115683294D01*
X110849115Y-115717509D01*
X110849109Y-115717510D01*
X110841835Y-115719304D01*
X110835200Y-115722786D01*
X110835193Y-115722789D01*
X110708603Y-115789230D01*
X110708600Y-115789231D01*
X110701960Y-115792717D01*
X110693382Y-115800316D01*
X110655129Y-115823442D01*
X110611157Y-115831500D01*
X104982876Y-115831500D01*
X104935423Y-115822061D01*
X104895195Y-115795181D01*
X104727619Y-115627605D01*
X104700739Y-115587377D01*
X104691300Y-115539924D01*
X104691300Y-111917076D01*
X104700739Y-111869623D01*
X104727619Y-111829395D01*
X104823761Y-111733253D01*
X104921248Y-111635764D01*
X104972935Y-111604785D01*
X105032267Y-111601871D01*
X105036068Y-111603024D01*
X105232200Y-111622341D01*
X105428332Y-111603024D01*
X105616927Y-111545814D01*
X105790738Y-111452910D01*
X105943083Y-111327883D01*
X106068110Y-111175538D01*
X106161014Y-111001727D01*
X106218224Y-110813132D01*
X106237541Y-110617000D01*
X106218224Y-110420868D01*
X106161014Y-110232273D01*
X106128520Y-110171481D01*
X106105859Y-110129085D01*
X106091219Y-110071380D01*
X106105162Y-110013502D01*
X106144472Y-109968793D01*
X106200089Y-109947558D01*
X106259194Y-109954692D01*
X106263184Y-109956205D01*
X106269835Y-109959696D01*
X106423215Y-109997500D01*
X106573685Y-109997500D01*
X106581185Y-109997500D01*
X106734565Y-109959696D01*
X106741214Y-109956206D01*
X106745204Y-109954693D01*
X106804308Y-109947558D01*
X106859926Y-109968792D01*
G37*
%TD.AperFunction*%
%TA.AperFunction,Conductor*%
G36*
X116083185Y-111036781D02*
G01*
X116120785Y-111080804D01*
X116134300Y-111137099D01*
X116134300Y-115223545D01*
X116115634Y-115288972D01*
X116065256Y-115334702D01*
X115998332Y-115346966D01*
X115935012Y-115322073D01*
X115894358Y-115267516D01*
X115848081Y-115145494D01*
X115845420Y-115138477D01*
X115755683Y-115008470D01*
X115682473Y-114943612D01*
X115651624Y-114901687D01*
X115640700Y-114850796D01*
X115640700Y-114047005D01*
X115643340Y-114021556D01*
X115643458Y-114020990D01*
X115643458Y-114020989D01*
X115645567Y-114010932D01*
X115641651Y-113979523D01*
X115641328Y-113974313D01*
X115641124Y-113974330D01*
X115640700Y-113969218D01*
X115640700Y-113964086D01*
X115637274Y-113943562D01*
X115636541Y-113938526D01*
X115631337Y-113896772D01*
X115630066Y-113886574D01*
X115626573Y-113879429D01*
X115625265Y-113871590D01*
X115600358Y-113825566D01*
X115598037Y-113821059D01*
X115575026Y-113773989D01*
X115569402Y-113768365D01*
X115565619Y-113761374D01*
X115558058Y-113754414D01*
X115558057Y-113754412D01*
X115527117Y-113725930D01*
X115523419Y-113722382D01*
X114635619Y-112834581D01*
X114608739Y-112794353D01*
X114599300Y-112746900D01*
X114599300Y-112424099D01*
X114608739Y-112376646D01*
X114635619Y-112336418D01*
X115922619Y-111049418D01*
X115971982Y-111019168D01*
X116029698Y-111014626D01*
X116083185Y-111036781D01*
G37*
%TD.AperFunction*%
%TA.AperFunction,Conductor*%
G36*
X111500882Y-107365080D02*
G01*
X111548134Y-107405292D01*
X111569990Y-107463363D01*
X111574279Y-107503268D01*
X111574280Y-107503273D01*
X111575109Y-107510983D01*
X111577819Y-107518249D01*
X111577820Y-107518253D01*
X111596442Y-107568180D01*
X111625404Y-107645831D01*
X111630718Y-107652930D01*
X111630719Y-107652931D01*
X111698794Y-107743868D01*
X111711654Y-107761046D01*
X111826869Y-107847296D01*
X111961717Y-107897591D01*
X112021327Y-107904000D01*
X113617072Y-107903999D01*
X113676683Y-107897591D01*
X113811531Y-107847296D01*
X113926746Y-107761046D01*
X113927961Y-107762670D01*
X113965382Y-107739739D01*
X114023098Y-107735197D01*
X114076585Y-107757352D01*
X114114185Y-107801375D01*
X114127700Y-107857670D01*
X114127700Y-108646114D01*
X114112248Y-108706058D01*
X114069743Y-108751063D01*
X114010779Y-108769912D01*
X113950050Y-108757907D01*
X113902693Y-108718041D01*
X113807736Y-108584693D01*
X113800027Y-108575796D01*
X113656541Y-108438982D01*
X113647300Y-108431715D01*
X113480514Y-108324528D01*
X113470056Y-108319136D01*
X113285998Y-108245450D01*
X113274715Y-108242137D01*
X113080803Y-108204765D01*
X113072650Y-108206950D01*
X113069200Y-108219826D01*
X113069200Y-110381627D01*
X113072960Y-110394819D01*
X113086446Y-110397308D01*
X113172442Y-110389096D01*
X113183993Y-110386869D01*
X113374226Y-110331012D01*
X113385132Y-110326646D01*
X113561359Y-110235795D01*
X113571255Y-110229435D01*
X113727094Y-110106882D01*
X113735608Y-110098764D01*
X113865443Y-109948927D01*
X113872262Y-109939350D01*
X113896313Y-109897694D01*
X113941700Y-109852307D01*
X114003700Y-109835694D01*
X114065700Y-109852307D01*
X114111087Y-109897694D01*
X114127700Y-109959694D01*
X114127700Y-110206900D01*
X114118261Y-110254353D01*
X114091381Y-110294581D01*
X112902707Y-111483253D01*
X112882858Y-111499373D01*
X112873764Y-111505316D01*
X112867458Y-111513417D01*
X112867452Y-111513423D01*
X112854320Y-111530295D01*
X112850873Y-111534222D01*
X112851018Y-111534345D01*
X112847705Y-111538255D01*
X112844080Y-111541882D01*
X112841105Y-111546048D01*
X112841098Y-111546057D01*
X112832001Y-111558799D01*
X112828942Y-111562901D01*
X112803100Y-111596103D01*
X112803096Y-111596110D01*
X112796791Y-111604211D01*
X112794209Y-111611731D01*
X112789590Y-111618201D01*
X112786660Y-111628041D01*
X112786658Y-111628046D01*
X112774656Y-111668357D01*
X112773095Y-111673229D01*
X112759436Y-111713019D01*
X112759435Y-111713024D01*
X112756100Y-111722740D01*
X112756100Y-111730694D01*
X112753832Y-111738312D01*
X112754256Y-111748575D01*
X112754256Y-111748579D01*
X112755994Y-111790593D01*
X112756100Y-111795716D01*
X112756100Y-112876595D01*
X112753460Y-112902044D01*
X112753341Y-112902609D01*
X112753340Y-112902616D01*
X112751233Y-112912668D01*
X112752503Y-112922858D01*
X112752503Y-112922862D01*
X112755148Y-112944076D01*
X112755471Y-112949291D01*
X112755677Y-112949274D01*
X112756100Y-112954379D01*
X112756100Y-112959514D01*
X112756945Y-112964577D01*
X112758958Y-112976644D01*
X112753591Y-113038283D01*
X112719108Y-113089656D01*
X112664096Y-113117972D01*
X112602249Y-113116181D01*
X112548967Y-113084729D01*
X111359019Y-111894781D01*
X111332139Y-111854553D01*
X111322700Y-111807100D01*
X111322700Y-109556005D01*
X111601127Y-109556005D01*
X111601260Y-109567179D01*
X111623577Y-109659170D01*
X111627425Y-109670288D01*
X111709780Y-109850621D01*
X111715668Y-109860819D01*
X111830663Y-110022306D01*
X111838372Y-110031203D01*
X111981858Y-110168017D01*
X111991099Y-110175284D01*
X112157885Y-110282471D01*
X112168343Y-110287863D01*
X112352401Y-110361549D01*
X112363684Y-110364862D01*
X112557596Y-110402234D01*
X112565749Y-110400049D01*
X112569200Y-110387174D01*
X112569200Y-109569826D01*
X112565749Y-109556950D01*
X112552874Y-109553500D01*
X111612019Y-109553500D01*
X111601127Y-109556005D01*
X111322700Y-109556005D01*
X111322700Y-109042988D01*
X111595920Y-109042988D01*
X111596506Y-109051181D01*
X111607164Y-109053500D01*
X112552874Y-109053500D01*
X112565749Y-109050049D01*
X112569200Y-109037174D01*
X112569200Y-108225373D01*
X112565439Y-108212180D01*
X112551953Y-108209691D01*
X112465957Y-108217903D01*
X112454406Y-108220130D01*
X112264173Y-108275987D01*
X112253267Y-108280353D01*
X112077040Y-108371204D01*
X112067144Y-108377564D01*
X111911305Y-108500117D01*
X111902791Y-108508235D01*
X111772956Y-108658072D01*
X111766137Y-108667649D01*
X111667008Y-108839346D01*
X111662120Y-108850049D01*
X111597275Y-109037404D01*
X111595920Y-109042988D01*
X111322700Y-109042988D01*
X111322700Y-107476616D01*
X111338223Y-107416542D01*
X111380907Y-107371510D01*
X111440064Y-107352794D01*
X111500882Y-107365080D01*
G37*
%TD.AperFunction*%
%TA.AperFunction,Conductor*%
G36*
X108893109Y-108436939D02*
G01*
X108933337Y-108463819D01*
X109144381Y-108674863D01*
X109171261Y-108715091D01*
X109180700Y-108762544D01*
X109180700Y-112130473D01*
X109178333Y-112153290D01*
X109178264Y-112154949D01*
X109176157Y-112165000D01*
X109177427Y-112175189D01*
X109177427Y-112175194D01*
X109179852Y-112194641D01*
X109180380Y-112199740D01*
X109180700Y-112203602D01*
X109180700Y-112208725D01*
X109183408Y-112224956D01*
X109183866Y-112227701D01*
X109184603Y-112232762D01*
X109190627Y-112281078D01*
X109193886Y-112287745D01*
X109195108Y-112295066D01*
X109199996Y-112304098D01*
X109199997Y-112304101D01*
X109218281Y-112337887D01*
X109220621Y-112342432D01*
X109242002Y-112386169D01*
X109247250Y-112391417D01*
X109250782Y-112397943D01*
X109258338Y-112404899D01*
X109258339Y-112404900D01*
X109286599Y-112430915D01*
X109290297Y-112434464D01*
X109603052Y-112747219D01*
X109633302Y-112796582D01*
X109637844Y-112854298D01*
X109615689Y-112907785D01*
X109571666Y-112945385D01*
X109515371Y-112958900D01*
X108654543Y-112958900D01*
X108607090Y-112949461D01*
X108566862Y-112922581D01*
X108159019Y-112514737D01*
X108132139Y-112474509D01*
X108122700Y-112427056D01*
X108122700Y-111638431D01*
X108140342Y-111574682D01*
X108188247Y-111529073D01*
X108212812Y-111515943D01*
X108330738Y-111452910D01*
X108483083Y-111327883D01*
X108608110Y-111175538D01*
X108701014Y-111001727D01*
X108758224Y-110813132D01*
X108777541Y-110617000D01*
X108758224Y-110420868D01*
X108701014Y-110232273D01*
X108668520Y-110171481D01*
X108610984Y-110063838D01*
X108610981Y-110063834D01*
X108608110Y-110058462D01*
X108483083Y-109906117D01*
X108330738Y-109781090D01*
X108325367Y-109778219D01*
X108325361Y-109778215D01*
X108162299Y-109691057D01*
X108162295Y-109691055D01*
X108156927Y-109688186D01*
X108101661Y-109671421D01*
X107974162Y-109632744D01*
X107974157Y-109632743D01*
X107968332Y-109630976D01*
X107962273Y-109630379D01*
X107962267Y-109630378D01*
X107778262Y-109612256D01*
X107772200Y-109611659D01*
X107766138Y-109612256D01*
X107582132Y-109630378D01*
X107582124Y-109630379D01*
X107576068Y-109630976D01*
X107570244Y-109632742D01*
X107570237Y-109632744D01*
X107393300Y-109686418D01*
X107393296Y-109686419D01*
X107387473Y-109688186D01*
X107382107Y-109691053D01*
X107382100Y-109691057D01*
X107279089Y-109746118D01*
X107221385Y-109760758D01*
X107163508Y-109746816D01*
X107118799Y-109707507D01*
X107097563Y-109651892D01*
X107104693Y-109592792D01*
X107138437Y-109503818D01*
X107157478Y-109347000D01*
X107138437Y-109190182D01*
X107104693Y-109101208D01*
X107097563Y-109042107D01*
X107118799Y-108986491D01*
X107163509Y-108947182D01*
X107221385Y-108933241D01*
X107279086Y-108947880D01*
X107387473Y-109005814D01*
X107576068Y-109063024D01*
X107772200Y-109082341D01*
X107968332Y-109063024D01*
X108156927Y-109005814D01*
X108330738Y-108912910D01*
X108483083Y-108787883D01*
X108608110Y-108635538D01*
X108684273Y-108493046D01*
X108729882Y-108445142D01*
X108793631Y-108427500D01*
X108845656Y-108427500D01*
X108893109Y-108436939D01*
G37*
%TD.AperFunction*%
%TA.AperFunction,Conductor*%
G36*
X136570964Y-70375244D02*
G01*
X136615667Y-70415996D01*
X136635771Y-70473048D01*
X136646006Y-70583510D01*
X136646544Y-70589310D01*
X136648112Y-70594821D01*
X136648114Y-70594831D01*
X136703324Y-70788870D01*
X136703326Y-70788876D01*
X136704895Y-70794389D01*
X136707453Y-70799526D01*
X136792080Y-70969483D01*
X136799934Y-70985255D01*
X136928428Y-71155407D01*
X137085998Y-71299052D01*
X137090863Y-71302064D01*
X137090864Y-71302065D01*
X137171579Y-71352042D01*
X137267281Y-71411298D01*
X137326136Y-71434098D01*
X137327594Y-71434663D01*
X137369121Y-71461269D01*
X137396992Y-71501957D01*
X137406800Y-71550290D01*
X137406800Y-71637001D01*
X137397361Y-71684454D01*
X137370481Y-71724682D01*
X115722107Y-93373053D01*
X115702258Y-93389173D01*
X115693164Y-93395116D01*
X115686858Y-93403217D01*
X115686852Y-93403223D01*
X115673720Y-93420095D01*
X115670273Y-93424022D01*
X115670418Y-93424145D01*
X115667105Y-93428055D01*
X115663480Y-93431682D01*
X115660505Y-93435848D01*
X115660498Y-93435857D01*
X115651401Y-93448599D01*
X115648342Y-93452701D01*
X115622500Y-93485903D01*
X115622496Y-93485910D01*
X115616191Y-93494011D01*
X115613609Y-93501531D01*
X115608990Y-93508001D01*
X115606060Y-93517841D01*
X115606058Y-93517846D01*
X115594056Y-93558157D01*
X115592495Y-93563029D01*
X115578836Y-93602819D01*
X115578835Y-93602824D01*
X115575500Y-93612540D01*
X115575500Y-93620494D01*
X115573232Y-93628112D01*
X115573656Y-93638375D01*
X115573656Y-93638379D01*
X115575394Y-93680393D01*
X115575500Y-93685516D01*
X115575500Y-110283101D01*
X115566061Y-110330554D01*
X115539181Y-110370782D01*
X113994907Y-111915053D01*
X113975058Y-111931173D01*
X113965964Y-111937116D01*
X113959658Y-111945217D01*
X113959652Y-111945223D01*
X113946520Y-111962095D01*
X113943073Y-111966022D01*
X113943218Y-111966145D01*
X113939905Y-111970055D01*
X113936280Y-111973682D01*
X113933305Y-111977848D01*
X113933298Y-111977857D01*
X113924201Y-111990599D01*
X113921142Y-111994701D01*
X113895300Y-112027903D01*
X113895296Y-112027910D01*
X113888991Y-112036011D01*
X113886409Y-112043531D01*
X113881790Y-112050001D01*
X113878860Y-112059841D01*
X113878858Y-112059846D01*
X113866856Y-112100157D01*
X113865295Y-112105029D01*
X113851636Y-112144819D01*
X113851635Y-112144824D01*
X113848300Y-112154540D01*
X113848300Y-112162494D01*
X113846032Y-112170112D01*
X113846456Y-112180375D01*
X113846456Y-112180379D01*
X113848194Y-112222393D01*
X113848300Y-112227516D01*
X113848300Y-112814700D01*
X113834785Y-112870995D01*
X113797185Y-112915018D01*
X113743698Y-112937173D01*
X113685982Y-112932631D01*
X113636619Y-112902381D01*
X113543419Y-112809181D01*
X113516539Y-112768953D01*
X113507100Y-112721500D01*
X113507100Y-111992299D01*
X113516539Y-111944846D01*
X113543419Y-111904618D01*
X113839530Y-111608507D01*
X114732089Y-110715946D01*
X114751947Y-110699821D01*
X114761036Y-110693884D01*
X114780479Y-110668902D01*
X114783942Y-110665009D01*
X114783771Y-110664864D01*
X114787083Y-110660953D01*
X114790719Y-110657318D01*
X114802814Y-110640376D01*
X114805821Y-110636342D01*
X114838009Y-110594989D01*
X114840590Y-110587468D01*
X114845210Y-110580999D01*
X114860159Y-110530783D01*
X114861681Y-110526032D01*
X114878700Y-110476460D01*
X114878700Y-110468507D01*
X114880968Y-110460889D01*
X114878806Y-110408608D01*
X114878700Y-110403485D01*
X114878700Y-90249899D01*
X114888139Y-90202446D01*
X114915019Y-90162218D01*
X117480395Y-87596842D01*
X125311189Y-79766046D01*
X125331047Y-79749921D01*
X125340136Y-79743984D01*
X125359579Y-79719002D01*
X125363046Y-79715105D01*
X125362874Y-79714960D01*
X125366181Y-79711054D01*
X125369820Y-79707417D01*
X125381897Y-79690500D01*
X125384963Y-79686389D01*
X125417109Y-79645089D01*
X125419690Y-79637568D01*
X125424310Y-79631099D01*
X125439255Y-79580895D01*
X125440779Y-79576138D01*
X125457800Y-79526560D01*
X125457800Y-79518606D01*
X125460068Y-79510988D01*
X125457906Y-79458707D01*
X125457800Y-79453584D01*
X125457800Y-71550290D01*
X125467608Y-71501957D01*
X125495479Y-71461269D01*
X125537006Y-71434663D01*
X125538086Y-71434244D01*
X125597319Y-71411298D01*
X125778602Y-71299052D01*
X125936172Y-71155407D01*
X126064666Y-70985255D01*
X126159705Y-70794389D01*
X126218056Y-70589310D01*
X126228829Y-70473047D01*
X126248933Y-70415996D01*
X126293636Y-70375244D01*
X126352300Y-70360489D01*
X126410964Y-70375244D01*
X126455667Y-70415996D01*
X126475771Y-70473048D01*
X126486006Y-70583510D01*
X126486544Y-70589310D01*
X126488112Y-70594821D01*
X126488114Y-70594831D01*
X126543324Y-70788870D01*
X126543326Y-70788876D01*
X126544895Y-70794389D01*
X126547453Y-70799526D01*
X126632080Y-70969483D01*
X126639934Y-70985255D01*
X126768428Y-71155407D01*
X126925998Y-71299052D01*
X127107281Y-71411298D01*
X127306102Y-71488321D01*
X127515690Y-71527500D01*
X127723181Y-71527500D01*
X127728910Y-71527500D01*
X127938498Y-71488321D01*
X128137319Y-71411298D01*
X128318602Y-71299052D01*
X128476172Y-71155407D01*
X128604666Y-70985255D01*
X128699705Y-70794389D01*
X128758056Y-70589310D01*
X128768829Y-70473047D01*
X128788933Y-70415996D01*
X128833636Y-70375244D01*
X128892300Y-70360489D01*
X128950964Y-70375244D01*
X128995667Y-70415996D01*
X129015771Y-70473048D01*
X129026006Y-70583510D01*
X129026544Y-70589310D01*
X129028112Y-70594821D01*
X129028114Y-70594831D01*
X129083324Y-70788870D01*
X129083326Y-70788876D01*
X129084895Y-70794389D01*
X129087453Y-70799526D01*
X129172080Y-70969483D01*
X129179934Y-70985255D01*
X129308428Y-71155407D01*
X129465998Y-71299052D01*
X129647281Y-71411298D01*
X129846102Y-71488321D01*
X130055690Y-71527500D01*
X130263181Y-71527500D01*
X130268910Y-71527500D01*
X130478498Y-71488321D01*
X130677319Y-71411298D01*
X130858602Y-71299052D01*
X131016172Y-71155407D01*
X131144666Y-70985255D01*
X131239705Y-70794389D01*
X131298056Y-70589310D01*
X131308829Y-70473047D01*
X131328933Y-70415996D01*
X131373636Y-70375244D01*
X131432300Y-70360489D01*
X131490964Y-70375244D01*
X131535667Y-70415996D01*
X131555771Y-70473048D01*
X131566006Y-70583510D01*
X131566544Y-70589310D01*
X131568112Y-70594821D01*
X131568114Y-70594831D01*
X131623324Y-70788870D01*
X131623326Y-70788876D01*
X131624895Y-70794389D01*
X131627453Y-70799526D01*
X131712080Y-70969483D01*
X131719934Y-70985255D01*
X131848428Y-71155407D01*
X132005998Y-71299052D01*
X132187281Y-71411298D01*
X132386102Y-71488321D01*
X132595690Y-71527500D01*
X132803181Y-71527500D01*
X132808910Y-71527500D01*
X133018498Y-71488321D01*
X133217319Y-71411298D01*
X133398602Y-71299052D01*
X133556172Y-71155407D01*
X133684666Y-70985255D01*
X133779705Y-70794389D01*
X133838056Y-70589310D01*
X133848829Y-70473047D01*
X133868933Y-70415996D01*
X133913636Y-70375244D01*
X133972300Y-70360489D01*
X134030964Y-70375244D01*
X134075667Y-70415996D01*
X134095771Y-70473048D01*
X134106006Y-70583510D01*
X134106544Y-70589310D01*
X134108112Y-70594821D01*
X134108114Y-70594831D01*
X134163324Y-70788870D01*
X134163326Y-70788876D01*
X134164895Y-70794389D01*
X134167453Y-70799526D01*
X134252080Y-70969483D01*
X134259934Y-70985255D01*
X134388428Y-71155407D01*
X134545998Y-71299052D01*
X134727281Y-71411298D01*
X134926102Y-71488321D01*
X135135690Y-71527500D01*
X135343181Y-71527500D01*
X135348910Y-71527500D01*
X135558498Y-71488321D01*
X135757319Y-71411298D01*
X135938602Y-71299052D01*
X136096172Y-71155407D01*
X136224666Y-70985255D01*
X136319705Y-70794389D01*
X136378056Y-70589310D01*
X136388829Y-70473047D01*
X136408933Y-70415996D01*
X136453636Y-70375244D01*
X136512300Y-70360489D01*
X136570964Y-70375244D01*
G37*
%TD.AperFunction*%
%TA.AperFunction,Conductor*%
G36*
X141650964Y-70375244D02*
G01*
X141695667Y-70415996D01*
X141715771Y-70473048D01*
X141726006Y-70583510D01*
X141726544Y-70589310D01*
X141728112Y-70594821D01*
X141728114Y-70594831D01*
X141783324Y-70788870D01*
X141783326Y-70788876D01*
X141784895Y-70794389D01*
X141787453Y-70799526D01*
X141872080Y-70969483D01*
X141879934Y-70985255D01*
X142008428Y-71155407D01*
X142165998Y-71299052D01*
X142170863Y-71302064D01*
X142170864Y-71302065D01*
X142251579Y-71352042D01*
X142347281Y-71411298D01*
X142406136Y-71434098D01*
X142407594Y-71434663D01*
X142449121Y-71461269D01*
X142476992Y-71501957D01*
X142486800Y-71550290D01*
X142486800Y-74304001D01*
X142477361Y-74351454D01*
X142450481Y-74391682D01*
X121132307Y-95709853D01*
X121112458Y-95725973D01*
X121103364Y-95731916D01*
X121097058Y-95740017D01*
X121097052Y-95740023D01*
X121083920Y-95756895D01*
X121080473Y-95760822D01*
X121080618Y-95760945D01*
X121077305Y-95764855D01*
X121073680Y-95768482D01*
X121070705Y-95772648D01*
X121070698Y-95772657D01*
X121061601Y-95785399D01*
X121058542Y-95789501D01*
X121032700Y-95822703D01*
X121032696Y-95822710D01*
X121026391Y-95830811D01*
X121023809Y-95838331D01*
X121019190Y-95844801D01*
X121016260Y-95854641D01*
X121016258Y-95854646D01*
X121004256Y-95894957D01*
X121002695Y-95899829D01*
X120989036Y-95939619D01*
X120989035Y-95939624D01*
X120985700Y-95949340D01*
X120985700Y-95957294D01*
X120983432Y-95964912D01*
X120983856Y-95975175D01*
X120983856Y-95975179D01*
X120985594Y-96017193D01*
X120985700Y-96022316D01*
X120985700Y-108568601D01*
X120976261Y-108616054D01*
X120949381Y-108656281D01*
X119983601Y-109622061D01*
X117096981Y-112508680D01*
X117047618Y-112538930D01*
X116989902Y-112543472D01*
X116936415Y-112521317D01*
X116898815Y-112477294D01*
X116885300Y-112420999D01*
X116885300Y-110722299D01*
X116894739Y-110674846D01*
X116921619Y-110634618D01*
X117542736Y-110013501D01*
X119417289Y-108138946D01*
X119437147Y-108122821D01*
X119446236Y-108116884D01*
X119465679Y-108091902D01*
X119469142Y-108088009D01*
X119468971Y-108087864D01*
X119472283Y-108083953D01*
X119475919Y-108080318D01*
X119488014Y-108063376D01*
X119491021Y-108059342D01*
X119523209Y-108017989D01*
X119525790Y-108010468D01*
X119530410Y-108003999D01*
X119545361Y-107953779D01*
X119546881Y-107949032D01*
X119563900Y-107899460D01*
X119563900Y-107891507D01*
X119566168Y-107883889D01*
X119564006Y-107831608D01*
X119563900Y-107826485D01*
X119563900Y-94835699D01*
X119573339Y-94788246D01*
X119600219Y-94748018D01*
X129687384Y-84660853D01*
X140551193Y-73797043D01*
X140571048Y-73780920D01*
X140580136Y-73774984D01*
X140599571Y-73750011D01*
X140603044Y-73746108D01*
X140602873Y-73745963D01*
X140606185Y-73742052D01*
X140609820Y-73738418D01*
X140621908Y-73721485D01*
X140624947Y-73717408D01*
X140657109Y-73676089D01*
X140659690Y-73668568D01*
X140664310Y-73662099D01*
X140679255Y-73611895D01*
X140680779Y-73607138D01*
X140697800Y-73557560D01*
X140697800Y-73549606D01*
X140700068Y-73541988D01*
X140697906Y-73489707D01*
X140697800Y-73484584D01*
X140697800Y-71550290D01*
X140707608Y-71501957D01*
X140735479Y-71461269D01*
X140777006Y-71434663D01*
X140778086Y-71434244D01*
X140837319Y-71411298D01*
X141018602Y-71299052D01*
X141176172Y-71155407D01*
X141304666Y-70985255D01*
X141399705Y-70794389D01*
X141458056Y-70589310D01*
X141468829Y-70473047D01*
X141488933Y-70415996D01*
X141533636Y-70375244D01*
X141592300Y-70360489D01*
X141650964Y-70375244D01*
G37*
%TD.AperFunction*%
%TA.AperFunction,Conductor*%
G36*
X139110964Y-70375244D02*
G01*
X139155667Y-70415996D01*
X139175771Y-70473048D01*
X139186006Y-70583510D01*
X139186544Y-70589310D01*
X139188112Y-70594821D01*
X139188114Y-70594831D01*
X139243324Y-70788870D01*
X139243326Y-70788876D01*
X139244895Y-70794389D01*
X139247453Y-70799526D01*
X139332080Y-70969483D01*
X139339934Y-70985255D01*
X139468428Y-71155407D01*
X139625998Y-71299052D01*
X139630863Y-71302064D01*
X139630864Y-71302065D01*
X139711579Y-71352042D01*
X139807281Y-71411298D01*
X139866136Y-71434098D01*
X139867594Y-71434663D01*
X139909121Y-71461269D01*
X139936992Y-71501957D01*
X139946800Y-71550290D01*
X139946800Y-73288001D01*
X139937361Y-73335454D01*
X139910481Y-73375682D01*
X118959507Y-94326653D01*
X118939658Y-94342773D01*
X118930564Y-94348716D01*
X118924258Y-94356817D01*
X118924252Y-94356823D01*
X118911120Y-94373695D01*
X118907673Y-94377622D01*
X118907818Y-94377745D01*
X118904505Y-94381655D01*
X118900880Y-94385282D01*
X118897905Y-94389448D01*
X118897898Y-94389457D01*
X118888801Y-94402199D01*
X118885742Y-94406301D01*
X118859900Y-94439503D01*
X118859896Y-94439510D01*
X118853591Y-94447611D01*
X118851009Y-94455131D01*
X118846390Y-94461601D01*
X118843460Y-94471441D01*
X118843458Y-94471446D01*
X118831456Y-94511757D01*
X118829895Y-94516629D01*
X118816236Y-94556419D01*
X118816235Y-94556424D01*
X118812900Y-94566140D01*
X118812900Y-94574094D01*
X118810632Y-94581712D01*
X118811056Y-94591975D01*
X118811056Y-94591979D01*
X118812794Y-94633993D01*
X118812900Y-94639116D01*
X118812900Y-107629900D01*
X118803461Y-107677353D01*
X118776581Y-107717581D01*
X116538181Y-109955981D01*
X116488818Y-109986231D01*
X116431102Y-109990773D01*
X116377615Y-109968618D01*
X116340015Y-109924595D01*
X116326500Y-109868300D01*
X116326500Y-93882099D01*
X116335939Y-93834646D01*
X116362819Y-93794418D01*
X120416384Y-89740853D01*
X138011189Y-72146046D01*
X138031047Y-72129921D01*
X138040136Y-72123984D01*
X138059579Y-72099002D01*
X138063046Y-72095105D01*
X138062874Y-72094960D01*
X138066181Y-72091054D01*
X138069820Y-72087417D01*
X138081897Y-72070500D01*
X138084963Y-72066389D01*
X138117109Y-72025089D01*
X138119690Y-72017568D01*
X138124310Y-72011099D01*
X138139241Y-71960945D01*
X138140791Y-71956101D01*
X138157800Y-71906560D01*
X138157800Y-71898609D01*
X138160069Y-71890988D01*
X138157905Y-71838693D01*
X138157800Y-71833569D01*
X138157800Y-71550290D01*
X138167608Y-71501957D01*
X138195479Y-71461269D01*
X138237006Y-71434663D01*
X138238086Y-71434244D01*
X138297319Y-71411298D01*
X138478602Y-71299052D01*
X138636172Y-71155407D01*
X138764666Y-70985255D01*
X138859705Y-70794389D01*
X138918056Y-70589310D01*
X138928829Y-70473047D01*
X138948933Y-70415996D01*
X138993636Y-70375244D01*
X139052300Y-70360489D01*
X139110964Y-70375244D01*
G37*
%TD.AperFunction*%
%TA.AperFunction,Conductor*%
G36*
X144190964Y-70375244D02*
G01*
X144235667Y-70415996D01*
X144255771Y-70473048D01*
X144266006Y-70583510D01*
X144266544Y-70589310D01*
X144268112Y-70594821D01*
X144268114Y-70594831D01*
X144323324Y-70788870D01*
X144323326Y-70788876D01*
X144324895Y-70794389D01*
X144327453Y-70799526D01*
X144412080Y-70969483D01*
X144419934Y-70985255D01*
X144548428Y-71155407D01*
X144705998Y-71299052D01*
X144710863Y-71302064D01*
X144710864Y-71302065D01*
X144791579Y-71352042D01*
X144887281Y-71411298D01*
X144946136Y-71434098D01*
X144947594Y-71434663D01*
X144989121Y-71461269D01*
X145016992Y-71501957D01*
X145026800Y-71550290D01*
X145026800Y-87232601D01*
X145017361Y-87280054D01*
X144990481Y-87320282D01*
X122384981Y-109925781D01*
X122344753Y-109952661D01*
X122297300Y-109962100D01*
X121004999Y-109962100D01*
X120948704Y-109948585D01*
X120904681Y-109910985D01*
X120882526Y-109857498D01*
X120887068Y-109799782D01*
X120917318Y-109750419D01*
X121216306Y-109451431D01*
X121590093Y-109077643D01*
X121609948Y-109061520D01*
X121619036Y-109055584D01*
X121638471Y-109030611D01*
X121641944Y-109026708D01*
X121641773Y-109026563D01*
X121645085Y-109022652D01*
X121648720Y-109019018D01*
X121660808Y-109002085D01*
X121663847Y-108998008D01*
X121696009Y-108956689D01*
X121698590Y-108949168D01*
X121703210Y-108942699D01*
X121718155Y-108892495D01*
X121719679Y-108887738D01*
X121736700Y-108838160D01*
X121736700Y-108830206D01*
X121738968Y-108822588D01*
X121736806Y-108770307D01*
X121736700Y-108765184D01*
X121736700Y-96218899D01*
X121746139Y-96171446D01*
X121773019Y-96131218D01*
X124531184Y-93373053D01*
X143091189Y-74813046D01*
X143111047Y-74796921D01*
X143120136Y-74790984D01*
X143139579Y-74766002D01*
X143143042Y-74762109D01*
X143142871Y-74761964D01*
X143146183Y-74758053D01*
X143149819Y-74754418D01*
X143161914Y-74737476D01*
X143164921Y-74733442D01*
X143197109Y-74692089D01*
X143199690Y-74684568D01*
X143204310Y-74678099D01*
X143219259Y-74627883D01*
X143220781Y-74623132D01*
X143237800Y-74573560D01*
X143237800Y-74565607D01*
X143240068Y-74557989D01*
X143237906Y-74505708D01*
X143237800Y-74500585D01*
X143237800Y-71550290D01*
X143247608Y-71501957D01*
X143275479Y-71461269D01*
X143317006Y-71434663D01*
X143318086Y-71434244D01*
X143377319Y-71411298D01*
X143558602Y-71299052D01*
X143716172Y-71155407D01*
X143844666Y-70985255D01*
X143939705Y-70794389D01*
X143998056Y-70589310D01*
X144008829Y-70473047D01*
X144028933Y-70415996D01*
X144073636Y-70375244D01*
X144132300Y-70360489D01*
X144190964Y-70375244D01*
G37*
%TD.AperFunction*%
%TA.AperFunction,Conductor*%
G36*
X183086936Y-65197726D02*
G01*
X183345657Y-65213375D01*
X183360520Y-65215180D01*
X183611775Y-65261225D01*
X183626297Y-65264804D01*
X183870190Y-65340803D01*
X183884167Y-65346104D01*
X184117115Y-65450946D01*
X184130361Y-65457898D01*
X184348968Y-65590051D01*
X184361279Y-65598549D01*
X184562361Y-65756086D01*
X184573569Y-65766016D01*
X184754183Y-65946630D01*
X184764113Y-65957838D01*
X184921646Y-66158914D01*
X184930152Y-66171237D01*
X185062298Y-66389832D01*
X185069257Y-66403091D01*
X185174093Y-66636028D01*
X185179399Y-66650018D01*
X185255391Y-66893886D01*
X185258974Y-66908424D01*
X185305019Y-67159679D01*
X185306824Y-67174544D01*
X185322474Y-67433264D01*
X185322700Y-67440751D01*
X185322700Y-105413000D01*
X185306087Y-105475000D01*
X185260700Y-105520387D01*
X185198700Y-105537000D01*
X172923200Y-105537000D01*
X172923200Y-105553326D01*
X172923200Y-111763000D01*
X172906587Y-111825000D01*
X172861200Y-111870387D01*
X172799200Y-111887000D01*
X160223200Y-111887000D01*
X160223200Y-111903326D01*
X160223200Y-118113000D01*
X160206587Y-118175000D01*
X160161200Y-118220387D01*
X160099200Y-118237000D01*
X143713200Y-118237000D01*
X143713200Y-118253326D01*
X143713200Y-140672500D01*
X143696587Y-140734500D01*
X143651200Y-140779887D01*
X143589200Y-140796500D01*
X105616951Y-140796500D01*
X105609464Y-140796274D01*
X105350744Y-140780624D01*
X105335879Y-140778819D01*
X105084624Y-140732774D01*
X105070090Y-140729192D01*
X104826218Y-140653199D01*
X104812228Y-140647893D01*
X104579291Y-140543057D01*
X104566032Y-140536098D01*
X104347437Y-140403952D01*
X104335114Y-140395446D01*
X104134038Y-140237913D01*
X104122830Y-140227983D01*
X103942216Y-140047369D01*
X103932286Y-140036161D01*
X103774753Y-139835085D01*
X103766251Y-139822768D01*
X103634098Y-139604161D01*
X103627146Y-139590915D01*
X103522304Y-139357967D01*
X103517003Y-139343990D01*
X103441004Y-139100097D01*
X103437425Y-139085575D01*
X103391380Y-138834320D01*
X103389575Y-138819455D01*
X103373926Y-138560736D01*
X103373700Y-138553249D01*
X103373700Y-115762527D01*
X103686441Y-115762527D01*
X103687073Y-115771367D01*
X103687073Y-115771373D01*
X103689984Y-115812061D01*
X103690300Y-115820908D01*
X103690300Y-115834399D01*
X103690930Y-115838780D01*
X103692220Y-115847755D01*
X103693165Y-115856546D01*
X103696022Y-115896488D01*
X103696709Y-115906083D01*
X103699806Y-115914389D01*
X103701692Y-115923055D01*
X103701579Y-115923079D01*
X103701764Y-115923803D01*
X103701875Y-115923771D01*
X103704372Y-115932276D01*
X103705635Y-115941057D01*
X103709319Y-115949124D01*
X103709320Y-115949127D01*
X103726257Y-115986213D01*
X103729645Y-115994390D01*
X103743904Y-116032621D01*
X103743905Y-116032623D01*
X103747004Y-116040931D01*
X103752319Y-116048031D01*
X103756568Y-116055812D01*
X103756466Y-116055867D01*
X103756846Y-116056507D01*
X103756943Y-116056445D01*
X103761739Y-116063907D01*
X103765423Y-116071973D01*
X103797947Y-116109507D01*
X103803488Y-116116385D01*
X103811579Y-116127193D01*
X103814715Y-116130329D01*
X103814716Y-116130330D01*
X103821122Y-116136736D01*
X103827154Y-116143215D01*
X103853865Y-116174042D01*
X103853867Y-116174044D01*
X103859672Y-116180743D01*
X103867128Y-116185534D01*
X103873837Y-116191348D01*
X103873761Y-116191435D01*
X103884371Y-116199985D01*
X104322813Y-116638427D01*
X104331364Y-116649038D01*
X104331452Y-116648963D01*
X104337263Y-116655668D01*
X104342057Y-116663128D01*
X104379600Y-116695658D01*
X104386062Y-116701676D01*
X104395607Y-116711221D01*
X104403590Y-116717197D01*
X104406407Y-116719306D01*
X104413299Y-116724860D01*
X104444119Y-116751566D01*
X104444125Y-116751570D01*
X104450827Y-116757377D01*
X104458894Y-116761061D01*
X104466354Y-116765855D01*
X104466290Y-116765953D01*
X104466929Y-116766332D01*
X104466985Y-116766230D01*
X104474765Y-116770478D01*
X104481869Y-116775796D01*
X104528422Y-116793159D01*
X104536560Y-116796530D01*
X104581743Y-116817165D01*
X104590526Y-116818427D01*
X104599032Y-116820925D01*
X104598998Y-116821037D01*
X104599715Y-116821220D01*
X104599740Y-116821106D01*
X104608404Y-116822990D01*
X104616717Y-116826091D01*
X104666252Y-116829633D01*
X104675037Y-116830578D01*
X104688401Y-116832500D01*
X104701892Y-116832500D01*
X104710738Y-116832815D01*
X104760273Y-116836359D01*
X104768939Y-116834473D01*
X104777786Y-116833841D01*
X104777794Y-116833956D01*
X104791344Y-116832500D01*
X110576700Y-116832500D01*
X110638700Y-116849113D01*
X110684087Y-116894500D01*
X110700700Y-116956500D01*
X110700700Y-118501500D01*
X110684087Y-118563500D01*
X110638700Y-118608887D01*
X110576700Y-118625500D01*
X107295443Y-118625500D01*
X107251471Y-118617442D01*
X107213217Y-118594316D01*
X107204640Y-118586717D01*
X107160404Y-118563500D01*
X107071406Y-118516789D01*
X107071402Y-118516787D01*
X107064765Y-118513304D01*
X107057487Y-118511510D01*
X107057484Y-118511509D01*
X106918667Y-118477294D01*
X106918660Y-118477293D01*
X106911385Y-118475500D01*
X106753415Y-118475500D01*
X106746140Y-118477292D01*
X106746132Y-118477294D01*
X106607315Y-118511509D01*
X106607309Y-118511510D01*
X106600035Y-118513304D01*
X106593400Y-118516786D01*
X106593393Y-118516789D01*
X106466806Y-118583228D01*
X106466800Y-118583231D01*
X106460160Y-118586717D01*
X106454548Y-118591687D01*
X106454543Y-118591692D01*
X106347527Y-118686499D01*
X106347522Y-118686503D01*
X106341917Y-118691470D01*
X106337662Y-118697634D01*
X106337657Y-118697640D01*
X106256443Y-118815300D01*
X106256440Y-118815303D01*
X106252180Y-118821477D01*
X106249520Y-118828488D01*
X106249518Y-118828494D01*
X106198823Y-118962167D01*
X106196163Y-118969182D01*
X106195259Y-118976622D01*
X106195258Y-118976629D01*
X106178713Y-119112900D01*
X106177122Y-119126000D01*
X106178026Y-119133445D01*
X106195258Y-119275370D01*
X106195259Y-119275375D01*
X106196163Y-119282818D01*
X106198822Y-119289831D01*
X106198823Y-119289832D01*
X106239914Y-119398182D01*
X106252180Y-119430523D01*
X106341917Y-119560530D01*
X106347526Y-119565499D01*
X106347527Y-119565500D01*
X106451584Y-119657686D01*
X106460160Y-119665283D01*
X106600035Y-119738696D01*
X106753415Y-119776500D01*
X106903885Y-119776500D01*
X106911385Y-119776500D01*
X107064765Y-119738696D01*
X107204640Y-119665283D01*
X107213217Y-119657683D01*
X107251471Y-119634558D01*
X107295443Y-119626500D01*
X110576700Y-119626500D01*
X110638700Y-119643113D01*
X110684087Y-119688500D01*
X110700700Y-119750500D01*
X110700700Y-124723056D01*
X110699243Y-124736605D01*
X110699359Y-124736614D01*
X110698725Y-124745462D01*
X110696841Y-124754127D01*
X110697473Y-124762967D01*
X110697473Y-124762973D01*
X110700384Y-124803661D01*
X110700700Y-124812508D01*
X110700700Y-124825999D01*
X110701330Y-124830380D01*
X110702620Y-124839355D01*
X110703565Y-124848146D01*
X110704649Y-124863304D01*
X110707109Y-124897683D01*
X110710206Y-124905989D01*
X110712092Y-124914655D01*
X110711979Y-124914679D01*
X110712164Y-124915403D01*
X110712275Y-124915371D01*
X110714772Y-124923876D01*
X110716035Y-124932657D01*
X110719719Y-124940724D01*
X110719720Y-124940727D01*
X110736657Y-124977813D01*
X110740045Y-124985990D01*
X110754304Y-125024221D01*
X110754305Y-125024223D01*
X110757404Y-125032531D01*
X110762719Y-125039631D01*
X110766968Y-125047412D01*
X110766866Y-125047467D01*
X110767246Y-125048107D01*
X110767343Y-125048045D01*
X110772139Y-125055507D01*
X110775823Y-125063573D01*
X110808347Y-125101107D01*
X110813888Y-125107985D01*
X110821979Y-125118793D01*
X110825116Y-125121930D01*
X110831522Y-125128336D01*
X110837554Y-125134815D01*
X110864265Y-125165642D01*
X110864267Y-125165644D01*
X110870072Y-125172343D01*
X110877528Y-125177134D01*
X110884237Y-125182948D01*
X110884161Y-125183035D01*
X110894771Y-125191585D01*
X111485613Y-125782427D01*
X111494164Y-125793038D01*
X111494252Y-125792963D01*
X111500063Y-125799668D01*
X111504857Y-125807128D01*
X111542400Y-125839658D01*
X111548861Y-125845675D01*
X111558407Y-125855221D01*
X111566390Y-125861197D01*
X111569207Y-125863306D01*
X111576099Y-125868860D01*
X111606919Y-125895566D01*
X111606925Y-125895570D01*
X111613627Y-125901377D01*
X111621694Y-125905061D01*
X111629154Y-125909855D01*
X111629090Y-125909953D01*
X111629729Y-125910332D01*
X111629785Y-125910230D01*
X111637565Y-125914478D01*
X111644669Y-125919796D01*
X111691222Y-125937159D01*
X111699360Y-125940530D01*
X111744543Y-125961165D01*
X111753326Y-125962427D01*
X111761832Y-125964925D01*
X111761798Y-125965037D01*
X111762515Y-125965220D01*
X111762540Y-125965106D01*
X111771204Y-125966990D01*
X111779517Y-125970091D01*
X111829052Y-125973633D01*
X111837837Y-125974578D01*
X111851201Y-125976500D01*
X111864692Y-125976500D01*
X111873538Y-125976815D01*
X111923073Y-125980359D01*
X111931739Y-125978473D01*
X111940586Y-125977841D01*
X111940594Y-125977956D01*
X111954144Y-125976500D01*
X118662957Y-125976500D01*
X118706929Y-125984558D01*
X118745182Y-126007683D01*
X118753760Y-126015283D01*
X118893635Y-126088696D01*
X119047015Y-126126500D01*
X119197485Y-126126500D01*
X119204985Y-126126500D01*
X119358365Y-126088696D01*
X119498240Y-126015283D01*
X119506817Y-126007683D01*
X119545071Y-125984558D01*
X119589043Y-125976500D01*
X121320900Y-125976500D01*
X121382900Y-125993113D01*
X121428287Y-126038500D01*
X121444900Y-126100500D01*
X121444900Y-131785700D01*
X121428287Y-131847700D01*
X121382900Y-131893087D01*
X121320900Y-131909700D01*
X118496843Y-131909700D01*
X118452871Y-131901642D01*
X118414617Y-131878516D01*
X118406040Y-131870917D01*
X118356500Y-131844916D01*
X118272806Y-131800989D01*
X118272802Y-131800987D01*
X118266165Y-131797504D01*
X118258887Y-131795710D01*
X118258884Y-131795709D01*
X118120067Y-131761494D01*
X118120060Y-131761493D01*
X118112785Y-131759700D01*
X117954815Y-131759700D01*
X117947540Y-131761492D01*
X117947532Y-131761494D01*
X117808715Y-131795709D01*
X117808709Y-131795710D01*
X117801435Y-131797504D01*
X117794800Y-131800986D01*
X117794793Y-131800989D01*
X117668203Y-131867430D01*
X117668200Y-131867431D01*
X117661560Y-131870917D01*
X117652982Y-131878516D01*
X117614729Y-131901642D01*
X117570757Y-131909700D01*
X107955843Y-131909700D01*
X107911871Y-131901642D01*
X107873617Y-131878516D01*
X107865040Y-131870917D01*
X107865038Y-131870915D01*
X107865333Y-131870583D01*
X107829704Y-131830368D01*
X107815500Y-131772741D01*
X107815500Y-130963858D01*
X107821115Y-130926968D01*
X107837450Y-130893418D01*
X107844848Y-130882698D01*
X107895220Y-130809723D01*
X107951237Y-130662018D01*
X107970278Y-130505200D01*
X107951237Y-130348382D01*
X107895220Y-130200677D01*
X107805483Y-130070670D01*
X107687240Y-129965917D01*
X107680595Y-129962429D01*
X107680593Y-129962428D01*
X107554006Y-129895989D01*
X107554002Y-129895987D01*
X107547365Y-129892504D01*
X107540087Y-129890710D01*
X107540084Y-129890709D01*
X107401267Y-129856494D01*
X107401260Y-129856493D01*
X107393985Y-129854700D01*
X107236015Y-129854700D01*
X107228740Y-129856492D01*
X107228732Y-129856494D01*
X107089915Y-129890709D01*
X107089909Y-129890710D01*
X107082635Y-129892504D01*
X107076000Y-129895986D01*
X107075993Y-129895989D01*
X106949406Y-129962428D01*
X106949400Y-129962431D01*
X106942760Y-129965917D01*
X106937148Y-129970887D01*
X106937143Y-129970892D01*
X106830127Y-130065699D01*
X106830122Y-130065703D01*
X106824517Y-130070670D01*
X106820262Y-130076834D01*
X106820257Y-130076840D01*
X106739043Y-130194500D01*
X106739040Y-130194503D01*
X106734780Y-130200677D01*
X106732120Y-130207688D01*
X106732118Y-130207694D01*
X106681423Y-130341367D01*
X106678763Y-130348382D01*
X106677859Y-130355822D01*
X106677858Y-130355829D01*
X106661070Y-130494096D01*
X106659722Y-130505200D01*
X106660626Y-130512645D01*
X106677858Y-130654570D01*
X106677859Y-130654575D01*
X106678763Y-130662018D01*
X106734780Y-130809723D01*
X106739043Y-130815899D01*
X106792550Y-130893418D01*
X106808885Y-130926968D01*
X106814500Y-130963858D01*
X106814500Y-132165256D01*
X106813043Y-132178805D01*
X106813159Y-132178814D01*
X106812525Y-132187662D01*
X106810641Y-132196327D01*
X106811273Y-132205167D01*
X106811273Y-132205173D01*
X106814184Y-132245861D01*
X106814500Y-132254708D01*
X106814500Y-132268199D01*
X106815130Y-132272580D01*
X106816420Y-132281555D01*
X106817365Y-132290346D01*
X106820909Y-132339883D01*
X106824006Y-132348189D01*
X106825892Y-132356855D01*
X106825779Y-132356879D01*
X106825964Y-132357605D01*
X106826075Y-132357573D01*
X106828572Y-132366080D01*
X106829835Y-132374857D01*
X106833431Y-132382732D01*
X106837385Y-132410216D01*
X106837522Y-132410200D01*
X106838275Y-132416406D01*
X106838278Y-132416429D01*
X106838425Y-132417637D01*
X106855658Y-132559570D01*
X106855659Y-132559575D01*
X106856563Y-132567018D01*
X106912580Y-132714723D01*
X107002317Y-132844730D01*
X107007926Y-132849699D01*
X107007927Y-132849700D01*
X107111984Y-132941886D01*
X107120560Y-132949483D01*
X107260435Y-133022896D01*
X107413815Y-133060700D01*
X107564285Y-133060700D01*
X107571785Y-133060700D01*
X107725165Y-133022896D01*
X107865040Y-132949483D01*
X107873617Y-132941883D01*
X107911871Y-132918758D01*
X107955843Y-132910700D01*
X117570757Y-132910700D01*
X117614729Y-132918758D01*
X117652982Y-132941883D01*
X117661560Y-132949483D01*
X117801435Y-133022896D01*
X117954815Y-133060700D01*
X118105285Y-133060700D01*
X118112785Y-133060700D01*
X118266165Y-133022896D01*
X118406040Y-132949483D01*
X118414617Y-132941883D01*
X118452871Y-132918758D01*
X118496843Y-132910700D01*
X121873439Y-132910700D01*
X121909601Y-132910700D01*
X121981199Y-132910700D01*
X122017361Y-132910700D01*
X128467357Y-132910700D01*
X128511329Y-132918758D01*
X128549582Y-132941883D01*
X128558160Y-132949483D01*
X128698035Y-133022896D01*
X128851415Y-133060700D01*
X129001885Y-133060700D01*
X129009385Y-133060700D01*
X129162765Y-133022896D01*
X129302640Y-132949483D01*
X129420883Y-132844730D01*
X129510620Y-132714723D01*
X129566637Y-132567018D01*
X129585678Y-132410200D01*
X129566637Y-132253382D01*
X129510620Y-132105677D01*
X129420883Y-131975670D01*
X129415272Y-131970699D01*
X129308256Y-131875892D01*
X129308252Y-131875889D01*
X129302640Y-131870917D01*
X129295995Y-131867429D01*
X129295993Y-131867428D01*
X129169406Y-131800989D01*
X129169402Y-131800987D01*
X129162765Y-131797504D01*
X129155487Y-131795710D01*
X129155484Y-131795709D01*
X129016667Y-131761494D01*
X129016660Y-131761493D01*
X129009385Y-131759700D01*
X128851415Y-131759700D01*
X128844140Y-131761492D01*
X128844132Y-131761494D01*
X128705315Y-131795709D01*
X128705309Y-131795710D01*
X128698035Y-131797504D01*
X128691400Y-131800986D01*
X128691393Y-131800989D01*
X128564803Y-131867430D01*
X128564800Y-131867431D01*
X128558160Y-131870917D01*
X128549582Y-131878516D01*
X128511329Y-131901642D01*
X128467357Y-131909700D01*
X122569900Y-131909700D01*
X122507900Y-131893087D01*
X122462513Y-131847700D01*
X122445900Y-131785700D01*
X122445900Y-121108658D01*
X122451515Y-121071768D01*
X122467850Y-121038218D01*
X122475248Y-121027498D01*
X122525620Y-120954523D01*
X122581637Y-120806818D01*
X122600678Y-120650000D01*
X122581637Y-120493182D01*
X122525620Y-120345477D01*
X122435883Y-120215470D01*
X122388508Y-120173500D01*
X122323256Y-120115692D01*
X122323254Y-120115690D01*
X122317640Y-120110717D01*
X122310995Y-120107229D01*
X122310993Y-120107228D01*
X122184406Y-120040789D01*
X122184402Y-120040787D01*
X122177765Y-120037304D01*
X122170487Y-120035510D01*
X122170484Y-120035509D01*
X122031667Y-120001294D01*
X122031660Y-120001293D01*
X122024385Y-119999500D01*
X121866415Y-119999500D01*
X121859140Y-120001292D01*
X121859132Y-120001294D01*
X121720315Y-120035509D01*
X121720309Y-120035510D01*
X121713035Y-120037304D01*
X121706400Y-120040786D01*
X121706393Y-120040789D01*
X121579806Y-120107228D01*
X121579800Y-120107231D01*
X121573160Y-120110717D01*
X121567548Y-120115687D01*
X121567543Y-120115692D01*
X121460527Y-120210499D01*
X121460522Y-120210503D01*
X121454917Y-120215470D01*
X121450662Y-120221634D01*
X121450657Y-120221640D01*
X121369443Y-120339300D01*
X121369440Y-120339303D01*
X121365180Y-120345477D01*
X121362520Y-120352488D01*
X121362518Y-120352494D01*
X121311823Y-120486167D01*
X121309163Y-120493182D01*
X121308259Y-120500622D01*
X121308258Y-120500629D01*
X121298235Y-120583183D01*
X121290122Y-120650000D01*
X121291026Y-120657445D01*
X121308258Y-120799370D01*
X121308259Y-120799375D01*
X121309163Y-120806818D01*
X121311822Y-120813831D01*
X121311823Y-120813832D01*
X121357679Y-120934746D01*
X121365180Y-120954523D01*
X121369443Y-120960699D01*
X121422950Y-121038218D01*
X121439285Y-121071768D01*
X121444900Y-121108658D01*
X121444900Y-121553624D01*
X121432057Y-121608579D01*
X121396189Y-121652151D01*
X121344725Y-121675314D01*
X121288326Y-121673269D01*
X121238674Y-121646441D01*
X121231056Y-121639692D01*
X121231054Y-121639690D01*
X121225440Y-121634717D01*
X121218795Y-121631229D01*
X121218793Y-121631228D01*
X121092206Y-121564789D01*
X121092202Y-121564787D01*
X121085565Y-121561304D01*
X121078287Y-121559510D01*
X121078284Y-121559509D01*
X120939467Y-121525294D01*
X120939460Y-121525293D01*
X120932185Y-121523500D01*
X120774215Y-121523500D01*
X120766940Y-121525292D01*
X120766932Y-121525294D01*
X120628115Y-121559509D01*
X120628109Y-121559510D01*
X120620835Y-121561304D01*
X120614200Y-121564786D01*
X120614193Y-121564789D01*
X120487606Y-121631228D01*
X120487600Y-121631231D01*
X120480960Y-121634717D01*
X120475348Y-121639687D01*
X120475343Y-121639692D01*
X120368329Y-121734497D01*
X120368323Y-121734502D01*
X120362717Y-121739470D01*
X120341684Y-121769941D01*
X120297262Y-121809296D01*
X120239636Y-121823500D01*
X119200612Y-121823500D01*
X119177794Y-121821133D01*
X119176135Y-121821064D01*
X119166085Y-121818957D01*
X119155895Y-121820227D01*
X119155889Y-121820227D01*
X119136442Y-121822652D01*
X119131343Y-121823181D01*
X119127490Y-121823500D01*
X119122360Y-121823500D01*
X119117307Y-121824343D01*
X119117296Y-121824344D01*
X119103389Y-121826665D01*
X119098326Y-121827402D01*
X119060205Y-121832154D01*
X119060194Y-121832157D01*
X119050008Y-121833427D01*
X119043341Y-121836686D01*
X119036019Y-121837908D01*
X119026984Y-121842797D01*
X119026979Y-121842799D01*
X118993204Y-121861077D01*
X118988651Y-121863421D01*
X118954145Y-121880290D01*
X118954141Y-121880292D01*
X118944917Y-121884802D01*
X118939669Y-121890049D01*
X118933142Y-121893582D01*
X118926185Y-121901138D01*
X118926186Y-121901138D01*
X118900169Y-121929399D01*
X118896623Y-121933094D01*
X116324737Y-124504981D01*
X116284509Y-124531861D01*
X116237056Y-124541300D01*
X112921744Y-124541300D01*
X112874291Y-124531861D01*
X112834063Y-124504981D01*
X112197619Y-123868537D01*
X112170739Y-123828309D01*
X112161300Y-123780856D01*
X112161300Y-115604829D01*
X112174815Y-115548534D01*
X112212415Y-115504511D01*
X112265902Y-115482356D01*
X112323618Y-115486898D01*
X112372981Y-115517148D01*
X112592381Y-115736548D01*
X112619261Y-115776776D01*
X112628700Y-115824229D01*
X112628700Y-116790788D01*
X112626333Y-116813605D01*
X112626264Y-116815264D01*
X112624157Y-116825315D01*
X112625427Y-116835504D01*
X112625427Y-116835509D01*
X112627852Y-116854956D01*
X112628380Y-116860055D01*
X112628700Y-116863917D01*
X112628700Y-116869040D01*
X112631756Y-116887359D01*
X112631866Y-116888016D01*
X112632603Y-116893077D01*
X112636095Y-116921089D01*
X112638627Y-116941393D01*
X112641886Y-116948060D01*
X112643108Y-116955381D01*
X112647996Y-116964413D01*
X112647997Y-116964416D01*
X112666281Y-116998202D01*
X112668621Y-117002747D01*
X112690002Y-117046484D01*
X112695250Y-117051732D01*
X112698782Y-117058258D01*
X112706338Y-117065214D01*
X112706339Y-117065215D01*
X112734599Y-117091230D01*
X112738297Y-117094779D01*
X115005381Y-119361863D01*
X115032261Y-119402091D01*
X115041700Y-119449544D01*
X115041700Y-122492148D01*
X115030776Y-122543039D01*
X114999927Y-122584964D01*
X114967714Y-122613502D01*
X114901717Y-122671970D01*
X114897462Y-122678134D01*
X114897457Y-122678140D01*
X114816243Y-122795800D01*
X114816240Y-122795803D01*
X114811980Y-122801977D01*
X114809320Y-122808988D01*
X114809318Y-122808994D01*
X114760423Y-122937921D01*
X114755963Y-122949682D01*
X114755059Y-122957122D01*
X114755058Y-122957129D01*
X114745552Y-123035426D01*
X114736922Y-123106500D01*
X114737826Y-123113945D01*
X114755058Y-123255870D01*
X114755059Y-123255875D01*
X114755963Y-123263318D01*
X114811980Y-123411023D01*
X114901717Y-123541030D01*
X115019960Y-123645783D01*
X115159835Y-123719196D01*
X115313215Y-123757000D01*
X115463686Y-123757000D01*
X115471185Y-123757000D01*
X115515804Y-123746002D01*
X115580857Y-123747553D01*
X115594896Y-123751732D01*
X115599726Y-123753278D01*
X115645812Y-123769100D01*
X115653235Y-123769100D01*
X115660346Y-123771217D01*
X115708968Y-123769205D01*
X115714092Y-123769100D01*
X116384388Y-123769100D01*
X116407205Y-123771466D01*
X116408858Y-123771534D01*
X116418915Y-123773643D01*
X116448577Y-123769945D01*
X116453664Y-123769418D01*
X116457505Y-123769100D01*
X116462640Y-123769100D01*
X116467696Y-123768256D01*
X116467698Y-123768256D01*
X116472038Y-123767531D01*
X116481620Y-123765932D01*
X116486669Y-123765196D01*
X116534993Y-123759173D01*
X116541660Y-123755913D01*
X116548981Y-123754692D01*
X116591816Y-123731509D01*
X116596330Y-123729186D01*
X116640084Y-123707798D01*
X116645332Y-123702549D01*
X116651858Y-123699018D01*
X116684854Y-123663172D01*
X116688356Y-123659524D01*
X117283143Y-123064736D01*
X117300932Y-123050292D01*
X117302161Y-123049160D01*
X117310769Y-123043537D01*
X117329136Y-123019936D01*
X117332347Y-123015983D01*
X117334838Y-123013042D01*
X117338475Y-123009406D01*
X117349659Y-122993739D01*
X117352687Y-122989678D01*
X117382617Y-122951226D01*
X117385026Y-122944207D01*
X117389340Y-122938166D01*
X117403242Y-122891468D01*
X117404779Y-122886669D01*
X117420600Y-122840588D01*
X117420600Y-122833165D01*
X117422717Y-122826054D01*
X117420705Y-122777431D01*
X117420600Y-122772308D01*
X117420600Y-121175244D01*
X117430039Y-121127791D01*
X117456919Y-121087563D01*
X117710863Y-120833619D01*
X117751091Y-120806739D01*
X117798544Y-120797300D01*
X118467188Y-120797300D01*
X118490005Y-120799666D01*
X118491658Y-120799734D01*
X118501715Y-120801843D01*
X118531377Y-120798145D01*
X118536464Y-120797618D01*
X118540305Y-120797300D01*
X118545440Y-120797300D01*
X118550496Y-120796456D01*
X118550498Y-120796456D01*
X118554838Y-120795731D01*
X118564420Y-120794132D01*
X118569469Y-120793396D01*
X118617793Y-120787373D01*
X118624460Y-120784113D01*
X118631781Y-120782892D01*
X118674616Y-120759709D01*
X118679130Y-120757386D01*
X118722884Y-120735998D01*
X118728132Y-120730749D01*
X118734658Y-120727218D01*
X118767654Y-120691372D01*
X118771156Y-120687724D01*
X120200062Y-119258819D01*
X120240291Y-119231939D01*
X120287744Y-119222500D01*
X120956388Y-119222500D01*
X120979205Y-119224866D01*
X120980858Y-119224934D01*
X120990915Y-119227043D01*
X121020577Y-119223345D01*
X121025664Y-119222818D01*
X121029505Y-119222500D01*
X121034640Y-119222500D01*
X121039696Y-119221656D01*
X121039698Y-119221656D01*
X121044038Y-119220931D01*
X121053620Y-119219332D01*
X121058669Y-119218596D01*
X121106993Y-119212573D01*
X121113660Y-119209313D01*
X121120981Y-119208092D01*
X121163816Y-119184909D01*
X121168330Y-119182586D01*
X121212084Y-119161198D01*
X121217332Y-119155949D01*
X121223858Y-119152418D01*
X121256854Y-119116572D01*
X121260356Y-119112924D01*
X130004462Y-110368819D01*
X130044691Y-110341939D01*
X130092144Y-110332500D01*
X160885188Y-110332500D01*
X160908005Y-110334866D01*
X160909658Y-110334934D01*
X160919715Y-110337043D01*
X160949377Y-110333345D01*
X160954464Y-110332818D01*
X160958305Y-110332500D01*
X160963440Y-110332500D01*
X160965219Y-110332203D01*
X165183085Y-110332203D01*
X165191062Y-110340024D01*
X165368842Y-110448969D01*
X165377505Y-110453383D01*
X165589541Y-110541211D01*
X165598778Y-110544213D01*
X165821950Y-110597791D01*
X165831536Y-110599309D01*
X166060346Y-110617318D01*
X166070054Y-110617318D01*
X166298863Y-110599309D01*
X166308449Y-110597791D01*
X166531621Y-110544213D01*
X166540858Y-110541211D01*
X166752901Y-110453380D01*
X166761548Y-110448975D01*
X166939338Y-110340023D01*
X166947313Y-110332203D01*
X166941382Y-110322735D01*
X166076742Y-109458095D01*
X166065199Y-109451431D01*
X166053657Y-109458095D01*
X165189016Y-110322735D01*
X165183085Y-110332203D01*
X160965219Y-110332203D01*
X160968496Y-110331656D01*
X160968498Y-110331656D01*
X160975101Y-110330554D01*
X160982420Y-110329332D01*
X160987469Y-110328596D01*
X161035793Y-110322573D01*
X161042460Y-110319313D01*
X161049781Y-110318092D01*
X161092616Y-110294909D01*
X161097130Y-110292586D01*
X161140884Y-110271198D01*
X161146132Y-110265949D01*
X161152658Y-110262418D01*
X161185654Y-110226572D01*
X161189156Y-110222924D01*
X162314226Y-109097854D01*
X164540882Y-109097854D01*
X164558890Y-109326663D01*
X164560408Y-109336249D01*
X164613986Y-109559421D01*
X164616988Y-109568658D01*
X164704816Y-109780694D01*
X164709230Y-109789357D01*
X164818174Y-109967136D01*
X164825995Y-109975113D01*
X164835463Y-109969182D01*
X165700104Y-109104542D01*
X165706768Y-109093000D01*
X166423631Y-109093000D01*
X166430295Y-109104542D01*
X167294935Y-109969182D01*
X167304403Y-109975113D01*
X167312223Y-109967138D01*
X167421175Y-109789348D01*
X167425580Y-109780701D01*
X167513411Y-109568658D01*
X167516413Y-109559421D01*
X167569991Y-109336249D01*
X167571509Y-109326663D01*
X167589518Y-109097854D01*
X167589518Y-109093000D01*
X168349998Y-109093000D01*
X168368776Y-109331594D01*
X168369911Y-109336323D01*
X168369912Y-109336327D01*
X168423509Y-109559576D01*
X168423511Y-109559584D01*
X168424647Y-109564313D01*
X168516235Y-109785427D01*
X168518782Y-109789584D01*
X168518783Y-109789585D01*
X168638738Y-109985334D01*
X168638741Y-109985339D01*
X168641286Y-109989491D01*
X168644448Y-109993193D01*
X168644450Y-109993196D01*
X168760509Y-110129084D01*
X168796719Y-110171481D01*
X168800419Y-110174641D01*
X168968426Y-110318132D01*
X168978709Y-110326914D01*
X168982863Y-110329459D01*
X168982865Y-110329461D01*
X169050295Y-110370782D01*
X169182773Y-110451965D01*
X169403887Y-110543553D01*
X169636606Y-110599424D01*
X169875200Y-110618202D01*
X170113794Y-110599424D01*
X170346513Y-110543553D01*
X170567627Y-110451965D01*
X170771691Y-110326914D01*
X170953681Y-110171481D01*
X171109114Y-109989491D01*
X171234165Y-109785427D01*
X171325753Y-109564313D01*
X171381624Y-109331594D01*
X171400402Y-109093000D01*
X171381624Y-108854406D01*
X171325753Y-108621687D01*
X171234165Y-108400573D01*
X171109114Y-108196509D01*
X171093590Y-108178333D01*
X170956841Y-108018219D01*
X170953681Y-108014519D01*
X170929828Y-107994147D01*
X170775396Y-107862250D01*
X170775393Y-107862248D01*
X170771691Y-107859086D01*
X170767539Y-107856541D01*
X170767534Y-107856538D01*
X170571785Y-107736583D01*
X170571784Y-107736582D01*
X170567627Y-107734035D01*
X170346513Y-107642447D01*
X170341784Y-107641311D01*
X170341776Y-107641309D01*
X170118527Y-107587712D01*
X170118523Y-107587711D01*
X170113794Y-107586576D01*
X170108941Y-107586194D01*
X169880054Y-107568180D01*
X169875200Y-107567798D01*
X169870346Y-107568180D01*
X169641458Y-107586194D01*
X169641456Y-107586194D01*
X169636606Y-107586576D01*
X169631878Y-107587710D01*
X169631872Y-107587712D01*
X169408623Y-107641309D01*
X169408611Y-107641312D01*
X169403887Y-107642447D01*
X169399390Y-107644309D01*
X169399386Y-107644311D01*
X169187277Y-107732169D01*
X169187272Y-107732171D01*
X169182773Y-107734035D01*
X169178620Y-107736579D01*
X169178614Y-107736583D01*
X168982865Y-107856538D01*
X168982854Y-107856545D01*
X168978709Y-107859086D01*
X168975012Y-107862243D01*
X168975003Y-107862250D01*
X168800419Y-108011358D01*
X168800412Y-108011364D01*
X168796719Y-108014519D01*
X168793564Y-108018212D01*
X168793558Y-108018219D01*
X168644450Y-108192803D01*
X168644443Y-108192812D01*
X168641286Y-108196509D01*
X168638745Y-108200654D01*
X168638738Y-108200665D01*
X168518783Y-108396414D01*
X168518779Y-108396420D01*
X168516235Y-108400573D01*
X168514371Y-108405072D01*
X168514369Y-108405077D01*
X168439970Y-108584693D01*
X168424647Y-108621687D01*
X168423512Y-108626411D01*
X168423509Y-108626423D01*
X168369912Y-108849672D01*
X168369910Y-108849678D01*
X168368776Y-108854406D01*
X168368394Y-108859256D01*
X168368394Y-108859258D01*
X168357086Y-109002942D01*
X168349998Y-109093000D01*
X167589518Y-109093000D01*
X167589518Y-109088146D01*
X167571509Y-108859336D01*
X167569991Y-108849750D01*
X167516413Y-108626578D01*
X167513411Y-108617341D01*
X167425583Y-108405305D01*
X167421169Y-108396642D01*
X167312224Y-108218862D01*
X167304403Y-108210885D01*
X167294935Y-108216816D01*
X166430295Y-109081457D01*
X166423631Y-109093000D01*
X165706768Y-109093000D01*
X165700104Y-109081457D01*
X164835463Y-108216816D01*
X164825995Y-108210885D01*
X164818174Y-108218862D01*
X164709230Y-108396642D01*
X164704816Y-108405305D01*
X164616988Y-108617341D01*
X164613986Y-108626578D01*
X164560408Y-108849750D01*
X164558890Y-108859336D01*
X164540882Y-109088146D01*
X164540882Y-109097854D01*
X162314226Y-109097854D01*
X163558285Y-107853795D01*
X165183085Y-107853795D01*
X165189016Y-107863263D01*
X166053657Y-108727904D01*
X166065200Y-108734568D01*
X166076742Y-108727904D01*
X166941382Y-107863263D01*
X166947313Y-107853795D01*
X166939336Y-107845974D01*
X166761557Y-107737030D01*
X166752894Y-107732616D01*
X166540858Y-107644788D01*
X166531621Y-107641786D01*
X166308449Y-107588208D01*
X166298863Y-107586690D01*
X166070054Y-107568682D01*
X166060346Y-107568682D01*
X165831536Y-107586690D01*
X165821950Y-107588208D01*
X165598778Y-107641786D01*
X165589541Y-107644788D01*
X165377505Y-107732616D01*
X165368842Y-107737030D01*
X165191062Y-107845974D01*
X165183085Y-107853795D01*
X163558285Y-107853795D01*
X165488262Y-105923819D01*
X165528491Y-105896939D01*
X165575944Y-105887500D01*
X167407436Y-105887500D01*
X167465062Y-105901704D01*
X167509484Y-105941058D01*
X167530517Y-105971530D01*
X167536127Y-105976500D01*
X167536129Y-105976502D01*
X167598123Y-106031423D01*
X167648760Y-106076283D01*
X167788635Y-106149696D01*
X167942015Y-106187500D01*
X168092485Y-106187500D01*
X168099985Y-106187500D01*
X168253365Y-106149696D01*
X168393240Y-106076283D01*
X168511483Y-105971530D01*
X168601220Y-105841523D01*
X168657237Y-105693818D01*
X168676278Y-105537000D01*
X168657237Y-105380182D01*
X168601220Y-105232477D01*
X168511483Y-105102470D01*
X168442418Y-105041284D01*
X168398856Y-105002692D01*
X168398854Y-105002690D01*
X168393240Y-104997717D01*
X168386595Y-104994229D01*
X168386593Y-104994228D01*
X168260006Y-104927789D01*
X168260002Y-104927787D01*
X168253365Y-104924304D01*
X168246087Y-104922510D01*
X168246084Y-104922509D01*
X168107267Y-104888294D01*
X168107260Y-104888293D01*
X168099985Y-104886500D01*
X167942015Y-104886500D01*
X167934740Y-104888292D01*
X167934732Y-104888294D01*
X167795915Y-104922509D01*
X167795909Y-104922510D01*
X167788635Y-104924304D01*
X167782000Y-104927786D01*
X167781993Y-104927789D01*
X167655406Y-104994228D01*
X167655400Y-104994231D01*
X167648760Y-104997717D01*
X167643148Y-105002687D01*
X167643143Y-105002692D01*
X167536129Y-105097497D01*
X167536123Y-105097502D01*
X167530517Y-105102470D01*
X167509484Y-105132941D01*
X167465062Y-105172296D01*
X167407436Y-105186500D01*
X165428607Y-105186500D01*
X165405805Y-105184135D01*
X165404138Y-105184066D01*
X165394085Y-105181958D01*
X165383894Y-105183228D01*
X165383889Y-105183228D01*
X165364463Y-105185650D01*
X165359368Y-105186178D01*
X165355482Y-105186500D01*
X165350360Y-105186500D01*
X165345304Y-105187343D01*
X165345298Y-105187344D01*
X165331383Y-105189665D01*
X165326325Y-105190402D01*
X165288201Y-105195155D01*
X165288194Y-105195157D01*
X165278007Y-105196427D01*
X165271339Y-105199686D01*
X165264019Y-105200908D01*
X165254987Y-105205795D01*
X165254983Y-105205797D01*
X165221213Y-105224072D01*
X165216660Y-105226416D01*
X165182144Y-105243290D01*
X165182140Y-105243292D01*
X165172916Y-105247802D01*
X165167667Y-105253050D01*
X165161142Y-105256582D01*
X165154185Y-105264138D01*
X165154185Y-105264139D01*
X165128180Y-105292387D01*
X165124634Y-105296082D01*
X160825537Y-109595181D01*
X160785309Y-109622061D01*
X160737856Y-109631500D01*
X129944812Y-109631500D01*
X129921994Y-109629133D01*
X129920335Y-109629064D01*
X129910285Y-109626957D01*
X129900095Y-109628227D01*
X129900089Y-109628227D01*
X129880642Y-109630652D01*
X129875543Y-109631181D01*
X129871690Y-109631500D01*
X129866560Y-109631500D01*
X129861507Y-109632343D01*
X129861496Y-109632344D01*
X129847589Y-109634665D01*
X129842526Y-109635402D01*
X129804405Y-109640154D01*
X129804394Y-109640157D01*
X129794208Y-109641427D01*
X129787541Y-109644686D01*
X129780219Y-109645908D01*
X129771184Y-109650797D01*
X129771179Y-109650799D01*
X129737404Y-109669077D01*
X129732851Y-109671421D01*
X129698345Y-109688290D01*
X129698341Y-109688292D01*
X129689117Y-109692802D01*
X129683869Y-109698049D01*
X129677342Y-109701582D01*
X129670385Y-109709138D01*
X129670386Y-109709138D01*
X129644369Y-109737399D01*
X129640823Y-109741094D01*
X120896737Y-118485181D01*
X120856509Y-118512061D01*
X120809056Y-118521500D01*
X120347743Y-118521500D01*
X120291448Y-118507985D01*
X120247425Y-118470385D01*
X120225270Y-118416898D01*
X120229812Y-118359182D01*
X120260062Y-118309819D01*
X123532868Y-115037013D01*
X126811513Y-111758367D01*
X126858743Y-111728833D01*
X126913993Y-111722969D01*
X126921015Y-111724700D01*
X127071485Y-111724700D01*
X127078985Y-111724700D01*
X127232365Y-111686896D01*
X127372240Y-111613483D01*
X127490483Y-111508730D01*
X127580220Y-111378723D01*
X127636237Y-111231018D01*
X127655278Y-111074200D01*
X127636237Y-110917382D01*
X127580220Y-110769677D01*
X127506471Y-110662833D01*
X127494742Y-110645840D01*
X127494741Y-110645839D01*
X127490483Y-110639670D01*
X127484872Y-110634699D01*
X127377856Y-110539892D01*
X127377854Y-110539890D01*
X127372240Y-110534917D01*
X127365595Y-110531429D01*
X127365593Y-110531428D01*
X127239006Y-110464989D01*
X127239002Y-110464987D01*
X127232365Y-110461504D01*
X127225087Y-110459710D01*
X127225084Y-110459709D01*
X127086267Y-110425494D01*
X127086260Y-110425493D01*
X127078985Y-110423700D01*
X126921015Y-110423700D01*
X126913740Y-110425492D01*
X126913732Y-110425494D01*
X126774915Y-110459709D01*
X126774909Y-110459710D01*
X126767635Y-110461504D01*
X126761000Y-110464986D01*
X126760993Y-110464989D01*
X126634406Y-110531428D01*
X126634400Y-110531431D01*
X126627760Y-110534917D01*
X126622148Y-110539887D01*
X126622143Y-110539892D01*
X126515127Y-110634699D01*
X126515122Y-110634703D01*
X126509517Y-110639670D01*
X126505262Y-110645834D01*
X126505257Y-110645840D01*
X126424043Y-110763500D01*
X126424040Y-110763503D01*
X126419780Y-110769677D01*
X126417120Y-110776688D01*
X126417118Y-110776694D01*
X126366423Y-110910367D01*
X126363763Y-110917382D01*
X126362859Y-110924822D01*
X126362858Y-110924829D01*
X126351404Y-111019168D01*
X126344722Y-111074200D01*
X126345626Y-111081645D01*
X126345626Y-111081647D01*
X126354724Y-111156581D01*
X126348845Y-111211976D01*
X126319309Y-111259207D01*
X118266337Y-119312181D01*
X118226109Y-119339061D01*
X118178656Y-119348500D01*
X116754409Y-119348500D01*
X116690936Y-119331023D01*
X116645355Y-119283519D01*
X116640945Y-119275370D01*
X116632986Y-119260664D01*
X116630651Y-119256126D01*
X116616434Y-119227043D01*
X116609270Y-119212388D01*
X116604021Y-119207139D01*
X116600490Y-119200614D01*
X116564684Y-119167652D01*
X116560986Y-119164104D01*
X113860019Y-116463137D01*
X113833139Y-116422909D01*
X113823700Y-116375456D01*
X113823700Y-116239099D01*
X113836213Y-116184816D01*
X113871227Y-116141488D01*
X113921674Y-116117861D01*
X113977374Y-116118701D01*
X114094215Y-116147500D01*
X114244685Y-116147500D01*
X114252185Y-116147500D01*
X114405565Y-116109696D01*
X114545440Y-116036283D01*
X114663683Y-115931530D01*
X114664826Y-115932820D01*
X114709939Y-115902993D01*
X114774016Y-115899110D01*
X114831448Y-115927790D01*
X114887339Y-115977304D01*
X114887342Y-115977306D01*
X114892960Y-115982283D01*
X115032835Y-116055696D01*
X115186215Y-116093500D01*
X115186050Y-116094168D01*
X115231779Y-116110721D01*
X115270575Y-116150701D01*
X115287953Y-116203631D01*
X115280405Y-116258827D01*
X115263963Y-116302182D01*
X115263059Y-116309622D01*
X115263058Y-116309629D01*
X115246270Y-116447896D01*
X115244922Y-116459000D01*
X115245826Y-116466445D01*
X115263058Y-116608370D01*
X115263059Y-116608375D01*
X115263963Y-116615818D01*
X115266622Y-116622831D01*
X115266623Y-116622832D01*
X115303210Y-116719306D01*
X115319980Y-116763523D01*
X115324243Y-116769699D01*
X115393590Y-116870167D01*
X115409717Y-116893530D01*
X115415326Y-116898499D01*
X115415327Y-116898500D01*
X115519796Y-116991051D01*
X115527960Y-116998283D01*
X115667835Y-117071696D01*
X115821215Y-117109500D01*
X115971685Y-117109500D01*
X115979185Y-117109500D01*
X116132565Y-117071696D01*
X116272440Y-116998283D01*
X116370195Y-116911680D01*
X116422745Y-116884099D01*
X116482095Y-116884099D01*
X116534648Y-116911680D01*
X116568363Y-116960524D01*
X116582652Y-116998202D01*
X116589980Y-117017523D01*
X116594243Y-117023699D01*
X116675454Y-117141355D01*
X116675457Y-117141358D01*
X116679717Y-117147530D01*
X116682409Y-117149915D01*
X116710277Y-117205713D01*
X116706402Y-117269784D01*
X116671010Y-117323333D01*
X116575327Y-117408099D01*
X116575322Y-117408103D01*
X116569717Y-117413070D01*
X116565462Y-117419234D01*
X116565457Y-117419240D01*
X116484243Y-117536900D01*
X116484240Y-117536903D01*
X116479980Y-117543077D01*
X116477320Y-117550088D01*
X116477318Y-117550094D01*
X116426623Y-117683767D01*
X116423963Y-117690782D01*
X116423059Y-117698222D01*
X116423058Y-117698229D01*
X116406270Y-117836496D01*
X116404922Y-117847600D01*
X116405826Y-117855045D01*
X116423058Y-117996970D01*
X116423059Y-117996975D01*
X116423963Y-118004418D01*
X116426622Y-118011431D01*
X116426623Y-118011432D01*
X116465142Y-118113000D01*
X116479980Y-118152123D01*
X116569717Y-118282130D01*
X116687960Y-118386883D01*
X116827835Y-118460296D01*
X116981215Y-118498100D01*
X117131685Y-118498100D01*
X117139185Y-118498100D01*
X117292565Y-118460296D01*
X117432440Y-118386883D01*
X117550683Y-118282130D01*
X117640420Y-118152123D01*
X117696437Y-118004418D01*
X117715478Y-117847600D01*
X117709302Y-117796743D01*
X117715180Y-117741351D01*
X117744715Y-117694120D01*
X118262689Y-117176146D01*
X118282547Y-117160021D01*
X118291636Y-117154084D01*
X118311079Y-117129102D01*
X118314542Y-117125209D01*
X118314371Y-117125064D01*
X118317683Y-117121153D01*
X118321319Y-117117518D01*
X118333414Y-117100576D01*
X118336421Y-117096542D01*
X118368609Y-117055189D01*
X118371190Y-117047668D01*
X118375810Y-117041199D01*
X118390759Y-116990983D01*
X118392281Y-116986232D01*
X118409300Y-116936660D01*
X118409300Y-116928707D01*
X118411568Y-116921089D01*
X118409406Y-116868808D01*
X118409300Y-116863685D01*
X118409300Y-114534577D01*
X118425294Y-114473661D01*
X118469150Y-114428460D01*
X118529555Y-114410634D01*
X118590926Y-114424781D01*
X118605435Y-114432396D01*
X118758815Y-114470200D01*
X118909285Y-114470200D01*
X118916785Y-114470200D01*
X119070165Y-114432396D01*
X119210040Y-114358983D01*
X119218617Y-114351383D01*
X119256871Y-114328258D01*
X119300843Y-114320200D01*
X122079156Y-114320200D01*
X122092705Y-114321656D01*
X122092714Y-114321541D01*
X122101560Y-114322173D01*
X122110227Y-114324059D01*
X122159761Y-114320515D01*
X122168608Y-114320200D01*
X122177665Y-114320200D01*
X122182099Y-114320200D01*
X122195462Y-114318278D01*
X122204249Y-114317333D01*
X122253783Y-114313791D01*
X122262093Y-114310690D01*
X122270760Y-114308806D01*
X122270784Y-114308920D01*
X122271502Y-114308737D01*
X122271469Y-114308625D01*
X122279975Y-114306127D01*
X122288757Y-114304865D01*
X122333947Y-114284226D01*
X122342087Y-114280855D01*
X122388631Y-114263496D01*
X122395733Y-114258178D01*
X122403519Y-114253928D01*
X122403574Y-114254030D01*
X122404208Y-114253654D01*
X122404145Y-114253555D01*
X122411601Y-114248762D01*
X122419673Y-114245077D01*
X122457203Y-114212555D01*
X122464075Y-114207018D01*
X122474893Y-114198921D01*
X122484442Y-114189370D01*
X122490904Y-114183353D01*
X122528443Y-114150828D01*
X122533237Y-114143367D01*
X122539049Y-114136661D01*
X122539136Y-114136736D01*
X122547682Y-114126130D01*
X127804322Y-108869491D01*
X143094206Y-108869491D01*
X143102313Y-108880681D01*
X143114802Y-108890401D01*
X143123351Y-108895987D01*
X143318394Y-109001539D01*
X143327747Y-109005641D01*
X143537490Y-109077646D01*
X143547399Y-109080155D01*
X143766129Y-109116655D01*
X143776327Y-109117500D01*
X143998073Y-109117500D01*
X144008270Y-109116655D01*
X144227000Y-109080155D01*
X144236909Y-109077646D01*
X144446652Y-109005641D01*
X144456005Y-109001539D01*
X144651045Y-108895988D01*
X144659597Y-108890401D01*
X144672088Y-108880679D01*
X144680192Y-108869492D01*
X144673531Y-108857384D01*
X143898742Y-108082595D01*
X143887200Y-108075931D01*
X143875657Y-108082595D01*
X143100866Y-108857385D01*
X143094206Y-108869491D01*
X127804322Y-108869491D01*
X128951196Y-107722617D01*
X142482826Y-107722617D01*
X142501137Y-107943602D01*
X142502821Y-107953696D01*
X142557259Y-108168666D01*
X142560578Y-108178333D01*
X142649656Y-108381413D01*
X142654522Y-108390403D01*
X142728445Y-108503551D01*
X142736412Y-108511276D01*
X142745792Y-108505353D01*
X143522104Y-107729042D01*
X143528768Y-107717500D01*
X144245631Y-107717500D01*
X144252295Y-107729042D01*
X145028605Y-108505352D01*
X145037986Y-108511276D01*
X145045954Y-108503551D01*
X145119875Y-108390406D01*
X145124743Y-108381411D01*
X145213821Y-108178333D01*
X145217140Y-108168666D01*
X145271578Y-107953696D01*
X145273262Y-107943602D01*
X145291574Y-107722617D01*
X145291574Y-107712383D01*
X145273262Y-107491397D01*
X145271578Y-107481303D01*
X145217140Y-107266333D01*
X145213821Y-107256666D01*
X145124743Y-107053586D01*
X145119878Y-107044596D01*
X145045953Y-106931447D01*
X145037986Y-106923722D01*
X145028605Y-106929646D01*
X144252295Y-107705957D01*
X144245631Y-107717500D01*
X143528768Y-107717500D01*
X143522104Y-107705957D01*
X142745792Y-106929645D01*
X142736412Y-106923722D01*
X142728445Y-106931446D01*
X142654522Y-107044596D01*
X142649656Y-107053586D01*
X142560578Y-107256666D01*
X142557259Y-107266333D01*
X142502821Y-107481303D01*
X142501137Y-107491397D01*
X142482826Y-107712383D01*
X142482826Y-107722617D01*
X128951196Y-107722617D01*
X130108307Y-106565506D01*
X143094207Y-106565506D01*
X143100867Y-106577614D01*
X143875657Y-107352404D01*
X143887200Y-107359068D01*
X143898742Y-107352404D01*
X144673532Y-106577613D01*
X144680192Y-106565507D01*
X144672086Y-106554318D01*
X144659594Y-106544596D01*
X144651047Y-106539012D01*
X144456005Y-106433460D01*
X144446652Y-106429358D01*
X144236909Y-106357353D01*
X144227000Y-106354844D01*
X144008270Y-106318344D01*
X143998073Y-106317500D01*
X143776327Y-106317500D01*
X143766129Y-106318344D01*
X143547399Y-106354844D01*
X143537490Y-106357353D01*
X143327747Y-106429358D01*
X143318394Y-106433460D01*
X143123356Y-106539010D01*
X143114800Y-106544600D01*
X143102312Y-106554318D01*
X143094207Y-106565506D01*
X130108307Y-106565506D01*
X131539794Y-105134019D01*
X131580023Y-105107139D01*
X131627476Y-105097700D01*
X157805524Y-105097700D01*
X157852977Y-105107139D01*
X157893205Y-105134019D01*
X158750381Y-105991195D01*
X158777261Y-106031423D01*
X158786700Y-106078876D01*
X158786700Y-106322039D01*
X158769223Y-106385513D01*
X158721717Y-106431094D01*
X158523087Y-106538587D01*
X158523080Y-106538590D01*
X158518574Y-106541030D01*
X158514534Y-106544174D01*
X158514527Y-106544179D01*
X158339463Y-106680436D01*
X158339455Y-106680443D01*
X158335416Y-106683587D01*
X158331946Y-106687355D01*
X158331942Y-106687360D01*
X158181691Y-106850577D01*
X158181688Y-106850580D01*
X158178221Y-106854347D01*
X158175426Y-106858624D01*
X158175419Y-106858634D01*
X158054078Y-107044362D01*
X158051276Y-107048651D01*
X158049221Y-107053335D01*
X158049216Y-107053345D01*
X158006356Y-107151057D01*
X157958043Y-107261200D01*
X157956785Y-107266165D01*
X157956784Y-107266170D01*
X157902325Y-107481220D01*
X157902323Y-107481229D01*
X157901066Y-107486195D01*
X157900642Y-107491302D01*
X157900641Y-107491313D01*
X157883990Y-107692273D01*
X157881900Y-107717500D01*
X157882324Y-107722617D01*
X157900641Y-107943686D01*
X157900642Y-107943695D01*
X157901066Y-107948805D01*
X157902323Y-107953772D01*
X157902325Y-107953779D01*
X157949218Y-108138951D01*
X157958043Y-108173800D01*
X157960103Y-108178496D01*
X158049216Y-108381654D01*
X158049219Y-108381659D01*
X158051276Y-108386349D01*
X158096715Y-108455899D01*
X158175419Y-108576365D01*
X158175422Y-108576369D01*
X158178221Y-108580653D01*
X158335416Y-108751413D01*
X158339462Y-108754562D01*
X158339463Y-108754563D01*
X158349717Y-108762544D01*
X158518574Y-108893970D01*
X158722697Y-109004436D01*
X158942219Y-109079798D01*
X159171151Y-109118000D01*
X159398116Y-109118000D01*
X159403249Y-109118000D01*
X159632181Y-109079798D01*
X159851703Y-109004436D01*
X160055826Y-108893970D01*
X160238984Y-108751413D01*
X160396179Y-108580653D01*
X160523124Y-108386349D01*
X160616357Y-108173800D01*
X160673334Y-107948805D01*
X160692500Y-107717500D01*
X160673334Y-107486195D01*
X160616357Y-107261200D01*
X160523124Y-107048651D01*
X160396179Y-106854347D01*
X160238984Y-106683587D01*
X160102829Y-106577614D01*
X160059872Y-106544179D01*
X160059871Y-106544178D01*
X160055826Y-106541030D01*
X160018374Y-106520762D01*
X159852683Y-106431094D01*
X159805177Y-106385513D01*
X159787700Y-106322039D01*
X159787700Y-105887344D01*
X159789156Y-105873794D01*
X159789041Y-105873786D01*
X159789673Y-105864939D01*
X159791559Y-105856273D01*
X159788015Y-105806738D01*
X159787700Y-105797892D01*
X159787700Y-105788836D01*
X159787700Y-105784401D01*
X159785778Y-105771037D01*
X159784833Y-105762246D01*
X159781291Y-105712717D01*
X159778190Y-105704404D01*
X159776306Y-105695740D01*
X159776420Y-105695715D01*
X159776237Y-105694998D01*
X159776125Y-105695032D01*
X159773627Y-105686526D01*
X159772365Y-105677743D01*
X159751730Y-105632560D01*
X159748359Y-105624422D01*
X159730996Y-105577869D01*
X159725678Y-105570765D01*
X159721430Y-105562985D01*
X159721532Y-105562929D01*
X159721153Y-105562290D01*
X159721055Y-105562354D01*
X159716261Y-105554894D01*
X159712577Y-105546827D01*
X159706770Y-105540125D01*
X159706766Y-105540119D01*
X159680060Y-105509299D01*
X159674506Y-105502407D01*
X159672397Y-105499590D01*
X159666421Y-105491607D01*
X159656876Y-105482062D01*
X159650858Y-105475600D01*
X159618328Y-105438057D01*
X159610868Y-105433263D01*
X159604163Y-105427452D01*
X159604238Y-105427364D01*
X159593627Y-105418813D01*
X158465585Y-104290771D01*
X158457035Y-104280161D01*
X158456948Y-104280237D01*
X158451134Y-104273528D01*
X158446343Y-104266072D01*
X158439644Y-104260267D01*
X158439642Y-104260265D01*
X158408815Y-104233554D01*
X158402336Y-104227522D01*
X158395930Y-104221116D01*
X158395930Y-104221115D01*
X158392793Y-104217979D01*
X158381985Y-104209888D01*
X158375107Y-104204347D01*
X158337573Y-104171823D01*
X158329507Y-104168139D01*
X158322045Y-104163343D01*
X158322107Y-104163246D01*
X158321467Y-104162866D01*
X158321412Y-104162968D01*
X158313631Y-104158719D01*
X158306531Y-104153404D01*
X158298223Y-104150305D01*
X158298221Y-104150304D01*
X158259990Y-104136045D01*
X158251813Y-104132657D01*
X158214727Y-104115720D01*
X158214724Y-104115719D01*
X158206657Y-104112035D01*
X158197876Y-104110772D01*
X158189371Y-104108275D01*
X158189403Y-104108164D01*
X158188679Y-104107979D01*
X158188655Y-104108092D01*
X158179989Y-104106206D01*
X158171683Y-104103109D01*
X158162842Y-104102476D01*
X158162840Y-104102476D01*
X158122146Y-104099565D01*
X158113355Y-104098620D01*
X158099999Y-104096700D01*
X158095570Y-104096700D01*
X158086508Y-104096700D01*
X158077661Y-104096384D01*
X158036973Y-104093473D01*
X158036967Y-104093473D01*
X158028127Y-104092841D01*
X158019462Y-104094725D01*
X158010614Y-104095359D01*
X158010605Y-104095243D01*
X157997056Y-104096700D01*
X131435944Y-104096700D01*
X131422394Y-104095243D01*
X131422386Y-104095359D01*
X131413537Y-104094725D01*
X131404873Y-104092841D01*
X131396031Y-104093473D01*
X131396026Y-104093473D01*
X131355339Y-104096384D01*
X131346492Y-104096700D01*
X131333001Y-104096700D01*
X131328619Y-104097329D01*
X131328617Y-104097330D01*
X131319644Y-104098620D01*
X131310854Y-104099565D01*
X131270162Y-104102476D01*
X131270160Y-104102476D01*
X131261317Y-104103109D01*
X131253008Y-104106207D01*
X131244345Y-104108092D01*
X131244320Y-104107979D01*
X131243594Y-104108164D01*
X131243627Y-104108275D01*
X131235119Y-104110772D01*
X131226343Y-104112035D01*
X131218282Y-104115716D01*
X131218276Y-104115718D01*
X131181166Y-104132666D01*
X131172996Y-104136049D01*
X131160253Y-104140802D01*
X131134779Y-104150304D01*
X131134776Y-104150305D01*
X131126469Y-104153404D01*
X131119368Y-104158719D01*
X131111587Y-104162968D01*
X131111532Y-104162867D01*
X131110891Y-104163248D01*
X131110953Y-104163344D01*
X131103489Y-104168140D01*
X131095427Y-104171823D01*
X131088730Y-104177625D01*
X131088725Y-104177629D01*
X131057907Y-104204332D01*
X131051030Y-104209874D01*
X131043760Y-104215317D01*
X131043742Y-104215332D01*
X131040207Y-104217979D01*
X131037083Y-104221102D01*
X131037078Y-104221107D01*
X131030658Y-104227527D01*
X131024185Y-104233553D01*
X130993359Y-104260265D01*
X130986657Y-104266072D01*
X130981864Y-104273528D01*
X130976055Y-104280233D01*
X130975967Y-104280157D01*
X130967414Y-104290770D01*
X121975305Y-113282881D01*
X121935077Y-113309761D01*
X121887624Y-113319200D01*
X119300843Y-113319200D01*
X119256871Y-113311142D01*
X119218617Y-113288016D01*
X119210040Y-113280417D01*
X119185371Y-113267469D01*
X119076806Y-113210489D01*
X119076802Y-113210487D01*
X119070165Y-113207004D01*
X119062887Y-113205210D01*
X119062884Y-113205209D01*
X118924067Y-113170994D01*
X118924060Y-113170993D01*
X118916785Y-113169200D01*
X118758815Y-113169200D01*
X118751539Y-113170993D01*
X118751533Y-113170994D01*
X118748534Y-113171734D01*
X118745846Y-113171685D01*
X118744086Y-113171899D01*
X118744056Y-113171652D01*
X118684840Y-113170577D01*
X118630126Y-113137950D01*
X118598832Y-113082462D01*
X118599218Y-113018760D01*
X118631179Y-112963657D01*
X120845417Y-110749419D01*
X120885646Y-110722539D01*
X120933099Y-110713100D01*
X122452395Y-110713100D01*
X122477844Y-110715740D01*
X122478409Y-110715858D01*
X122478410Y-110715858D01*
X122488468Y-110717967D01*
X122519876Y-110714051D01*
X122525087Y-110713728D01*
X122525071Y-110713524D01*
X122530186Y-110713100D01*
X122535314Y-110713100D01*
X122555836Y-110709674D01*
X122560866Y-110708942D01*
X122612826Y-110702466D01*
X122619970Y-110698973D01*
X122627810Y-110697665D01*
X122673847Y-110672750D01*
X122678364Y-110670425D01*
X122725411Y-110647426D01*
X122731034Y-110641802D01*
X122738026Y-110638019D01*
X122773517Y-110599463D01*
X122776994Y-110595841D01*
X132395135Y-100977700D01*
X180126372Y-100977700D01*
X180145978Y-101239330D01*
X180204360Y-101495116D01*
X180206055Y-101499434D01*
X180206056Y-101499438D01*
X180298514Y-101735018D01*
X180298517Y-101735024D01*
X180300212Y-101739343D01*
X180302530Y-101743358D01*
X180302533Y-101743364D01*
X180376753Y-101871916D01*
X180431394Y-101966557D01*
X180594975Y-102171681D01*
X180787301Y-102350133D01*
X181004076Y-102497928D01*
X181240457Y-102611763D01*
X181244885Y-102613128D01*
X181244888Y-102613130D01*
X181348317Y-102645033D01*
X181491165Y-102689096D01*
X181750598Y-102728200D01*
X182008327Y-102728200D01*
X182012962Y-102728200D01*
X182272395Y-102689096D01*
X182523103Y-102611763D01*
X182759484Y-102497928D01*
X182976259Y-102350133D01*
X183168585Y-102171681D01*
X183332166Y-101966557D01*
X183463348Y-101739343D01*
X183559200Y-101495116D01*
X183617582Y-101239330D01*
X183637188Y-100977700D01*
X183617582Y-100716070D01*
X183559200Y-100460284D01*
X183463348Y-100216057D01*
X183332166Y-99988843D01*
X183168585Y-99783719D01*
X182976259Y-99605267D01*
X182759484Y-99457472D01*
X182755298Y-99455456D01*
X182527282Y-99345649D01*
X182527276Y-99345646D01*
X182523103Y-99343637D01*
X182518681Y-99342273D01*
X182518671Y-99342269D01*
X182276828Y-99267671D01*
X182276823Y-99267669D01*
X182272395Y-99266304D01*
X182267815Y-99265613D01*
X182267808Y-99265612D01*
X182017545Y-99227890D01*
X182017534Y-99227889D01*
X182012962Y-99227200D01*
X181750598Y-99227200D01*
X181746026Y-99227889D01*
X181746014Y-99227890D01*
X181495751Y-99265612D01*
X181495741Y-99265614D01*
X181491165Y-99266304D01*
X181486739Y-99267668D01*
X181486731Y-99267671D01*
X181244888Y-99342269D01*
X181244873Y-99342274D01*
X181240457Y-99343637D01*
X181236288Y-99345644D01*
X181236277Y-99345649D01*
X181008261Y-99455456D01*
X181008254Y-99455459D01*
X181004076Y-99457472D01*
X181000243Y-99460085D01*
X181000240Y-99460087D01*
X180791129Y-99602657D01*
X180787301Y-99605267D01*
X180783909Y-99608413D01*
X180783903Y-99608419D01*
X180598376Y-99780563D01*
X180594975Y-99783719D01*
X180592086Y-99787341D01*
X180592082Y-99787346D01*
X180434286Y-99985216D01*
X180431394Y-99988843D01*
X180429075Y-99992859D01*
X180429074Y-99992861D01*
X180302533Y-100212035D01*
X180302527Y-100212046D01*
X180300212Y-100216057D01*
X180298519Y-100220370D01*
X180298514Y-100220381D01*
X180206056Y-100455961D01*
X180206053Y-100455968D01*
X180204360Y-100460284D01*
X180203328Y-100464802D01*
X180203327Y-100464808D01*
X180147009Y-100711550D01*
X180147007Y-100711558D01*
X180145978Y-100716070D01*
X180126372Y-100977700D01*
X132395135Y-100977700D01*
X145631189Y-87741646D01*
X145651047Y-87725521D01*
X145660136Y-87719584D01*
X145679579Y-87694602D01*
X145683046Y-87690705D01*
X145682874Y-87690560D01*
X145686181Y-87686654D01*
X145689820Y-87683017D01*
X145701897Y-87666100D01*
X145704963Y-87661989D01*
X145737109Y-87620689D01*
X145739690Y-87613168D01*
X145744310Y-87606699D01*
X145759241Y-87556545D01*
X145760791Y-87551701D01*
X145777800Y-87502160D01*
X145777800Y-87494209D01*
X145780069Y-87486588D01*
X145777905Y-87434293D01*
X145777800Y-87429169D01*
X145777800Y-71550290D01*
X145787608Y-71501957D01*
X145815479Y-71461269D01*
X145857006Y-71434663D01*
X145858086Y-71434244D01*
X145917319Y-71411298D01*
X146098602Y-71299052D01*
X146256172Y-71155407D01*
X146384666Y-70985255D01*
X146479705Y-70794389D01*
X146538056Y-70589310D01*
X146548829Y-70473047D01*
X146568933Y-70415996D01*
X146613636Y-70375244D01*
X146672300Y-70360489D01*
X146730964Y-70375244D01*
X146775667Y-70415996D01*
X146795771Y-70473048D01*
X146806006Y-70583510D01*
X146806544Y-70589310D01*
X146808112Y-70594821D01*
X146808114Y-70594831D01*
X146863324Y-70788870D01*
X146863326Y-70788876D01*
X146864895Y-70794389D01*
X146867453Y-70799526D01*
X146952080Y-70969483D01*
X146959934Y-70985255D01*
X147088428Y-71155407D01*
X147245998Y-71299052D01*
X147427281Y-71411298D01*
X147626102Y-71488321D01*
X147835690Y-71527500D01*
X148043181Y-71527500D01*
X148048910Y-71527500D01*
X148258498Y-71488321D01*
X148457319Y-71411298D01*
X148638602Y-71299052D01*
X148796172Y-71155407D01*
X148924666Y-70985255D01*
X149019705Y-70794389D01*
X149078056Y-70589310D01*
X149088829Y-70473047D01*
X149108933Y-70415996D01*
X149153636Y-70375244D01*
X149212300Y-70360489D01*
X149270964Y-70375244D01*
X149315667Y-70415996D01*
X149335771Y-70473048D01*
X149346006Y-70583510D01*
X149346544Y-70589310D01*
X149348112Y-70594821D01*
X149348114Y-70594831D01*
X149403324Y-70788870D01*
X149403326Y-70788876D01*
X149404895Y-70794389D01*
X149407453Y-70799526D01*
X149492080Y-70969483D01*
X149499934Y-70985255D01*
X149628428Y-71155407D01*
X149785998Y-71299052D01*
X149967281Y-71411298D01*
X150166102Y-71488321D01*
X150375690Y-71527500D01*
X150583181Y-71527500D01*
X150588910Y-71527500D01*
X150798498Y-71488321D01*
X150997319Y-71411298D01*
X151178602Y-71299052D01*
X151336172Y-71155407D01*
X151464666Y-70985255D01*
X151559705Y-70794389D01*
X151618056Y-70589310D01*
X151632800Y-70430194D01*
X151632800Y-69977000D01*
X180126892Y-69977000D01*
X180146498Y-70238630D01*
X180147528Y-70243143D01*
X180147529Y-70243149D01*
X180200003Y-70473048D01*
X180204880Y-70494416D01*
X180206575Y-70498734D01*
X180206576Y-70498738D01*
X180299034Y-70734318D01*
X180299037Y-70734324D01*
X180300732Y-70738643D01*
X180303050Y-70742658D01*
X180303053Y-70742664D01*
X180332917Y-70794389D01*
X180431914Y-70965857D01*
X180595495Y-71170981D01*
X180787821Y-71349433D01*
X181004596Y-71497228D01*
X181240977Y-71611063D01*
X181245405Y-71612428D01*
X181245408Y-71612430D01*
X181325066Y-71637001D01*
X181491685Y-71688396D01*
X181751118Y-71727500D01*
X182008847Y-71727500D01*
X182013482Y-71727500D01*
X182272915Y-71688396D01*
X182523623Y-71611063D01*
X182760004Y-71497228D01*
X182976779Y-71349433D01*
X183169105Y-71170981D01*
X183332686Y-70965857D01*
X183463868Y-70738643D01*
X183559720Y-70494416D01*
X183618102Y-70238630D01*
X183637708Y-69977000D01*
X183618102Y-69715370D01*
X183559720Y-69459584D01*
X183463868Y-69215357D01*
X183332686Y-68988143D01*
X183169105Y-68783019D01*
X182976779Y-68604567D01*
X182760004Y-68456772D01*
X182732083Y-68443326D01*
X182527802Y-68344949D01*
X182527796Y-68344946D01*
X182523623Y-68342937D01*
X182519201Y-68341573D01*
X182519191Y-68341569D01*
X182277348Y-68266971D01*
X182277343Y-68266969D01*
X182272915Y-68265604D01*
X182268335Y-68264913D01*
X182268328Y-68264912D01*
X182018065Y-68227190D01*
X182018054Y-68227189D01*
X182013482Y-68226500D01*
X181751118Y-68226500D01*
X181746546Y-68227189D01*
X181746534Y-68227190D01*
X181496271Y-68264912D01*
X181496261Y-68264914D01*
X181491685Y-68265604D01*
X181487259Y-68266968D01*
X181487251Y-68266971D01*
X181245408Y-68341569D01*
X181245393Y-68341574D01*
X181240977Y-68342937D01*
X181236808Y-68344944D01*
X181236797Y-68344949D01*
X181008781Y-68454756D01*
X181008774Y-68454759D01*
X181004596Y-68456772D01*
X181000763Y-68459385D01*
X181000760Y-68459387D01*
X180881596Y-68540632D01*
X180787821Y-68604567D01*
X180784429Y-68607713D01*
X180784423Y-68607719D01*
X180598896Y-68779863D01*
X180595495Y-68783019D01*
X180592606Y-68786641D01*
X180592602Y-68786646D01*
X180434806Y-68984516D01*
X180431914Y-68988143D01*
X180429595Y-68992159D01*
X180429594Y-68992161D01*
X180303053Y-69211335D01*
X180303047Y-69211346D01*
X180300732Y-69215357D01*
X180299039Y-69219670D01*
X180299034Y-69219681D01*
X180206576Y-69455261D01*
X180206573Y-69455268D01*
X180204880Y-69459584D01*
X180203848Y-69464102D01*
X180203847Y-69464108D01*
X180147529Y-69710850D01*
X180147527Y-69710858D01*
X180146498Y-69715370D01*
X180126892Y-69977000D01*
X151632800Y-69977000D01*
X151632800Y-69523806D01*
X151618056Y-69364690D01*
X151559705Y-69159611D01*
X151464666Y-68968745D01*
X151336172Y-68798593D01*
X151178602Y-68654948D01*
X151173738Y-68651936D01*
X151173735Y-68651934D01*
X151002190Y-68545718D01*
X151002189Y-68545717D01*
X150997319Y-68542702D01*
X150991981Y-68540634D01*
X150991977Y-68540632D01*
X150803845Y-68467750D01*
X150803840Y-68467748D01*
X150798498Y-68465679D01*
X150764839Y-68459387D01*
X150594539Y-68427552D01*
X150594536Y-68427551D01*
X150588910Y-68426500D01*
X150375690Y-68426500D01*
X150370064Y-68427551D01*
X150370060Y-68427552D01*
X150171739Y-68464625D01*
X150171736Y-68464625D01*
X150166102Y-68465679D01*
X150160761Y-68467747D01*
X150160754Y-68467750D01*
X149972622Y-68540632D01*
X149972613Y-68540636D01*
X149967281Y-68542702D01*
X149962414Y-68545715D01*
X149962409Y-68545718D01*
X149790864Y-68651934D01*
X149790855Y-68651940D01*
X149785998Y-68654948D01*
X149781775Y-68658797D01*
X149781768Y-68658803D01*
X149632660Y-68794734D01*
X149632654Y-68794739D01*
X149628428Y-68798593D01*
X149624981Y-68803156D01*
X149624975Y-68803164D01*
X149503386Y-68964173D01*
X149503383Y-68964177D01*
X149499934Y-68968745D01*
X149497382Y-68973870D01*
X149497379Y-68973875D01*
X149488274Y-68992161D01*
X149404895Y-69159611D01*
X149403327Y-69165119D01*
X149403324Y-69165129D01*
X149348114Y-69359168D01*
X149348111Y-69359179D01*
X149346544Y-69364690D01*
X149346014Y-69370400D01*
X149346014Y-69370405D01*
X149335771Y-69480951D01*
X149315667Y-69538003D01*
X149270964Y-69578755D01*
X149212300Y-69593510D01*
X149153636Y-69578755D01*
X149108933Y-69538003D01*
X149088829Y-69480951D01*
X149078593Y-69370489D01*
X149078056Y-69364690D01*
X149019705Y-69159611D01*
X148924666Y-68968745D01*
X148796172Y-68798593D01*
X148638602Y-68654948D01*
X148633738Y-68651936D01*
X148633735Y-68651934D01*
X148462190Y-68545718D01*
X148462189Y-68545717D01*
X148457319Y-68542702D01*
X148451981Y-68540634D01*
X148451977Y-68540632D01*
X148263845Y-68467750D01*
X148263840Y-68467748D01*
X148258498Y-68465679D01*
X148224839Y-68459387D01*
X148054539Y-68427552D01*
X148054536Y-68427551D01*
X148048910Y-68426500D01*
X147835690Y-68426500D01*
X147830064Y-68427551D01*
X147830060Y-68427552D01*
X147631739Y-68464625D01*
X147631736Y-68464625D01*
X147626102Y-68465679D01*
X147620761Y-68467747D01*
X147620754Y-68467750D01*
X147432622Y-68540632D01*
X147432613Y-68540636D01*
X147427281Y-68542702D01*
X147422414Y-68545715D01*
X147422409Y-68545718D01*
X147250864Y-68651934D01*
X147250855Y-68651940D01*
X147245998Y-68654948D01*
X147241775Y-68658797D01*
X147241768Y-68658803D01*
X147092660Y-68794734D01*
X147092654Y-68794739D01*
X147088428Y-68798593D01*
X147084981Y-68803156D01*
X147084975Y-68803164D01*
X146963386Y-68964173D01*
X146963383Y-68964177D01*
X146959934Y-68968745D01*
X146957382Y-68973870D01*
X146957379Y-68973875D01*
X146948274Y-68992161D01*
X146864895Y-69159611D01*
X146863327Y-69165119D01*
X146863324Y-69165129D01*
X146808114Y-69359168D01*
X146808111Y-69359179D01*
X146806544Y-69364690D01*
X146806014Y-69370400D01*
X146806014Y-69370405D01*
X146795771Y-69480951D01*
X146775667Y-69538003D01*
X146730964Y-69578755D01*
X146672300Y-69593510D01*
X146613636Y-69578755D01*
X146568933Y-69538003D01*
X146548829Y-69480951D01*
X146538593Y-69370489D01*
X146538056Y-69364690D01*
X146479705Y-69159611D01*
X146384666Y-68968745D01*
X146256172Y-68798593D01*
X146098602Y-68654948D01*
X146093738Y-68651936D01*
X146093735Y-68651934D01*
X145922190Y-68545718D01*
X145922189Y-68545717D01*
X145917319Y-68542702D01*
X145911981Y-68540634D01*
X145911977Y-68540632D01*
X145723845Y-68467750D01*
X145723840Y-68467748D01*
X145718498Y-68465679D01*
X145684839Y-68459387D01*
X145514539Y-68427552D01*
X145514536Y-68427551D01*
X145508910Y-68426500D01*
X145295690Y-68426500D01*
X145290064Y-68427551D01*
X145290060Y-68427552D01*
X145091739Y-68464625D01*
X145091736Y-68464625D01*
X145086102Y-68465679D01*
X145080761Y-68467747D01*
X145080754Y-68467750D01*
X144892622Y-68540632D01*
X144892613Y-68540636D01*
X144887281Y-68542702D01*
X144882414Y-68545715D01*
X144882409Y-68545718D01*
X144710864Y-68651934D01*
X144710855Y-68651940D01*
X144705998Y-68654948D01*
X144701775Y-68658797D01*
X144701768Y-68658803D01*
X144552660Y-68794734D01*
X144552654Y-68794739D01*
X144548428Y-68798593D01*
X144544981Y-68803156D01*
X144544975Y-68803164D01*
X144423386Y-68964173D01*
X144423383Y-68964177D01*
X144419934Y-68968745D01*
X144417382Y-68973870D01*
X144417379Y-68973875D01*
X144408274Y-68992161D01*
X144324895Y-69159611D01*
X144323327Y-69165119D01*
X144323324Y-69165129D01*
X144268114Y-69359168D01*
X144268111Y-69359179D01*
X144266544Y-69364690D01*
X144266014Y-69370400D01*
X144266014Y-69370405D01*
X144255771Y-69480951D01*
X144235667Y-69538003D01*
X144190964Y-69578755D01*
X144132300Y-69593510D01*
X144073636Y-69578755D01*
X144028933Y-69538003D01*
X144008829Y-69480951D01*
X143998593Y-69370489D01*
X143998056Y-69364690D01*
X143939705Y-69159611D01*
X143844666Y-68968745D01*
X143716172Y-68798593D01*
X143558602Y-68654948D01*
X143553738Y-68651936D01*
X143553735Y-68651934D01*
X143382190Y-68545718D01*
X143382189Y-68545717D01*
X143377319Y-68542702D01*
X143371981Y-68540634D01*
X143371977Y-68540632D01*
X143183845Y-68467750D01*
X143183840Y-68467748D01*
X143178498Y-68465679D01*
X143144839Y-68459387D01*
X142974539Y-68427552D01*
X142974536Y-68427551D01*
X142968910Y-68426500D01*
X142755690Y-68426500D01*
X142750064Y-68427551D01*
X142750060Y-68427552D01*
X142551739Y-68464625D01*
X142551736Y-68464625D01*
X142546102Y-68465679D01*
X142540761Y-68467747D01*
X142540754Y-68467750D01*
X142352622Y-68540632D01*
X142352613Y-68540636D01*
X142347281Y-68542702D01*
X142342414Y-68545715D01*
X142342409Y-68545718D01*
X142170864Y-68651934D01*
X142170855Y-68651940D01*
X142165998Y-68654948D01*
X142161775Y-68658797D01*
X142161768Y-68658803D01*
X142012660Y-68794734D01*
X142012654Y-68794739D01*
X142008428Y-68798593D01*
X142004981Y-68803156D01*
X142004975Y-68803164D01*
X141883386Y-68964173D01*
X141883383Y-68964177D01*
X141879934Y-68968745D01*
X141877382Y-68973870D01*
X141877379Y-68973875D01*
X141868274Y-68992161D01*
X141784895Y-69159611D01*
X141783327Y-69165119D01*
X141783324Y-69165129D01*
X141728114Y-69359168D01*
X141728111Y-69359179D01*
X141726544Y-69364690D01*
X141726014Y-69370400D01*
X141726014Y-69370405D01*
X141715771Y-69480951D01*
X141695667Y-69538003D01*
X141650964Y-69578755D01*
X141592300Y-69593510D01*
X141533636Y-69578755D01*
X141488933Y-69538003D01*
X141468829Y-69480951D01*
X141458593Y-69370489D01*
X141458056Y-69364690D01*
X141399705Y-69159611D01*
X141304666Y-68968745D01*
X141176172Y-68798593D01*
X141018602Y-68654948D01*
X141013738Y-68651936D01*
X141013735Y-68651934D01*
X140842190Y-68545718D01*
X140842189Y-68545717D01*
X140837319Y-68542702D01*
X140831981Y-68540634D01*
X140831977Y-68540632D01*
X140643845Y-68467750D01*
X140643840Y-68467748D01*
X140638498Y-68465679D01*
X140604839Y-68459387D01*
X140434539Y-68427552D01*
X140434536Y-68427551D01*
X140428910Y-68426500D01*
X140215690Y-68426500D01*
X140210064Y-68427551D01*
X140210060Y-68427552D01*
X140011739Y-68464625D01*
X140011736Y-68464625D01*
X140006102Y-68465679D01*
X140000761Y-68467747D01*
X140000754Y-68467750D01*
X139812622Y-68540632D01*
X139812613Y-68540636D01*
X139807281Y-68542702D01*
X139802414Y-68545715D01*
X139802409Y-68545718D01*
X139630864Y-68651934D01*
X139630855Y-68651940D01*
X139625998Y-68654948D01*
X139621775Y-68658797D01*
X139621768Y-68658803D01*
X139472660Y-68794734D01*
X139472654Y-68794739D01*
X139468428Y-68798593D01*
X139464981Y-68803156D01*
X139464975Y-68803164D01*
X139343386Y-68964173D01*
X139343383Y-68964177D01*
X139339934Y-68968745D01*
X139337382Y-68973870D01*
X139337379Y-68973875D01*
X139328274Y-68992161D01*
X139244895Y-69159611D01*
X139243327Y-69165119D01*
X139243324Y-69165129D01*
X139188114Y-69359168D01*
X139188111Y-69359179D01*
X139186544Y-69364690D01*
X139186014Y-69370400D01*
X139186014Y-69370405D01*
X139175771Y-69480951D01*
X139155667Y-69538003D01*
X139110964Y-69578755D01*
X139052300Y-69593510D01*
X138993636Y-69578755D01*
X138948933Y-69538003D01*
X138928829Y-69480951D01*
X138918593Y-69370489D01*
X138918056Y-69364690D01*
X138859705Y-69159611D01*
X138764666Y-68968745D01*
X138636172Y-68798593D01*
X138478602Y-68654948D01*
X138473738Y-68651936D01*
X138473735Y-68651934D01*
X138302190Y-68545718D01*
X138302189Y-68545717D01*
X138297319Y-68542702D01*
X138291981Y-68540634D01*
X138291977Y-68540632D01*
X138103845Y-68467750D01*
X138103840Y-68467748D01*
X138098498Y-68465679D01*
X138064839Y-68459387D01*
X137894539Y-68427552D01*
X137894536Y-68427551D01*
X137888910Y-68426500D01*
X137675690Y-68426500D01*
X137670064Y-68427551D01*
X137670060Y-68427552D01*
X137471739Y-68464625D01*
X137471736Y-68464625D01*
X137466102Y-68465679D01*
X137460761Y-68467747D01*
X137460754Y-68467750D01*
X137272622Y-68540632D01*
X137272613Y-68540636D01*
X137267281Y-68542702D01*
X137262414Y-68545715D01*
X137262409Y-68545718D01*
X137090864Y-68651934D01*
X137090855Y-68651940D01*
X137085998Y-68654948D01*
X137081775Y-68658797D01*
X137081768Y-68658803D01*
X136932660Y-68794734D01*
X136932654Y-68794739D01*
X136928428Y-68798593D01*
X136924981Y-68803156D01*
X136924975Y-68803164D01*
X136803386Y-68964173D01*
X136803383Y-68964177D01*
X136799934Y-68968745D01*
X136797382Y-68973870D01*
X136797379Y-68973875D01*
X136788274Y-68992161D01*
X136704895Y-69159611D01*
X136703327Y-69165119D01*
X136703324Y-69165129D01*
X136648114Y-69359168D01*
X136648111Y-69359179D01*
X136646544Y-69364690D01*
X136646014Y-69370400D01*
X136646014Y-69370405D01*
X136635771Y-69480951D01*
X136615667Y-69538003D01*
X136570964Y-69578755D01*
X136512300Y-69593510D01*
X136453636Y-69578755D01*
X136408933Y-69538003D01*
X136388829Y-69480951D01*
X136378593Y-69370489D01*
X136378056Y-69364690D01*
X136319705Y-69159611D01*
X136224666Y-68968745D01*
X136096172Y-68798593D01*
X135938602Y-68654948D01*
X135933738Y-68651936D01*
X135933735Y-68651934D01*
X135762190Y-68545718D01*
X135762189Y-68545717D01*
X135757319Y-68542702D01*
X135751981Y-68540634D01*
X135751977Y-68540632D01*
X135563845Y-68467750D01*
X135563840Y-68467748D01*
X135558498Y-68465679D01*
X135524839Y-68459387D01*
X135354539Y-68427552D01*
X135354536Y-68427551D01*
X135348910Y-68426500D01*
X135135690Y-68426500D01*
X135130064Y-68427551D01*
X135130060Y-68427552D01*
X134931739Y-68464625D01*
X134931736Y-68464625D01*
X134926102Y-68465679D01*
X134920761Y-68467747D01*
X134920754Y-68467750D01*
X134732622Y-68540632D01*
X134732613Y-68540636D01*
X134727281Y-68542702D01*
X134722414Y-68545715D01*
X134722409Y-68545718D01*
X134550864Y-68651934D01*
X134550855Y-68651940D01*
X134545998Y-68654948D01*
X134541775Y-68658797D01*
X134541768Y-68658803D01*
X134392660Y-68794734D01*
X134392654Y-68794739D01*
X134388428Y-68798593D01*
X134384981Y-68803156D01*
X134384975Y-68803164D01*
X134263386Y-68964173D01*
X134263383Y-68964177D01*
X134259934Y-68968745D01*
X134257382Y-68973870D01*
X134257379Y-68973875D01*
X134248274Y-68992161D01*
X134164895Y-69159611D01*
X134163327Y-69165119D01*
X134163324Y-69165129D01*
X134108114Y-69359168D01*
X134108111Y-69359179D01*
X134106544Y-69364690D01*
X134106014Y-69370400D01*
X134106014Y-69370405D01*
X134095771Y-69480951D01*
X134075667Y-69538003D01*
X134030964Y-69578755D01*
X133972300Y-69593510D01*
X133913636Y-69578755D01*
X133868933Y-69538003D01*
X133848829Y-69480951D01*
X133838593Y-69370489D01*
X133838056Y-69364690D01*
X133779705Y-69159611D01*
X133684666Y-68968745D01*
X133556172Y-68798593D01*
X133398602Y-68654948D01*
X133393738Y-68651936D01*
X133393735Y-68651934D01*
X133222190Y-68545718D01*
X133222189Y-68545717D01*
X133217319Y-68542702D01*
X133211981Y-68540634D01*
X133211977Y-68540632D01*
X133023845Y-68467750D01*
X133023840Y-68467748D01*
X133018498Y-68465679D01*
X132984839Y-68459387D01*
X132814539Y-68427552D01*
X132814536Y-68427551D01*
X132808910Y-68426500D01*
X132595690Y-68426500D01*
X132590064Y-68427551D01*
X132590060Y-68427552D01*
X132391739Y-68464625D01*
X132391736Y-68464625D01*
X132386102Y-68465679D01*
X132380761Y-68467747D01*
X132380754Y-68467750D01*
X132192622Y-68540632D01*
X132192613Y-68540636D01*
X132187281Y-68542702D01*
X132182414Y-68545715D01*
X132182409Y-68545718D01*
X132010864Y-68651934D01*
X132010855Y-68651940D01*
X132005998Y-68654948D01*
X132001775Y-68658797D01*
X132001768Y-68658803D01*
X131852660Y-68794734D01*
X131852654Y-68794739D01*
X131848428Y-68798593D01*
X131844981Y-68803156D01*
X131844975Y-68803164D01*
X131723386Y-68964173D01*
X131723383Y-68964177D01*
X131719934Y-68968745D01*
X131717382Y-68973870D01*
X131717379Y-68973875D01*
X131708274Y-68992161D01*
X131624895Y-69159611D01*
X131623327Y-69165119D01*
X131623324Y-69165129D01*
X131568114Y-69359168D01*
X131568111Y-69359179D01*
X131566544Y-69364690D01*
X131566014Y-69370400D01*
X131566014Y-69370405D01*
X131555771Y-69480951D01*
X131535667Y-69538003D01*
X131490964Y-69578755D01*
X131432300Y-69593510D01*
X131373636Y-69578755D01*
X131328933Y-69538003D01*
X131308829Y-69480951D01*
X131298593Y-69370489D01*
X131298056Y-69364690D01*
X131239705Y-69159611D01*
X131144666Y-68968745D01*
X131016172Y-68798593D01*
X130858602Y-68654948D01*
X130853738Y-68651936D01*
X130853735Y-68651934D01*
X130682190Y-68545718D01*
X130682189Y-68545717D01*
X130677319Y-68542702D01*
X130671981Y-68540634D01*
X130671977Y-68540632D01*
X130483845Y-68467750D01*
X130483840Y-68467748D01*
X130478498Y-68465679D01*
X130444839Y-68459387D01*
X130274539Y-68427552D01*
X130274536Y-68427551D01*
X130268910Y-68426500D01*
X130055690Y-68426500D01*
X130050064Y-68427551D01*
X130050060Y-68427552D01*
X129851739Y-68464625D01*
X129851736Y-68464625D01*
X129846102Y-68465679D01*
X129840761Y-68467747D01*
X129840754Y-68467750D01*
X129652622Y-68540632D01*
X129652613Y-68540636D01*
X129647281Y-68542702D01*
X129642414Y-68545715D01*
X129642409Y-68545718D01*
X129470864Y-68651934D01*
X129470855Y-68651940D01*
X129465998Y-68654948D01*
X129461775Y-68658797D01*
X129461768Y-68658803D01*
X129312660Y-68794734D01*
X129312654Y-68794739D01*
X129308428Y-68798593D01*
X129304981Y-68803156D01*
X129304975Y-68803164D01*
X129183386Y-68964173D01*
X129183383Y-68964177D01*
X129179934Y-68968745D01*
X129177382Y-68973870D01*
X129177379Y-68973875D01*
X129168274Y-68992161D01*
X129084895Y-69159611D01*
X129083327Y-69165119D01*
X129083324Y-69165129D01*
X129028114Y-69359168D01*
X129028111Y-69359179D01*
X129026544Y-69364690D01*
X129026014Y-69370400D01*
X129026014Y-69370405D01*
X129015771Y-69480951D01*
X128995667Y-69538003D01*
X128950964Y-69578755D01*
X128892300Y-69593510D01*
X128833636Y-69578755D01*
X128788933Y-69538003D01*
X128768829Y-69480951D01*
X128758593Y-69370489D01*
X128758056Y-69364690D01*
X128699705Y-69159611D01*
X128604666Y-68968745D01*
X128476172Y-68798593D01*
X128318602Y-68654948D01*
X128313738Y-68651936D01*
X128313735Y-68651934D01*
X128142190Y-68545718D01*
X128142189Y-68545717D01*
X128137319Y-68542702D01*
X128131981Y-68540634D01*
X128131977Y-68540632D01*
X127943845Y-68467750D01*
X127943840Y-68467748D01*
X127938498Y-68465679D01*
X127904839Y-68459387D01*
X127734539Y-68427552D01*
X127734536Y-68427551D01*
X127728910Y-68426500D01*
X127515690Y-68426500D01*
X127510064Y-68427551D01*
X127510060Y-68427552D01*
X127311739Y-68464625D01*
X127311736Y-68464625D01*
X127306102Y-68465679D01*
X127300761Y-68467747D01*
X127300754Y-68467750D01*
X127112622Y-68540632D01*
X127112613Y-68540636D01*
X127107281Y-68542702D01*
X127102414Y-68545715D01*
X127102409Y-68545718D01*
X126930864Y-68651934D01*
X126930855Y-68651940D01*
X126925998Y-68654948D01*
X126921775Y-68658797D01*
X126921768Y-68658803D01*
X126772660Y-68794734D01*
X126772654Y-68794739D01*
X126768428Y-68798593D01*
X126764981Y-68803156D01*
X126764975Y-68803164D01*
X126643386Y-68964173D01*
X126643383Y-68964177D01*
X126639934Y-68968745D01*
X126637382Y-68973870D01*
X126637379Y-68973875D01*
X126628274Y-68992161D01*
X126544895Y-69159611D01*
X126543327Y-69165119D01*
X126543324Y-69165129D01*
X126488114Y-69359168D01*
X126488111Y-69359179D01*
X126486544Y-69364690D01*
X126486014Y-69370400D01*
X126486014Y-69370405D01*
X126475771Y-69480951D01*
X126455667Y-69538003D01*
X126410964Y-69578755D01*
X126352300Y-69593510D01*
X126293636Y-69578755D01*
X126248933Y-69538003D01*
X126228829Y-69480951D01*
X126218593Y-69370489D01*
X126218056Y-69364690D01*
X126159705Y-69159611D01*
X126064666Y-68968745D01*
X125936172Y-68798593D01*
X125778602Y-68654948D01*
X125773738Y-68651936D01*
X125773735Y-68651934D01*
X125602190Y-68545718D01*
X125602189Y-68545717D01*
X125597319Y-68542702D01*
X125591981Y-68540634D01*
X125591977Y-68540632D01*
X125403845Y-68467750D01*
X125403840Y-68467748D01*
X125398498Y-68465679D01*
X125364839Y-68459387D01*
X125194539Y-68427552D01*
X125194536Y-68427551D01*
X125188910Y-68426500D01*
X124975690Y-68426500D01*
X124970064Y-68427551D01*
X124970060Y-68427552D01*
X124771739Y-68464625D01*
X124771736Y-68464625D01*
X124766102Y-68465679D01*
X124760761Y-68467747D01*
X124760754Y-68467750D01*
X124572622Y-68540632D01*
X124572613Y-68540636D01*
X124567281Y-68542702D01*
X124562414Y-68545715D01*
X124562409Y-68545718D01*
X124390864Y-68651934D01*
X124390855Y-68651940D01*
X124385998Y-68654948D01*
X124381775Y-68658797D01*
X124381768Y-68658803D01*
X124232660Y-68794734D01*
X124232654Y-68794739D01*
X124228428Y-68798593D01*
X124224981Y-68803156D01*
X124224975Y-68803164D01*
X124103386Y-68964173D01*
X124103383Y-68964177D01*
X124099934Y-68968745D01*
X124097382Y-68973870D01*
X124097379Y-68973875D01*
X124088274Y-68992161D01*
X124004895Y-69159611D01*
X124003327Y-69165119D01*
X124003324Y-69165129D01*
X123948114Y-69359168D01*
X123948111Y-69359179D01*
X123946544Y-69364690D01*
X123946015Y-69370398D01*
X123946014Y-69370404D01*
X123935519Y-69483662D01*
X123915414Y-69540714D01*
X123870711Y-69581466D01*
X123812047Y-69596220D01*
X123753384Y-69581465D01*
X123708681Y-69540713D01*
X123688577Y-69483661D01*
X123678090Y-69370489D01*
X123675992Y-69359268D01*
X123620808Y-69165314D01*
X123616677Y-69154651D01*
X123526793Y-68974139D01*
X123520786Y-68964437D01*
X123399253Y-68803502D01*
X123391568Y-68795072D01*
X123242532Y-68659207D01*
X123233425Y-68652330D01*
X123061969Y-68546170D01*
X123051752Y-68541082D01*
X122863708Y-68468233D01*
X122852723Y-68465108D01*
X122805729Y-68456323D01*
X122794701Y-68456705D01*
X122792300Y-68467473D01*
X122792300Y-71486527D01*
X122794701Y-71497294D01*
X122805729Y-71497676D01*
X122852723Y-71488891D01*
X122863708Y-71485766D01*
X123051752Y-71412917D01*
X123061969Y-71407829D01*
X123233425Y-71301669D01*
X123242532Y-71294792D01*
X123391568Y-71158927D01*
X123399253Y-71150497D01*
X123520786Y-70989562D01*
X123526793Y-70979860D01*
X123616677Y-70799348D01*
X123620808Y-70788685D01*
X123675992Y-70594731D01*
X123678090Y-70583509D01*
X123688577Y-70470339D01*
X123708681Y-70413286D01*
X123753384Y-70372534D01*
X123812047Y-70357779D01*
X123870711Y-70372533D01*
X123915414Y-70413285D01*
X123935519Y-70470337D01*
X123946014Y-70583594D01*
X123946544Y-70589310D01*
X123948112Y-70594821D01*
X123948114Y-70594831D01*
X124003324Y-70788870D01*
X124003326Y-70788876D01*
X124004895Y-70794389D01*
X124007453Y-70799526D01*
X124092080Y-70969483D01*
X124099934Y-70985255D01*
X124228428Y-71155407D01*
X124385998Y-71299052D01*
X124390863Y-71302064D01*
X124390864Y-71302065D01*
X124471579Y-71352042D01*
X124567281Y-71411298D01*
X124626136Y-71434098D01*
X124627594Y-71434663D01*
X124669121Y-71461269D01*
X124696992Y-71501957D01*
X124706800Y-71550290D01*
X124706800Y-79257001D01*
X124697361Y-79304454D01*
X124670481Y-79344682D01*
X114274307Y-89740853D01*
X114254458Y-89756973D01*
X114245364Y-89762916D01*
X114239058Y-89771017D01*
X114239052Y-89771023D01*
X114225920Y-89787895D01*
X114222473Y-89791822D01*
X114222618Y-89791945D01*
X114219305Y-89795855D01*
X114215680Y-89799482D01*
X114212705Y-89803648D01*
X114212698Y-89803657D01*
X114203601Y-89816399D01*
X114200542Y-89820501D01*
X114174700Y-89853703D01*
X114174696Y-89853710D01*
X114168391Y-89861811D01*
X114165809Y-89869331D01*
X114161190Y-89875801D01*
X114158260Y-89885641D01*
X114158258Y-89885646D01*
X114146256Y-89925957D01*
X114144695Y-89930829D01*
X114131036Y-89970619D01*
X114131035Y-89970624D01*
X114127700Y-89980340D01*
X114127700Y-89988294D01*
X114125432Y-89995912D01*
X114125856Y-90006175D01*
X114125856Y-90006179D01*
X114127594Y-90048193D01*
X114127700Y-90053316D01*
X114127700Y-105749330D01*
X114114185Y-105805625D01*
X114076585Y-105849648D01*
X114023098Y-105871803D01*
X113965382Y-105867261D01*
X113927961Y-105844329D01*
X113926746Y-105845954D01*
X113818631Y-105765019D01*
X113818630Y-105765018D01*
X113811531Y-105759704D01*
X113694009Y-105715871D01*
X113683952Y-105712120D01*
X113683950Y-105712119D01*
X113676683Y-105709409D01*
X113668970Y-105708579D01*
X113668967Y-105708579D01*
X113620380Y-105703355D01*
X113620369Y-105703354D01*
X113617073Y-105703000D01*
X113613750Y-105703000D01*
X112024639Y-105703000D01*
X112024620Y-105703000D01*
X112021328Y-105703001D01*
X112018050Y-105703353D01*
X112018038Y-105703354D01*
X111969431Y-105708579D01*
X111969425Y-105708580D01*
X111961717Y-105709409D01*
X111954452Y-105712118D01*
X111954446Y-105712120D01*
X111835180Y-105756604D01*
X111835178Y-105756604D01*
X111826869Y-105759704D01*
X111819772Y-105765016D01*
X111819768Y-105765019D01*
X111718750Y-105840641D01*
X111718746Y-105840644D01*
X111711654Y-105845954D01*
X111706344Y-105853046D01*
X111706341Y-105853050D01*
X111630719Y-105954068D01*
X111630716Y-105954072D01*
X111625404Y-105961169D01*
X111622304Y-105969478D01*
X111622304Y-105969480D01*
X111577820Y-106088747D01*
X111577819Y-106088750D01*
X111575109Y-106096017D01*
X111574279Y-106103727D01*
X111574279Y-106103732D01*
X111569989Y-106143638D01*
X111548133Y-106201707D01*
X111500881Y-106241919D01*
X111440063Y-106254204D01*
X111380906Y-106235488D01*
X111338223Y-106190455D01*
X111322700Y-106130382D01*
X111322700Y-85169899D01*
X111332139Y-85122446D01*
X111359019Y-85082218D01*
X117184235Y-79257001D01*
X120231189Y-76210046D01*
X120251047Y-76193921D01*
X120260136Y-76187984D01*
X120279579Y-76163002D01*
X120283042Y-76159109D01*
X120282871Y-76158964D01*
X120286183Y-76155053D01*
X120289819Y-76151418D01*
X120301914Y-76134476D01*
X120304921Y-76130442D01*
X120337109Y-76089089D01*
X120339690Y-76081568D01*
X120344310Y-76075099D01*
X120359259Y-76024883D01*
X120360781Y-76020132D01*
X120377800Y-75970560D01*
X120377800Y-75962607D01*
X120380068Y-75954989D01*
X120377906Y-75902708D01*
X120377800Y-75897585D01*
X120377800Y-71550290D01*
X120387608Y-71501957D01*
X120415479Y-71461269D01*
X120457006Y-71434663D01*
X120458086Y-71434244D01*
X120517319Y-71411298D01*
X120698602Y-71299052D01*
X120856172Y-71155407D01*
X120984666Y-70985255D01*
X121079705Y-70794389D01*
X121138056Y-70589310D01*
X121149080Y-70470337D01*
X121169184Y-70413286D01*
X121213887Y-70372534D01*
X121272551Y-70357779D01*
X121331214Y-70372533D01*
X121375918Y-70413286D01*
X121396022Y-70470337D01*
X121406509Y-70583510D01*
X121408607Y-70594731D01*
X121463791Y-70788685D01*
X121467922Y-70799348D01*
X121557806Y-70979860D01*
X121563813Y-70989562D01*
X121685346Y-71150497D01*
X121693031Y-71158927D01*
X121842067Y-71294792D01*
X121851174Y-71301669D01*
X122022630Y-71407829D01*
X122032847Y-71412917D01*
X122220891Y-71485766D01*
X122231876Y-71488891D01*
X122278870Y-71497676D01*
X122289898Y-71497294D01*
X122292300Y-71486527D01*
X122292300Y-68467473D01*
X122289898Y-68456705D01*
X122278870Y-68456323D01*
X122231876Y-68465108D01*
X122220891Y-68468233D01*
X122032847Y-68541082D01*
X122022630Y-68546170D01*
X121851174Y-68652330D01*
X121842067Y-68659207D01*
X121693031Y-68795072D01*
X121685346Y-68803502D01*
X121563813Y-68964437D01*
X121557806Y-68974139D01*
X121467922Y-69154651D01*
X121463791Y-69165314D01*
X121408607Y-69359268D01*
X121406509Y-69370489D01*
X121396022Y-69483662D01*
X121375918Y-69540714D01*
X121331214Y-69581466D01*
X121272551Y-69596220D01*
X121213887Y-69581465D01*
X121169184Y-69540713D01*
X121149080Y-69483661D01*
X121138593Y-69370489D01*
X121138056Y-69364690D01*
X121079705Y-69159611D01*
X120984666Y-68968745D01*
X120856172Y-68798593D01*
X120698602Y-68654948D01*
X120693738Y-68651936D01*
X120693735Y-68651934D01*
X120522190Y-68545718D01*
X120522189Y-68545717D01*
X120517319Y-68542702D01*
X120511981Y-68540634D01*
X120511977Y-68540632D01*
X120323845Y-68467750D01*
X120323840Y-68467748D01*
X120318498Y-68465679D01*
X120284839Y-68459387D01*
X120114539Y-68427552D01*
X120114536Y-68427551D01*
X120108910Y-68426500D01*
X119895690Y-68426500D01*
X119890064Y-68427551D01*
X119890060Y-68427552D01*
X119691739Y-68464625D01*
X119691736Y-68464625D01*
X119686102Y-68465679D01*
X119680761Y-68467747D01*
X119680754Y-68467750D01*
X119492622Y-68540632D01*
X119492613Y-68540636D01*
X119487281Y-68542702D01*
X119482414Y-68545715D01*
X119482409Y-68545718D01*
X119310864Y-68651934D01*
X119310855Y-68651940D01*
X119305998Y-68654948D01*
X119301775Y-68658797D01*
X119301768Y-68658803D01*
X119152660Y-68794734D01*
X119152654Y-68794739D01*
X119148428Y-68798593D01*
X119144981Y-68803156D01*
X119144975Y-68803164D01*
X119023386Y-68964173D01*
X119023383Y-68964177D01*
X119019934Y-68968745D01*
X119017382Y-68973870D01*
X119017379Y-68973875D01*
X119008274Y-68992161D01*
X118924895Y-69159611D01*
X118923327Y-69165119D01*
X118923324Y-69165129D01*
X118868114Y-69359168D01*
X118868111Y-69359179D01*
X118866544Y-69364690D01*
X118866014Y-69370400D01*
X118866014Y-69370405D01*
X118855771Y-69480951D01*
X118835667Y-69538003D01*
X118790964Y-69578755D01*
X118732300Y-69593510D01*
X118673636Y-69578755D01*
X118628933Y-69538003D01*
X118608829Y-69480951D01*
X118598593Y-69370489D01*
X118598056Y-69364690D01*
X118539705Y-69159611D01*
X118444666Y-68968745D01*
X118316172Y-68798593D01*
X118158602Y-68654948D01*
X118153738Y-68651936D01*
X118153735Y-68651934D01*
X117982190Y-68545718D01*
X117982189Y-68545717D01*
X117977319Y-68542702D01*
X117971981Y-68540634D01*
X117971977Y-68540632D01*
X117783845Y-68467750D01*
X117783840Y-68467748D01*
X117778498Y-68465679D01*
X117744839Y-68459387D01*
X117574539Y-68427552D01*
X117574536Y-68427551D01*
X117568910Y-68426500D01*
X117355690Y-68426500D01*
X117350064Y-68427551D01*
X117350060Y-68427552D01*
X117151739Y-68464625D01*
X117151736Y-68464625D01*
X117146102Y-68465679D01*
X117140761Y-68467747D01*
X117140754Y-68467750D01*
X116952622Y-68540632D01*
X116952613Y-68540636D01*
X116947281Y-68542702D01*
X116942414Y-68545715D01*
X116942409Y-68545718D01*
X116770864Y-68651934D01*
X116770855Y-68651940D01*
X116765998Y-68654948D01*
X116761775Y-68658797D01*
X116761768Y-68658803D01*
X116612660Y-68794734D01*
X116612654Y-68794739D01*
X116608428Y-68798593D01*
X116604981Y-68803156D01*
X116604975Y-68803164D01*
X116483386Y-68964173D01*
X116483383Y-68964177D01*
X116479934Y-68968745D01*
X116477382Y-68973870D01*
X116477379Y-68973875D01*
X116468274Y-68992161D01*
X116384895Y-69159611D01*
X116383327Y-69165119D01*
X116383324Y-69165129D01*
X116328114Y-69359168D01*
X116328111Y-69359179D01*
X116326544Y-69364690D01*
X116326014Y-69370400D01*
X116326014Y-69370405D01*
X116315771Y-69480951D01*
X116295667Y-69538003D01*
X116250964Y-69578755D01*
X116192300Y-69593510D01*
X116133636Y-69578755D01*
X116088933Y-69538003D01*
X116068829Y-69480951D01*
X116058593Y-69370489D01*
X116058056Y-69364690D01*
X115999705Y-69159611D01*
X115904666Y-68968745D01*
X115776172Y-68798593D01*
X115618602Y-68654948D01*
X115613738Y-68651936D01*
X115613735Y-68651934D01*
X115442190Y-68545718D01*
X115442189Y-68545717D01*
X115437319Y-68542702D01*
X115431981Y-68540634D01*
X115431977Y-68540632D01*
X115243845Y-68467750D01*
X115243840Y-68467748D01*
X115238498Y-68465679D01*
X115204839Y-68459387D01*
X115034539Y-68427552D01*
X115034536Y-68427551D01*
X115028910Y-68426500D01*
X114815690Y-68426500D01*
X114810064Y-68427551D01*
X114810060Y-68427552D01*
X114611739Y-68464625D01*
X114611736Y-68464625D01*
X114606102Y-68465679D01*
X114600761Y-68467747D01*
X114600754Y-68467750D01*
X114412622Y-68540632D01*
X114412613Y-68540636D01*
X114407281Y-68542702D01*
X114402414Y-68545715D01*
X114402409Y-68545718D01*
X114230864Y-68651934D01*
X114230855Y-68651940D01*
X114225998Y-68654948D01*
X114221775Y-68658797D01*
X114221768Y-68658803D01*
X114072660Y-68794734D01*
X114072654Y-68794739D01*
X114068428Y-68798593D01*
X114064981Y-68803156D01*
X114064975Y-68803164D01*
X113943386Y-68964173D01*
X113943383Y-68964177D01*
X113939934Y-68968745D01*
X113937382Y-68973870D01*
X113937379Y-68973875D01*
X113928274Y-68992161D01*
X113844895Y-69159611D01*
X113843327Y-69165119D01*
X113843324Y-69165129D01*
X113788114Y-69359168D01*
X113788111Y-69359179D01*
X113786544Y-69364690D01*
X113786014Y-69370400D01*
X113786014Y-69370405D01*
X113779771Y-69437784D01*
X113758600Y-69496420D01*
X113711572Y-69537343D01*
X113650573Y-69550211D01*
X113591022Y-69531770D01*
X113547971Y-69486682D01*
X113532300Y-69426343D01*
X113532300Y-68658472D01*
X113531110Y-68646395D01*
X113520177Y-68591433D01*
X113511010Y-68569300D01*
X113469324Y-68506913D01*
X113452386Y-68489975D01*
X113389999Y-68448289D01*
X113367866Y-68439122D01*
X113312904Y-68428189D01*
X113300828Y-68427000D01*
X112648626Y-68427000D01*
X112635750Y-68430450D01*
X112632300Y-68443326D01*
X112632300Y-71510674D01*
X112635750Y-71523549D01*
X112648626Y-71527000D01*
X113300828Y-71527000D01*
X113312904Y-71525810D01*
X113367866Y-71514877D01*
X113389999Y-71505710D01*
X113452386Y-71464024D01*
X113469324Y-71447086D01*
X113511010Y-71384699D01*
X113520177Y-71362566D01*
X113531110Y-71307604D01*
X113532300Y-71295528D01*
X113532300Y-70527657D01*
X113547971Y-70467318D01*
X113591022Y-70422230D01*
X113650573Y-70403789D01*
X113711572Y-70416657D01*
X113758600Y-70457580D01*
X113779771Y-70516216D01*
X113786006Y-70583510D01*
X113786544Y-70589310D01*
X113788112Y-70594821D01*
X113788114Y-70594831D01*
X113843324Y-70788870D01*
X113843326Y-70788876D01*
X113844895Y-70794389D01*
X113847453Y-70799526D01*
X113932080Y-70969483D01*
X113939934Y-70985255D01*
X114068428Y-71155407D01*
X114225998Y-71299052D01*
X114407281Y-71411298D01*
X114606102Y-71488321D01*
X114815690Y-71527500D01*
X115023181Y-71527500D01*
X115028910Y-71527500D01*
X115238498Y-71488321D01*
X115437319Y-71411298D01*
X115618602Y-71299052D01*
X115776172Y-71155407D01*
X115904666Y-70985255D01*
X115999705Y-70794389D01*
X116058056Y-70589310D01*
X116068829Y-70473047D01*
X116088933Y-70415996D01*
X116133636Y-70375244D01*
X116192300Y-70360489D01*
X116250964Y-70375244D01*
X116295667Y-70415996D01*
X116315771Y-70473048D01*
X116326006Y-70583510D01*
X116326544Y-70589310D01*
X116328112Y-70594821D01*
X116328114Y-70594831D01*
X116383324Y-70788870D01*
X116383326Y-70788876D01*
X116384895Y-70794389D01*
X116387453Y-70799526D01*
X116472080Y-70969483D01*
X116479934Y-70985255D01*
X116608428Y-71155407D01*
X116765998Y-71299052D01*
X116947281Y-71411298D01*
X117146102Y-71488321D01*
X117355690Y-71527500D01*
X117563181Y-71527500D01*
X117568910Y-71527500D01*
X117778498Y-71488321D01*
X117977319Y-71411298D01*
X118158602Y-71299052D01*
X118316172Y-71155407D01*
X118444666Y-70985255D01*
X118539705Y-70794389D01*
X118598056Y-70589310D01*
X118608829Y-70473047D01*
X118628933Y-70415996D01*
X118673636Y-70375244D01*
X118732300Y-70360489D01*
X118790964Y-70375244D01*
X118835667Y-70415996D01*
X118855771Y-70473048D01*
X118866006Y-70583510D01*
X118866544Y-70589310D01*
X118868112Y-70594821D01*
X118868114Y-70594831D01*
X118923324Y-70788870D01*
X118923326Y-70788876D01*
X118924895Y-70794389D01*
X118927453Y-70799526D01*
X119012080Y-70969483D01*
X119019934Y-70985255D01*
X119148428Y-71155407D01*
X119305998Y-71299052D01*
X119310863Y-71302064D01*
X119310864Y-71302065D01*
X119391579Y-71352042D01*
X119487281Y-71411298D01*
X119546136Y-71434098D01*
X119547594Y-71434663D01*
X119589121Y-71461269D01*
X119616992Y-71501957D01*
X119626800Y-71550290D01*
X119626800Y-75701001D01*
X119617361Y-75748454D01*
X119590481Y-75788682D01*
X110718307Y-84660853D01*
X110698458Y-84676973D01*
X110689364Y-84682916D01*
X110683058Y-84691017D01*
X110683052Y-84691023D01*
X110669920Y-84707895D01*
X110666473Y-84711822D01*
X110666618Y-84711945D01*
X110663305Y-84715855D01*
X110659680Y-84719482D01*
X110656705Y-84723648D01*
X110656698Y-84723657D01*
X110647601Y-84736399D01*
X110644542Y-84740501D01*
X110618700Y-84773703D01*
X110618696Y-84773710D01*
X110612391Y-84781811D01*
X110609809Y-84789331D01*
X110605190Y-84795801D01*
X110602260Y-84805641D01*
X110602258Y-84805646D01*
X110590256Y-84845957D01*
X110588695Y-84850829D01*
X110575036Y-84890619D01*
X110575035Y-84890624D01*
X110571700Y-84900340D01*
X110571700Y-84908294D01*
X110569432Y-84915912D01*
X110569856Y-84926175D01*
X110569856Y-84926179D01*
X110571594Y-84968193D01*
X110571700Y-84973316D01*
X110571700Y-111859456D01*
X110558185Y-111915751D01*
X110520585Y-111959774D01*
X110467098Y-111981929D01*
X110409382Y-111977387D01*
X110360019Y-111947137D01*
X110318019Y-111905137D01*
X110291139Y-111864909D01*
X110281700Y-111817456D01*
X110281700Y-105967207D01*
X110284064Y-105944405D01*
X110284132Y-105942744D01*
X110286242Y-105932685D01*
X110282550Y-105903065D01*
X110282020Y-105897965D01*
X110281700Y-105894104D01*
X110281700Y-105888960D01*
X110278527Y-105869952D01*
X110277794Y-105864916D01*
X110274878Y-105841523D01*
X110271773Y-105816607D01*
X110268513Y-105809939D01*
X110267292Y-105802619D01*
X110244124Y-105759810D01*
X110241779Y-105755254D01*
X110227952Y-105726969D01*
X110220398Y-105711516D01*
X110215149Y-105706267D01*
X110211618Y-105699742D01*
X110175812Y-105666780D01*
X110172114Y-105663232D01*
X109832838Y-105323956D01*
X109818393Y-105306167D01*
X109817256Y-105304932D01*
X109811637Y-105296331D01*
X109788065Y-105277984D01*
X109784101Y-105274766D01*
X109781141Y-105272259D01*
X109777507Y-105268625D01*
X109766071Y-105260460D01*
X109761853Y-105257448D01*
X109757744Y-105254385D01*
X109727433Y-105230793D01*
X109719326Y-105224483D01*
X109712307Y-105222073D01*
X109706266Y-105217760D01*
X109696423Y-105214829D01*
X109696418Y-105214827D01*
X109659609Y-105203868D01*
X109654732Y-105202306D01*
X109618406Y-105189835D01*
X109618399Y-105189833D01*
X109608688Y-105186500D01*
X109601265Y-105186500D01*
X109594154Y-105184383D01*
X109583889Y-105184807D01*
X109583885Y-105184807D01*
X109545532Y-105186394D01*
X109540408Y-105186500D01*
X108793631Y-105186500D01*
X108729882Y-105168858D01*
X108684273Y-105120953D01*
X108610984Y-104983838D01*
X108610981Y-104983834D01*
X108608110Y-104978462D01*
X108483083Y-104826117D01*
X108330738Y-104701090D01*
X108325367Y-104698219D01*
X108325361Y-104698215D01*
X108162299Y-104611057D01*
X108162295Y-104611055D01*
X108156927Y-104608186D01*
X108151099Y-104606418D01*
X107974162Y-104552744D01*
X107974157Y-104552743D01*
X107968332Y-104550976D01*
X107962273Y-104550379D01*
X107962267Y-104550378D01*
X107778262Y-104532256D01*
X107772200Y-104531659D01*
X107766138Y-104532256D01*
X107582132Y-104550378D01*
X107582124Y-104550379D01*
X107576068Y-104550976D01*
X107570244Y-104552742D01*
X107570237Y-104552744D01*
X107393300Y-104606418D01*
X107393296Y-104606419D01*
X107387473Y-104608186D01*
X107382107Y-104611053D01*
X107382100Y-104611057D01*
X107219038Y-104698215D01*
X107219027Y-104698222D01*
X107213662Y-104701090D01*
X107208954Y-104704953D01*
X107208949Y-104704957D01*
X107066023Y-104822254D01*
X107066018Y-104822258D01*
X107061317Y-104826117D01*
X107057458Y-104830818D01*
X107057454Y-104830823D01*
X106940157Y-104973749D01*
X106940153Y-104973754D01*
X106936290Y-104978462D01*
X106933422Y-104983827D01*
X106933415Y-104983838D01*
X106846257Y-105146900D01*
X106846253Y-105146907D01*
X106843386Y-105152273D01*
X106841619Y-105158096D01*
X106841618Y-105158100D01*
X106787944Y-105335037D01*
X106787942Y-105335044D01*
X106786176Y-105340868D01*
X106785579Y-105346924D01*
X106785578Y-105346932D01*
X106775944Y-105444756D01*
X106766859Y-105537000D01*
X106767456Y-105543061D01*
X106767456Y-105543062D01*
X106785578Y-105727067D01*
X106785579Y-105727073D01*
X106786176Y-105733132D01*
X106787943Y-105738957D01*
X106787944Y-105738962D01*
X106836178Y-105897965D01*
X106843386Y-105921727D01*
X106846255Y-105927095D01*
X106846257Y-105927099D01*
X106933415Y-106090161D01*
X106933419Y-106090167D01*
X106936290Y-106095538D01*
X107061317Y-106247883D01*
X107213662Y-106372910D01*
X107219034Y-106375781D01*
X107219038Y-106375784D01*
X107326943Y-106433460D01*
X107387473Y-106465814D01*
X107576068Y-106523024D01*
X107772200Y-106542341D01*
X107968332Y-106523024D01*
X108156927Y-106465814D01*
X108330738Y-106372910D01*
X108483083Y-106247883D01*
X108608110Y-106095538D01*
X108684273Y-105953046D01*
X108729882Y-105905142D01*
X108793631Y-105887500D01*
X109353656Y-105887500D01*
X109401109Y-105896939D01*
X109441337Y-105923819D01*
X109544381Y-106026863D01*
X109571261Y-106067091D01*
X109580700Y-106114544D01*
X109580700Y-107820456D01*
X109567185Y-107876751D01*
X109529585Y-107920774D01*
X109476098Y-107942929D01*
X109418382Y-107938387D01*
X109369019Y-107908137D01*
X109324838Y-107863956D01*
X109310393Y-107846167D01*
X109309256Y-107844932D01*
X109303637Y-107836331D01*
X109280058Y-107817978D01*
X109276100Y-107814764D01*
X109273133Y-107812251D01*
X109269507Y-107808625D01*
X109265335Y-107805646D01*
X109265330Y-107805642D01*
X109253853Y-107797448D01*
X109249744Y-107794385D01*
X109219433Y-107770793D01*
X109211326Y-107764483D01*
X109204307Y-107762073D01*
X109198266Y-107757760D01*
X109188423Y-107754829D01*
X109188418Y-107754827D01*
X109151609Y-107743868D01*
X109146732Y-107742306D01*
X109110406Y-107729835D01*
X109110399Y-107729833D01*
X109100688Y-107726500D01*
X109093265Y-107726500D01*
X109086154Y-107724383D01*
X109075889Y-107724807D01*
X109075885Y-107724807D01*
X109037532Y-107726394D01*
X109032408Y-107726500D01*
X108793631Y-107726500D01*
X108729882Y-107708858D01*
X108684273Y-107660953D01*
X108610984Y-107523838D01*
X108610981Y-107523834D01*
X108608110Y-107518462D01*
X108483083Y-107366117D01*
X108330738Y-107241090D01*
X108325367Y-107238219D01*
X108325361Y-107238215D01*
X108162299Y-107151057D01*
X108162295Y-107151055D01*
X108156927Y-107148186D01*
X108151099Y-107146418D01*
X107974162Y-107092744D01*
X107974157Y-107092743D01*
X107968332Y-107090976D01*
X107962273Y-107090379D01*
X107962267Y-107090378D01*
X107778262Y-107072256D01*
X107772200Y-107071659D01*
X107766138Y-107072256D01*
X107582132Y-107090378D01*
X107582124Y-107090379D01*
X107576068Y-107090976D01*
X107570244Y-107092742D01*
X107570237Y-107092744D01*
X107393300Y-107146418D01*
X107393296Y-107146419D01*
X107387473Y-107148186D01*
X107382107Y-107151053D01*
X107382100Y-107151057D01*
X107219038Y-107238215D01*
X107219027Y-107238222D01*
X107213662Y-107241090D01*
X107208954Y-107244953D01*
X107208949Y-107244957D01*
X107066023Y-107362254D01*
X107066018Y-107362258D01*
X107061317Y-107366117D01*
X107057458Y-107370818D01*
X107057454Y-107370823D01*
X106940157Y-107513749D01*
X106940153Y-107513754D01*
X106936290Y-107518462D01*
X106933422Y-107523827D01*
X106933415Y-107523838D01*
X106846257Y-107686900D01*
X106846253Y-107686907D01*
X106843386Y-107692273D01*
X106841619Y-107698096D01*
X106841618Y-107698100D01*
X106787944Y-107875037D01*
X106787942Y-107875044D01*
X106786176Y-107880868D01*
X106785579Y-107886924D01*
X106785578Y-107886932D01*
X106772855Y-108016120D01*
X106766859Y-108077000D01*
X106767456Y-108083062D01*
X106785578Y-108267067D01*
X106785579Y-108267073D01*
X106786176Y-108273132D01*
X106787943Y-108278957D01*
X106787944Y-108278962D01*
X106836486Y-108438982D01*
X106843386Y-108461727D01*
X106869871Y-108511276D01*
X106898541Y-108564914D01*
X106913180Y-108622619D01*
X106899238Y-108680496D01*
X106859928Y-108725205D01*
X106804312Y-108746441D01*
X106745208Y-108739308D01*
X106741209Y-108737791D01*
X106734565Y-108734304D01*
X106727286Y-108732509D01*
X106727281Y-108732508D01*
X106588467Y-108698294D01*
X106588460Y-108698293D01*
X106581185Y-108696500D01*
X106423215Y-108696500D01*
X106416195Y-108698230D01*
X106360942Y-108692366D01*
X106313712Y-108662830D01*
X106202302Y-108551420D01*
X106169699Y-108493868D01*
X106171323Y-108427743D01*
X106216454Y-108278968D01*
X106216455Y-108278962D01*
X106218224Y-108273132D01*
X106237541Y-108077000D01*
X106218224Y-107880868D01*
X106161014Y-107692273D01*
X106135378Y-107644311D01*
X106070984Y-107523838D01*
X106070981Y-107523834D01*
X106068110Y-107518462D01*
X105943083Y-107366117D01*
X105790738Y-107241090D01*
X105785367Y-107238219D01*
X105785361Y-107238215D01*
X105622299Y-107151057D01*
X105622295Y-107151055D01*
X105616927Y-107148186D01*
X105611099Y-107146418D01*
X105434162Y-107092744D01*
X105434157Y-107092743D01*
X105428332Y-107090976D01*
X105422273Y-107090379D01*
X105422267Y-107090378D01*
X105238262Y-107072256D01*
X105232200Y-107071659D01*
X105226138Y-107072256D01*
X105042132Y-107090378D01*
X105042124Y-107090379D01*
X105036068Y-107090976D01*
X105030244Y-107092742D01*
X105030237Y-107092744D01*
X104853300Y-107146418D01*
X104853296Y-107146419D01*
X104847473Y-107148186D01*
X104842107Y-107151053D01*
X104842100Y-107151057D01*
X104679038Y-107238215D01*
X104679027Y-107238222D01*
X104673662Y-107241090D01*
X104668954Y-107244953D01*
X104668949Y-107244957D01*
X104526023Y-107362254D01*
X104526018Y-107362258D01*
X104521317Y-107366117D01*
X104517458Y-107370818D01*
X104517454Y-107370823D01*
X104400157Y-107513749D01*
X104400153Y-107513754D01*
X104396290Y-107518462D01*
X104393422Y-107523827D01*
X104393415Y-107523838D01*
X104306257Y-107686900D01*
X104306253Y-107686907D01*
X104303386Y-107692273D01*
X104301619Y-107698096D01*
X104301618Y-107698100D01*
X104247944Y-107875037D01*
X104247942Y-107875044D01*
X104246176Y-107880868D01*
X104245579Y-107886924D01*
X104245578Y-107886932D01*
X104232855Y-108016120D01*
X104226859Y-108077000D01*
X104227456Y-108083062D01*
X104245578Y-108267067D01*
X104245579Y-108267073D01*
X104246176Y-108273132D01*
X104247943Y-108278957D01*
X104247944Y-108278962D01*
X104296486Y-108438982D01*
X104303386Y-108461727D01*
X104306255Y-108467095D01*
X104306257Y-108467099D01*
X104393415Y-108630161D01*
X104393419Y-108630167D01*
X104396290Y-108635538D01*
X104400156Y-108640249D01*
X104400157Y-108640250D01*
X104506893Y-108770307D01*
X104521317Y-108787883D01*
X104673662Y-108912910D01*
X104679034Y-108915781D01*
X104679038Y-108915784D01*
X104758893Y-108958467D01*
X104847473Y-109005814D01*
X105036068Y-109063024D01*
X105232200Y-109082341D01*
X105428332Y-109063024D01*
X105434164Y-109061254D01*
X105434168Y-109061254D01*
X105582943Y-109016123D01*
X105649068Y-109014499D01*
X105706620Y-109047102D01*
X105821509Y-109161991D01*
X105851045Y-109209222D01*
X105856924Y-109264617D01*
X105848227Y-109336249D01*
X105846922Y-109347000D01*
X105847826Y-109354445D01*
X105865058Y-109496370D01*
X105865059Y-109496375D01*
X105865963Y-109503818D01*
X105868622Y-109510829D01*
X105868623Y-109510832D01*
X105899705Y-109592789D01*
X105906836Y-109651893D01*
X105885600Y-109707508D01*
X105840890Y-109746817D01*
X105783014Y-109760758D01*
X105725310Y-109746118D01*
X105622299Y-109691057D01*
X105622295Y-109691055D01*
X105616927Y-109688186D01*
X105561661Y-109671421D01*
X105434162Y-109632744D01*
X105434157Y-109632743D01*
X105428332Y-109630976D01*
X105422273Y-109630379D01*
X105422267Y-109630378D01*
X105238262Y-109612256D01*
X105232200Y-109611659D01*
X105226138Y-109612256D01*
X105042132Y-109630378D01*
X105042124Y-109630379D01*
X105036068Y-109630976D01*
X105030244Y-109632742D01*
X105030237Y-109632744D01*
X104853300Y-109686418D01*
X104853296Y-109686419D01*
X104847473Y-109688186D01*
X104842107Y-109691053D01*
X104842100Y-109691057D01*
X104679038Y-109778215D01*
X104679027Y-109778222D01*
X104673662Y-109781090D01*
X104668954Y-109784953D01*
X104668949Y-109784957D01*
X104526023Y-109902254D01*
X104526018Y-109902258D01*
X104521317Y-109906117D01*
X104517458Y-109910818D01*
X104517454Y-109910823D01*
X104400157Y-110053749D01*
X104400153Y-110053754D01*
X104396290Y-110058462D01*
X104393422Y-110063827D01*
X104393415Y-110063838D01*
X104306257Y-110226900D01*
X104306256Y-110226903D01*
X104303386Y-110232273D01*
X104301619Y-110238096D01*
X104301618Y-110238100D01*
X104247944Y-110415037D01*
X104247942Y-110415044D01*
X104246176Y-110420868D01*
X104245579Y-110426924D01*
X104245578Y-110426932D01*
X104228228Y-110603099D01*
X104226859Y-110617000D01*
X104227456Y-110623062D01*
X104245578Y-110807069D01*
X104245579Y-110807077D01*
X104246176Y-110813132D01*
X104247329Y-110816933D01*
X104244413Y-110876265D01*
X104213434Y-110927950D01*
X103884370Y-111257014D01*
X103873757Y-111265567D01*
X103873833Y-111265655D01*
X103867128Y-111271464D01*
X103859672Y-111276257D01*
X103853867Y-111282955D01*
X103853866Y-111282957D01*
X103827153Y-111313785D01*
X103821127Y-111320258D01*
X103814707Y-111326678D01*
X103814702Y-111326683D01*
X103811579Y-111329807D01*
X103808932Y-111333342D01*
X103808917Y-111333360D01*
X103803474Y-111340630D01*
X103797932Y-111347507D01*
X103771229Y-111378325D01*
X103771225Y-111378330D01*
X103765423Y-111385027D01*
X103761740Y-111393089D01*
X103756944Y-111400553D01*
X103756848Y-111400491D01*
X103756467Y-111401132D01*
X103756568Y-111401187D01*
X103752319Y-111408968D01*
X103747004Y-111416069D01*
X103743905Y-111424376D01*
X103743904Y-111424379D01*
X103729652Y-111462591D01*
X103726266Y-111470766D01*
X103709318Y-111507876D01*
X103709316Y-111507882D01*
X103705635Y-111515943D01*
X103704372Y-111524719D01*
X103701875Y-111533227D01*
X103701764Y-111533194D01*
X103701579Y-111533920D01*
X103701692Y-111533945D01*
X103699807Y-111542608D01*
X103696709Y-111550917D01*
X103696076Y-111559760D01*
X103696076Y-111559762D01*
X103693165Y-111600454D01*
X103692220Y-111609243D01*
X103690300Y-111622601D01*
X103690300Y-111627030D01*
X103690300Y-111636092D01*
X103689984Y-111644939D01*
X103687073Y-111685626D01*
X103687073Y-111685631D01*
X103686441Y-111694473D01*
X103688325Y-111703137D01*
X103688959Y-111711986D01*
X103688843Y-111711994D01*
X103690300Y-111725544D01*
X103690300Y-115731456D01*
X103688843Y-115745005D01*
X103688959Y-115745014D01*
X103688325Y-115753862D01*
X103686441Y-115762527D01*
X103373700Y-115762527D01*
X103373700Y-106398432D01*
X104728013Y-106398432D01*
X104736485Y-106405923D01*
X104842292Y-106462478D01*
X104853492Y-106467117D01*
X105030335Y-106520762D01*
X105042230Y-106523128D01*
X105226139Y-106541242D01*
X105238261Y-106541242D01*
X105422169Y-106523128D01*
X105434064Y-106520762D01*
X105610907Y-106467117D01*
X105622107Y-106462478D01*
X105727913Y-106405923D01*
X105736385Y-106398432D01*
X105730454Y-106388808D01*
X105243742Y-105902095D01*
X105232200Y-105895431D01*
X105220657Y-105902095D01*
X104733943Y-106388809D01*
X104728013Y-106398432D01*
X103373700Y-106398432D01*
X103373700Y-105543061D01*
X104227958Y-105543061D01*
X104246071Y-105726969D01*
X104248437Y-105738864D01*
X104302082Y-105915707D01*
X104306720Y-105926904D01*
X104363276Y-106032716D01*
X104370765Y-106041185D01*
X104380390Y-106035254D01*
X104867103Y-105548542D01*
X104873767Y-105537000D01*
X105590631Y-105537000D01*
X105597295Y-105548542D01*
X106084008Y-106035254D01*
X106093632Y-106041185D01*
X106101123Y-106032713D01*
X106157678Y-105926907D01*
X106162317Y-105915707D01*
X106215962Y-105738864D01*
X106218328Y-105726969D01*
X106236442Y-105543061D01*
X106236442Y-105530939D01*
X106218328Y-105347030D01*
X106215962Y-105335135D01*
X106162317Y-105158292D01*
X106157678Y-105147092D01*
X106101123Y-105041285D01*
X106093632Y-105032813D01*
X106084009Y-105038743D01*
X105597295Y-105525457D01*
X105590631Y-105537000D01*
X104873767Y-105537000D01*
X104867103Y-105525457D01*
X104380389Y-105038743D01*
X104370766Y-105032813D01*
X104363275Y-105041284D01*
X104306720Y-105147093D01*
X104302082Y-105158292D01*
X104248437Y-105335135D01*
X104246071Y-105347030D01*
X104227958Y-105530939D01*
X104227958Y-105543061D01*
X103373700Y-105543061D01*
X103373700Y-104675566D01*
X104728013Y-104675566D01*
X104733943Y-104685189D01*
X105220657Y-105171903D01*
X105232200Y-105178567D01*
X105243742Y-105171903D01*
X105730454Y-104685190D01*
X105736385Y-104675565D01*
X105727916Y-104668076D01*
X105622104Y-104611520D01*
X105610907Y-104606882D01*
X105434064Y-104553237D01*
X105422169Y-104550871D01*
X105238261Y-104532758D01*
X105226139Y-104532758D01*
X105042230Y-104550871D01*
X105030335Y-104553237D01*
X104853492Y-104606882D01*
X104842293Y-104611520D01*
X104736484Y-104668075D01*
X104728013Y-104675566D01*
X103373700Y-104675566D01*
X103373700Y-100977700D01*
X105127792Y-100977700D01*
X105147398Y-101239330D01*
X105205780Y-101495116D01*
X105207475Y-101499434D01*
X105207476Y-101499438D01*
X105299934Y-101735018D01*
X105299937Y-101735024D01*
X105301632Y-101739343D01*
X105303950Y-101743358D01*
X105303953Y-101743364D01*
X105378173Y-101871916D01*
X105432814Y-101966557D01*
X105596395Y-102171681D01*
X105788721Y-102350133D01*
X106005496Y-102497928D01*
X106241877Y-102611763D01*
X106246305Y-102613128D01*
X106246308Y-102613130D01*
X106349737Y-102645033D01*
X106492585Y-102689096D01*
X106752018Y-102728200D01*
X107009747Y-102728200D01*
X107014382Y-102728200D01*
X107273815Y-102689096D01*
X107524523Y-102611763D01*
X107760904Y-102497928D01*
X107977679Y-102350133D01*
X108170005Y-102171681D01*
X108333586Y-101966557D01*
X108464768Y-101739343D01*
X108560620Y-101495116D01*
X108619002Y-101239330D01*
X108638608Y-100977700D01*
X108619002Y-100716070D01*
X108560620Y-100460284D01*
X108464768Y-100216057D01*
X108333586Y-99988843D01*
X108170005Y-99783719D01*
X107977679Y-99605267D01*
X107760904Y-99457472D01*
X107756718Y-99455456D01*
X107528702Y-99345649D01*
X107528696Y-99345646D01*
X107524523Y-99343637D01*
X107520101Y-99342273D01*
X107520091Y-99342269D01*
X107278248Y-99267671D01*
X107278243Y-99267669D01*
X107273815Y-99266304D01*
X107269235Y-99265613D01*
X107269228Y-99265612D01*
X107018965Y-99227890D01*
X107018954Y-99227889D01*
X107014382Y-99227200D01*
X106752018Y-99227200D01*
X106747446Y-99227889D01*
X106747434Y-99227890D01*
X106497171Y-99265612D01*
X106497161Y-99265614D01*
X106492585Y-99266304D01*
X106488159Y-99267668D01*
X106488151Y-99267671D01*
X106246308Y-99342269D01*
X106246293Y-99342274D01*
X106241877Y-99343637D01*
X106237708Y-99345644D01*
X106237697Y-99345649D01*
X106009681Y-99455456D01*
X106009674Y-99455459D01*
X106005496Y-99457472D01*
X106001663Y-99460085D01*
X106001660Y-99460087D01*
X105792549Y-99602657D01*
X105788721Y-99605267D01*
X105785329Y-99608413D01*
X105785323Y-99608419D01*
X105599796Y-99780563D01*
X105596395Y-99783719D01*
X105593506Y-99787341D01*
X105593502Y-99787346D01*
X105435706Y-99985216D01*
X105432814Y-99988843D01*
X105430495Y-99992859D01*
X105430494Y-99992861D01*
X105303953Y-100212035D01*
X105303947Y-100212046D01*
X105301632Y-100216057D01*
X105299939Y-100220370D01*
X105299934Y-100220381D01*
X105207476Y-100455961D01*
X105207473Y-100455968D01*
X105205780Y-100460284D01*
X105204748Y-100464802D01*
X105204747Y-100464808D01*
X105148429Y-100711550D01*
X105148427Y-100711558D01*
X105147398Y-100716070D01*
X105127792Y-100977700D01*
X103373700Y-100977700D01*
X103373700Y-69977000D01*
X105127792Y-69977000D01*
X105147398Y-70238630D01*
X105148428Y-70243143D01*
X105148429Y-70243149D01*
X105200903Y-70473048D01*
X105205780Y-70494416D01*
X105207475Y-70498734D01*
X105207476Y-70498738D01*
X105299934Y-70734318D01*
X105299937Y-70734324D01*
X105301632Y-70738643D01*
X105303950Y-70742658D01*
X105303953Y-70742664D01*
X105333817Y-70794389D01*
X105432814Y-70965857D01*
X105596395Y-71170981D01*
X105788721Y-71349433D01*
X106005496Y-71497228D01*
X106241877Y-71611063D01*
X106246305Y-71612428D01*
X106246308Y-71612430D01*
X106325966Y-71637001D01*
X106492585Y-71688396D01*
X106752018Y-71727500D01*
X107009747Y-71727500D01*
X107014382Y-71727500D01*
X107273815Y-71688396D01*
X107524523Y-71611063D01*
X107760904Y-71497228D01*
X107977679Y-71349433D01*
X108035775Y-71295528D01*
X111232300Y-71295528D01*
X111233489Y-71307604D01*
X111244422Y-71362566D01*
X111253589Y-71384699D01*
X111295275Y-71447086D01*
X111312213Y-71464024D01*
X111374600Y-71505710D01*
X111396733Y-71514877D01*
X111451695Y-71525810D01*
X111463772Y-71527000D01*
X112115974Y-71527000D01*
X112128849Y-71523549D01*
X112132300Y-71510674D01*
X112132300Y-70243326D01*
X112128849Y-70230450D01*
X112115974Y-70227000D01*
X111248626Y-70227000D01*
X111235750Y-70230450D01*
X111232300Y-70243326D01*
X111232300Y-71295528D01*
X108035775Y-71295528D01*
X108170005Y-71170981D01*
X108333586Y-70965857D01*
X108464768Y-70738643D01*
X108560620Y-70494416D01*
X108619002Y-70238630D01*
X108638608Y-69977000D01*
X108619002Y-69715370D01*
X108617930Y-69710674D01*
X111232300Y-69710674D01*
X111235750Y-69723549D01*
X111248626Y-69727000D01*
X112115974Y-69727000D01*
X112128849Y-69723549D01*
X112132300Y-69710674D01*
X112132300Y-68443326D01*
X112128849Y-68430450D01*
X112115974Y-68427000D01*
X111463772Y-68427000D01*
X111451695Y-68428189D01*
X111396733Y-68439122D01*
X111374600Y-68448289D01*
X111312213Y-68489975D01*
X111295275Y-68506913D01*
X111253589Y-68569300D01*
X111244422Y-68591433D01*
X111233489Y-68646395D01*
X111232300Y-68658472D01*
X111232300Y-69710674D01*
X108617930Y-69710674D01*
X108560620Y-69459584D01*
X108464768Y-69215357D01*
X108333586Y-68988143D01*
X108170005Y-68783019D01*
X107977679Y-68604567D01*
X107760904Y-68456772D01*
X107732983Y-68443326D01*
X107528702Y-68344949D01*
X107528696Y-68344946D01*
X107524523Y-68342937D01*
X107520101Y-68341573D01*
X107520091Y-68341569D01*
X107278248Y-68266971D01*
X107278243Y-68266969D01*
X107273815Y-68265604D01*
X107269235Y-68264913D01*
X107269228Y-68264912D01*
X107018965Y-68227190D01*
X107018954Y-68227189D01*
X107014382Y-68226500D01*
X106752018Y-68226500D01*
X106747446Y-68227189D01*
X106747434Y-68227190D01*
X106497171Y-68264912D01*
X106497161Y-68264914D01*
X106492585Y-68265604D01*
X106488159Y-68266968D01*
X106488151Y-68266971D01*
X106246308Y-68341569D01*
X106246293Y-68341574D01*
X106241877Y-68342937D01*
X106237708Y-68344944D01*
X106237697Y-68344949D01*
X106009681Y-68454756D01*
X106009674Y-68454759D01*
X106005496Y-68456772D01*
X106001663Y-68459385D01*
X106001660Y-68459387D01*
X105882496Y-68540632D01*
X105788721Y-68604567D01*
X105785329Y-68607713D01*
X105785323Y-68607719D01*
X105599796Y-68779863D01*
X105596395Y-68783019D01*
X105593506Y-68786641D01*
X105593502Y-68786646D01*
X105435706Y-68984516D01*
X105432814Y-68988143D01*
X105430495Y-68992159D01*
X105430494Y-68992161D01*
X105303953Y-69211335D01*
X105303947Y-69211346D01*
X105301632Y-69215357D01*
X105299939Y-69219670D01*
X105299934Y-69219681D01*
X105207476Y-69455261D01*
X105207473Y-69455268D01*
X105205780Y-69459584D01*
X105204748Y-69464102D01*
X105204747Y-69464108D01*
X105148429Y-69710850D01*
X105148427Y-69710858D01*
X105147398Y-69715370D01*
X105127792Y-69977000D01*
X103373700Y-69977000D01*
X103373700Y-67440751D01*
X103373926Y-67433264D01*
X103389575Y-67174544D01*
X103391380Y-67159679D01*
X103437425Y-66908424D01*
X103441003Y-66893906D01*
X103517005Y-66650004D01*
X103522302Y-66636038D01*
X103627149Y-66403077D01*
X103634094Y-66389845D01*
X103766256Y-66171223D01*
X103774743Y-66158927D01*
X103932293Y-65957829D01*
X103942208Y-65946638D01*
X104122838Y-65766008D01*
X104134029Y-65756093D01*
X104335127Y-65598543D01*
X104347423Y-65590056D01*
X104566045Y-65457894D01*
X104579277Y-65450949D01*
X104812238Y-65346102D01*
X104826204Y-65340805D01*
X105070106Y-65264803D01*
X105084620Y-65261225D01*
X105335883Y-65215179D01*
X105350740Y-65213375D01*
X105609463Y-65197726D01*
X105616951Y-65197500D01*
X105660795Y-65197500D01*
X183035605Y-65197500D01*
X183079449Y-65197500D01*
X183086936Y-65197726D01*
G37*
%TD.AperFunction*%
%TD*%
M02*
