%TF.GenerationSoftware,KiCad,Pcbnew,(7.0.0)*%
%TF.CreationDate,2023-07-28T08:35:31+03:00*%
%TF.ProjectId,Digital_Timer_Switch,44696769-7461-46c5-9f54-696d65725f53,rev?*%
%TF.SameCoordinates,Original*%
%TF.FileFunction,Copper,L2,Bot*%
%TF.FilePolarity,Positive*%
%FSLAX46Y46*%
G04 Gerber Fmt 4.6, Leading zero omitted, Abs format (unit mm)*
G04 Created by KiCad (PCBNEW (7.0.0)) date 2023-07-28 08:35:31*
%MOMM*%
%LPD*%
G01*
G04 APERTURE LIST*
G04 Aperture macros list*
%AMRoundRect*
0 Rectangle with rounded corners*
0 $1 Rounding radius*
0 $2 $3 $4 $5 $6 $7 $8 $9 X,Y pos of 4 corners*
0 Add a 4 corners polygon primitive as box body*
4,1,4,$2,$3,$4,$5,$6,$7,$8,$9,$2,$3,0*
0 Add four circle primitives for the rounded corners*
1,1,$1+$1,$2,$3*
1,1,$1+$1,$4,$5*
1,1,$1+$1,$6,$7*
1,1,$1+$1,$8,$9*
0 Add four rect primitives between the rounded corners*
20,1,$1+$1,$2,$3,$4,$5,0*
20,1,$1+$1,$4,$5,$6,$7,0*
20,1,$1+$1,$6,$7,$8,$9,0*
20,1,$1+$1,$8,$9,$2,$3,0*%
G04 Aperture macros list end*
%TA.AperFunction,ComponentPad*%
%ADD10R,2.540000X2.540000*%
%TD*%
%TA.AperFunction,ComponentPad*%
%ADD11C,2.540000*%
%TD*%
%TA.AperFunction,ComponentPad*%
%ADD12R,2.600000X2.600000*%
%TD*%
%TA.AperFunction,ComponentPad*%
%ADD13C,2.600000*%
%TD*%
%TA.AperFunction,ComponentPad*%
%ADD14C,2.000000*%
%TD*%
%TA.AperFunction,ComponentPad*%
%ADD15RoundRect,0.250000X-0.750000X0.600000X-0.750000X-0.600000X0.750000X-0.600000X0.750000X0.600000X0*%
%TD*%
%TA.AperFunction,ComponentPad*%
%ADD16O,2.000000X1.700000*%
%TD*%
%TA.AperFunction,ComponentPad*%
%ADD17C,3.000000*%
%TD*%
%TA.AperFunction,ComponentPad*%
%ADD18R,1.800000X2.600000*%
%TD*%
%TA.AperFunction,ComponentPad*%
%ADD19O,1.800000X2.600000*%
%TD*%
%TA.AperFunction,ComponentPad*%
%ADD20C,1.800000*%
%TD*%
%TA.AperFunction,ComponentPad*%
%ADD21R,2.000000X2.300000*%
%TD*%
%TA.AperFunction,ComponentPad*%
%ADD22C,2.300000*%
%TD*%
%TA.AperFunction,ViaPad*%
%ADD23C,0.800000*%
%TD*%
%TA.AperFunction,Conductor*%
%ADD24C,2.000000*%
%TD*%
%TA.AperFunction,Conductor*%
%ADD25C,0.500000*%
%TD*%
%TA.AperFunction,Conductor*%
%ADD26C,0.200000*%
%TD*%
%TA.AperFunction,Conductor*%
%ADD27C,0.250000*%
%TD*%
G04 APERTURE END LIST*
D10*
%TO.P,U202,1*%
%TO.N,/Digital_Timer_Switch_Power/AC_OUT*%
X167131999Y-69595999D03*
D11*
%TO.P,U202,2*%
%TO.N,/Digital_Timer_Switch_Power/AC_L*%
X163322000Y-69596000D03*
%TO.P,U202,3*%
%TO.N,Net-(R202-Pad1)*%
X155702000Y-69596000D03*
%TO.P,U202,4*%
%TO.N,GND*%
X151892000Y-69596000D03*
%TD*%
D12*
%TO.P,J101,1,Pin_1*%
%TO.N,/Digital_Timer_Switch_Power/AC_IN_L*%
X164718999Y-93030999D03*
D13*
%TO.P,J101,2,Pin_2*%
%TO.N,/Digital_Timer_Switch_Power/AC_IN_N*%
X164719000Y-87951000D03*
%TD*%
D14*
%TO.P,C207,1*%
%TO.N,/Digital_Timer_Switch_Power/AC_L*%
X149793000Y-79375000D03*
%TO.P,C207,2*%
%TO.N,/Digital_Timer_Switch_Power/AC_IN_N*%
X157293000Y-79375000D03*
%TD*%
%TO.P,C206,1*%
%TO.N,/Digital_Timer_Switch_Power/AC_L*%
X149793000Y-83058000D03*
%TO.P,C206,2*%
%TO.N,/Digital_Timer_Switch_Power/AC_IN_N*%
X157293000Y-83058000D03*
%TD*%
D15*
%TO.P,J102,1,Pin_1*%
%TO.N,Net-(J102-Pin_1)*%
X98646000Y-67306500D03*
D16*
%TO.P,J102,2,Pin_2*%
%TO.N,GND*%
X98645999Y-69806499D03*
%TD*%
D17*
%TO.P,DS401,*%
%TO.N,*%
X92710000Y-30480000D03*
X92710000Y-61480700D03*
X167708580Y-61480700D03*
X167709100Y-30480000D03*
D18*
%TO.P,DS401,1,VSS*%
%TO.N,GND*%
X98209099Y-30479999D03*
D19*
%TO.P,DS401,2,VDD*%
%TO.N,+5V*%
X100749099Y-30479999D03*
%TO.P,DS401,3,VO*%
%TO.N,/MODULE_LCD1602_4BIT/CONTRAST*%
X103289099Y-30479999D03*
%TO.P,DS401,4,RS*%
%TO.N,/MCU_ATMEGA328P-M/PC5*%
X105829099Y-30479999D03*
%TO.P,DS401,5,R/W*%
%TO.N,GND*%
X108369099Y-30479999D03*
%TO.P,DS401,6,E*%
%TO.N,/MCU_ATMEGA328P-M/PC4*%
X110909099Y-30479999D03*
%TO.P,DS401,7,D0*%
%TO.N,unconnected-(DS401-D0-Pad7)*%
X113449099Y-30479999D03*
%TO.P,DS401,8,D1*%
%TO.N,unconnected-(DS401-D1-Pad8)*%
X115989099Y-30479999D03*
%TO.P,DS401,9,D2*%
%TO.N,unconnected-(DS401-D2-Pad9)*%
X118529099Y-30479999D03*
%TO.P,DS401,10,D3*%
%TO.N,unconnected-(DS401-D3-Pad10)*%
X121069099Y-30479999D03*
%TO.P,DS401,11,D4*%
%TO.N,/MCU_ATMEGA328P-M/PC3*%
X123609099Y-30479999D03*
%TO.P,DS401,12,D5*%
%TO.N,/MCU_ATMEGA328P-M/PC2*%
X126149099Y-30479999D03*
%TO.P,DS401,13,D6*%
%TO.N,/MCU_ATMEGA328P-M/PC1*%
X128689099Y-30479999D03*
%TO.P,DS401,14,D7*%
%TO.N,/MCU_ATMEGA328P-M/PC0*%
X131229099Y-30479999D03*
%TO.P,DS401,15,LED(+)*%
%TO.N,+5V*%
X133769099Y-30479999D03*
%TO.P,DS401,16,LED(-)*%
%TO.N,/MODULE_LCD1602_4BIT/CATHODE*%
X136309099Y-30479999D03*
%TD*%
D20*
%TO.P,MOV201,1*%
%TO.N,Net-(F201-Pad1)*%
X155056500Y-96814000D03*
%TO.P,MOV201,2*%
%TO.N,/Digital_Timer_Switch_Power/AC_IN_N*%
X157256500Y-89314000D03*
%TD*%
D14*
%TO.P,TH201,1*%
%TO.N,/Digital_Timer_Switch_Power/AC_L*%
X150749000Y-99060000D03*
%TO.P,TH201,2*%
%TO.N,Net-(F201-Pad1)*%
X150759000Y-93980000D03*
%TD*%
D21*
%TO.P,PS201,1,AC/L*%
%TO.N,/Digital_Timer_Switch_Power/AC_L*%
X134913999Y-97620499D03*
D22*
%TO.P,PS201,2,AC/N*%
%TO.N,/Digital_Timer_Switch_Power/AC_IN_N*%
X139914000Y-97620500D03*
%TO.P,PS201,3,-Vout*%
%TO.N,GND*%
X129714000Y-68220500D03*
%TO.P,PS201,4,+Vout*%
%TO.N,Net-(D201-A)*%
X145114000Y-68220500D03*
%TD*%
D12*
%TO.P,J103,1,Pin_1*%
%TO.N,/Digital_Timer_Switch_Power/AC_IN_N*%
X164718999Y-81859999D03*
D13*
%TO.P,J103,2,Pin_2*%
%TO.N,/Digital_Timer_Switch_Power/AC_OUT*%
X164719000Y-76780000D03*
%TD*%
D14*
%TO.P,F201,1*%
%TO.N,Net-(F201-Pad1)*%
X160985000Y-98746000D03*
%TO.P,F201,2*%
%TO.N,/Digital_Timer_Switch_Power/AC_IN_L*%
X166065000Y-98756000D03*
%TD*%
D23*
%TO.N,GND*%
X103886000Y-91414600D03*
X100101400Y-86944200D03*
X92659200Y-99364800D03*
X110998000Y-98069400D03*
X103530400Y-79502000D03*
X93522800Y-77825600D03*
X105003600Y-87045800D03*
X111480600Y-80086200D03*
X108356400Y-44831000D03*
X108813600Y-49428400D03*
X100482400Y-98171000D03*
X121539000Y-81457800D03*
X121183400Y-98069400D03*
X94141303Y-91008200D03*
X90119200Y-79857600D03*
X101092000Y-73101200D03*
X94028035Y-81765365D03*
X107950000Y-69900800D03*
X103708200Y-70916800D03*
X103301800Y-50444400D03*
X110998000Y-89890600D03*
X90982800Y-74574400D03*
X108966000Y-52959000D03*
X121793000Y-89890600D03*
X108940600Y-65659000D03*
X133019800Y-34645600D03*
X97028000Y-75565000D03*
X114274600Y-39065200D03*
X105791000Y-69469000D03*
%TO.N,+3V3*%
X93141800Y-91008200D03*
X107772200Y-81153000D03*
X92659200Y-79629000D03*
X103860600Y-92913200D03*
X97028000Y-76581000D03*
X114757200Y-92913200D03*
X104952800Y-85979000D03*
X93319600Y-92913200D03*
%TO.N,Net-(D201-A)*%
X104664600Y-74322700D03*
%TO.N,/Digital_Timer_Switch_Power/RELAY_EN*%
X153847800Y-66040000D03*
X101219000Y-83609500D03*
%TO.N,/MCU_ATMEGA328P-M/PC0*%
X102887000Y-78350600D03*
%TO.N,/MCU_ATMEGA328P-M/PC1*%
X102997000Y-77216000D03*
%TO.N,/MCU_ATMEGA328P-M/PB5*%
X102146872Y-82998977D03*
X112826800Y-71577200D03*
%TO.N,/MCU_ATMEGA328P-M/PC2*%
X101727000Y-76962000D03*
%TO.N,/MCU_ATMEGA328P-M/PC3*%
X101092000Y-75946000D03*
%TO.N,/MCU_ATMEGA328P-M/PC4*%
X100000000Y-76000000D03*
%TO.N,/MCU_ATMEGA328P-M/PC5*%
X99060000Y-74803000D03*
%TD*%
D24*
%TO.N,/Digital_Timer_Switch_Power/AC_L*%
X134914000Y-87615400D02*
X139471400Y-83058000D01*
X147070600Y-100300000D02*
X135910800Y-100300000D01*
X159181800Y-75996800D02*
X151155400Y-75996800D01*
X135910800Y-100300000D02*
X134914000Y-99303200D01*
X134914000Y-97620500D02*
X134914000Y-87615400D01*
X134914000Y-99303200D02*
X134914000Y-97620500D01*
X163322000Y-69596000D02*
X163322000Y-71856600D01*
X163322000Y-71856600D02*
X159181800Y-75996800D01*
X148310600Y-99060000D02*
X147070600Y-100300000D01*
X149793000Y-83058000D02*
X149793000Y-79375000D01*
X151155400Y-75996800D02*
X149793000Y-77359200D01*
X139471400Y-83058000D02*
X149793000Y-83058000D01*
X149793000Y-77359200D02*
X149793000Y-79375000D01*
X150749000Y-99060000D02*
X148310600Y-99060000D01*
%TO.N,/Digital_Timer_Switch_Power/AC_IN_N*%
X139914000Y-91607000D02*
X142207000Y-89314000D01*
X157293000Y-83058000D02*
X157293000Y-89277500D01*
X163356000Y-89314000D02*
X164719000Y-87951000D01*
X157256500Y-89314000D02*
X163356000Y-89314000D01*
X139914000Y-97620500D02*
X139914000Y-91607000D01*
X142207000Y-89314000D02*
X157256500Y-89314000D01*
X157293000Y-79375000D02*
X157293000Y-81711800D01*
X164719000Y-81860000D02*
X164719000Y-87951000D01*
X157293000Y-81711800D02*
X157293000Y-83058000D01*
X164719000Y-81860000D02*
X157441200Y-81860000D01*
X157441200Y-81860000D02*
X157293000Y-81711800D01*
X157293000Y-89277500D02*
X157256500Y-89314000D01*
D25*
%TO.N,+3V3*%
X97028000Y-76581000D02*
X97028000Y-78867000D01*
X104952800Y-85979000D02*
X107772200Y-85979000D01*
X107772200Y-85369400D02*
X107772200Y-92913200D01*
X97713800Y-85979000D02*
X97028000Y-85293200D01*
X103860600Y-92913200D02*
X107772200Y-92913200D01*
X104952800Y-85979000D02*
X97713800Y-85979000D01*
X93319600Y-92913200D02*
X103860600Y-92913200D01*
X93141800Y-91008200D02*
X93141800Y-92735400D01*
X97028000Y-85293200D02*
X97028000Y-78867000D01*
X107772200Y-85369400D02*
X107772200Y-81153000D01*
X107772200Y-92913200D02*
X114757200Y-92913200D01*
X93141800Y-92735400D02*
X93319600Y-92913200D01*
X97028000Y-79629000D02*
X92659200Y-79629000D01*
%TO.N,Net-(D201-A)*%
X143891000Y-65100200D02*
X145114000Y-66323200D01*
X145114000Y-66323200D02*
X145114000Y-68220500D01*
X107973100Y-74322700D02*
X117195600Y-65100200D01*
X117195600Y-65100200D02*
X143891000Y-65100200D01*
X104664600Y-74322700D02*
X107973100Y-74322700D01*
D24*
%TO.N,/Digital_Timer_Switch_Power/AC_IN_L*%
X164719000Y-93031000D02*
X164719000Y-97410000D01*
X164719000Y-97410000D02*
X166065000Y-98756000D01*
%TO.N,Net-(F201-Pad1)*%
X156988500Y-98746000D02*
X155056500Y-96814000D01*
X150759000Y-93980000D02*
X152222500Y-93980000D01*
X152222500Y-93980000D02*
X155056500Y-96814000D01*
X160985000Y-98746000D02*
X156988500Y-98746000D01*
D26*
%TO.N,/Digital_Timer_Switch_Power/RELAY_EN*%
X102590600Y-83921600D02*
X102896900Y-83615300D01*
X102896900Y-81481700D02*
X103428800Y-80949800D01*
X101531100Y-83921600D02*
X102590600Y-83921600D01*
X115722400Y-70485000D02*
X146761200Y-70485000D01*
X146761200Y-70485000D02*
X151206200Y-66040000D01*
X101219000Y-83609500D02*
X101531100Y-83921600D01*
X106832400Y-79375000D02*
X115722400Y-70485000D01*
X105918000Y-79375000D02*
X106832400Y-79375000D01*
X103428800Y-80949800D02*
X104343200Y-80949800D01*
X151206200Y-66040000D02*
X153847800Y-66040000D01*
X104343200Y-80949800D02*
X105918000Y-79375000D01*
X102896900Y-83615300D02*
X102896900Y-81481700D01*
D24*
%TO.N,/Digital_Timer_Switch_Power/AC_OUT*%
X167132000Y-69596000D02*
X167132000Y-74367000D01*
X167132000Y-74367000D02*
X164719000Y-76780000D01*
D27*
%TO.N,/MCU_ATMEGA328P-M/PC0*%
X131229100Y-47942500D02*
X131229100Y-30480000D01*
X103860600Y-73533000D02*
X106553000Y-70840600D01*
X106553000Y-70840600D02*
X108331000Y-70840600D01*
X108331000Y-70840600D02*
X131229100Y-47942500D01*
X103860600Y-77377000D02*
X103860600Y-73533000D01*
X102887000Y-78350600D02*
X103860600Y-77377000D01*
%TO.N,/MCU_ATMEGA328P-M/PC1*%
X107188000Y-56515000D02*
X128689100Y-35013900D01*
X128689100Y-35013900D02*
X128689100Y-30480000D01*
X102997000Y-77216000D02*
X103098600Y-77114400D01*
X103098600Y-73367900D02*
X107188000Y-69278500D01*
X107188000Y-69278500D02*
X107188000Y-56515000D01*
X103098600Y-77114400D02*
X103098600Y-73367900D01*
D26*
%TO.N,/MCU_ATMEGA328P-M/PB5*%
X102146872Y-82998977D02*
X102146872Y-81241128D01*
X104202000Y-80202000D02*
X112826800Y-71577200D01*
X103186000Y-80202000D02*
X104202000Y-80202000D01*
X102146872Y-81241128D02*
X103186000Y-80202000D01*
D27*
%TO.N,/MCU_ATMEGA328P-M/PC2*%
X102336600Y-76352400D02*
X102336600Y-71018400D01*
X105015200Y-55131800D02*
X126149100Y-33997900D01*
X126149100Y-33997900D02*
X126149100Y-30480000D01*
X102336600Y-71018400D02*
X105015200Y-68339800D01*
X105015200Y-68339800D02*
X105015200Y-55131800D01*
X101727000Y-76962000D02*
X102336600Y-76352400D01*
%TO.N,/MCU_ATMEGA328P-M/PC3*%
X101777800Y-70993000D02*
X101777800Y-54178200D01*
X100050600Y-72720200D02*
X101777800Y-70993000D01*
X100050600Y-73456800D02*
X100050600Y-72720200D01*
X101092000Y-74498200D02*
X100050600Y-73456800D01*
X101092000Y-75946000D02*
X101092000Y-74498200D01*
X101777800Y-54178200D02*
X123609100Y-32346900D01*
X123609100Y-32346900D02*
X123609100Y-30480000D01*
%TO.N,/MCU_ATMEGA328P-M/PC4*%
X100000000Y-76000000D02*
X100000000Y-74473000D01*
X100330000Y-50546000D02*
X110909100Y-39966900D01*
X110909100Y-39966900D02*
X110909100Y-30480000D01*
X100000000Y-74473000D02*
X98958400Y-73431400D01*
X98958400Y-73431400D02*
X98958400Y-72288400D01*
X100330000Y-70916800D02*
X100330000Y-50546000D01*
X98958400Y-72288400D02*
X100330000Y-70916800D01*
%TO.N,/MCU_ATMEGA328P-M/PC5*%
X105829100Y-36410900D02*
X105829100Y-30480000D01*
X96774000Y-72517000D02*
X96774000Y-45466000D01*
X96774000Y-45466000D02*
X105829100Y-36410900D01*
X99060000Y-74803000D02*
X96774000Y-72517000D01*
%TD*%
%TA.AperFunction,Conductor*%
%TO.N,GND*%
G36*
X101909985Y-71539781D02*
G01*
X101947585Y-71583804D01*
X101961100Y-71640099D01*
X101961100Y-75726545D01*
X101942434Y-75791972D01*
X101892056Y-75837702D01*
X101825132Y-75849966D01*
X101761812Y-75825073D01*
X101721158Y-75770516D01*
X101674881Y-75648494D01*
X101672220Y-75641477D01*
X101582483Y-75511470D01*
X101509273Y-75446612D01*
X101478424Y-75404687D01*
X101467500Y-75353796D01*
X101467500Y-74550005D01*
X101470140Y-74524556D01*
X101470258Y-74523990D01*
X101470258Y-74523989D01*
X101472367Y-74513932D01*
X101468451Y-74482523D01*
X101468128Y-74477313D01*
X101467924Y-74477330D01*
X101467500Y-74472218D01*
X101467500Y-74467086D01*
X101464074Y-74446562D01*
X101463341Y-74441526D01*
X101458137Y-74399772D01*
X101456866Y-74389574D01*
X101453373Y-74382429D01*
X101452065Y-74374590D01*
X101427158Y-74328566D01*
X101424837Y-74324059D01*
X101401826Y-74276989D01*
X101396202Y-74271365D01*
X101392419Y-74264374D01*
X101384858Y-74257414D01*
X101384857Y-74257412D01*
X101353917Y-74228930D01*
X101350219Y-74225382D01*
X100462419Y-73337581D01*
X100435539Y-73297353D01*
X100426100Y-73249900D01*
X100426100Y-72927099D01*
X100435539Y-72879646D01*
X100462419Y-72839418D01*
X101749419Y-71552418D01*
X101798782Y-71522168D01*
X101856498Y-71517626D01*
X101909985Y-71539781D01*
G37*
%TD.AperFunction*%
%TA.AperFunction,Conductor*%
G36*
X97327682Y-67868080D02*
G01*
X97374934Y-67908292D01*
X97396790Y-67966363D01*
X97401079Y-68006268D01*
X97401080Y-68006273D01*
X97401909Y-68013983D01*
X97404619Y-68021249D01*
X97404620Y-68021253D01*
X97423242Y-68071180D01*
X97452204Y-68148831D01*
X97457518Y-68155930D01*
X97457519Y-68155931D01*
X97522503Y-68242739D01*
X97538454Y-68264046D01*
X97653669Y-68350296D01*
X97788517Y-68400591D01*
X97848127Y-68407000D01*
X99443872Y-68406999D01*
X99503483Y-68400591D01*
X99638331Y-68350296D01*
X99753546Y-68264046D01*
X99754761Y-68265670D01*
X99792182Y-68242739D01*
X99849898Y-68238197D01*
X99903385Y-68260352D01*
X99940985Y-68304375D01*
X99954500Y-68360670D01*
X99954500Y-69149114D01*
X99939048Y-69209058D01*
X99896543Y-69254063D01*
X99837579Y-69272912D01*
X99776850Y-69260907D01*
X99729493Y-69221041D01*
X99634536Y-69087693D01*
X99626827Y-69078796D01*
X99483341Y-68941982D01*
X99474100Y-68934715D01*
X99307314Y-68827528D01*
X99296856Y-68822136D01*
X99112798Y-68748450D01*
X99101515Y-68745137D01*
X98907603Y-68707765D01*
X98899450Y-68709950D01*
X98896000Y-68722826D01*
X98896000Y-70884627D01*
X98899760Y-70897819D01*
X98913246Y-70900308D01*
X98999242Y-70892096D01*
X99010793Y-70889869D01*
X99201026Y-70834012D01*
X99211932Y-70829646D01*
X99388159Y-70738795D01*
X99398055Y-70732435D01*
X99553894Y-70609882D01*
X99562408Y-70601764D01*
X99692243Y-70451927D01*
X99699062Y-70442350D01*
X99723113Y-70400694D01*
X99768500Y-70355307D01*
X99830500Y-70338694D01*
X99892500Y-70355307D01*
X99937887Y-70400694D01*
X99954500Y-70462694D01*
X99954500Y-70709900D01*
X99945061Y-70757353D01*
X99918181Y-70797581D01*
X98729507Y-71986253D01*
X98709658Y-72002373D01*
X98700564Y-72008316D01*
X98694258Y-72016417D01*
X98694252Y-72016423D01*
X98681120Y-72033295D01*
X98677673Y-72037222D01*
X98677818Y-72037345D01*
X98674505Y-72041255D01*
X98670880Y-72044882D01*
X98667905Y-72049048D01*
X98667898Y-72049057D01*
X98658801Y-72061799D01*
X98655742Y-72065901D01*
X98629900Y-72099103D01*
X98629896Y-72099110D01*
X98623591Y-72107211D01*
X98621009Y-72114731D01*
X98616390Y-72121201D01*
X98613460Y-72131041D01*
X98613458Y-72131046D01*
X98601456Y-72171357D01*
X98599895Y-72176229D01*
X98586236Y-72216019D01*
X98586235Y-72216024D01*
X98582900Y-72225740D01*
X98582900Y-72233694D01*
X98580632Y-72241312D01*
X98581056Y-72251575D01*
X98581056Y-72251579D01*
X98582794Y-72293593D01*
X98582900Y-72298716D01*
X98582900Y-73379595D01*
X98580260Y-73405044D01*
X98580141Y-73405609D01*
X98580140Y-73405616D01*
X98578033Y-73415668D01*
X98579303Y-73425858D01*
X98579303Y-73425862D01*
X98581948Y-73447076D01*
X98582271Y-73452291D01*
X98582477Y-73452274D01*
X98582900Y-73457379D01*
X98582900Y-73462514D01*
X98583745Y-73467577D01*
X98585758Y-73479644D01*
X98580391Y-73541283D01*
X98545908Y-73592656D01*
X98490896Y-73620972D01*
X98429049Y-73619181D01*
X98375767Y-73587729D01*
X97185819Y-72397781D01*
X97158939Y-72357553D01*
X97149500Y-72310100D01*
X97149500Y-70059005D01*
X97427927Y-70059005D01*
X97428060Y-70070179D01*
X97450377Y-70162170D01*
X97454225Y-70173288D01*
X97536580Y-70353621D01*
X97542468Y-70363819D01*
X97657463Y-70525306D01*
X97665172Y-70534203D01*
X97808658Y-70671017D01*
X97817899Y-70678284D01*
X97984685Y-70785471D01*
X97995143Y-70790863D01*
X98179201Y-70864549D01*
X98190484Y-70867862D01*
X98384396Y-70905234D01*
X98392549Y-70903049D01*
X98396000Y-70890174D01*
X98396000Y-70072826D01*
X98392549Y-70059950D01*
X98379674Y-70056500D01*
X97438819Y-70056500D01*
X97427927Y-70059005D01*
X97149500Y-70059005D01*
X97149500Y-69545988D01*
X97422720Y-69545988D01*
X97423306Y-69554181D01*
X97433964Y-69556500D01*
X98379674Y-69556500D01*
X98392549Y-69553049D01*
X98396000Y-69540174D01*
X98396000Y-68728373D01*
X98392239Y-68715180D01*
X98378753Y-68712691D01*
X98292757Y-68720903D01*
X98281206Y-68723130D01*
X98090973Y-68778987D01*
X98080067Y-68783353D01*
X97903840Y-68874204D01*
X97893944Y-68880564D01*
X97738105Y-69003117D01*
X97729591Y-69011235D01*
X97599756Y-69161072D01*
X97592937Y-69170649D01*
X97493808Y-69342346D01*
X97488920Y-69353049D01*
X97424075Y-69540404D01*
X97422720Y-69545988D01*
X97149500Y-69545988D01*
X97149500Y-67979616D01*
X97165023Y-67919542D01*
X97207707Y-67874510D01*
X97266864Y-67855794D01*
X97327682Y-67868080D01*
G37*
%TD.AperFunction*%
%TA.AperFunction,Conductor*%
G36*
X122397764Y-30878244D02*
G01*
X122442467Y-30918996D01*
X122462571Y-30976048D01*
X122472806Y-31086510D01*
X122473344Y-31092310D01*
X122474912Y-31097821D01*
X122474914Y-31097831D01*
X122530124Y-31291870D01*
X122530126Y-31291876D01*
X122531695Y-31297389D01*
X122534253Y-31302526D01*
X122618880Y-31472483D01*
X122626734Y-31488255D01*
X122755228Y-31658407D01*
X122912798Y-31802052D01*
X122917663Y-31805064D01*
X122917664Y-31805065D01*
X122998379Y-31855042D01*
X123094081Y-31914298D01*
X123152936Y-31937098D01*
X123154394Y-31937663D01*
X123195921Y-31964269D01*
X123223792Y-32004957D01*
X123233600Y-32053290D01*
X123233600Y-32140001D01*
X123224161Y-32187454D01*
X123197281Y-32227682D01*
X101548907Y-53876053D01*
X101529058Y-53892173D01*
X101519964Y-53898116D01*
X101513658Y-53906217D01*
X101513652Y-53906223D01*
X101500520Y-53923095D01*
X101497073Y-53927022D01*
X101497218Y-53927145D01*
X101493905Y-53931055D01*
X101490280Y-53934682D01*
X101487305Y-53938848D01*
X101487298Y-53938857D01*
X101478201Y-53951599D01*
X101475142Y-53955701D01*
X101449300Y-53988903D01*
X101449296Y-53988910D01*
X101442991Y-53997011D01*
X101440409Y-54004531D01*
X101435790Y-54011001D01*
X101432860Y-54020841D01*
X101432858Y-54020846D01*
X101420856Y-54061157D01*
X101419295Y-54066029D01*
X101405636Y-54105819D01*
X101405635Y-54105824D01*
X101402300Y-54115540D01*
X101402300Y-54123494D01*
X101400032Y-54131112D01*
X101400456Y-54141375D01*
X101400456Y-54141379D01*
X101402194Y-54183393D01*
X101402300Y-54188516D01*
X101402300Y-70786101D01*
X101392861Y-70833554D01*
X101365981Y-70873782D01*
X99821707Y-72418053D01*
X99801858Y-72434173D01*
X99792764Y-72440116D01*
X99786458Y-72448217D01*
X99786452Y-72448223D01*
X99773320Y-72465095D01*
X99769873Y-72469022D01*
X99770018Y-72469145D01*
X99766705Y-72473055D01*
X99763080Y-72476682D01*
X99760105Y-72480848D01*
X99760098Y-72480857D01*
X99751001Y-72493599D01*
X99747942Y-72497701D01*
X99722100Y-72530903D01*
X99722096Y-72530910D01*
X99715791Y-72539011D01*
X99713209Y-72546531D01*
X99708590Y-72553001D01*
X99705660Y-72562841D01*
X99705658Y-72562846D01*
X99693656Y-72603157D01*
X99692095Y-72608029D01*
X99678436Y-72647819D01*
X99678435Y-72647824D01*
X99675100Y-72657540D01*
X99675100Y-72665494D01*
X99672832Y-72673112D01*
X99673256Y-72683375D01*
X99673256Y-72683379D01*
X99674994Y-72725393D01*
X99675100Y-72730516D01*
X99675100Y-73317700D01*
X99661585Y-73373995D01*
X99623985Y-73418018D01*
X99570498Y-73440173D01*
X99512782Y-73435631D01*
X99463419Y-73405381D01*
X99370219Y-73312181D01*
X99343339Y-73271953D01*
X99333900Y-73224500D01*
X99333900Y-72495299D01*
X99343339Y-72447846D01*
X99370219Y-72407618D01*
X99666330Y-72111507D01*
X100558889Y-71218946D01*
X100578747Y-71202821D01*
X100587836Y-71196884D01*
X100607279Y-71171902D01*
X100610742Y-71168009D01*
X100610571Y-71167864D01*
X100613883Y-71163953D01*
X100617519Y-71160318D01*
X100629614Y-71143376D01*
X100632621Y-71139342D01*
X100664809Y-71097989D01*
X100667390Y-71090468D01*
X100672010Y-71083999D01*
X100686959Y-71033783D01*
X100688481Y-71029032D01*
X100705500Y-70979460D01*
X100705500Y-70971507D01*
X100707768Y-70963889D01*
X100705606Y-70911608D01*
X100705500Y-70906485D01*
X100705500Y-50752899D01*
X100714939Y-50705446D01*
X100741819Y-50665218D01*
X103307195Y-48099842D01*
X111137989Y-40269046D01*
X111157847Y-40252921D01*
X111166936Y-40246984D01*
X111186379Y-40222002D01*
X111189846Y-40218105D01*
X111189674Y-40217960D01*
X111192981Y-40214054D01*
X111196620Y-40210417D01*
X111208697Y-40193500D01*
X111211763Y-40189389D01*
X111243909Y-40148089D01*
X111246490Y-40140568D01*
X111251110Y-40134099D01*
X111266055Y-40083895D01*
X111267579Y-40079138D01*
X111284600Y-40029560D01*
X111284600Y-40021606D01*
X111286868Y-40013988D01*
X111284706Y-39961707D01*
X111284600Y-39956584D01*
X111284600Y-32053290D01*
X111294408Y-32004957D01*
X111322279Y-31964269D01*
X111363806Y-31937663D01*
X111364886Y-31937244D01*
X111424119Y-31914298D01*
X111605402Y-31802052D01*
X111762972Y-31658407D01*
X111891466Y-31488255D01*
X111986505Y-31297389D01*
X112044856Y-31092310D01*
X112055629Y-30976047D01*
X112075733Y-30918996D01*
X112120436Y-30878244D01*
X112179100Y-30863489D01*
X112237764Y-30878244D01*
X112282467Y-30918996D01*
X112302571Y-30976048D01*
X112312806Y-31086510D01*
X112313344Y-31092310D01*
X112314912Y-31097821D01*
X112314914Y-31097831D01*
X112370124Y-31291870D01*
X112370126Y-31291876D01*
X112371695Y-31297389D01*
X112374253Y-31302526D01*
X112458880Y-31472483D01*
X112466734Y-31488255D01*
X112595228Y-31658407D01*
X112752798Y-31802052D01*
X112934081Y-31914298D01*
X113132902Y-31991321D01*
X113342490Y-32030500D01*
X113549981Y-32030500D01*
X113555710Y-32030500D01*
X113765298Y-31991321D01*
X113964119Y-31914298D01*
X114145402Y-31802052D01*
X114302972Y-31658407D01*
X114431466Y-31488255D01*
X114526505Y-31297389D01*
X114584856Y-31092310D01*
X114595629Y-30976047D01*
X114615733Y-30918996D01*
X114660436Y-30878244D01*
X114719100Y-30863489D01*
X114777764Y-30878244D01*
X114822467Y-30918996D01*
X114842571Y-30976048D01*
X114852806Y-31086510D01*
X114853344Y-31092310D01*
X114854912Y-31097821D01*
X114854914Y-31097831D01*
X114910124Y-31291870D01*
X114910126Y-31291876D01*
X114911695Y-31297389D01*
X114914253Y-31302526D01*
X114998880Y-31472483D01*
X115006734Y-31488255D01*
X115135228Y-31658407D01*
X115292798Y-31802052D01*
X115474081Y-31914298D01*
X115672902Y-31991321D01*
X115882490Y-32030500D01*
X116089981Y-32030500D01*
X116095710Y-32030500D01*
X116305298Y-31991321D01*
X116504119Y-31914298D01*
X116685402Y-31802052D01*
X116842972Y-31658407D01*
X116971466Y-31488255D01*
X117066505Y-31297389D01*
X117124856Y-31092310D01*
X117135629Y-30976047D01*
X117155733Y-30918996D01*
X117200436Y-30878244D01*
X117259100Y-30863489D01*
X117317764Y-30878244D01*
X117362467Y-30918996D01*
X117382571Y-30976048D01*
X117392806Y-31086510D01*
X117393344Y-31092310D01*
X117394912Y-31097821D01*
X117394914Y-31097831D01*
X117450124Y-31291870D01*
X117450126Y-31291876D01*
X117451695Y-31297389D01*
X117454253Y-31302526D01*
X117538880Y-31472483D01*
X117546734Y-31488255D01*
X117675228Y-31658407D01*
X117832798Y-31802052D01*
X118014081Y-31914298D01*
X118212902Y-31991321D01*
X118422490Y-32030500D01*
X118629981Y-32030500D01*
X118635710Y-32030500D01*
X118845298Y-31991321D01*
X119044119Y-31914298D01*
X119225402Y-31802052D01*
X119382972Y-31658407D01*
X119511466Y-31488255D01*
X119606505Y-31297389D01*
X119664856Y-31092310D01*
X119675629Y-30976047D01*
X119695733Y-30918996D01*
X119740436Y-30878244D01*
X119799100Y-30863489D01*
X119857764Y-30878244D01*
X119902467Y-30918996D01*
X119922571Y-30976048D01*
X119932806Y-31086510D01*
X119933344Y-31092310D01*
X119934912Y-31097821D01*
X119934914Y-31097831D01*
X119990124Y-31291870D01*
X119990126Y-31291876D01*
X119991695Y-31297389D01*
X119994253Y-31302526D01*
X120078880Y-31472483D01*
X120086734Y-31488255D01*
X120215228Y-31658407D01*
X120372798Y-31802052D01*
X120554081Y-31914298D01*
X120752902Y-31991321D01*
X120962490Y-32030500D01*
X121169981Y-32030500D01*
X121175710Y-32030500D01*
X121385298Y-31991321D01*
X121584119Y-31914298D01*
X121765402Y-31802052D01*
X121922972Y-31658407D01*
X122051466Y-31488255D01*
X122146505Y-31297389D01*
X122204856Y-31092310D01*
X122215629Y-30976047D01*
X122235733Y-30918996D01*
X122280436Y-30878244D01*
X122339100Y-30863489D01*
X122397764Y-30878244D01*
G37*
%TD.AperFunction*%
%TA.AperFunction,Conductor*%
G36*
X127477764Y-30878244D02*
G01*
X127522467Y-30918996D01*
X127542571Y-30976048D01*
X127552806Y-31086510D01*
X127553344Y-31092310D01*
X127554912Y-31097821D01*
X127554914Y-31097831D01*
X127610124Y-31291870D01*
X127610126Y-31291876D01*
X127611695Y-31297389D01*
X127614253Y-31302526D01*
X127698880Y-31472483D01*
X127706734Y-31488255D01*
X127835228Y-31658407D01*
X127992798Y-31802052D01*
X127997663Y-31805064D01*
X127997664Y-31805065D01*
X128078379Y-31855042D01*
X128174081Y-31914298D01*
X128232936Y-31937098D01*
X128234394Y-31937663D01*
X128275921Y-31964269D01*
X128303792Y-32004957D01*
X128313600Y-32053290D01*
X128313600Y-34807001D01*
X128304161Y-34854454D01*
X128277281Y-34894682D01*
X106959107Y-56212853D01*
X106939258Y-56228973D01*
X106930164Y-56234916D01*
X106923858Y-56243017D01*
X106923852Y-56243023D01*
X106910720Y-56259895D01*
X106907273Y-56263822D01*
X106907418Y-56263945D01*
X106904105Y-56267855D01*
X106900480Y-56271482D01*
X106897505Y-56275648D01*
X106897498Y-56275657D01*
X106888401Y-56288399D01*
X106885342Y-56292501D01*
X106859500Y-56325703D01*
X106859496Y-56325710D01*
X106853191Y-56333811D01*
X106850609Y-56341331D01*
X106845990Y-56347801D01*
X106843060Y-56357641D01*
X106843058Y-56357646D01*
X106831056Y-56397957D01*
X106829495Y-56402829D01*
X106815836Y-56442619D01*
X106815835Y-56442624D01*
X106812500Y-56452340D01*
X106812500Y-56460294D01*
X106810232Y-56467912D01*
X106810656Y-56478175D01*
X106810656Y-56478179D01*
X106812394Y-56520193D01*
X106812500Y-56525316D01*
X106812500Y-69071601D01*
X106803061Y-69119054D01*
X106776181Y-69159282D01*
X102923781Y-73011680D01*
X102874418Y-73041930D01*
X102816702Y-73046472D01*
X102763215Y-73024317D01*
X102725615Y-72980294D01*
X102712100Y-72923999D01*
X102712100Y-71225299D01*
X102721539Y-71177846D01*
X102748419Y-71137618D01*
X103360731Y-70525306D01*
X105244089Y-68641946D01*
X105263947Y-68625821D01*
X105273036Y-68619884D01*
X105292479Y-68594902D01*
X105295942Y-68591009D01*
X105295771Y-68590864D01*
X105299083Y-68586953D01*
X105302719Y-68583318D01*
X105314814Y-68566376D01*
X105317821Y-68562342D01*
X105350009Y-68520989D01*
X105352590Y-68513468D01*
X105357210Y-68506999D01*
X105372161Y-68456779D01*
X105373681Y-68452032D01*
X105390700Y-68402460D01*
X105390700Y-68394507D01*
X105392968Y-68386889D01*
X105390806Y-68334608D01*
X105390700Y-68329485D01*
X105390700Y-55338699D01*
X105400139Y-55291246D01*
X105427019Y-55251018D01*
X115514184Y-45163853D01*
X126377993Y-34300043D01*
X126397848Y-34283920D01*
X126406936Y-34277984D01*
X126426371Y-34253011D01*
X126429844Y-34249108D01*
X126429673Y-34248963D01*
X126432985Y-34245052D01*
X126436620Y-34241418D01*
X126448708Y-34224485D01*
X126451747Y-34220408D01*
X126483909Y-34179089D01*
X126486490Y-34171568D01*
X126491110Y-34165099D01*
X126506055Y-34114895D01*
X126507579Y-34110138D01*
X126524600Y-34060560D01*
X126524600Y-34052606D01*
X126526868Y-34044988D01*
X126524706Y-33992707D01*
X126524600Y-33987584D01*
X126524600Y-32053290D01*
X126534408Y-32004957D01*
X126562279Y-31964269D01*
X126603806Y-31937663D01*
X126604886Y-31937244D01*
X126664119Y-31914298D01*
X126845402Y-31802052D01*
X127002972Y-31658407D01*
X127131466Y-31488255D01*
X127226505Y-31297389D01*
X127284856Y-31092310D01*
X127295629Y-30976047D01*
X127315733Y-30918996D01*
X127360436Y-30878244D01*
X127419100Y-30863489D01*
X127477764Y-30878244D01*
G37*
%TD.AperFunction*%
%TA.AperFunction,Conductor*%
G36*
X124937764Y-30878244D02*
G01*
X124982467Y-30918996D01*
X125002571Y-30976048D01*
X125012806Y-31086510D01*
X125013344Y-31092310D01*
X125014912Y-31097821D01*
X125014914Y-31097831D01*
X125070124Y-31291870D01*
X125070126Y-31291876D01*
X125071695Y-31297389D01*
X125074253Y-31302526D01*
X125158880Y-31472483D01*
X125166734Y-31488255D01*
X125295228Y-31658407D01*
X125452798Y-31802052D01*
X125457663Y-31805064D01*
X125457664Y-31805065D01*
X125538379Y-31855042D01*
X125634081Y-31914298D01*
X125692936Y-31937098D01*
X125694394Y-31937663D01*
X125735921Y-31964269D01*
X125763792Y-32004957D01*
X125773600Y-32053290D01*
X125773600Y-33791001D01*
X125764161Y-33838454D01*
X125737281Y-33878682D01*
X104786307Y-54829653D01*
X104766458Y-54845773D01*
X104757364Y-54851716D01*
X104751058Y-54859817D01*
X104751052Y-54859823D01*
X104737920Y-54876695D01*
X104734473Y-54880622D01*
X104734618Y-54880745D01*
X104731305Y-54884655D01*
X104727680Y-54888282D01*
X104724705Y-54892448D01*
X104724698Y-54892457D01*
X104715601Y-54905199D01*
X104712542Y-54909301D01*
X104686700Y-54942503D01*
X104686696Y-54942510D01*
X104680391Y-54950611D01*
X104677809Y-54958131D01*
X104673190Y-54964601D01*
X104670260Y-54974441D01*
X104670258Y-54974446D01*
X104658256Y-55014757D01*
X104656695Y-55019629D01*
X104643036Y-55059419D01*
X104643035Y-55059424D01*
X104639700Y-55069140D01*
X104639700Y-55077094D01*
X104637432Y-55084712D01*
X104637856Y-55094975D01*
X104637856Y-55094979D01*
X104639594Y-55136993D01*
X104639700Y-55142116D01*
X104639700Y-68132900D01*
X104630261Y-68180353D01*
X104603381Y-68220581D01*
X102364981Y-70458981D01*
X102315618Y-70489231D01*
X102257902Y-70493773D01*
X102204415Y-70471618D01*
X102166815Y-70427595D01*
X102153300Y-70371300D01*
X102153300Y-54385099D01*
X102162739Y-54337646D01*
X102189619Y-54297418D01*
X106243184Y-50243853D01*
X123837989Y-32649046D01*
X123857847Y-32632921D01*
X123866936Y-32626984D01*
X123886379Y-32602002D01*
X123889846Y-32598105D01*
X123889674Y-32597960D01*
X123892981Y-32594054D01*
X123896620Y-32590417D01*
X123908697Y-32573500D01*
X123911763Y-32569389D01*
X123943909Y-32528089D01*
X123946490Y-32520568D01*
X123951110Y-32514099D01*
X123966041Y-32463945D01*
X123967591Y-32459101D01*
X123984600Y-32409560D01*
X123984600Y-32401609D01*
X123986869Y-32393988D01*
X123984705Y-32341693D01*
X123984600Y-32336569D01*
X123984600Y-32053290D01*
X123994408Y-32004957D01*
X124022279Y-31964269D01*
X124063806Y-31937663D01*
X124064886Y-31937244D01*
X124124119Y-31914298D01*
X124305402Y-31802052D01*
X124462972Y-31658407D01*
X124591466Y-31488255D01*
X124686505Y-31297389D01*
X124744856Y-31092310D01*
X124755629Y-30976047D01*
X124775733Y-30918996D01*
X124820436Y-30878244D01*
X124879100Y-30863489D01*
X124937764Y-30878244D01*
G37*
%TD.AperFunction*%
%TA.AperFunction,Conductor*%
G36*
X130017764Y-30878244D02*
G01*
X130062467Y-30918996D01*
X130082571Y-30976048D01*
X130092806Y-31086510D01*
X130093344Y-31092310D01*
X130094912Y-31097821D01*
X130094914Y-31097831D01*
X130150124Y-31291870D01*
X130150126Y-31291876D01*
X130151695Y-31297389D01*
X130154253Y-31302526D01*
X130238880Y-31472483D01*
X130246734Y-31488255D01*
X130375228Y-31658407D01*
X130532798Y-31802052D01*
X130537663Y-31805064D01*
X130537664Y-31805065D01*
X130618379Y-31855042D01*
X130714081Y-31914298D01*
X130772936Y-31937098D01*
X130774394Y-31937663D01*
X130815921Y-31964269D01*
X130843792Y-32004957D01*
X130853600Y-32053290D01*
X130853600Y-47735601D01*
X130844161Y-47783054D01*
X130817281Y-47823282D01*
X108211781Y-70428781D01*
X108171553Y-70455661D01*
X108124100Y-70465100D01*
X106831799Y-70465100D01*
X106775504Y-70451585D01*
X106731481Y-70413985D01*
X106709326Y-70360498D01*
X106713868Y-70302782D01*
X106744118Y-70253419D01*
X107043106Y-69954431D01*
X107416893Y-69580643D01*
X107436748Y-69564520D01*
X107445836Y-69558584D01*
X107465271Y-69533611D01*
X107468744Y-69529708D01*
X107468573Y-69529563D01*
X107471885Y-69525652D01*
X107475520Y-69522018D01*
X107487608Y-69505085D01*
X107490647Y-69501008D01*
X107522809Y-69459689D01*
X107525390Y-69452168D01*
X107530010Y-69445699D01*
X107544955Y-69395495D01*
X107546479Y-69390738D01*
X107563500Y-69341160D01*
X107563500Y-69333206D01*
X107565768Y-69325588D01*
X107563606Y-69273307D01*
X107563500Y-69268184D01*
X107563500Y-56721899D01*
X107572939Y-56674446D01*
X107599819Y-56634218D01*
X110357984Y-53876053D01*
X128917989Y-35316046D01*
X128937847Y-35299921D01*
X128946936Y-35293984D01*
X128966379Y-35269002D01*
X128969842Y-35265109D01*
X128969671Y-35264964D01*
X128972983Y-35261053D01*
X128976619Y-35257418D01*
X128988714Y-35240476D01*
X128991721Y-35236442D01*
X129023909Y-35195089D01*
X129026490Y-35187568D01*
X129031110Y-35181099D01*
X129046059Y-35130883D01*
X129047581Y-35126132D01*
X129064600Y-35076560D01*
X129064600Y-35068607D01*
X129066868Y-35060989D01*
X129064706Y-35008708D01*
X129064600Y-35003585D01*
X129064600Y-32053290D01*
X129074408Y-32004957D01*
X129102279Y-31964269D01*
X129143806Y-31937663D01*
X129144886Y-31937244D01*
X129204119Y-31914298D01*
X129385402Y-31802052D01*
X129542972Y-31658407D01*
X129671466Y-31488255D01*
X129766505Y-31297389D01*
X129824856Y-31092310D01*
X129835629Y-30976047D01*
X129855733Y-30918996D01*
X129900436Y-30878244D01*
X129959100Y-30863489D01*
X130017764Y-30878244D01*
G37*
%TD.AperFunction*%
%TA.AperFunction,Conductor*%
G36*
X168913736Y-25700726D02*
G01*
X169172457Y-25716375D01*
X169187320Y-25718180D01*
X169438575Y-25764225D01*
X169453097Y-25767804D01*
X169696990Y-25843803D01*
X169710967Y-25849104D01*
X169943915Y-25953946D01*
X169957161Y-25960898D01*
X170175768Y-26093051D01*
X170188079Y-26101549D01*
X170389161Y-26259086D01*
X170400369Y-26269016D01*
X170580983Y-26449630D01*
X170590913Y-26460838D01*
X170748446Y-26661914D01*
X170756952Y-26674237D01*
X170889098Y-26892832D01*
X170896057Y-26906091D01*
X171000893Y-27139028D01*
X171006199Y-27153018D01*
X171082191Y-27396886D01*
X171085774Y-27411424D01*
X171131819Y-27662679D01*
X171133624Y-27677544D01*
X171149274Y-27936264D01*
X171149500Y-27943751D01*
X171149500Y-65916000D01*
X171132887Y-65978000D01*
X171087500Y-66023387D01*
X171025500Y-66040000D01*
X158750000Y-66040000D01*
X158750000Y-66056326D01*
X158750000Y-72266000D01*
X158733387Y-72328000D01*
X158688000Y-72373387D01*
X158626000Y-72390000D01*
X146050000Y-72390000D01*
X146050000Y-72406326D01*
X146050000Y-78616000D01*
X146033387Y-78678000D01*
X145988000Y-78723387D01*
X145926000Y-78740000D01*
X129540000Y-78740000D01*
X129540000Y-78756326D01*
X129540000Y-101175500D01*
X129523387Y-101237500D01*
X129478000Y-101282887D01*
X129416000Y-101299500D01*
X91443751Y-101299500D01*
X91436264Y-101299274D01*
X91177544Y-101283624D01*
X91162679Y-101281819D01*
X90911424Y-101235774D01*
X90896890Y-101232192D01*
X90653018Y-101156199D01*
X90639028Y-101150893D01*
X90406091Y-101046057D01*
X90392832Y-101039098D01*
X90174237Y-100906952D01*
X90161914Y-100898446D01*
X89960838Y-100740913D01*
X89949630Y-100730983D01*
X89769016Y-100550369D01*
X89759086Y-100539161D01*
X89601553Y-100338085D01*
X89593051Y-100325768D01*
X89460898Y-100107161D01*
X89453946Y-100093915D01*
X89349104Y-99860967D01*
X89343803Y-99846990D01*
X89267804Y-99603097D01*
X89264225Y-99588575D01*
X89218180Y-99337320D01*
X89216375Y-99322455D01*
X89200726Y-99063736D01*
X89200500Y-99056249D01*
X89200500Y-79629000D01*
X92003922Y-79629000D01*
X92004826Y-79636445D01*
X92022058Y-79778370D01*
X92022059Y-79778375D01*
X92022963Y-79785818D01*
X92025622Y-79792831D01*
X92025623Y-79792832D01*
X92074763Y-79922405D01*
X92078980Y-79933523D01*
X92083243Y-79939699D01*
X92098002Y-79961082D01*
X92168717Y-80063530D01*
X92174326Y-80068499D01*
X92174327Y-80068500D01*
X92278384Y-80160686D01*
X92286960Y-80168283D01*
X92426835Y-80241696D01*
X92580215Y-80279500D01*
X92730685Y-80279500D01*
X92738185Y-80279500D01*
X92891565Y-80241696D01*
X93031440Y-80168283D01*
X93040017Y-80160683D01*
X93078271Y-80137558D01*
X93122243Y-80129500D01*
X96403500Y-80129500D01*
X96465500Y-80146113D01*
X96510887Y-80191500D01*
X96527500Y-80253500D01*
X96527500Y-85226056D01*
X96526043Y-85239605D01*
X96526159Y-85239614D01*
X96525525Y-85248462D01*
X96523641Y-85257127D01*
X96524273Y-85265967D01*
X96524273Y-85265973D01*
X96527184Y-85306661D01*
X96527500Y-85315508D01*
X96527500Y-85328999D01*
X96528130Y-85333380D01*
X96529420Y-85342355D01*
X96530365Y-85351146D01*
X96531449Y-85366304D01*
X96533909Y-85400683D01*
X96537006Y-85408989D01*
X96538892Y-85417655D01*
X96538779Y-85417679D01*
X96538964Y-85418403D01*
X96539075Y-85418371D01*
X96541572Y-85426876D01*
X96542835Y-85435657D01*
X96546519Y-85443724D01*
X96546520Y-85443727D01*
X96563457Y-85480813D01*
X96566845Y-85488990D01*
X96581104Y-85527221D01*
X96581105Y-85527223D01*
X96584204Y-85535531D01*
X96589519Y-85542631D01*
X96593768Y-85550412D01*
X96593666Y-85550467D01*
X96594046Y-85551107D01*
X96594143Y-85551045D01*
X96598939Y-85558507D01*
X96602623Y-85566573D01*
X96635147Y-85604107D01*
X96640688Y-85610985D01*
X96648779Y-85621793D01*
X96651916Y-85624930D01*
X96658322Y-85631336D01*
X96664354Y-85637815D01*
X96691065Y-85668642D01*
X96691067Y-85668644D01*
X96696872Y-85675343D01*
X96704328Y-85680134D01*
X96711037Y-85685948D01*
X96710961Y-85686035D01*
X96721571Y-85694585D01*
X97312413Y-86285427D01*
X97320964Y-86296038D01*
X97321052Y-86295963D01*
X97326863Y-86302668D01*
X97331657Y-86310128D01*
X97369200Y-86342658D01*
X97375661Y-86348675D01*
X97385207Y-86358221D01*
X97393190Y-86364197D01*
X97396007Y-86366306D01*
X97402899Y-86371860D01*
X97433719Y-86398566D01*
X97433725Y-86398570D01*
X97440427Y-86404377D01*
X97448494Y-86408061D01*
X97455954Y-86412855D01*
X97455890Y-86412953D01*
X97456529Y-86413332D01*
X97456585Y-86413230D01*
X97464365Y-86417478D01*
X97471469Y-86422796D01*
X97518022Y-86440159D01*
X97526160Y-86443530D01*
X97571343Y-86464165D01*
X97580126Y-86465427D01*
X97588632Y-86467925D01*
X97588598Y-86468037D01*
X97589315Y-86468220D01*
X97589340Y-86468106D01*
X97598004Y-86469990D01*
X97606317Y-86473091D01*
X97655852Y-86476633D01*
X97664637Y-86477578D01*
X97678001Y-86479500D01*
X97691492Y-86479500D01*
X97700338Y-86479815D01*
X97749873Y-86483359D01*
X97758539Y-86481473D01*
X97767386Y-86480841D01*
X97767394Y-86480956D01*
X97780944Y-86479500D01*
X104489757Y-86479500D01*
X104533729Y-86487558D01*
X104571982Y-86510683D01*
X104580560Y-86518283D01*
X104720435Y-86591696D01*
X104873815Y-86629500D01*
X105024285Y-86629500D01*
X105031785Y-86629500D01*
X105185165Y-86591696D01*
X105325040Y-86518283D01*
X105333617Y-86510683D01*
X105371871Y-86487558D01*
X105415843Y-86479500D01*
X107147700Y-86479500D01*
X107209700Y-86496113D01*
X107255087Y-86541500D01*
X107271700Y-86603500D01*
X107271700Y-92288700D01*
X107255087Y-92350700D01*
X107209700Y-92396087D01*
X107147700Y-92412700D01*
X104323643Y-92412700D01*
X104279671Y-92404642D01*
X104241417Y-92381516D01*
X104232840Y-92373917D01*
X104183300Y-92347916D01*
X104099606Y-92303989D01*
X104099602Y-92303987D01*
X104092965Y-92300504D01*
X104085687Y-92298710D01*
X104085684Y-92298709D01*
X103946867Y-92264494D01*
X103946860Y-92264493D01*
X103939585Y-92262700D01*
X103781615Y-92262700D01*
X103774340Y-92264492D01*
X103774332Y-92264494D01*
X103635515Y-92298709D01*
X103635509Y-92298710D01*
X103628235Y-92300504D01*
X103621600Y-92303986D01*
X103621593Y-92303989D01*
X103495003Y-92370430D01*
X103495000Y-92370431D01*
X103488360Y-92373917D01*
X103479782Y-92381516D01*
X103441529Y-92404642D01*
X103397557Y-92412700D01*
X93782643Y-92412700D01*
X93738671Y-92404642D01*
X93700417Y-92381516D01*
X93691840Y-92373917D01*
X93691838Y-92373915D01*
X93692133Y-92373583D01*
X93656504Y-92333368D01*
X93642300Y-92275741D01*
X93642300Y-91466858D01*
X93647915Y-91429968D01*
X93664250Y-91396418D01*
X93671648Y-91385698D01*
X93722020Y-91312723D01*
X93778037Y-91165018D01*
X93797078Y-91008200D01*
X93778037Y-90851382D01*
X93722020Y-90703677D01*
X93632283Y-90573670D01*
X93514040Y-90468917D01*
X93507395Y-90465429D01*
X93507393Y-90465428D01*
X93380806Y-90398989D01*
X93380802Y-90398987D01*
X93374165Y-90395504D01*
X93366887Y-90393710D01*
X93366884Y-90393709D01*
X93228067Y-90359494D01*
X93228060Y-90359493D01*
X93220785Y-90357700D01*
X93062815Y-90357700D01*
X93055540Y-90359492D01*
X93055532Y-90359494D01*
X92916715Y-90393709D01*
X92916709Y-90393710D01*
X92909435Y-90395504D01*
X92902800Y-90398986D01*
X92902793Y-90398989D01*
X92776206Y-90465428D01*
X92776200Y-90465431D01*
X92769560Y-90468917D01*
X92763948Y-90473887D01*
X92763943Y-90473892D01*
X92656927Y-90568699D01*
X92656922Y-90568703D01*
X92651317Y-90573670D01*
X92647062Y-90579834D01*
X92647057Y-90579840D01*
X92565843Y-90697500D01*
X92565840Y-90697503D01*
X92561580Y-90703677D01*
X92558920Y-90710688D01*
X92558918Y-90710694D01*
X92508223Y-90844367D01*
X92505563Y-90851382D01*
X92504659Y-90858822D01*
X92504658Y-90858829D01*
X92487870Y-90997096D01*
X92486522Y-91008200D01*
X92487426Y-91015645D01*
X92504658Y-91157570D01*
X92504659Y-91157575D01*
X92505563Y-91165018D01*
X92561580Y-91312723D01*
X92565843Y-91318899D01*
X92619350Y-91396418D01*
X92635685Y-91429968D01*
X92641300Y-91466858D01*
X92641300Y-92668256D01*
X92639843Y-92681805D01*
X92639959Y-92681814D01*
X92639325Y-92690662D01*
X92637441Y-92699327D01*
X92638073Y-92708167D01*
X92638073Y-92708173D01*
X92640984Y-92748861D01*
X92641300Y-92757708D01*
X92641300Y-92771199D01*
X92641930Y-92775580D01*
X92643220Y-92784555D01*
X92644165Y-92793346D01*
X92647709Y-92842883D01*
X92650806Y-92851189D01*
X92652692Y-92859855D01*
X92652579Y-92859879D01*
X92652764Y-92860605D01*
X92652875Y-92860573D01*
X92655372Y-92869080D01*
X92656635Y-92877857D01*
X92660231Y-92885732D01*
X92664185Y-92913216D01*
X92664322Y-92913200D01*
X92665075Y-92919406D01*
X92665078Y-92919429D01*
X92665225Y-92920637D01*
X92682458Y-93062570D01*
X92682459Y-93062575D01*
X92683363Y-93070018D01*
X92739380Y-93217723D01*
X92829117Y-93347730D01*
X92834726Y-93352699D01*
X92834727Y-93352700D01*
X92938784Y-93444886D01*
X92947360Y-93452483D01*
X93087235Y-93525896D01*
X93240615Y-93563700D01*
X93391085Y-93563700D01*
X93398585Y-93563700D01*
X93551965Y-93525896D01*
X93691840Y-93452483D01*
X93700417Y-93444883D01*
X93738671Y-93421758D01*
X93782643Y-93413700D01*
X103397557Y-93413700D01*
X103441529Y-93421758D01*
X103479782Y-93444883D01*
X103488360Y-93452483D01*
X103628235Y-93525896D01*
X103781615Y-93563700D01*
X103932085Y-93563700D01*
X103939585Y-93563700D01*
X104092965Y-93525896D01*
X104232840Y-93452483D01*
X104241417Y-93444883D01*
X104279671Y-93421758D01*
X104323643Y-93413700D01*
X107700239Y-93413700D01*
X107736401Y-93413700D01*
X107807999Y-93413700D01*
X107844161Y-93413700D01*
X114294157Y-93413700D01*
X114338129Y-93421758D01*
X114376382Y-93444883D01*
X114384960Y-93452483D01*
X114524835Y-93525896D01*
X114678215Y-93563700D01*
X114828685Y-93563700D01*
X114836185Y-93563700D01*
X114989565Y-93525896D01*
X115129440Y-93452483D01*
X115247683Y-93347730D01*
X115337420Y-93217723D01*
X115393437Y-93070018D01*
X115412478Y-92913200D01*
X115393437Y-92756382D01*
X115337420Y-92608677D01*
X115247683Y-92478670D01*
X115242072Y-92473699D01*
X115135056Y-92378892D01*
X115135052Y-92378889D01*
X115129440Y-92373917D01*
X115122795Y-92370429D01*
X115122793Y-92370428D01*
X114996206Y-92303989D01*
X114996202Y-92303987D01*
X114989565Y-92300504D01*
X114982287Y-92298710D01*
X114982284Y-92298709D01*
X114843467Y-92264494D01*
X114843460Y-92264493D01*
X114836185Y-92262700D01*
X114678215Y-92262700D01*
X114670940Y-92264492D01*
X114670932Y-92264494D01*
X114532115Y-92298709D01*
X114532109Y-92298710D01*
X114524835Y-92300504D01*
X114518200Y-92303986D01*
X114518193Y-92303989D01*
X114391603Y-92370430D01*
X114391600Y-92370431D01*
X114384960Y-92373917D01*
X114376382Y-92381516D01*
X114338129Y-92404642D01*
X114294157Y-92412700D01*
X108396700Y-92412700D01*
X108334700Y-92396087D01*
X108289313Y-92350700D01*
X108272700Y-92288700D01*
X108272700Y-81611658D01*
X108278315Y-81574768D01*
X108294650Y-81541218D01*
X108302048Y-81530498D01*
X108352420Y-81457523D01*
X108408437Y-81309818D01*
X108427478Y-81153000D01*
X108408437Y-80996182D01*
X108352420Y-80848477D01*
X108262683Y-80718470D01*
X108196539Y-80659872D01*
X108150056Y-80618692D01*
X108150054Y-80618690D01*
X108144440Y-80613717D01*
X108137795Y-80610229D01*
X108137793Y-80610228D01*
X108011206Y-80543789D01*
X108011202Y-80543787D01*
X108004565Y-80540304D01*
X107997287Y-80538510D01*
X107997284Y-80538509D01*
X107858467Y-80504294D01*
X107858460Y-80504293D01*
X107851185Y-80502500D01*
X107693215Y-80502500D01*
X107685940Y-80504292D01*
X107685932Y-80504294D01*
X107547115Y-80538509D01*
X107547109Y-80538510D01*
X107539835Y-80540304D01*
X107533200Y-80543786D01*
X107533193Y-80543789D01*
X107406606Y-80610228D01*
X107406600Y-80610231D01*
X107399960Y-80613717D01*
X107394348Y-80618687D01*
X107394343Y-80618692D01*
X107287327Y-80713499D01*
X107287322Y-80713503D01*
X107281717Y-80718470D01*
X107277462Y-80724634D01*
X107277457Y-80724640D01*
X107196243Y-80842300D01*
X107196240Y-80842303D01*
X107191980Y-80848477D01*
X107189320Y-80855488D01*
X107189318Y-80855494D01*
X107138623Y-80989167D01*
X107135963Y-80996182D01*
X107135059Y-81003622D01*
X107135058Y-81003629D01*
X107123976Y-81094901D01*
X107116922Y-81153000D01*
X107117826Y-81160445D01*
X107135058Y-81302370D01*
X107135059Y-81302375D01*
X107135963Y-81309818D01*
X107138622Y-81316831D01*
X107138623Y-81316832D01*
X107184479Y-81437746D01*
X107191980Y-81457523D01*
X107196243Y-81463699D01*
X107249750Y-81541218D01*
X107266085Y-81574768D01*
X107271700Y-81611658D01*
X107271700Y-85354500D01*
X107255087Y-85416500D01*
X107209700Y-85461887D01*
X107147700Y-85478500D01*
X105415843Y-85478500D01*
X105371871Y-85470442D01*
X105333617Y-85447316D01*
X105325040Y-85439717D01*
X105250668Y-85400683D01*
X105191806Y-85369789D01*
X105191802Y-85369787D01*
X105185165Y-85366304D01*
X105177887Y-85364510D01*
X105177884Y-85364509D01*
X105039067Y-85330294D01*
X105039060Y-85330293D01*
X105031785Y-85328500D01*
X104873815Y-85328500D01*
X104866540Y-85330292D01*
X104866532Y-85330294D01*
X104727715Y-85364509D01*
X104727709Y-85364510D01*
X104720435Y-85366304D01*
X104713800Y-85369786D01*
X104713793Y-85369789D01*
X104587203Y-85436230D01*
X104587200Y-85436231D01*
X104580560Y-85439717D01*
X104571982Y-85447316D01*
X104533729Y-85470442D01*
X104489757Y-85478500D01*
X97972476Y-85478500D01*
X97925023Y-85469061D01*
X97884795Y-85442181D01*
X97564819Y-85122205D01*
X97537939Y-85081977D01*
X97528500Y-85034524D01*
X97528500Y-83609500D01*
X100563722Y-83609500D01*
X100564626Y-83616945D01*
X100581858Y-83758870D01*
X100581859Y-83758875D01*
X100582763Y-83766318D01*
X100585422Y-83773331D01*
X100585423Y-83773332D01*
X100629230Y-83888843D01*
X100638780Y-83914023D01*
X100728517Y-84044030D01*
X100846760Y-84148783D01*
X100986635Y-84222196D01*
X101140015Y-84260000D01*
X101290486Y-84260000D01*
X101297985Y-84260000D01*
X101342604Y-84249002D01*
X101407657Y-84250553D01*
X101421696Y-84254732D01*
X101426526Y-84256278D01*
X101472612Y-84272100D01*
X101480035Y-84272100D01*
X101487146Y-84274217D01*
X101535768Y-84272205D01*
X101540892Y-84272100D01*
X102541388Y-84272100D01*
X102564205Y-84274466D01*
X102565858Y-84274534D01*
X102575915Y-84276643D01*
X102605577Y-84272945D01*
X102610664Y-84272418D01*
X102614505Y-84272100D01*
X102619640Y-84272100D01*
X102624696Y-84271256D01*
X102624698Y-84271256D01*
X102629038Y-84270531D01*
X102638620Y-84268932D01*
X102643669Y-84268196D01*
X102691993Y-84262173D01*
X102698660Y-84258913D01*
X102705981Y-84257692D01*
X102748816Y-84234509D01*
X102753330Y-84232186D01*
X102797084Y-84210798D01*
X102802332Y-84205549D01*
X102808858Y-84202018D01*
X102841854Y-84166172D01*
X102845356Y-84162524D01*
X103109946Y-83897934D01*
X103127736Y-83883488D01*
X103128960Y-83882360D01*
X103137569Y-83876737D01*
X103155913Y-83853167D01*
X103159132Y-83849204D01*
X103161645Y-83846235D01*
X103165276Y-83842606D01*
X103176492Y-83826894D01*
X103179476Y-83822892D01*
X103209417Y-83784426D01*
X103211826Y-83777407D01*
X103216140Y-83771366D01*
X103230039Y-83724674D01*
X103231576Y-83719878D01*
X103247400Y-83673788D01*
X103247400Y-83666364D01*
X103249517Y-83659253D01*
X103247506Y-83610621D01*
X103247400Y-83605498D01*
X103247400Y-81678244D01*
X103256839Y-81630791D01*
X103283719Y-81590563D01*
X103537663Y-81336619D01*
X103577891Y-81309739D01*
X103625344Y-81300300D01*
X104293988Y-81300300D01*
X104316805Y-81302666D01*
X104318458Y-81302734D01*
X104328515Y-81304843D01*
X104358177Y-81301145D01*
X104363264Y-81300618D01*
X104367105Y-81300300D01*
X104372240Y-81300300D01*
X104377296Y-81299456D01*
X104377298Y-81299456D01*
X104381638Y-81298731D01*
X104391220Y-81297132D01*
X104396269Y-81296396D01*
X104444593Y-81290373D01*
X104451260Y-81287113D01*
X104458581Y-81285892D01*
X104501416Y-81262709D01*
X104505930Y-81260386D01*
X104549684Y-81238998D01*
X104554932Y-81233749D01*
X104561458Y-81230218D01*
X104594454Y-81194372D01*
X104597956Y-81190724D01*
X106026862Y-79761819D01*
X106067091Y-79734939D01*
X106114544Y-79725500D01*
X106783188Y-79725500D01*
X106806005Y-79727866D01*
X106807658Y-79727934D01*
X106817715Y-79730043D01*
X106847377Y-79726345D01*
X106852464Y-79725818D01*
X106856305Y-79725500D01*
X106861440Y-79725500D01*
X106866496Y-79724656D01*
X106866498Y-79724656D01*
X106870838Y-79723931D01*
X106880420Y-79722332D01*
X106885469Y-79721596D01*
X106933793Y-79715573D01*
X106940460Y-79712313D01*
X106947781Y-79711092D01*
X106990616Y-79687909D01*
X106995130Y-79685586D01*
X107038884Y-79664198D01*
X107044132Y-79658949D01*
X107050658Y-79655418D01*
X107083654Y-79619572D01*
X107087156Y-79615924D01*
X115831262Y-70871819D01*
X115871491Y-70844939D01*
X115918944Y-70835500D01*
X146711988Y-70835500D01*
X146734805Y-70837866D01*
X146736458Y-70837934D01*
X146746515Y-70840043D01*
X146776177Y-70836345D01*
X146781264Y-70835818D01*
X146785105Y-70835500D01*
X146790240Y-70835500D01*
X146792019Y-70835203D01*
X151009885Y-70835203D01*
X151017862Y-70843024D01*
X151195642Y-70951969D01*
X151204305Y-70956383D01*
X151416341Y-71044211D01*
X151425578Y-71047213D01*
X151648750Y-71100791D01*
X151658336Y-71102309D01*
X151887146Y-71120318D01*
X151896854Y-71120318D01*
X152125663Y-71102309D01*
X152135249Y-71100791D01*
X152358421Y-71047213D01*
X152367658Y-71044211D01*
X152579701Y-70956380D01*
X152588348Y-70951975D01*
X152766138Y-70843023D01*
X152774113Y-70835203D01*
X152768182Y-70825735D01*
X151903542Y-69961095D01*
X151892000Y-69954431D01*
X151880457Y-69961095D01*
X151015816Y-70825735D01*
X151009885Y-70835203D01*
X146792019Y-70835203D01*
X146795296Y-70834656D01*
X146795298Y-70834656D01*
X146801901Y-70833554D01*
X146809220Y-70832332D01*
X146814269Y-70831596D01*
X146862593Y-70825573D01*
X146869260Y-70822313D01*
X146876581Y-70821092D01*
X146919416Y-70797909D01*
X146923930Y-70795586D01*
X146967684Y-70774198D01*
X146972932Y-70768949D01*
X146979458Y-70765418D01*
X147012454Y-70729572D01*
X147015956Y-70725924D01*
X148141026Y-69600854D01*
X150367682Y-69600854D01*
X150385690Y-69829663D01*
X150387208Y-69839249D01*
X150440786Y-70062421D01*
X150443788Y-70071658D01*
X150531616Y-70283694D01*
X150536030Y-70292357D01*
X150644974Y-70470136D01*
X150652795Y-70478113D01*
X150662263Y-70472182D01*
X151526904Y-69607542D01*
X151533568Y-69596000D01*
X151533567Y-69595999D01*
X152250431Y-69595999D01*
X152257095Y-69607542D01*
X153121735Y-70472182D01*
X153131203Y-70478113D01*
X153139023Y-70470138D01*
X153247975Y-70292348D01*
X153252380Y-70283701D01*
X153340211Y-70071658D01*
X153343213Y-70062421D01*
X153396791Y-69839249D01*
X153398309Y-69829663D01*
X153416318Y-69600854D01*
X153416318Y-69596000D01*
X154176798Y-69596000D01*
X154195576Y-69834594D01*
X154196711Y-69839323D01*
X154196712Y-69839327D01*
X154250309Y-70062576D01*
X154250311Y-70062584D01*
X154251447Y-70067313D01*
X154343035Y-70288427D01*
X154345582Y-70292584D01*
X154345583Y-70292585D01*
X154465538Y-70488334D01*
X154465541Y-70488339D01*
X154468086Y-70492491D01*
X154471248Y-70496193D01*
X154471250Y-70496196D01*
X154620257Y-70670662D01*
X154623519Y-70674481D01*
X154627219Y-70677641D01*
X154795226Y-70821132D01*
X154805509Y-70829914D01*
X154809663Y-70832459D01*
X154809665Y-70832461D01*
X154877095Y-70873782D01*
X155009573Y-70954965D01*
X155230687Y-71046553D01*
X155463406Y-71102424D01*
X155702000Y-71121202D01*
X155940594Y-71102424D01*
X156173313Y-71046553D01*
X156394427Y-70954965D01*
X156598491Y-70829914D01*
X156780481Y-70674481D01*
X156935914Y-70492491D01*
X157060965Y-70288427D01*
X157152553Y-70067313D01*
X157208424Y-69834594D01*
X157227202Y-69596000D01*
X157208424Y-69357406D01*
X157152553Y-69124687D01*
X157060965Y-68903573D01*
X156935914Y-68699509D01*
X156920390Y-68681333D01*
X156783641Y-68521219D01*
X156780481Y-68517519D01*
X156756628Y-68497147D01*
X156602196Y-68365250D01*
X156602193Y-68365248D01*
X156598491Y-68362086D01*
X156594339Y-68359541D01*
X156594334Y-68359538D01*
X156398585Y-68239583D01*
X156398584Y-68239582D01*
X156394427Y-68237035D01*
X156173313Y-68145447D01*
X156168584Y-68144311D01*
X156168576Y-68144309D01*
X155945327Y-68090712D01*
X155945323Y-68090711D01*
X155940594Y-68089576D01*
X155935741Y-68089194D01*
X155706854Y-68071180D01*
X155702000Y-68070798D01*
X155697146Y-68071180D01*
X155468258Y-68089194D01*
X155468256Y-68089194D01*
X155463406Y-68089576D01*
X155458678Y-68090710D01*
X155458672Y-68090712D01*
X155235423Y-68144309D01*
X155235411Y-68144312D01*
X155230687Y-68145447D01*
X155226190Y-68147309D01*
X155226186Y-68147311D01*
X155014077Y-68235169D01*
X155014072Y-68235171D01*
X155009573Y-68237035D01*
X155005420Y-68239579D01*
X155005414Y-68239583D01*
X154809665Y-68359538D01*
X154809654Y-68359545D01*
X154805509Y-68362086D01*
X154801812Y-68365243D01*
X154801803Y-68365250D01*
X154627219Y-68514358D01*
X154627212Y-68514364D01*
X154623519Y-68517519D01*
X154620364Y-68521212D01*
X154620358Y-68521219D01*
X154471250Y-68695803D01*
X154471243Y-68695812D01*
X154468086Y-68699509D01*
X154465545Y-68703654D01*
X154465538Y-68703665D01*
X154345583Y-68899414D01*
X154345579Y-68899420D01*
X154343035Y-68903573D01*
X154341171Y-68908072D01*
X154341169Y-68908077D01*
X154266770Y-69087693D01*
X154251447Y-69124687D01*
X154250312Y-69129411D01*
X154250309Y-69129423D01*
X154196712Y-69352672D01*
X154196710Y-69352678D01*
X154195576Y-69357406D01*
X154195194Y-69362256D01*
X154195194Y-69362258D01*
X154183768Y-69507436D01*
X154176798Y-69596000D01*
X153416318Y-69596000D01*
X153416318Y-69591146D01*
X153398309Y-69362336D01*
X153396791Y-69352750D01*
X153343213Y-69129578D01*
X153340211Y-69120341D01*
X153252383Y-68908305D01*
X153247969Y-68899642D01*
X153139024Y-68721862D01*
X153131203Y-68713885D01*
X153121735Y-68719816D01*
X152257095Y-69584457D01*
X152250431Y-69595999D01*
X151533567Y-69595999D01*
X151526904Y-69584457D01*
X150662263Y-68719816D01*
X150652795Y-68713885D01*
X150644974Y-68721862D01*
X150536030Y-68899642D01*
X150531616Y-68908305D01*
X150443788Y-69120341D01*
X150440786Y-69129578D01*
X150387208Y-69352750D01*
X150385690Y-69362336D01*
X150367682Y-69591146D01*
X150367682Y-69600854D01*
X148141026Y-69600854D01*
X149385085Y-68356795D01*
X151009885Y-68356795D01*
X151015816Y-68366263D01*
X151880457Y-69230904D01*
X151892000Y-69237568D01*
X151903542Y-69230904D01*
X152768182Y-68366263D01*
X152774113Y-68356795D01*
X152766136Y-68348974D01*
X152588357Y-68240030D01*
X152579694Y-68235616D01*
X152367658Y-68147788D01*
X152358421Y-68144786D01*
X152135249Y-68091208D01*
X152125663Y-68089690D01*
X151896854Y-68071682D01*
X151887146Y-68071682D01*
X151658336Y-68089690D01*
X151648750Y-68091208D01*
X151425578Y-68144786D01*
X151416341Y-68147788D01*
X151204305Y-68235616D01*
X151195642Y-68240030D01*
X151017862Y-68348974D01*
X151009885Y-68356795D01*
X149385085Y-68356795D01*
X151315062Y-66426819D01*
X151355291Y-66399939D01*
X151402744Y-66390500D01*
X153234236Y-66390500D01*
X153291862Y-66404704D01*
X153336284Y-66444058D01*
X153357317Y-66474530D01*
X153362927Y-66479500D01*
X153362929Y-66479502D01*
X153424923Y-66534423D01*
X153475560Y-66579283D01*
X153615435Y-66652696D01*
X153768815Y-66690500D01*
X153919285Y-66690500D01*
X153926785Y-66690500D01*
X154080165Y-66652696D01*
X154220040Y-66579283D01*
X154338283Y-66474530D01*
X154428020Y-66344523D01*
X154484037Y-66196818D01*
X154503078Y-66040000D01*
X154484037Y-65883182D01*
X154428020Y-65735477D01*
X154338283Y-65605470D01*
X154220040Y-65500717D01*
X154213395Y-65497229D01*
X154213393Y-65497228D01*
X154086806Y-65430789D01*
X154086802Y-65430787D01*
X154080165Y-65427304D01*
X154072887Y-65425510D01*
X154072884Y-65425509D01*
X153934067Y-65391294D01*
X153934060Y-65391293D01*
X153926785Y-65389500D01*
X153768815Y-65389500D01*
X153761540Y-65391292D01*
X153761532Y-65391294D01*
X153622715Y-65425509D01*
X153622709Y-65425510D01*
X153615435Y-65427304D01*
X153608800Y-65430786D01*
X153608793Y-65430789D01*
X153482206Y-65497228D01*
X153482200Y-65497231D01*
X153475560Y-65500717D01*
X153469948Y-65505687D01*
X153469943Y-65505692D01*
X153362929Y-65600497D01*
X153362923Y-65600502D01*
X153357317Y-65605470D01*
X153336284Y-65635941D01*
X153291862Y-65675296D01*
X153234236Y-65689500D01*
X151255407Y-65689500D01*
X151232605Y-65687135D01*
X151230938Y-65687066D01*
X151220885Y-65684958D01*
X151210694Y-65686228D01*
X151210689Y-65686228D01*
X151191263Y-65688650D01*
X151186168Y-65689178D01*
X151182282Y-65689500D01*
X151177160Y-65689500D01*
X151172104Y-65690343D01*
X151172098Y-65690344D01*
X151158183Y-65692665D01*
X151153125Y-65693402D01*
X151115001Y-65698155D01*
X151114994Y-65698157D01*
X151104807Y-65699427D01*
X151098139Y-65702686D01*
X151090819Y-65703908D01*
X151081787Y-65708795D01*
X151081783Y-65708797D01*
X151048013Y-65727072D01*
X151043460Y-65729416D01*
X151008944Y-65746290D01*
X151008940Y-65746292D01*
X150999716Y-65750802D01*
X150994467Y-65756050D01*
X150987942Y-65759582D01*
X150980985Y-65767138D01*
X150980985Y-65767139D01*
X150954980Y-65795387D01*
X150951434Y-65799082D01*
X146652337Y-70098181D01*
X146612109Y-70125061D01*
X146564656Y-70134500D01*
X115771612Y-70134500D01*
X115748794Y-70132133D01*
X115747135Y-70132064D01*
X115737085Y-70129957D01*
X115726895Y-70131227D01*
X115726889Y-70131227D01*
X115707442Y-70133652D01*
X115702343Y-70134181D01*
X115698490Y-70134500D01*
X115693360Y-70134500D01*
X115688307Y-70135343D01*
X115688296Y-70135344D01*
X115674389Y-70137665D01*
X115669326Y-70138402D01*
X115631205Y-70143154D01*
X115631194Y-70143157D01*
X115621008Y-70144427D01*
X115614341Y-70147686D01*
X115607019Y-70148908D01*
X115597984Y-70153797D01*
X115597979Y-70153799D01*
X115564204Y-70172077D01*
X115559651Y-70174421D01*
X115525145Y-70191290D01*
X115525141Y-70191292D01*
X115515917Y-70195802D01*
X115510669Y-70201049D01*
X115504142Y-70204582D01*
X115497185Y-70212138D01*
X115497186Y-70212138D01*
X115471169Y-70240399D01*
X115467623Y-70244094D01*
X106723537Y-78988181D01*
X106683309Y-79015061D01*
X106635856Y-79024500D01*
X106174543Y-79024500D01*
X106118248Y-79010985D01*
X106074225Y-78973385D01*
X106052070Y-78919898D01*
X106056612Y-78862182D01*
X106086862Y-78812819D01*
X109359668Y-75540013D01*
X112638313Y-72261367D01*
X112685543Y-72231833D01*
X112740793Y-72225969D01*
X112747815Y-72227700D01*
X112898285Y-72227700D01*
X112905785Y-72227700D01*
X113059165Y-72189896D01*
X113199040Y-72116483D01*
X113317283Y-72011730D01*
X113407020Y-71881723D01*
X113463037Y-71734018D01*
X113482078Y-71577200D01*
X113463037Y-71420382D01*
X113407020Y-71272677D01*
X113333271Y-71165833D01*
X113321542Y-71148840D01*
X113321541Y-71148839D01*
X113317283Y-71142670D01*
X113311672Y-71137699D01*
X113204656Y-71042892D01*
X113204654Y-71042890D01*
X113199040Y-71037917D01*
X113192395Y-71034429D01*
X113192393Y-71034428D01*
X113065806Y-70967989D01*
X113065802Y-70967987D01*
X113059165Y-70964504D01*
X113051887Y-70962710D01*
X113051884Y-70962709D01*
X112913067Y-70928494D01*
X112913060Y-70928493D01*
X112905785Y-70926700D01*
X112747815Y-70926700D01*
X112740540Y-70928492D01*
X112740532Y-70928494D01*
X112601715Y-70962709D01*
X112601709Y-70962710D01*
X112594435Y-70964504D01*
X112587800Y-70967986D01*
X112587793Y-70967989D01*
X112461206Y-71034428D01*
X112461200Y-71034431D01*
X112454560Y-71037917D01*
X112448948Y-71042887D01*
X112448943Y-71042892D01*
X112341927Y-71137699D01*
X112341922Y-71137703D01*
X112336317Y-71142670D01*
X112332062Y-71148834D01*
X112332057Y-71148840D01*
X112250843Y-71266500D01*
X112250840Y-71266503D01*
X112246580Y-71272677D01*
X112243920Y-71279688D01*
X112243918Y-71279694D01*
X112220768Y-71340737D01*
X112190563Y-71420382D01*
X112189659Y-71427822D01*
X112189658Y-71427829D01*
X112178204Y-71522168D01*
X112171522Y-71577200D01*
X112172426Y-71584645D01*
X112172426Y-71584647D01*
X112181524Y-71659581D01*
X112175645Y-71714976D01*
X112146109Y-71762207D01*
X104093137Y-79815181D01*
X104052909Y-79842061D01*
X104005456Y-79851500D01*
X103235212Y-79851500D01*
X103212394Y-79849133D01*
X103210735Y-79849064D01*
X103200685Y-79846957D01*
X103190494Y-79848227D01*
X103190485Y-79848227D01*
X103171040Y-79850651D01*
X103165946Y-79851179D01*
X103162072Y-79851500D01*
X103156960Y-79851500D01*
X103151915Y-79852341D01*
X103151910Y-79852342D01*
X103137959Y-79854669D01*
X103132903Y-79855405D01*
X103094796Y-79860156D01*
X103094792Y-79860157D01*
X103084607Y-79861427D01*
X103077939Y-79864686D01*
X103070619Y-79865908D01*
X103061587Y-79870795D01*
X103061583Y-79870797D01*
X103027813Y-79889072D01*
X103023260Y-79891416D01*
X102988744Y-79908290D01*
X102988740Y-79908292D01*
X102979516Y-79912802D01*
X102974267Y-79918050D01*
X102967742Y-79921582D01*
X102960785Y-79929138D01*
X102960785Y-79929139D01*
X102934780Y-79957387D01*
X102931234Y-79961082D01*
X101933828Y-80958488D01*
X101916022Y-80972949D01*
X101914799Y-80974073D01*
X101906203Y-80979691D01*
X101899895Y-80987795D01*
X101899892Y-80987798D01*
X101887875Y-81003237D01*
X101884657Y-81007200D01*
X101882112Y-81010204D01*
X101878497Y-81013821D01*
X101875522Y-81017986D01*
X101875519Y-81017991D01*
X101867312Y-81029486D01*
X101864250Y-81033592D01*
X101840662Y-81063897D01*
X101840659Y-81063902D01*
X101834355Y-81072002D01*
X101831945Y-81079020D01*
X101827632Y-81085062D01*
X101824703Y-81094897D01*
X101824702Y-81094901D01*
X101813743Y-81131710D01*
X101812181Y-81136585D01*
X101799708Y-81172918D01*
X101799706Y-81172926D01*
X101796372Y-81182640D01*
X101796372Y-81190063D01*
X101794255Y-81197174D01*
X101794679Y-81207437D01*
X101794679Y-81207442D01*
X101796266Y-81245796D01*
X101796372Y-81250920D01*
X101796372Y-82384625D01*
X101785448Y-82435516D01*
X101754599Y-82477441D01*
X101662000Y-82559476D01*
X101656389Y-82564447D01*
X101652134Y-82570611D01*
X101652129Y-82570617D01*
X101570915Y-82688277D01*
X101570912Y-82688280D01*
X101566652Y-82694454D01*
X101563992Y-82701465D01*
X101563990Y-82701471D01*
X101513295Y-82835144D01*
X101510635Y-82842159D01*
X101509731Y-82849597D01*
X101509730Y-82849605D01*
X101507552Y-82867549D01*
X101480507Y-82931025D01*
X101423724Y-82970219D01*
X101354783Y-82972998D01*
X101305271Y-82960795D01*
X101305264Y-82960794D01*
X101297985Y-82959000D01*
X101140015Y-82959000D01*
X101132740Y-82960792D01*
X101132732Y-82960794D01*
X100993915Y-82995009D01*
X100993909Y-82995010D01*
X100986635Y-82996804D01*
X100980000Y-83000286D01*
X100979993Y-83000289D01*
X100853406Y-83066728D01*
X100853400Y-83066731D01*
X100846760Y-83070217D01*
X100841148Y-83075187D01*
X100841143Y-83075192D01*
X100734127Y-83169999D01*
X100734122Y-83170003D01*
X100728517Y-83174970D01*
X100724262Y-83181134D01*
X100724257Y-83181140D01*
X100643043Y-83298800D01*
X100643040Y-83298803D01*
X100638780Y-83304977D01*
X100636120Y-83311988D01*
X100636118Y-83311994D01*
X100585423Y-83445667D01*
X100582763Y-83452682D01*
X100581859Y-83460122D01*
X100581858Y-83460129D01*
X100565070Y-83598396D01*
X100563722Y-83609500D01*
X97528500Y-83609500D01*
X97528500Y-77039658D01*
X97534115Y-77002768D01*
X97550450Y-76969218D01*
X97590305Y-76911477D01*
X97608220Y-76885523D01*
X97664237Y-76737818D01*
X97683278Y-76581000D01*
X97664237Y-76424182D01*
X97608220Y-76276477D01*
X97518483Y-76146470D01*
X97400240Y-76041717D01*
X97393595Y-76038229D01*
X97393593Y-76038228D01*
X97267006Y-75971789D01*
X97267002Y-75971787D01*
X97260365Y-75968304D01*
X97253087Y-75966510D01*
X97253084Y-75966509D01*
X97114267Y-75932294D01*
X97114260Y-75932293D01*
X97106985Y-75930500D01*
X96949015Y-75930500D01*
X96941740Y-75932292D01*
X96941732Y-75932294D01*
X96802915Y-75966509D01*
X96802909Y-75966510D01*
X96795635Y-75968304D01*
X96789000Y-75971786D01*
X96788993Y-75971789D01*
X96662406Y-76038228D01*
X96662400Y-76038231D01*
X96655760Y-76041717D01*
X96650148Y-76046687D01*
X96650143Y-76046692D01*
X96543127Y-76141499D01*
X96543122Y-76141503D01*
X96537517Y-76146470D01*
X96533262Y-76152634D01*
X96533257Y-76152640D01*
X96452043Y-76270300D01*
X96452040Y-76270303D01*
X96447780Y-76276477D01*
X96445120Y-76283488D01*
X96445118Y-76283494D01*
X96394423Y-76417167D01*
X96391763Y-76424182D01*
X96390859Y-76431622D01*
X96390858Y-76431629D01*
X96377787Y-76539283D01*
X96372722Y-76581000D01*
X96373626Y-76588445D01*
X96390858Y-76730370D01*
X96390859Y-76730375D01*
X96391763Y-76737818D01*
X96394422Y-76744831D01*
X96394423Y-76744832D01*
X96403821Y-76769614D01*
X96447780Y-76885523D01*
X96452043Y-76891699D01*
X96505550Y-76969218D01*
X96521885Y-77002768D01*
X96527500Y-77039658D01*
X96527500Y-79004500D01*
X96510887Y-79066500D01*
X96465500Y-79111887D01*
X96403500Y-79128500D01*
X93122243Y-79128500D01*
X93078271Y-79120442D01*
X93040017Y-79097316D01*
X93031440Y-79089717D01*
X92987204Y-79066500D01*
X92898206Y-79019789D01*
X92898202Y-79019787D01*
X92891565Y-79016304D01*
X92884287Y-79014510D01*
X92884284Y-79014509D01*
X92745467Y-78980294D01*
X92745460Y-78980293D01*
X92738185Y-78978500D01*
X92580215Y-78978500D01*
X92572940Y-78980292D01*
X92572932Y-78980294D01*
X92434115Y-79014509D01*
X92434109Y-79014510D01*
X92426835Y-79016304D01*
X92420200Y-79019786D01*
X92420193Y-79019789D01*
X92293606Y-79086228D01*
X92293600Y-79086231D01*
X92286960Y-79089717D01*
X92281348Y-79094687D01*
X92281343Y-79094692D01*
X92174327Y-79189499D01*
X92174322Y-79189503D01*
X92168717Y-79194470D01*
X92164462Y-79200634D01*
X92164457Y-79200640D01*
X92083243Y-79318300D01*
X92083240Y-79318303D01*
X92078980Y-79324477D01*
X92076320Y-79331488D01*
X92076318Y-79331494D01*
X92025623Y-79465167D01*
X92022963Y-79472182D01*
X92022059Y-79479622D01*
X92022058Y-79479629D01*
X92005513Y-79615900D01*
X92003922Y-79629000D01*
X89200500Y-79629000D01*
X89200500Y-72501268D01*
X96393633Y-72501268D01*
X96394903Y-72511458D01*
X96394903Y-72511462D01*
X96397548Y-72532676D01*
X96397871Y-72537891D01*
X96398077Y-72537874D01*
X96398500Y-72542981D01*
X96398500Y-72548114D01*
X96399344Y-72553172D01*
X96399345Y-72553184D01*
X96401918Y-72568603D01*
X96402657Y-72573670D01*
X96409134Y-72625626D01*
X96412626Y-72632770D01*
X96413935Y-72640610D01*
X96438845Y-72686641D01*
X96441171Y-72691161D01*
X96459660Y-72728979D01*
X96459661Y-72728981D01*
X96464174Y-72738211D01*
X96469797Y-72743834D01*
X96473581Y-72750826D01*
X96481138Y-72757782D01*
X96481139Y-72757784D01*
X96512082Y-72786269D01*
X96515780Y-72789817D01*
X98375481Y-74649518D01*
X98405017Y-74696749D01*
X98410896Y-74752143D01*
X98406859Y-74785397D01*
X98404722Y-74803000D01*
X98405626Y-74810445D01*
X98422858Y-74952370D01*
X98422859Y-74952375D01*
X98423763Y-74959818D01*
X98479780Y-75107523D01*
X98569517Y-75237530D01*
X98687760Y-75342283D01*
X98827635Y-75415696D01*
X98981015Y-75453500D01*
X99131485Y-75453500D01*
X99138985Y-75453500D01*
X99292365Y-75415696D01*
X99349522Y-75385696D01*
X99413134Y-75371638D01*
X99475098Y-75391769D01*
X99518302Y-75440536D01*
X99530820Y-75504473D01*
X99509197Y-75565932D01*
X99424042Y-75689301D01*
X99424038Y-75689306D01*
X99419780Y-75695477D01*
X99417120Y-75702488D01*
X99417118Y-75702494D01*
X99366423Y-75836167D01*
X99363763Y-75843182D01*
X99362859Y-75850622D01*
X99362858Y-75850629D01*
X99348147Y-75971789D01*
X99344722Y-76000000D01*
X99345626Y-76007445D01*
X99362858Y-76149370D01*
X99362859Y-76149375D01*
X99363763Y-76156818D01*
X99366422Y-76163831D01*
X99366423Y-76163832D01*
X99411804Y-76283494D01*
X99419780Y-76304523D01*
X99424043Y-76310699D01*
X99496077Y-76415060D01*
X99509517Y-76434530D01*
X99627760Y-76539283D01*
X99767635Y-76612696D01*
X99921015Y-76650500D01*
X100071485Y-76650500D01*
X100078985Y-76650500D01*
X100232365Y-76612696D01*
X100372240Y-76539283D01*
X100490483Y-76434530D01*
X100491626Y-76435820D01*
X100536739Y-76405993D01*
X100600816Y-76402110D01*
X100658248Y-76430790D01*
X100714139Y-76480304D01*
X100714142Y-76480306D01*
X100719760Y-76485283D01*
X100859635Y-76558696D01*
X101013015Y-76596500D01*
X101012850Y-76597168D01*
X101058579Y-76613721D01*
X101097375Y-76653701D01*
X101114753Y-76706631D01*
X101107205Y-76761827D01*
X101090763Y-76805182D01*
X101089859Y-76812622D01*
X101089858Y-76812629D01*
X101073070Y-76950896D01*
X101071722Y-76962000D01*
X101072626Y-76969445D01*
X101089858Y-77111370D01*
X101089859Y-77111375D01*
X101090763Y-77118818D01*
X101146780Y-77266523D01*
X101151043Y-77272699D01*
X101220149Y-77372818D01*
X101236517Y-77396530D01*
X101242126Y-77401499D01*
X101242127Y-77401500D01*
X101346596Y-77494051D01*
X101354760Y-77501283D01*
X101494635Y-77574696D01*
X101648015Y-77612500D01*
X101798485Y-77612500D01*
X101805985Y-77612500D01*
X101959365Y-77574696D01*
X102099240Y-77501283D01*
X102196995Y-77414680D01*
X102249545Y-77387099D01*
X102308895Y-77387099D01*
X102361448Y-77414680D01*
X102395163Y-77463524D01*
X102406740Y-77494051D01*
X102416780Y-77520523D01*
X102421043Y-77526699D01*
X102502254Y-77644355D01*
X102502257Y-77644358D01*
X102506517Y-77650530D01*
X102509209Y-77652915D01*
X102537077Y-77708713D01*
X102533202Y-77772784D01*
X102497810Y-77826333D01*
X102402127Y-77911099D01*
X102402122Y-77911103D01*
X102396517Y-77916070D01*
X102392262Y-77922234D01*
X102392257Y-77922240D01*
X102311043Y-78039900D01*
X102311040Y-78039903D01*
X102306780Y-78046077D01*
X102304120Y-78053088D01*
X102304118Y-78053094D01*
X102253423Y-78186767D01*
X102250763Y-78193782D01*
X102249859Y-78201222D01*
X102249858Y-78201229D01*
X102233070Y-78339496D01*
X102231722Y-78350600D01*
X102232626Y-78358045D01*
X102249858Y-78499970D01*
X102249859Y-78499975D01*
X102250763Y-78507418D01*
X102253422Y-78514431D01*
X102253423Y-78514432D01*
X102291942Y-78616000D01*
X102306780Y-78655123D01*
X102396517Y-78785130D01*
X102514760Y-78889883D01*
X102654635Y-78963296D01*
X102808015Y-79001100D01*
X102958485Y-79001100D01*
X102965985Y-79001100D01*
X103119365Y-78963296D01*
X103259240Y-78889883D01*
X103377483Y-78785130D01*
X103467220Y-78655123D01*
X103523237Y-78507418D01*
X103542278Y-78350600D01*
X103536102Y-78299743D01*
X103541980Y-78244351D01*
X103571515Y-78197120D01*
X104089489Y-77679146D01*
X104109347Y-77663021D01*
X104118436Y-77657084D01*
X104137879Y-77632102D01*
X104141342Y-77628209D01*
X104141171Y-77628064D01*
X104144483Y-77624153D01*
X104148119Y-77620518D01*
X104160214Y-77603576D01*
X104163221Y-77599542D01*
X104195409Y-77558189D01*
X104197990Y-77550668D01*
X104202610Y-77544199D01*
X104217559Y-77493983D01*
X104219081Y-77489232D01*
X104236100Y-77439660D01*
X104236100Y-77431707D01*
X104238368Y-77424089D01*
X104236206Y-77371808D01*
X104236100Y-77366685D01*
X104236100Y-75037577D01*
X104252094Y-74976661D01*
X104295950Y-74931460D01*
X104356355Y-74913634D01*
X104417726Y-74927781D01*
X104432235Y-74935396D01*
X104585615Y-74973200D01*
X104736085Y-74973200D01*
X104743585Y-74973200D01*
X104896965Y-74935396D01*
X105036840Y-74861983D01*
X105045417Y-74854383D01*
X105083671Y-74831258D01*
X105127643Y-74823200D01*
X107905956Y-74823200D01*
X107919505Y-74824656D01*
X107919514Y-74824541D01*
X107928360Y-74825173D01*
X107937027Y-74827059D01*
X107986561Y-74823515D01*
X107995408Y-74823200D01*
X108004465Y-74823200D01*
X108008899Y-74823200D01*
X108022262Y-74821278D01*
X108031049Y-74820333D01*
X108080583Y-74816791D01*
X108088893Y-74813690D01*
X108097560Y-74811806D01*
X108097584Y-74811920D01*
X108098302Y-74811737D01*
X108098269Y-74811625D01*
X108106775Y-74809127D01*
X108115557Y-74807865D01*
X108160747Y-74787226D01*
X108168887Y-74783855D01*
X108215431Y-74766496D01*
X108222533Y-74761178D01*
X108230319Y-74756928D01*
X108230374Y-74757030D01*
X108231008Y-74756654D01*
X108230945Y-74756555D01*
X108238401Y-74751762D01*
X108246473Y-74748077D01*
X108284003Y-74715555D01*
X108290875Y-74710018D01*
X108301693Y-74701921D01*
X108311242Y-74692370D01*
X108317704Y-74686353D01*
X108355243Y-74653828D01*
X108360037Y-74646367D01*
X108365849Y-74639661D01*
X108365936Y-74639736D01*
X108374482Y-74629130D01*
X113631122Y-69372491D01*
X128921006Y-69372491D01*
X128929113Y-69383681D01*
X128941602Y-69393401D01*
X128950151Y-69398987D01*
X129145194Y-69504539D01*
X129154547Y-69508641D01*
X129364290Y-69580646D01*
X129374199Y-69583155D01*
X129592929Y-69619655D01*
X129603127Y-69620500D01*
X129824873Y-69620500D01*
X129835070Y-69619655D01*
X130053800Y-69583155D01*
X130063709Y-69580646D01*
X130273452Y-69508641D01*
X130282805Y-69504539D01*
X130477845Y-69398988D01*
X130486397Y-69393401D01*
X130498888Y-69383679D01*
X130506992Y-69372492D01*
X130500331Y-69360384D01*
X129725542Y-68585595D01*
X129714000Y-68578931D01*
X129702457Y-68585595D01*
X128927666Y-69360385D01*
X128921006Y-69372491D01*
X113631122Y-69372491D01*
X114777996Y-68225617D01*
X128309626Y-68225617D01*
X128327937Y-68446602D01*
X128329621Y-68456696D01*
X128384059Y-68671666D01*
X128387378Y-68681333D01*
X128476456Y-68884413D01*
X128481322Y-68893403D01*
X128555245Y-69006551D01*
X128563212Y-69014276D01*
X128572592Y-69008353D01*
X129348904Y-68232042D01*
X129355568Y-68220500D01*
X130072431Y-68220500D01*
X130079095Y-68232042D01*
X130855405Y-69008352D01*
X130864786Y-69014276D01*
X130872754Y-69006551D01*
X130946675Y-68893406D01*
X130951543Y-68884411D01*
X131040621Y-68681333D01*
X131043940Y-68671666D01*
X131098378Y-68456696D01*
X131100062Y-68446602D01*
X131118374Y-68225617D01*
X131118374Y-68215383D01*
X131100062Y-67994397D01*
X131098378Y-67984303D01*
X131043940Y-67769333D01*
X131040621Y-67759666D01*
X130951543Y-67556586D01*
X130946678Y-67547596D01*
X130872753Y-67434447D01*
X130864786Y-67426722D01*
X130855405Y-67432646D01*
X130079095Y-68208957D01*
X130072431Y-68220500D01*
X129355568Y-68220500D01*
X129348904Y-68208957D01*
X128572592Y-67432645D01*
X128563212Y-67426722D01*
X128555245Y-67434446D01*
X128481322Y-67547596D01*
X128476456Y-67556586D01*
X128387378Y-67759666D01*
X128384059Y-67769333D01*
X128329621Y-67984303D01*
X128327937Y-67994397D01*
X128309626Y-68215383D01*
X128309626Y-68225617D01*
X114777996Y-68225617D01*
X115935107Y-67068506D01*
X128921007Y-67068506D01*
X128927667Y-67080614D01*
X129702457Y-67855404D01*
X129714000Y-67862068D01*
X129725542Y-67855404D01*
X130500332Y-67080613D01*
X130506992Y-67068507D01*
X130498886Y-67057318D01*
X130486394Y-67047596D01*
X130477847Y-67042012D01*
X130282805Y-66936460D01*
X130273452Y-66932358D01*
X130063709Y-66860353D01*
X130053800Y-66857844D01*
X129835070Y-66821344D01*
X129824873Y-66820500D01*
X129603127Y-66820500D01*
X129592929Y-66821344D01*
X129374199Y-66857844D01*
X129364290Y-66860353D01*
X129154547Y-66932358D01*
X129145194Y-66936460D01*
X128950156Y-67042010D01*
X128941600Y-67047600D01*
X128929112Y-67057318D01*
X128921007Y-67068506D01*
X115935107Y-67068506D01*
X117366594Y-65637019D01*
X117406823Y-65610139D01*
X117454276Y-65600700D01*
X143632324Y-65600700D01*
X143679777Y-65610139D01*
X143720005Y-65637019D01*
X144577181Y-66494195D01*
X144604061Y-66534423D01*
X144613500Y-66581876D01*
X144613500Y-66825039D01*
X144596023Y-66888513D01*
X144548517Y-66934094D01*
X144349887Y-67041587D01*
X144349880Y-67041590D01*
X144345374Y-67044030D01*
X144341334Y-67047174D01*
X144341327Y-67047179D01*
X144166263Y-67183436D01*
X144166255Y-67183443D01*
X144162216Y-67186587D01*
X144158746Y-67190355D01*
X144158742Y-67190360D01*
X144008491Y-67353577D01*
X144008488Y-67353580D01*
X144005021Y-67357347D01*
X144002226Y-67361624D01*
X144002219Y-67361634D01*
X143880878Y-67547362D01*
X143878076Y-67551651D01*
X143876021Y-67556335D01*
X143876016Y-67556345D01*
X143786903Y-67759503D01*
X143784843Y-67764200D01*
X143783585Y-67769165D01*
X143783584Y-67769170D01*
X143729125Y-67984220D01*
X143729123Y-67984229D01*
X143727866Y-67989195D01*
X143727442Y-67994302D01*
X143727441Y-67994313D01*
X143711703Y-68184262D01*
X143708700Y-68220500D01*
X143709124Y-68225617D01*
X143727441Y-68446686D01*
X143727442Y-68446695D01*
X143727866Y-68451805D01*
X143729123Y-68456772D01*
X143729125Y-68456779D01*
X143776018Y-68641951D01*
X143784843Y-68676800D01*
X143786903Y-68681496D01*
X143876016Y-68884654D01*
X143876019Y-68884659D01*
X143878076Y-68889349D01*
X143884652Y-68899414D01*
X144002219Y-69079365D01*
X144002222Y-69079369D01*
X144005021Y-69083653D01*
X144162216Y-69254413D01*
X144166262Y-69257562D01*
X144166263Y-69257563D01*
X144179909Y-69268184D01*
X144345374Y-69396970D01*
X144549497Y-69507436D01*
X144769019Y-69582798D01*
X144997951Y-69621000D01*
X145224916Y-69621000D01*
X145230049Y-69621000D01*
X145458981Y-69582798D01*
X145678503Y-69507436D01*
X145882626Y-69396970D01*
X146065784Y-69254413D01*
X146222979Y-69083653D01*
X146349924Y-68889349D01*
X146443157Y-68676800D01*
X146500134Y-68451805D01*
X146519300Y-68220500D01*
X146500134Y-67989195D01*
X146443157Y-67764200D01*
X146349924Y-67551651D01*
X146222979Y-67357347D01*
X146065784Y-67186587D01*
X145929629Y-67080614D01*
X145886672Y-67047179D01*
X145886671Y-67047178D01*
X145882626Y-67044030D01*
X145878112Y-67041587D01*
X145679483Y-66934094D01*
X145631977Y-66888513D01*
X145614500Y-66825039D01*
X145614500Y-66390344D01*
X145615956Y-66376794D01*
X145615841Y-66376786D01*
X145616473Y-66367939D01*
X145618359Y-66359273D01*
X145614815Y-66309738D01*
X145614500Y-66300892D01*
X145614500Y-66291836D01*
X145614500Y-66287401D01*
X145612578Y-66274037D01*
X145611633Y-66265246D01*
X145611451Y-66262704D01*
X145608091Y-66215717D01*
X145604990Y-66207404D01*
X145603106Y-66198740D01*
X145603220Y-66198715D01*
X145603037Y-66197998D01*
X145602925Y-66198032D01*
X145600427Y-66189526D01*
X145599165Y-66180743D01*
X145578530Y-66135560D01*
X145575159Y-66127422D01*
X145557796Y-66080869D01*
X145552478Y-66073765D01*
X145548230Y-66065985D01*
X145548332Y-66065929D01*
X145547953Y-66065290D01*
X145547855Y-66065354D01*
X145543061Y-66057894D01*
X145539377Y-66049827D01*
X145533570Y-66043125D01*
X145533566Y-66043119D01*
X145506860Y-66012299D01*
X145501306Y-66005407D01*
X145499197Y-66002590D01*
X145493221Y-65994607D01*
X145483676Y-65985061D01*
X145477658Y-65978600D01*
X145445128Y-65941057D01*
X145437668Y-65936263D01*
X145430963Y-65930452D01*
X145431038Y-65930364D01*
X145420427Y-65921813D01*
X144292385Y-64793771D01*
X144283835Y-64783161D01*
X144283748Y-64783237D01*
X144277934Y-64776528D01*
X144273143Y-64769072D01*
X144266444Y-64763267D01*
X144266442Y-64763265D01*
X144235615Y-64736554D01*
X144229136Y-64730522D01*
X144222730Y-64724116D01*
X144222729Y-64724115D01*
X144219593Y-64720979D01*
X144208785Y-64712888D01*
X144201907Y-64707347D01*
X144164373Y-64674823D01*
X144156307Y-64671139D01*
X144148845Y-64666343D01*
X144148907Y-64666246D01*
X144148267Y-64665866D01*
X144148212Y-64665968D01*
X144140431Y-64661719D01*
X144133331Y-64656404D01*
X144125023Y-64653305D01*
X144125021Y-64653304D01*
X144086790Y-64639045D01*
X144078613Y-64635657D01*
X144041527Y-64618720D01*
X144041524Y-64618719D01*
X144033457Y-64615035D01*
X144024676Y-64613772D01*
X144016171Y-64611275D01*
X144016203Y-64611164D01*
X144015479Y-64610979D01*
X144015455Y-64611092D01*
X144006789Y-64609206D01*
X143998483Y-64606109D01*
X143989642Y-64605476D01*
X143989640Y-64605476D01*
X143948946Y-64602565D01*
X143940155Y-64601620D01*
X143926799Y-64599700D01*
X143922370Y-64599700D01*
X143913308Y-64599700D01*
X143904461Y-64599384D01*
X143863773Y-64596473D01*
X143863767Y-64596473D01*
X143854927Y-64595841D01*
X143846262Y-64597725D01*
X143837414Y-64598359D01*
X143837405Y-64598243D01*
X143823856Y-64599700D01*
X117262744Y-64599700D01*
X117249194Y-64598243D01*
X117249186Y-64598359D01*
X117240337Y-64597725D01*
X117231673Y-64595841D01*
X117222831Y-64596473D01*
X117222826Y-64596473D01*
X117182139Y-64599384D01*
X117173292Y-64599700D01*
X117159801Y-64599700D01*
X117155419Y-64600329D01*
X117155417Y-64600330D01*
X117146444Y-64601620D01*
X117137654Y-64602565D01*
X117096962Y-64605476D01*
X117096960Y-64605476D01*
X117088117Y-64606109D01*
X117079808Y-64609207D01*
X117071145Y-64611092D01*
X117071120Y-64610979D01*
X117070394Y-64611164D01*
X117070427Y-64611275D01*
X117061919Y-64613772D01*
X117053143Y-64615035D01*
X117045082Y-64618716D01*
X117045076Y-64618718D01*
X117007966Y-64635666D01*
X116999796Y-64639049D01*
X116987053Y-64643802D01*
X116961579Y-64653304D01*
X116961576Y-64653305D01*
X116953269Y-64656404D01*
X116946168Y-64661719D01*
X116938387Y-64665968D01*
X116938332Y-64665867D01*
X116937691Y-64666248D01*
X116937753Y-64666344D01*
X116930289Y-64671140D01*
X116922227Y-64674823D01*
X116915530Y-64680625D01*
X116915525Y-64680629D01*
X116884707Y-64707332D01*
X116877830Y-64712874D01*
X116870560Y-64718317D01*
X116870542Y-64718332D01*
X116867007Y-64720979D01*
X116863883Y-64724102D01*
X116863878Y-64724107D01*
X116857458Y-64730527D01*
X116850985Y-64736553D01*
X116820159Y-64763265D01*
X116813457Y-64769072D01*
X116808664Y-64776528D01*
X116802855Y-64783233D01*
X116802767Y-64783157D01*
X116794214Y-64793770D01*
X107802105Y-73785881D01*
X107761877Y-73812761D01*
X107714424Y-73822200D01*
X105127643Y-73822200D01*
X105083671Y-73814142D01*
X105045417Y-73791016D01*
X105036840Y-73783417D01*
X105012171Y-73770469D01*
X104903606Y-73713489D01*
X104903602Y-73713487D01*
X104896965Y-73710004D01*
X104889687Y-73708210D01*
X104889684Y-73708209D01*
X104750867Y-73673994D01*
X104750860Y-73673993D01*
X104743585Y-73672200D01*
X104585615Y-73672200D01*
X104578339Y-73673993D01*
X104578333Y-73673994D01*
X104575334Y-73674734D01*
X104572646Y-73674685D01*
X104570886Y-73674899D01*
X104570856Y-73674652D01*
X104511640Y-73673577D01*
X104456926Y-73640950D01*
X104425632Y-73585462D01*
X104426018Y-73521760D01*
X104457979Y-73466657D01*
X106672218Y-71252418D01*
X106712446Y-71225539D01*
X106759899Y-71216100D01*
X108279195Y-71216100D01*
X108304644Y-71218740D01*
X108305209Y-71218858D01*
X108305210Y-71218858D01*
X108315268Y-71220967D01*
X108346676Y-71217051D01*
X108351887Y-71216728D01*
X108351871Y-71216524D01*
X108356986Y-71216100D01*
X108362114Y-71216100D01*
X108382636Y-71212674D01*
X108387666Y-71211942D01*
X108439626Y-71205466D01*
X108446770Y-71201973D01*
X108454610Y-71200665D01*
X108500647Y-71175750D01*
X108505164Y-71173425D01*
X108552211Y-71150426D01*
X108557834Y-71144802D01*
X108564826Y-71141019D01*
X108600317Y-71102463D01*
X108603794Y-71098841D01*
X118221935Y-61480700D01*
X165953172Y-61480700D01*
X165972778Y-61742330D01*
X166031160Y-61998116D01*
X166032855Y-62002434D01*
X166032856Y-62002438D01*
X166125314Y-62238018D01*
X166125317Y-62238024D01*
X166127012Y-62242343D01*
X166129330Y-62246358D01*
X166129333Y-62246364D01*
X166203553Y-62374916D01*
X166258194Y-62469557D01*
X166421775Y-62674681D01*
X166614101Y-62853133D01*
X166830876Y-63000928D01*
X167067257Y-63114763D01*
X167071685Y-63116128D01*
X167071688Y-63116130D01*
X167175117Y-63148033D01*
X167317965Y-63192096D01*
X167577398Y-63231200D01*
X167835127Y-63231200D01*
X167839762Y-63231200D01*
X168099195Y-63192096D01*
X168349903Y-63114763D01*
X168586284Y-63000928D01*
X168803059Y-62853133D01*
X168995385Y-62674681D01*
X169158966Y-62469557D01*
X169290148Y-62242343D01*
X169386000Y-61998116D01*
X169444382Y-61742330D01*
X169463988Y-61480700D01*
X169444382Y-61219070D01*
X169386000Y-60963284D01*
X169290148Y-60719057D01*
X169158966Y-60491843D01*
X168995385Y-60286719D01*
X168803059Y-60108267D01*
X168586284Y-59960472D01*
X168582098Y-59958456D01*
X168354082Y-59848649D01*
X168354076Y-59848646D01*
X168349903Y-59846637D01*
X168345481Y-59845273D01*
X168345471Y-59845269D01*
X168103628Y-59770671D01*
X168103623Y-59770669D01*
X168099195Y-59769304D01*
X168094615Y-59768613D01*
X168094608Y-59768612D01*
X167844345Y-59730890D01*
X167844334Y-59730889D01*
X167839762Y-59730200D01*
X167577398Y-59730200D01*
X167572826Y-59730889D01*
X167572814Y-59730890D01*
X167322551Y-59768612D01*
X167322541Y-59768614D01*
X167317965Y-59769304D01*
X167313539Y-59770668D01*
X167313531Y-59770671D01*
X167071688Y-59845269D01*
X167071673Y-59845274D01*
X167067257Y-59846637D01*
X167063088Y-59848644D01*
X167063077Y-59848649D01*
X166835061Y-59958456D01*
X166835054Y-59958459D01*
X166830876Y-59960472D01*
X166827043Y-59963085D01*
X166827040Y-59963087D01*
X166617929Y-60105657D01*
X166614101Y-60108267D01*
X166610709Y-60111413D01*
X166610703Y-60111419D01*
X166425176Y-60283563D01*
X166421775Y-60286719D01*
X166418886Y-60290341D01*
X166418882Y-60290346D01*
X166261086Y-60488216D01*
X166258194Y-60491843D01*
X166255875Y-60495859D01*
X166255874Y-60495861D01*
X166129333Y-60715035D01*
X166129327Y-60715046D01*
X166127012Y-60719057D01*
X166125319Y-60723370D01*
X166125314Y-60723381D01*
X166032856Y-60958961D01*
X166032853Y-60958968D01*
X166031160Y-60963284D01*
X166030128Y-60967802D01*
X166030127Y-60967808D01*
X165973809Y-61214550D01*
X165973807Y-61214558D01*
X165972778Y-61219070D01*
X165953172Y-61480700D01*
X118221935Y-61480700D01*
X131457989Y-48244646D01*
X131477847Y-48228521D01*
X131486936Y-48222584D01*
X131506379Y-48197602D01*
X131509846Y-48193705D01*
X131509674Y-48193560D01*
X131512981Y-48189654D01*
X131516620Y-48186017D01*
X131528697Y-48169100D01*
X131531763Y-48164989D01*
X131563909Y-48123689D01*
X131566490Y-48116168D01*
X131571110Y-48109699D01*
X131586041Y-48059545D01*
X131587591Y-48054701D01*
X131604600Y-48005160D01*
X131604600Y-47997209D01*
X131606869Y-47989588D01*
X131604705Y-47937293D01*
X131604600Y-47932169D01*
X131604600Y-32053290D01*
X131614408Y-32004957D01*
X131642279Y-31964269D01*
X131683806Y-31937663D01*
X131684886Y-31937244D01*
X131744119Y-31914298D01*
X131925402Y-31802052D01*
X132082972Y-31658407D01*
X132211466Y-31488255D01*
X132306505Y-31297389D01*
X132364856Y-31092310D01*
X132375629Y-30976047D01*
X132395733Y-30918996D01*
X132440436Y-30878244D01*
X132499100Y-30863489D01*
X132557764Y-30878244D01*
X132602467Y-30918996D01*
X132622571Y-30976048D01*
X132632806Y-31086510D01*
X132633344Y-31092310D01*
X132634912Y-31097821D01*
X132634914Y-31097831D01*
X132690124Y-31291870D01*
X132690126Y-31291876D01*
X132691695Y-31297389D01*
X132694253Y-31302526D01*
X132778880Y-31472483D01*
X132786734Y-31488255D01*
X132915228Y-31658407D01*
X133072798Y-31802052D01*
X133254081Y-31914298D01*
X133452902Y-31991321D01*
X133662490Y-32030500D01*
X133869981Y-32030500D01*
X133875710Y-32030500D01*
X134085298Y-31991321D01*
X134284119Y-31914298D01*
X134465402Y-31802052D01*
X134622972Y-31658407D01*
X134751466Y-31488255D01*
X134846505Y-31297389D01*
X134904856Y-31092310D01*
X134915629Y-30976047D01*
X134935733Y-30918996D01*
X134980436Y-30878244D01*
X135039100Y-30863489D01*
X135097764Y-30878244D01*
X135142467Y-30918996D01*
X135162571Y-30976048D01*
X135172806Y-31086510D01*
X135173344Y-31092310D01*
X135174912Y-31097821D01*
X135174914Y-31097831D01*
X135230124Y-31291870D01*
X135230126Y-31291876D01*
X135231695Y-31297389D01*
X135234253Y-31302526D01*
X135318880Y-31472483D01*
X135326734Y-31488255D01*
X135455228Y-31658407D01*
X135612798Y-31802052D01*
X135794081Y-31914298D01*
X135992902Y-31991321D01*
X136202490Y-32030500D01*
X136409981Y-32030500D01*
X136415710Y-32030500D01*
X136625298Y-31991321D01*
X136824119Y-31914298D01*
X137005402Y-31802052D01*
X137162972Y-31658407D01*
X137291466Y-31488255D01*
X137386505Y-31297389D01*
X137444856Y-31092310D01*
X137459600Y-30933194D01*
X137459600Y-30480000D01*
X165953692Y-30480000D01*
X165973298Y-30741630D01*
X165974328Y-30746143D01*
X165974329Y-30746149D01*
X166026803Y-30976048D01*
X166031680Y-30997416D01*
X166033375Y-31001734D01*
X166033376Y-31001738D01*
X166125834Y-31237318D01*
X166125837Y-31237324D01*
X166127532Y-31241643D01*
X166129850Y-31245658D01*
X166129853Y-31245664D01*
X166159717Y-31297389D01*
X166258714Y-31468857D01*
X166422295Y-31673981D01*
X166614621Y-31852433D01*
X166831396Y-32000228D01*
X167067777Y-32114063D01*
X167072205Y-32115428D01*
X167072208Y-32115430D01*
X167151866Y-32140001D01*
X167318485Y-32191396D01*
X167577918Y-32230500D01*
X167835647Y-32230500D01*
X167840282Y-32230500D01*
X168099715Y-32191396D01*
X168350423Y-32114063D01*
X168586804Y-32000228D01*
X168803579Y-31852433D01*
X168995905Y-31673981D01*
X169159486Y-31468857D01*
X169290668Y-31241643D01*
X169386520Y-30997416D01*
X169444902Y-30741630D01*
X169464508Y-30480000D01*
X169444902Y-30218370D01*
X169386520Y-29962584D01*
X169290668Y-29718357D01*
X169159486Y-29491143D01*
X168995905Y-29286019D01*
X168803579Y-29107567D01*
X168586804Y-28959772D01*
X168558883Y-28946326D01*
X168354602Y-28847949D01*
X168354596Y-28847946D01*
X168350423Y-28845937D01*
X168346001Y-28844573D01*
X168345991Y-28844569D01*
X168104148Y-28769971D01*
X168104143Y-28769969D01*
X168099715Y-28768604D01*
X168095135Y-28767913D01*
X168095128Y-28767912D01*
X167844865Y-28730190D01*
X167844854Y-28730189D01*
X167840282Y-28729500D01*
X167577918Y-28729500D01*
X167573346Y-28730189D01*
X167573334Y-28730190D01*
X167323071Y-28767912D01*
X167323061Y-28767914D01*
X167318485Y-28768604D01*
X167314059Y-28769968D01*
X167314051Y-28769971D01*
X167072208Y-28844569D01*
X167072193Y-28844574D01*
X167067777Y-28845937D01*
X167063608Y-28847944D01*
X167063597Y-28847949D01*
X166835581Y-28957756D01*
X166835574Y-28957759D01*
X166831396Y-28959772D01*
X166827563Y-28962385D01*
X166827560Y-28962387D01*
X166708396Y-29043632D01*
X166614621Y-29107567D01*
X166611229Y-29110713D01*
X166611223Y-29110719D01*
X166425696Y-29282863D01*
X166422295Y-29286019D01*
X166419406Y-29289641D01*
X166419402Y-29289646D01*
X166261606Y-29487516D01*
X166258714Y-29491143D01*
X166256395Y-29495159D01*
X166256394Y-29495161D01*
X166129853Y-29714335D01*
X166129847Y-29714346D01*
X166127532Y-29718357D01*
X166125839Y-29722670D01*
X166125834Y-29722681D01*
X166033376Y-29958261D01*
X166033373Y-29958268D01*
X166031680Y-29962584D01*
X166030648Y-29967102D01*
X166030647Y-29967108D01*
X165974329Y-30213850D01*
X165974327Y-30213858D01*
X165973298Y-30218370D01*
X165953692Y-30480000D01*
X137459600Y-30480000D01*
X137459600Y-30026806D01*
X137444856Y-29867690D01*
X137386505Y-29662611D01*
X137291466Y-29471745D01*
X137162972Y-29301593D01*
X137005402Y-29157948D01*
X137000538Y-29154936D01*
X137000535Y-29154934D01*
X136828990Y-29048718D01*
X136828989Y-29048717D01*
X136824119Y-29045702D01*
X136818781Y-29043634D01*
X136818777Y-29043632D01*
X136630645Y-28970750D01*
X136630640Y-28970748D01*
X136625298Y-28968679D01*
X136591639Y-28962387D01*
X136421339Y-28930552D01*
X136421336Y-28930551D01*
X136415710Y-28929500D01*
X136202490Y-28929500D01*
X136196864Y-28930551D01*
X136196860Y-28930552D01*
X135998539Y-28967625D01*
X135998536Y-28967625D01*
X135992902Y-28968679D01*
X135987561Y-28970747D01*
X135987554Y-28970750D01*
X135799422Y-29043632D01*
X135799413Y-29043636D01*
X135794081Y-29045702D01*
X135789214Y-29048715D01*
X135789209Y-29048718D01*
X135617664Y-29154934D01*
X135617655Y-29154940D01*
X135612798Y-29157948D01*
X135608575Y-29161797D01*
X135608568Y-29161803D01*
X135459460Y-29297734D01*
X135459454Y-29297739D01*
X135455228Y-29301593D01*
X135451781Y-29306156D01*
X135451775Y-29306164D01*
X135330186Y-29467173D01*
X135330183Y-29467177D01*
X135326734Y-29471745D01*
X135324182Y-29476870D01*
X135324179Y-29476875D01*
X135315074Y-29495161D01*
X135231695Y-29662611D01*
X135230127Y-29668119D01*
X135230124Y-29668129D01*
X135174914Y-29862168D01*
X135174911Y-29862179D01*
X135173344Y-29867690D01*
X135172814Y-29873400D01*
X135172814Y-29873405D01*
X135162571Y-29983951D01*
X135142467Y-30041003D01*
X135097764Y-30081755D01*
X135039100Y-30096510D01*
X134980436Y-30081755D01*
X134935733Y-30041003D01*
X134915629Y-29983951D01*
X134905393Y-29873489D01*
X134904856Y-29867690D01*
X134846505Y-29662611D01*
X134751466Y-29471745D01*
X134622972Y-29301593D01*
X134465402Y-29157948D01*
X134460538Y-29154936D01*
X134460535Y-29154934D01*
X134288990Y-29048718D01*
X134288989Y-29048717D01*
X134284119Y-29045702D01*
X134278781Y-29043634D01*
X134278777Y-29043632D01*
X134090645Y-28970750D01*
X134090640Y-28970748D01*
X134085298Y-28968679D01*
X134051639Y-28962387D01*
X133881339Y-28930552D01*
X133881336Y-28930551D01*
X133875710Y-28929500D01*
X133662490Y-28929500D01*
X133656864Y-28930551D01*
X133656860Y-28930552D01*
X133458539Y-28967625D01*
X133458536Y-28967625D01*
X133452902Y-28968679D01*
X133447561Y-28970747D01*
X133447554Y-28970750D01*
X133259422Y-29043632D01*
X133259413Y-29043636D01*
X133254081Y-29045702D01*
X133249214Y-29048715D01*
X133249209Y-29048718D01*
X133077664Y-29154934D01*
X133077655Y-29154940D01*
X133072798Y-29157948D01*
X133068575Y-29161797D01*
X133068568Y-29161803D01*
X132919460Y-29297734D01*
X132919454Y-29297739D01*
X132915228Y-29301593D01*
X132911781Y-29306156D01*
X132911775Y-29306164D01*
X132790186Y-29467173D01*
X132790183Y-29467177D01*
X132786734Y-29471745D01*
X132784182Y-29476870D01*
X132784179Y-29476875D01*
X132775074Y-29495161D01*
X132691695Y-29662611D01*
X132690127Y-29668119D01*
X132690124Y-29668129D01*
X132634914Y-29862168D01*
X132634911Y-29862179D01*
X132633344Y-29867690D01*
X132632814Y-29873400D01*
X132632814Y-29873405D01*
X132622571Y-29983951D01*
X132602467Y-30041003D01*
X132557764Y-30081755D01*
X132499100Y-30096510D01*
X132440436Y-30081755D01*
X132395733Y-30041003D01*
X132375629Y-29983951D01*
X132365393Y-29873489D01*
X132364856Y-29867690D01*
X132306505Y-29662611D01*
X132211466Y-29471745D01*
X132082972Y-29301593D01*
X131925402Y-29157948D01*
X131920538Y-29154936D01*
X131920535Y-29154934D01*
X131748990Y-29048718D01*
X131748989Y-29048717D01*
X131744119Y-29045702D01*
X131738781Y-29043634D01*
X131738777Y-29043632D01*
X131550645Y-28970750D01*
X131550640Y-28970748D01*
X131545298Y-28968679D01*
X131511639Y-28962387D01*
X131341339Y-28930552D01*
X131341336Y-28930551D01*
X131335710Y-28929500D01*
X131122490Y-28929500D01*
X131116864Y-28930551D01*
X131116860Y-28930552D01*
X130918539Y-28967625D01*
X130918536Y-28967625D01*
X130912902Y-28968679D01*
X130907561Y-28970747D01*
X130907554Y-28970750D01*
X130719422Y-29043632D01*
X130719413Y-29043636D01*
X130714081Y-29045702D01*
X130709214Y-29048715D01*
X130709209Y-29048718D01*
X130537664Y-29154934D01*
X130537655Y-29154940D01*
X130532798Y-29157948D01*
X130528575Y-29161797D01*
X130528568Y-29161803D01*
X130379460Y-29297734D01*
X130379454Y-29297739D01*
X130375228Y-29301593D01*
X130371781Y-29306156D01*
X130371775Y-29306164D01*
X130250186Y-29467173D01*
X130250183Y-29467177D01*
X130246734Y-29471745D01*
X130244182Y-29476870D01*
X130244179Y-29476875D01*
X130235074Y-29495161D01*
X130151695Y-29662611D01*
X130150127Y-29668119D01*
X130150124Y-29668129D01*
X130094914Y-29862168D01*
X130094911Y-29862179D01*
X130093344Y-29867690D01*
X130092814Y-29873400D01*
X130092814Y-29873405D01*
X130082571Y-29983951D01*
X130062467Y-30041003D01*
X130017764Y-30081755D01*
X129959100Y-30096510D01*
X129900436Y-30081755D01*
X129855733Y-30041003D01*
X129835629Y-29983951D01*
X129825393Y-29873489D01*
X129824856Y-29867690D01*
X129766505Y-29662611D01*
X129671466Y-29471745D01*
X129542972Y-29301593D01*
X129385402Y-29157948D01*
X129380538Y-29154936D01*
X129380535Y-29154934D01*
X129208990Y-29048718D01*
X129208989Y-29048717D01*
X129204119Y-29045702D01*
X129198781Y-29043634D01*
X129198777Y-29043632D01*
X129010645Y-28970750D01*
X129010640Y-28970748D01*
X129005298Y-28968679D01*
X128971639Y-28962387D01*
X128801339Y-28930552D01*
X128801336Y-28930551D01*
X128795710Y-28929500D01*
X128582490Y-28929500D01*
X128576864Y-28930551D01*
X128576860Y-28930552D01*
X128378539Y-28967625D01*
X128378536Y-28967625D01*
X128372902Y-28968679D01*
X128367561Y-28970747D01*
X128367554Y-28970750D01*
X128179422Y-29043632D01*
X128179413Y-29043636D01*
X128174081Y-29045702D01*
X128169214Y-29048715D01*
X128169209Y-29048718D01*
X127997664Y-29154934D01*
X127997655Y-29154940D01*
X127992798Y-29157948D01*
X127988575Y-29161797D01*
X127988568Y-29161803D01*
X127839460Y-29297734D01*
X127839454Y-29297739D01*
X127835228Y-29301593D01*
X127831781Y-29306156D01*
X127831775Y-29306164D01*
X127710186Y-29467173D01*
X127710183Y-29467177D01*
X127706734Y-29471745D01*
X127704182Y-29476870D01*
X127704179Y-29476875D01*
X127695074Y-29495161D01*
X127611695Y-29662611D01*
X127610127Y-29668119D01*
X127610124Y-29668129D01*
X127554914Y-29862168D01*
X127554911Y-29862179D01*
X127553344Y-29867690D01*
X127552814Y-29873400D01*
X127552814Y-29873405D01*
X127542571Y-29983951D01*
X127522467Y-30041003D01*
X127477764Y-30081755D01*
X127419100Y-30096510D01*
X127360436Y-30081755D01*
X127315733Y-30041003D01*
X127295629Y-29983951D01*
X127285393Y-29873489D01*
X127284856Y-29867690D01*
X127226505Y-29662611D01*
X127131466Y-29471745D01*
X127002972Y-29301593D01*
X126845402Y-29157948D01*
X126840538Y-29154936D01*
X126840535Y-29154934D01*
X126668990Y-29048718D01*
X126668989Y-29048717D01*
X126664119Y-29045702D01*
X126658781Y-29043634D01*
X126658777Y-29043632D01*
X126470645Y-28970750D01*
X126470640Y-28970748D01*
X126465298Y-28968679D01*
X126431639Y-28962387D01*
X126261339Y-28930552D01*
X126261336Y-28930551D01*
X126255710Y-28929500D01*
X126042490Y-28929500D01*
X126036864Y-28930551D01*
X126036860Y-28930552D01*
X125838539Y-28967625D01*
X125838536Y-28967625D01*
X125832902Y-28968679D01*
X125827561Y-28970747D01*
X125827554Y-28970750D01*
X125639422Y-29043632D01*
X125639413Y-29043636D01*
X125634081Y-29045702D01*
X125629214Y-29048715D01*
X125629209Y-29048718D01*
X125457664Y-29154934D01*
X125457655Y-29154940D01*
X125452798Y-29157948D01*
X125448575Y-29161797D01*
X125448568Y-29161803D01*
X125299460Y-29297734D01*
X125299454Y-29297739D01*
X125295228Y-29301593D01*
X125291781Y-29306156D01*
X125291775Y-29306164D01*
X125170186Y-29467173D01*
X125170183Y-29467177D01*
X125166734Y-29471745D01*
X125164182Y-29476870D01*
X125164179Y-29476875D01*
X125155074Y-29495161D01*
X125071695Y-29662611D01*
X125070127Y-29668119D01*
X125070124Y-29668129D01*
X125014914Y-29862168D01*
X125014911Y-29862179D01*
X125013344Y-29867690D01*
X125012814Y-29873400D01*
X125012814Y-29873405D01*
X125002571Y-29983951D01*
X124982467Y-30041003D01*
X124937764Y-30081755D01*
X124879100Y-30096510D01*
X124820436Y-30081755D01*
X124775733Y-30041003D01*
X124755629Y-29983951D01*
X124745393Y-29873489D01*
X124744856Y-29867690D01*
X124686505Y-29662611D01*
X124591466Y-29471745D01*
X124462972Y-29301593D01*
X124305402Y-29157948D01*
X124300538Y-29154936D01*
X124300535Y-29154934D01*
X124128990Y-29048718D01*
X124128989Y-29048717D01*
X124124119Y-29045702D01*
X124118781Y-29043634D01*
X124118777Y-29043632D01*
X123930645Y-28970750D01*
X123930640Y-28970748D01*
X123925298Y-28968679D01*
X123891639Y-28962387D01*
X123721339Y-28930552D01*
X123721336Y-28930551D01*
X123715710Y-28929500D01*
X123502490Y-28929500D01*
X123496864Y-28930551D01*
X123496860Y-28930552D01*
X123298539Y-28967625D01*
X123298536Y-28967625D01*
X123292902Y-28968679D01*
X123287561Y-28970747D01*
X123287554Y-28970750D01*
X123099422Y-29043632D01*
X123099413Y-29043636D01*
X123094081Y-29045702D01*
X123089214Y-29048715D01*
X123089209Y-29048718D01*
X122917664Y-29154934D01*
X122917655Y-29154940D01*
X122912798Y-29157948D01*
X122908575Y-29161797D01*
X122908568Y-29161803D01*
X122759460Y-29297734D01*
X122759454Y-29297739D01*
X122755228Y-29301593D01*
X122751781Y-29306156D01*
X122751775Y-29306164D01*
X122630186Y-29467173D01*
X122630183Y-29467177D01*
X122626734Y-29471745D01*
X122624182Y-29476870D01*
X122624179Y-29476875D01*
X122615074Y-29495161D01*
X122531695Y-29662611D01*
X122530127Y-29668119D01*
X122530124Y-29668129D01*
X122474914Y-29862168D01*
X122474911Y-29862179D01*
X122473344Y-29867690D01*
X122472814Y-29873400D01*
X122472814Y-29873405D01*
X122462571Y-29983951D01*
X122442467Y-30041003D01*
X122397764Y-30081755D01*
X122339100Y-30096510D01*
X122280436Y-30081755D01*
X122235733Y-30041003D01*
X122215629Y-29983951D01*
X122205393Y-29873489D01*
X122204856Y-29867690D01*
X122146505Y-29662611D01*
X122051466Y-29471745D01*
X121922972Y-29301593D01*
X121765402Y-29157948D01*
X121760538Y-29154936D01*
X121760535Y-29154934D01*
X121588990Y-29048718D01*
X121588989Y-29048717D01*
X121584119Y-29045702D01*
X121578781Y-29043634D01*
X121578777Y-29043632D01*
X121390645Y-28970750D01*
X121390640Y-28970748D01*
X121385298Y-28968679D01*
X121351639Y-28962387D01*
X121181339Y-28930552D01*
X121181336Y-28930551D01*
X121175710Y-28929500D01*
X120962490Y-28929500D01*
X120956864Y-28930551D01*
X120956860Y-28930552D01*
X120758539Y-28967625D01*
X120758536Y-28967625D01*
X120752902Y-28968679D01*
X120747561Y-28970747D01*
X120747554Y-28970750D01*
X120559422Y-29043632D01*
X120559413Y-29043636D01*
X120554081Y-29045702D01*
X120549214Y-29048715D01*
X120549209Y-29048718D01*
X120377664Y-29154934D01*
X120377655Y-29154940D01*
X120372798Y-29157948D01*
X120368575Y-29161797D01*
X120368568Y-29161803D01*
X120219460Y-29297734D01*
X120219454Y-29297739D01*
X120215228Y-29301593D01*
X120211781Y-29306156D01*
X120211775Y-29306164D01*
X120090186Y-29467173D01*
X120090183Y-29467177D01*
X120086734Y-29471745D01*
X120084182Y-29476870D01*
X120084179Y-29476875D01*
X120075074Y-29495161D01*
X119991695Y-29662611D01*
X119990127Y-29668119D01*
X119990124Y-29668129D01*
X119934914Y-29862168D01*
X119934911Y-29862179D01*
X119933344Y-29867690D01*
X119932814Y-29873400D01*
X119932814Y-29873405D01*
X119922571Y-29983951D01*
X119902467Y-30041003D01*
X119857764Y-30081755D01*
X119799100Y-30096510D01*
X119740436Y-30081755D01*
X119695733Y-30041003D01*
X119675629Y-29983951D01*
X119665393Y-29873489D01*
X119664856Y-29867690D01*
X119606505Y-29662611D01*
X119511466Y-29471745D01*
X119382972Y-29301593D01*
X119225402Y-29157948D01*
X119220538Y-29154936D01*
X119220535Y-29154934D01*
X119048990Y-29048718D01*
X119048989Y-29048717D01*
X119044119Y-29045702D01*
X119038781Y-29043634D01*
X119038777Y-29043632D01*
X118850645Y-28970750D01*
X118850640Y-28970748D01*
X118845298Y-28968679D01*
X118811639Y-28962387D01*
X118641339Y-28930552D01*
X118641336Y-28930551D01*
X118635710Y-28929500D01*
X118422490Y-28929500D01*
X118416864Y-28930551D01*
X118416860Y-28930552D01*
X118218539Y-28967625D01*
X118218536Y-28967625D01*
X118212902Y-28968679D01*
X118207561Y-28970747D01*
X118207554Y-28970750D01*
X118019422Y-29043632D01*
X118019413Y-29043636D01*
X118014081Y-29045702D01*
X118009214Y-29048715D01*
X118009209Y-29048718D01*
X117837664Y-29154934D01*
X117837655Y-29154940D01*
X117832798Y-29157948D01*
X117828575Y-29161797D01*
X117828568Y-29161803D01*
X117679460Y-29297734D01*
X117679454Y-29297739D01*
X117675228Y-29301593D01*
X117671781Y-29306156D01*
X117671775Y-29306164D01*
X117550186Y-29467173D01*
X117550183Y-29467177D01*
X117546734Y-29471745D01*
X117544182Y-29476870D01*
X117544179Y-29476875D01*
X117535074Y-29495161D01*
X117451695Y-29662611D01*
X117450127Y-29668119D01*
X117450124Y-29668129D01*
X117394914Y-29862168D01*
X117394911Y-29862179D01*
X117393344Y-29867690D01*
X117392814Y-29873400D01*
X117392814Y-29873405D01*
X117382571Y-29983951D01*
X117362467Y-30041003D01*
X117317764Y-30081755D01*
X117259100Y-30096510D01*
X117200436Y-30081755D01*
X117155733Y-30041003D01*
X117135629Y-29983951D01*
X117125393Y-29873489D01*
X117124856Y-29867690D01*
X117066505Y-29662611D01*
X116971466Y-29471745D01*
X116842972Y-29301593D01*
X116685402Y-29157948D01*
X116680538Y-29154936D01*
X116680535Y-29154934D01*
X116508990Y-29048718D01*
X116508989Y-29048717D01*
X116504119Y-29045702D01*
X116498781Y-29043634D01*
X116498777Y-29043632D01*
X116310645Y-28970750D01*
X116310640Y-28970748D01*
X116305298Y-28968679D01*
X116271639Y-28962387D01*
X116101339Y-28930552D01*
X116101336Y-28930551D01*
X116095710Y-28929500D01*
X115882490Y-28929500D01*
X115876864Y-28930551D01*
X115876860Y-28930552D01*
X115678539Y-28967625D01*
X115678536Y-28967625D01*
X115672902Y-28968679D01*
X115667561Y-28970747D01*
X115667554Y-28970750D01*
X115479422Y-29043632D01*
X115479413Y-29043636D01*
X115474081Y-29045702D01*
X115469214Y-29048715D01*
X115469209Y-29048718D01*
X115297664Y-29154934D01*
X115297655Y-29154940D01*
X115292798Y-29157948D01*
X115288575Y-29161797D01*
X115288568Y-29161803D01*
X115139460Y-29297734D01*
X115139454Y-29297739D01*
X115135228Y-29301593D01*
X115131781Y-29306156D01*
X115131775Y-29306164D01*
X115010186Y-29467173D01*
X115010183Y-29467177D01*
X115006734Y-29471745D01*
X115004182Y-29476870D01*
X115004179Y-29476875D01*
X114995074Y-29495161D01*
X114911695Y-29662611D01*
X114910127Y-29668119D01*
X114910124Y-29668129D01*
X114854914Y-29862168D01*
X114854911Y-29862179D01*
X114853344Y-29867690D01*
X114852814Y-29873400D01*
X114852814Y-29873405D01*
X114842571Y-29983951D01*
X114822467Y-30041003D01*
X114777764Y-30081755D01*
X114719100Y-30096510D01*
X114660436Y-30081755D01*
X114615733Y-30041003D01*
X114595629Y-29983951D01*
X114585393Y-29873489D01*
X114584856Y-29867690D01*
X114526505Y-29662611D01*
X114431466Y-29471745D01*
X114302972Y-29301593D01*
X114145402Y-29157948D01*
X114140538Y-29154936D01*
X114140535Y-29154934D01*
X113968990Y-29048718D01*
X113968989Y-29048717D01*
X113964119Y-29045702D01*
X113958781Y-29043634D01*
X113958777Y-29043632D01*
X113770645Y-28970750D01*
X113770640Y-28970748D01*
X113765298Y-28968679D01*
X113731639Y-28962387D01*
X113561339Y-28930552D01*
X113561336Y-28930551D01*
X113555710Y-28929500D01*
X113342490Y-28929500D01*
X113336864Y-28930551D01*
X113336860Y-28930552D01*
X113138539Y-28967625D01*
X113138536Y-28967625D01*
X113132902Y-28968679D01*
X113127561Y-28970747D01*
X113127554Y-28970750D01*
X112939422Y-29043632D01*
X112939413Y-29043636D01*
X112934081Y-29045702D01*
X112929214Y-29048715D01*
X112929209Y-29048718D01*
X112757664Y-29154934D01*
X112757655Y-29154940D01*
X112752798Y-29157948D01*
X112748575Y-29161797D01*
X112748568Y-29161803D01*
X112599460Y-29297734D01*
X112599454Y-29297739D01*
X112595228Y-29301593D01*
X112591781Y-29306156D01*
X112591775Y-29306164D01*
X112470186Y-29467173D01*
X112470183Y-29467177D01*
X112466734Y-29471745D01*
X112464182Y-29476870D01*
X112464179Y-29476875D01*
X112455074Y-29495161D01*
X112371695Y-29662611D01*
X112370127Y-29668119D01*
X112370124Y-29668129D01*
X112314914Y-29862168D01*
X112314911Y-29862179D01*
X112313344Y-29867690D01*
X112312814Y-29873400D01*
X112312814Y-29873405D01*
X112302571Y-29983951D01*
X112282467Y-30041003D01*
X112237764Y-30081755D01*
X112179100Y-30096510D01*
X112120436Y-30081755D01*
X112075733Y-30041003D01*
X112055629Y-29983951D01*
X112045393Y-29873489D01*
X112044856Y-29867690D01*
X111986505Y-29662611D01*
X111891466Y-29471745D01*
X111762972Y-29301593D01*
X111605402Y-29157948D01*
X111600538Y-29154936D01*
X111600535Y-29154934D01*
X111428990Y-29048718D01*
X111428989Y-29048717D01*
X111424119Y-29045702D01*
X111418781Y-29043634D01*
X111418777Y-29043632D01*
X111230645Y-28970750D01*
X111230640Y-28970748D01*
X111225298Y-28968679D01*
X111191639Y-28962387D01*
X111021339Y-28930552D01*
X111021336Y-28930551D01*
X111015710Y-28929500D01*
X110802490Y-28929500D01*
X110796864Y-28930551D01*
X110796860Y-28930552D01*
X110598539Y-28967625D01*
X110598536Y-28967625D01*
X110592902Y-28968679D01*
X110587561Y-28970747D01*
X110587554Y-28970750D01*
X110399422Y-29043632D01*
X110399413Y-29043636D01*
X110394081Y-29045702D01*
X110389214Y-29048715D01*
X110389209Y-29048718D01*
X110217664Y-29154934D01*
X110217655Y-29154940D01*
X110212798Y-29157948D01*
X110208575Y-29161797D01*
X110208568Y-29161803D01*
X110059460Y-29297734D01*
X110059454Y-29297739D01*
X110055228Y-29301593D01*
X110051781Y-29306156D01*
X110051775Y-29306164D01*
X109930186Y-29467173D01*
X109930183Y-29467177D01*
X109926734Y-29471745D01*
X109924182Y-29476870D01*
X109924179Y-29476875D01*
X109915074Y-29495161D01*
X109831695Y-29662611D01*
X109830127Y-29668119D01*
X109830124Y-29668129D01*
X109774914Y-29862168D01*
X109774911Y-29862179D01*
X109773344Y-29867690D01*
X109772815Y-29873398D01*
X109772814Y-29873404D01*
X109762319Y-29986662D01*
X109742214Y-30043714D01*
X109697511Y-30084466D01*
X109638847Y-30099220D01*
X109580184Y-30084465D01*
X109535481Y-30043713D01*
X109515377Y-29986661D01*
X109504890Y-29873489D01*
X109502792Y-29862268D01*
X109447608Y-29668314D01*
X109443477Y-29657651D01*
X109353593Y-29477139D01*
X109347586Y-29467437D01*
X109226053Y-29306502D01*
X109218368Y-29298072D01*
X109069332Y-29162207D01*
X109060225Y-29155330D01*
X108888769Y-29049170D01*
X108878552Y-29044082D01*
X108690508Y-28971233D01*
X108679523Y-28968108D01*
X108632529Y-28959323D01*
X108621501Y-28959705D01*
X108619100Y-28970473D01*
X108619100Y-31989527D01*
X108621501Y-32000294D01*
X108632529Y-32000676D01*
X108679523Y-31991891D01*
X108690508Y-31988766D01*
X108878552Y-31915917D01*
X108888769Y-31910829D01*
X109060225Y-31804669D01*
X109069332Y-31797792D01*
X109218368Y-31661927D01*
X109226053Y-31653497D01*
X109347586Y-31492562D01*
X109353593Y-31482860D01*
X109443477Y-31302348D01*
X109447608Y-31291685D01*
X109502792Y-31097731D01*
X109504890Y-31086509D01*
X109515377Y-30973339D01*
X109535481Y-30916286D01*
X109580184Y-30875534D01*
X109638847Y-30860779D01*
X109697511Y-30875533D01*
X109742214Y-30916285D01*
X109762319Y-30973337D01*
X109772814Y-31086594D01*
X109773344Y-31092310D01*
X109774912Y-31097821D01*
X109774914Y-31097831D01*
X109830124Y-31291870D01*
X109830126Y-31291876D01*
X109831695Y-31297389D01*
X109834253Y-31302526D01*
X109918880Y-31472483D01*
X109926734Y-31488255D01*
X110055228Y-31658407D01*
X110212798Y-31802052D01*
X110217663Y-31805064D01*
X110217664Y-31805065D01*
X110298379Y-31855042D01*
X110394081Y-31914298D01*
X110452936Y-31937098D01*
X110454394Y-31937663D01*
X110495921Y-31964269D01*
X110523792Y-32004957D01*
X110533600Y-32053290D01*
X110533600Y-39760001D01*
X110524161Y-39807454D01*
X110497281Y-39847682D01*
X100101107Y-50243853D01*
X100081258Y-50259973D01*
X100072164Y-50265916D01*
X100065858Y-50274017D01*
X100065852Y-50274023D01*
X100052720Y-50290895D01*
X100049273Y-50294822D01*
X100049418Y-50294945D01*
X100046105Y-50298855D01*
X100042480Y-50302482D01*
X100039505Y-50306648D01*
X100039498Y-50306657D01*
X100030401Y-50319399D01*
X100027342Y-50323501D01*
X100001500Y-50356703D01*
X100001496Y-50356710D01*
X99995191Y-50364811D01*
X99992609Y-50372331D01*
X99987990Y-50378801D01*
X99985060Y-50388641D01*
X99985058Y-50388646D01*
X99973056Y-50428957D01*
X99971495Y-50433829D01*
X99957836Y-50473619D01*
X99957835Y-50473624D01*
X99954500Y-50483340D01*
X99954500Y-50491294D01*
X99952232Y-50498912D01*
X99952656Y-50509175D01*
X99952656Y-50509179D01*
X99954394Y-50551193D01*
X99954500Y-50556316D01*
X99954500Y-66252330D01*
X99940985Y-66308625D01*
X99903385Y-66352648D01*
X99849898Y-66374803D01*
X99792182Y-66370261D01*
X99754761Y-66347329D01*
X99753546Y-66348954D01*
X99645431Y-66268019D01*
X99645430Y-66268018D01*
X99638331Y-66262704D01*
X99536078Y-66224566D01*
X99510752Y-66215120D01*
X99510750Y-66215119D01*
X99503483Y-66212409D01*
X99495770Y-66211579D01*
X99495767Y-66211579D01*
X99447180Y-66206355D01*
X99447169Y-66206354D01*
X99443873Y-66206000D01*
X99440550Y-66206000D01*
X97851439Y-66206000D01*
X97851420Y-66206000D01*
X97848128Y-66206001D01*
X97844850Y-66206353D01*
X97844838Y-66206354D01*
X97796231Y-66211579D01*
X97796225Y-66211580D01*
X97788517Y-66212409D01*
X97781252Y-66215118D01*
X97781246Y-66215120D01*
X97661980Y-66259604D01*
X97661978Y-66259604D01*
X97653669Y-66262704D01*
X97646572Y-66268016D01*
X97646568Y-66268019D01*
X97545550Y-66343641D01*
X97545546Y-66343644D01*
X97538454Y-66348954D01*
X97533144Y-66356046D01*
X97533141Y-66356050D01*
X97457519Y-66457068D01*
X97457516Y-66457072D01*
X97452204Y-66464169D01*
X97449104Y-66472478D01*
X97449104Y-66472480D01*
X97404620Y-66591747D01*
X97404619Y-66591750D01*
X97401909Y-66599017D01*
X97401079Y-66606727D01*
X97401079Y-66606732D01*
X97396789Y-66646638D01*
X97374933Y-66704707D01*
X97327681Y-66744919D01*
X97266863Y-66757204D01*
X97207706Y-66738488D01*
X97165023Y-66693455D01*
X97149500Y-66633382D01*
X97149500Y-45672899D01*
X97158939Y-45625446D01*
X97185819Y-45585218D01*
X103011035Y-39760001D01*
X106057989Y-36713046D01*
X106077847Y-36696921D01*
X106086936Y-36690984D01*
X106106379Y-36666002D01*
X106109842Y-36662109D01*
X106109671Y-36661964D01*
X106112983Y-36658053D01*
X106116619Y-36654418D01*
X106128714Y-36637476D01*
X106131721Y-36633442D01*
X106163909Y-36592089D01*
X106166490Y-36584568D01*
X106171110Y-36578099D01*
X106186059Y-36527883D01*
X106187581Y-36523132D01*
X106204600Y-36473560D01*
X106204600Y-36465607D01*
X106206868Y-36457989D01*
X106204706Y-36405708D01*
X106204600Y-36400585D01*
X106204600Y-32053290D01*
X106214408Y-32004957D01*
X106242279Y-31964269D01*
X106283806Y-31937663D01*
X106284886Y-31937244D01*
X106344119Y-31914298D01*
X106525402Y-31802052D01*
X106682972Y-31658407D01*
X106811466Y-31488255D01*
X106906505Y-31297389D01*
X106964856Y-31092310D01*
X106975880Y-30973337D01*
X106995984Y-30916286D01*
X107040687Y-30875534D01*
X107099351Y-30860779D01*
X107158014Y-30875533D01*
X107202718Y-30916286D01*
X107222822Y-30973337D01*
X107233309Y-31086510D01*
X107235407Y-31097731D01*
X107290591Y-31291685D01*
X107294722Y-31302348D01*
X107384606Y-31482860D01*
X107390613Y-31492562D01*
X107512146Y-31653497D01*
X107519831Y-31661927D01*
X107668867Y-31797792D01*
X107677974Y-31804669D01*
X107849430Y-31910829D01*
X107859647Y-31915917D01*
X108047691Y-31988766D01*
X108058676Y-31991891D01*
X108105670Y-32000676D01*
X108116698Y-32000294D01*
X108119100Y-31989527D01*
X108119100Y-28970473D01*
X108116698Y-28959705D01*
X108105670Y-28959323D01*
X108058676Y-28968108D01*
X108047691Y-28971233D01*
X107859647Y-29044082D01*
X107849430Y-29049170D01*
X107677974Y-29155330D01*
X107668867Y-29162207D01*
X107519831Y-29298072D01*
X107512146Y-29306502D01*
X107390613Y-29467437D01*
X107384606Y-29477139D01*
X107294722Y-29657651D01*
X107290591Y-29668314D01*
X107235407Y-29862268D01*
X107233309Y-29873489D01*
X107222822Y-29986662D01*
X107202718Y-30043714D01*
X107158014Y-30084466D01*
X107099351Y-30099220D01*
X107040687Y-30084465D01*
X106995984Y-30043713D01*
X106975880Y-29986661D01*
X106965393Y-29873489D01*
X106964856Y-29867690D01*
X106906505Y-29662611D01*
X106811466Y-29471745D01*
X106682972Y-29301593D01*
X106525402Y-29157948D01*
X106520538Y-29154936D01*
X106520535Y-29154934D01*
X106348990Y-29048718D01*
X106348989Y-29048717D01*
X106344119Y-29045702D01*
X106338781Y-29043634D01*
X106338777Y-29043632D01*
X106150645Y-28970750D01*
X106150640Y-28970748D01*
X106145298Y-28968679D01*
X106111639Y-28962387D01*
X105941339Y-28930552D01*
X105941336Y-28930551D01*
X105935710Y-28929500D01*
X105722490Y-28929500D01*
X105716864Y-28930551D01*
X105716860Y-28930552D01*
X105518539Y-28967625D01*
X105518536Y-28967625D01*
X105512902Y-28968679D01*
X105507561Y-28970747D01*
X105507554Y-28970750D01*
X105319422Y-29043632D01*
X105319413Y-29043636D01*
X105314081Y-29045702D01*
X105309214Y-29048715D01*
X105309209Y-29048718D01*
X105137664Y-29154934D01*
X105137655Y-29154940D01*
X105132798Y-29157948D01*
X105128575Y-29161797D01*
X105128568Y-29161803D01*
X104979460Y-29297734D01*
X104979454Y-29297739D01*
X104975228Y-29301593D01*
X104971781Y-29306156D01*
X104971775Y-29306164D01*
X104850186Y-29467173D01*
X104850183Y-29467177D01*
X104846734Y-29471745D01*
X104844182Y-29476870D01*
X104844179Y-29476875D01*
X104835074Y-29495161D01*
X104751695Y-29662611D01*
X104750127Y-29668119D01*
X104750124Y-29668129D01*
X104694914Y-29862168D01*
X104694911Y-29862179D01*
X104693344Y-29867690D01*
X104692814Y-29873400D01*
X104692814Y-29873405D01*
X104682571Y-29983951D01*
X104662467Y-30041003D01*
X104617764Y-30081755D01*
X104559100Y-30096510D01*
X104500436Y-30081755D01*
X104455733Y-30041003D01*
X104435629Y-29983951D01*
X104425393Y-29873489D01*
X104424856Y-29867690D01*
X104366505Y-29662611D01*
X104271466Y-29471745D01*
X104142972Y-29301593D01*
X103985402Y-29157948D01*
X103980538Y-29154936D01*
X103980535Y-29154934D01*
X103808990Y-29048718D01*
X103808989Y-29048717D01*
X103804119Y-29045702D01*
X103798781Y-29043634D01*
X103798777Y-29043632D01*
X103610645Y-28970750D01*
X103610640Y-28970748D01*
X103605298Y-28968679D01*
X103571639Y-28962387D01*
X103401339Y-28930552D01*
X103401336Y-28930551D01*
X103395710Y-28929500D01*
X103182490Y-28929500D01*
X103176864Y-28930551D01*
X103176860Y-28930552D01*
X102978539Y-28967625D01*
X102978536Y-28967625D01*
X102972902Y-28968679D01*
X102967561Y-28970747D01*
X102967554Y-28970750D01*
X102779422Y-29043632D01*
X102779413Y-29043636D01*
X102774081Y-29045702D01*
X102769214Y-29048715D01*
X102769209Y-29048718D01*
X102597664Y-29154934D01*
X102597655Y-29154940D01*
X102592798Y-29157948D01*
X102588575Y-29161797D01*
X102588568Y-29161803D01*
X102439460Y-29297734D01*
X102439454Y-29297739D01*
X102435228Y-29301593D01*
X102431781Y-29306156D01*
X102431775Y-29306164D01*
X102310186Y-29467173D01*
X102310183Y-29467177D01*
X102306734Y-29471745D01*
X102304182Y-29476870D01*
X102304179Y-29476875D01*
X102295074Y-29495161D01*
X102211695Y-29662611D01*
X102210127Y-29668119D01*
X102210124Y-29668129D01*
X102154914Y-29862168D01*
X102154911Y-29862179D01*
X102153344Y-29867690D01*
X102152814Y-29873400D01*
X102152814Y-29873405D01*
X102142571Y-29983951D01*
X102122467Y-30041003D01*
X102077764Y-30081755D01*
X102019100Y-30096510D01*
X101960436Y-30081755D01*
X101915733Y-30041003D01*
X101895629Y-29983951D01*
X101885393Y-29873489D01*
X101884856Y-29867690D01*
X101826505Y-29662611D01*
X101731466Y-29471745D01*
X101602972Y-29301593D01*
X101445402Y-29157948D01*
X101440538Y-29154936D01*
X101440535Y-29154934D01*
X101268990Y-29048718D01*
X101268989Y-29048717D01*
X101264119Y-29045702D01*
X101258781Y-29043634D01*
X101258777Y-29043632D01*
X101070645Y-28970750D01*
X101070640Y-28970748D01*
X101065298Y-28968679D01*
X101031639Y-28962387D01*
X100861339Y-28930552D01*
X100861336Y-28930551D01*
X100855710Y-28929500D01*
X100642490Y-28929500D01*
X100636864Y-28930551D01*
X100636860Y-28930552D01*
X100438539Y-28967625D01*
X100438536Y-28967625D01*
X100432902Y-28968679D01*
X100427561Y-28970747D01*
X100427554Y-28970750D01*
X100239422Y-29043632D01*
X100239413Y-29043636D01*
X100234081Y-29045702D01*
X100229214Y-29048715D01*
X100229209Y-29048718D01*
X100057664Y-29154934D01*
X100057655Y-29154940D01*
X100052798Y-29157948D01*
X100048575Y-29161797D01*
X100048568Y-29161803D01*
X99899460Y-29297734D01*
X99899454Y-29297739D01*
X99895228Y-29301593D01*
X99891781Y-29306156D01*
X99891775Y-29306164D01*
X99770186Y-29467173D01*
X99770183Y-29467177D01*
X99766734Y-29471745D01*
X99764182Y-29476870D01*
X99764179Y-29476875D01*
X99755074Y-29495161D01*
X99671695Y-29662611D01*
X99670127Y-29668119D01*
X99670124Y-29668129D01*
X99614914Y-29862168D01*
X99614911Y-29862179D01*
X99613344Y-29867690D01*
X99612814Y-29873400D01*
X99612814Y-29873405D01*
X99606571Y-29940784D01*
X99585400Y-29999420D01*
X99538372Y-30040343D01*
X99477373Y-30053211D01*
X99417822Y-30034770D01*
X99374771Y-29989682D01*
X99359100Y-29929343D01*
X99359100Y-29161472D01*
X99357910Y-29149395D01*
X99346977Y-29094433D01*
X99337810Y-29072300D01*
X99296124Y-29009913D01*
X99279186Y-28992975D01*
X99216799Y-28951289D01*
X99194666Y-28942122D01*
X99139704Y-28931189D01*
X99127628Y-28930000D01*
X98475426Y-28930000D01*
X98462550Y-28933450D01*
X98459100Y-28946326D01*
X98459100Y-32013674D01*
X98462550Y-32026549D01*
X98475426Y-32030000D01*
X99127628Y-32030000D01*
X99139704Y-32028810D01*
X99194666Y-32017877D01*
X99216799Y-32008710D01*
X99279186Y-31967024D01*
X99296124Y-31950086D01*
X99337810Y-31887699D01*
X99346977Y-31865566D01*
X99357910Y-31810604D01*
X99359100Y-31798528D01*
X99359100Y-31030657D01*
X99374771Y-30970318D01*
X99417822Y-30925230D01*
X99477373Y-30906789D01*
X99538372Y-30919657D01*
X99585400Y-30960580D01*
X99606571Y-31019216D01*
X99612806Y-31086510D01*
X99613344Y-31092310D01*
X99614912Y-31097821D01*
X99614914Y-31097831D01*
X99670124Y-31291870D01*
X99670126Y-31291876D01*
X99671695Y-31297389D01*
X99674253Y-31302526D01*
X99758880Y-31472483D01*
X99766734Y-31488255D01*
X99895228Y-31658407D01*
X100052798Y-31802052D01*
X100234081Y-31914298D01*
X100432902Y-31991321D01*
X100642490Y-32030500D01*
X100849981Y-32030500D01*
X100855710Y-32030500D01*
X101065298Y-31991321D01*
X101264119Y-31914298D01*
X101445402Y-31802052D01*
X101602972Y-31658407D01*
X101731466Y-31488255D01*
X101826505Y-31297389D01*
X101884856Y-31092310D01*
X101895629Y-30976047D01*
X101915733Y-30918996D01*
X101960436Y-30878244D01*
X102019100Y-30863489D01*
X102077764Y-30878244D01*
X102122467Y-30918996D01*
X102142571Y-30976048D01*
X102152806Y-31086510D01*
X102153344Y-31092310D01*
X102154912Y-31097821D01*
X102154914Y-31097831D01*
X102210124Y-31291870D01*
X102210126Y-31291876D01*
X102211695Y-31297389D01*
X102214253Y-31302526D01*
X102298880Y-31472483D01*
X102306734Y-31488255D01*
X102435228Y-31658407D01*
X102592798Y-31802052D01*
X102774081Y-31914298D01*
X102972902Y-31991321D01*
X103182490Y-32030500D01*
X103389981Y-32030500D01*
X103395710Y-32030500D01*
X103605298Y-31991321D01*
X103804119Y-31914298D01*
X103985402Y-31802052D01*
X104142972Y-31658407D01*
X104271466Y-31488255D01*
X104366505Y-31297389D01*
X104424856Y-31092310D01*
X104435629Y-30976047D01*
X104455733Y-30918996D01*
X104500436Y-30878244D01*
X104559100Y-30863489D01*
X104617764Y-30878244D01*
X104662467Y-30918996D01*
X104682571Y-30976048D01*
X104692806Y-31086510D01*
X104693344Y-31092310D01*
X104694912Y-31097821D01*
X104694914Y-31097831D01*
X104750124Y-31291870D01*
X104750126Y-31291876D01*
X104751695Y-31297389D01*
X104754253Y-31302526D01*
X104838880Y-31472483D01*
X104846734Y-31488255D01*
X104975228Y-31658407D01*
X105132798Y-31802052D01*
X105137663Y-31805064D01*
X105137664Y-31805065D01*
X105218379Y-31855042D01*
X105314081Y-31914298D01*
X105372936Y-31937098D01*
X105374394Y-31937663D01*
X105415921Y-31964269D01*
X105443792Y-32004957D01*
X105453600Y-32053290D01*
X105453600Y-36204001D01*
X105444161Y-36251454D01*
X105417281Y-36291682D01*
X96545107Y-45163853D01*
X96525258Y-45179973D01*
X96516164Y-45185916D01*
X96509858Y-45194017D01*
X96509852Y-45194023D01*
X96496720Y-45210895D01*
X96493273Y-45214822D01*
X96493418Y-45214945D01*
X96490105Y-45218855D01*
X96486480Y-45222482D01*
X96483505Y-45226648D01*
X96483498Y-45226657D01*
X96474401Y-45239399D01*
X96471342Y-45243501D01*
X96445500Y-45276703D01*
X96445496Y-45276710D01*
X96439191Y-45284811D01*
X96436609Y-45292331D01*
X96431990Y-45298801D01*
X96429060Y-45308641D01*
X96429058Y-45308646D01*
X96417056Y-45348957D01*
X96415495Y-45353829D01*
X96401836Y-45393619D01*
X96401835Y-45393624D01*
X96398500Y-45403340D01*
X96398500Y-45411294D01*
X96396232Y-45418912D01*
X96396656Y-45429175D01*
X96396656Y-45429179D01*
X96398394Y-45471193D01*
X96398500Y-45476316D01*
X96398500Y-72465195D01*
X96395860Y-72490644D01*
X96395741Y-72491209D01*
X96395740Y-72491216D01*
X96393633Y-72501268D01*
X89200500Y-72501268D01*
X89200500Y-61480700D01*
X90954592Y-61480700D01*
X90974198Y-61742330D01*
X91032580Y-61998116D01*
X91034275Y-62002434D01*
X91034276Y-62002438D01*
X91126734Y-62238018D01*
X91126737Y-62238024D01*
X91128432Y-62242343D01*
X91130750Y-62246358D01*
X91130753Y-62246364D01*
X91204973Y-62374916D01*
X91259614Y-62469557D01*
X91423195Y-62674681D01*
X91615521Y-62853133D01*
X91832296Y-63000928D01*
X92068677Y-63114763D01*
X92073105Y-63116128D01*
X92073108Y-63116130D01*
X92176537Y-63148033D01*
X92319385Y-63192096D01*
X92578818Y-63231200D01*
X92836547Y-63231200D01*
X92841182Y-63231200D01*
X93100615Y-63192096D01*
X93351323Y-63114763D01*
X93587704Y-63000928D01*
X93804479Y-62853133D01*
X93996805Y-62674681D01*
X94160386Y-62469557D01*
X94291568Y-62242343D01*
X94387420Y-61998116D01*
X94445802Y-61742330D01*
X94465408Y-61480700D01*
X94445802Y-61219070D01*
X94387420Y-60963284D01*
X94291568Y-60719057D01*
X94160386Y-60491843D01*
X93996805Y-60286719D01*
X93804479Y-60108267D01*
X93587704Y-59960472D01*
X93583518Y-59958456D01*
X93355502Y-59848649D01*
X93355496Y-59848646D01*
X93351323Y-59846637D01*
X93346901Y-59845273D01*
X93346891Y-59845269D01*
X93105048Y-59770671D01*
X93105043Y-59770669D01*
X93100615Y-59769304D01*
X93096035Y-59768613D01*
X93096028Y-59768612D01*
X92845765Y-59730890D01*
X92845754Y-59730889D01*
X92841182Y-59730200D01*
X92578818Y-59730200D01*
X92574246Y-59730889D01*
X92574234Y-59730890D01*
X92323971Y-59768612D01*
X92323961Y-59768614D01*
X92319385Y-59769304D01*
X92314959Y-59770668D01*
X92314951Y-59770671D01*
X92073108Y-59845269D01*
X92073093Y-59845274D01*
X92068677Y-59846637D01*
X92064508Y-59848644D01*
X92064497Y-59848649D01*
X91836481Y-59958456D01*
X91836474Y-59958459D01*
X91832296Y-59960472D01*
X91828463Y-59963085D01*
X91828460Y-59963087D01*
X91619349Y-60105657D01*
X91615521Y-60108267D01*
X91612129Y-60111413D01*
X91612123Y-60111419D01*
X91426596Y-60283563D01*
X91423195Y-60286719D01*
X91420306Y-60290341D01*
X91420302Y-60290346D01*
X91262506Y-60488216D01*
X91259614Y-60491843D01*
X91257295Y-60495859D01*
X91257294Y-60495861D01*
X91130753Y-60715035D01*
X91130747Y-60715046D01*
X91128432Y-60719057D01*
X91126739Y-60723370D01*
X91126734Y-60723381D01*
X91034276Y-60958961D01*
X91034273Y-60958968D01*
X91032580Y-60963284D01*
X91031548Y-60967802D01*
X91031547Y-60967808D01*
X90975229Y-61214550D01*
X90975227Y-61214558D01*
X90974198Y-61219070D01*
X90954592Y-61480700D01*
X89200500Y-61480700D01*
X89200500Y-30480000D01*
X90954592Y-30480000D01*
X90974198Y-30741630D01*
X90975228Y-30746143D01*
X90975229Y-30746149D01*
X91027703Y-30976048D01*
X91032580Y-30997416D01*
X91034275Y-31001734D01*
X91034276Y-31001738D01*
X91126734Y-31237318D01*
X91126737Y-31237324D01*
X91128432Y-31241643D01*
X91130750Y-31245658D01*
X91130753Y-31245664D01*
X91160617Y-31297389D01*
X91259614Y-31468857D01*
X91423195Y-31673981D01*
X91615521Y-31852433D01*
X91832296Y-32000228D01*
X92068677Y-32114063D01*
X92073105Y-32115428D01*
X92073108Y-32115430D01*
X92152766Y-32140001D01*
X92319385Y-32191396D01*
X92578818Y-32230500D01*
X92836547Y-32230500D01*
X92841182Y-32230500D01*
X93100615Y-32191396D01*
X93351323Y-32114063D01*
X93587704Y-32000228D01*
X93804479Y-31852433D01*
X93862575Y-31798528D01*
X97059100Y-31798528D01*
X97060289Y-31810604D01*
X97071222Y-31865566D01*
X97080389Y-31887699D01*
X97122075Y-31950086D01*
X97139013Y-31967024D01*
X97201400Y-32008710D01*
X97223533Y-32017877D01*
X97278495Y-32028810D01*
X97290572Y-32030000D01*
X97942774Y-32030000D01*
X97955649Y-32026549D01*
X97959100Y-32013674D01*
X97959100Y-30746326D01*
X97955649Y-30733450D01*
X97942774Y-30730000D01*
X97075426Y-30730000D01*
X97062550Y-30733450D01*
X97059100Y-30746326D01*
X97059100Y-31798528D01*
X93862575Y-31798528D01*
X93996805Y-31673981D01*
X94160386Y-31468857D01*
X94291568Y-31241643D01*
X94387420Y-30997416D01*
X94445802Y-30741630D01*
X94465408Y-30480000D01*
X94445802Y-30218370D01*
X94444730Y-30213674D01*
X97059100Y-30213674D01*
X97062550Y-30226549D01*
X97075426Y-30230000D01*
X97942774Y-30230000D01*
X97955649Y-30226549D01*
X97959100Y-30213674D01*
X97959100Y-28946326D01*
X97955649Y-28933450D01*
X97942774Y-28930000D01*
X97290572Y-28930000D01*
X97278495Y-28931189D01*
X97223533Y-28942122D01*
X97201400Y-28951289D01*
X97139013Y-28992975D01*
X97122075Y-29009913D01*
X97080389Y-29072300D01*
X97071222Y-29094433D01*
X97060289Y-29149395D01*
X97059100Y-29161472D01*
X97059100Y-30213674D01*
X94444730Y-30213674D01*
X94387420Y-29962584D01*
X94291568Y-29718357D01*
X94160386Y-29491143D01*
X93996805Y-29286019D01*
X93804479Y-29107567D01*
X93587704Y-28959772D01*
X93559783Y-28946326D01*
X93355502Y-28847949D01*
X93355496Y-28847946D01*
X93351323Y-28845937D01*
X93346901Y-28844573D01*
X93346891Y-28844569D01*
X93105048Y-28769971D01*
X93105043Y-28769969D01*
X93100615Y-28768604D01*
X93096035Y-28767913D01*
X93096028Y-28767912D01*
X92845765Y-28730190D01*
X92845754Y-28730189D01*
X92841182Y-28729500D01*
X92578818Y-28729500D01*
X92574246Y-28730189D01*
X92574234Y-28730190D01*
X92323971Y-28767912D01*
X92323961Y-28767914D01*
X92319385Y-28768604D01*
X92314959Y-28769968D01*
X92314951Y-28769971D01*
X92073108Y-28844569D01*
X92073093Y-28844574D01*
X92068677Y-28845937D01*
X92064508Y-28847944D01*
X92064497Y-28847949D01*
X91836481Y-28957756D01*
X91836474Y-28957759D01*
X91832296Y-28959772D01*
X91828463Y-28962385D01*
X91828460Y-28962387D01*
X91709296Y-29043632D01*
X91615521Y-29107567D01*
X91612129Y-29110713D01*
X91612123Y-29110719D01*
X91426596Y-29282863D01*
X91423195Y-29286019D01*
X91420306Y-29289641D01*
X91420302Y-29289646D01*
X91262506Y-29487516D01*
X91259614Y-29491143D01*
X91257295Y-29495159D01*
X91257294Y-29495161D01*
X91130753Y-29714335D01*
X91130747Y-29714346D01*
X91128432Y-29718357D01*
X91126739Y-29722670D01*
X91126734Y-29722681D01*
X91034276Y-29958261D01*
X91034273Y-29958268D01*
X91032580Y-29962584D01*
X91031548Y-29967102D01*
X91031547Y-29967108D01*
X90975229Y-30213850D01*
X90975227Y-30213858D01*
X90974198Y-30218370D01*
X90954592Y-30480000D01*
X89200500Y-30480000D01*
X89200500Y-27943751D01*
X89200726Y-27936264D01*
X89216375Y-27677544D01*
X89218180Y-27662679D01*
X89264225Y-27411424D01*
X89267803Y-27396906D01*
X89343805Y-27153004D01*
X89349102Y-27139038D01*
X89453949Y-26906077D01*
X89460894Y-26892845D01*
X89593056Y-26674223D01*
X89601543Y-26661927D01*
X89759093Y-26460829D01*
X89769008Y-26449638D01*
X89949638Y-26269008D01*
X89960829Y-26259093D01*
X90161927Y-26101543D01*
X90174223Y-26093056D01*
X90392845Y-25960894D01*
X90406077Y-25953949D01*
X90639038Y-25849102D01*
X90653004Y-25843805D01*
X90896906Y-25767803D01*
X90911420Y-25764225D01*
X91162683Y-25718179D01*
X91177540Y-25716375D01*
X91436263Y-25700726D01*
X91443751Y-25700500D01*
X91487595Y-25700500D01*
X168862405Y-25700500D01*
X168906249Y-25700500D01*
X168913736Y-25700726D01*
G37*
%TD.AperFunction*%
%TD*%
M02*
