%TF.GenerationSoftware,KiCad,Pcbnew,(7.0.0)*%
%TF.CreationDate,2023-07-28T08:35:32+03:00*%
%TF.ProjectId,Digital_Timer_Switch,44696769-7461-46c5-9f54-696d65725f53,rev?*%
%TF.SameCoordinates,Original*%
%TF.FileFunction,Soldermask,Bot*%
%TF.FilePolarity,Negative*%
%FSLAX46Y46*%
G04 Gerber Fmt 4.6, Leading zero omitted, Abs format (unit mm)*
G04 Created by KiCad (PCBNEW (7.0.0)) date 2023-07-28 08:35:32*
%MOMM*%
%LPD*%
G01*
G04 APERTURE LIST*
G04 Aperture macros list*
%AMRoundRect*
0 Rectangle with rounded corners*
0 $1 Rounding radius*
0 $2 $3 $4 $5 $6 $7 $8 $9 X,Y pos of 4 corners*
0 Add a 4 corners polygon primitive as box body*
4,1,4,$2,$3,$4,$5,$6,$7,$8,$9,$2,$3,0*
0 Add four circle primitives for the rounded corners*
1,1,$1+$1,$2,$3*
1,1,$1+$1,$4,$5*
1,1,$1+$1,$6,$7*
1,1,$1+$1,$8,$9*
0 Add four rect primitives between the rounded corners*
20,1,$1+$1,$2,$3,$4,$5,0*
20,1,$1+$1,$4,$5,$6,$7,0*
20,1,$1+$1,$6,$7,$8,$9,0*
20,1,$1+$1,$8,$9,$2,$3,0*%
G04 Aperture macros list end*
%ADD10R,2.540000X2.540000*%
%ADD11C,2.540000*%
%ADD12R,2.600000X2.600000*%
%ADD13C,2.600000*%
%ADD14C,2.000000*%
%ADD15RoundRect,0.250000X-0.750000X0.600000X-0.750000X-0.600000X0.750000X-0.600000X0.750000X0.600000X0*%
%ADD16O,2.000000X1.700000*%
%ADD17C,3.000000*%
%ADD18R,1.800000X2.600000*%
%ADD19O,1.800000X2.600000*%
%ADD20C,1.800000*%
%ADD21R,2.000000X2.300000*%
%ADD22C,2.300000*%
G04 APERTURE END LIST*
D10*
%TO.C,U202*%
X167131999Y-69595999D03*
D11*
X163322000Y-69596000D03*
X155702000Y-69596000D03*
X151892000Y-69596000D03*
%TD*%
D12*
%TO.C,J101*%
X164718999Y-93030999D03*
D13*
X164719000Y-87951000D03*
%TD*%
D14*
%TO.C,C207*%
X149793000Y-79375000D03*
X157293000Y-79375000D03*
%TD*%
%TO.C,C206*%
X149793000Y-83058000D03*
X157293000Y-83058000D03*
%TD*%
D15*
%TO.C,J102*%
X98646000Y-67306500D03*
D16*
X98645999Y-69806499D03*
%TD*%
D17*
%TO.C,DS401*%
X92710000Y-30480000D03*
X92710000Y-61480700D03*
X167708580Y-61480700D03*
X167709100Y-30480000D03*
D18*
X98209099Y-30479999D03*
D19*
X100749099Y-30479999D03*
X103289099Y-30479999D03*
X105829099Y-30479999D03*
X108369099Y-30479999D03*
X110909099Y-30479999D03*
X113449099Y-30479999D03*
X115989099Y-30479999D03*
X118529099Y-30479999D03*
X121069099Y-30479999D03*
X123609099Y-30479999D03*
X126149099Y-30479999D03*
X128689099Y-30479999D03*
X131229099Y-30479999D03*
X133769099Y-30479999D03*
X136309099Y-30479999D03*
%TD*%
D20*
%TO.C,MOV201*%
X155056500Y-96814000D03*
X157256500Y-89314000D03*
%TD*%
D14*
%TO.C,TH201*%
X150749000Y-99060000D03*
X150759000Y-93980000D03*
%TD*%
D21*
%TO.C,PS201*%
X134913999Y-97620499D03*
D22*
X139914000Y-97620500D03*
X129714000Y-68220500D03*
X145114000Y-68220500D03*
%TD*%
D12*
%TO.C,J103*%
X164718999Y-81859999D03*
D13*
X164719000Y-76780000D03*
%TD*%
D14*
%TO.C,F201*%
X160985000Y-98746000D03*
X166065000Y-98756000D03*
%TD*%
M02*
