M48
; DRILL file {KiCad (7.0.0)} date Wed Aug  2 11:08:11 2023
; FORMAT={-:-/ absolute / inch / decimal}
; #@! TF.CreationDate,2023-08-02T11:08:11+03:00
; #@! TF.GenerationSoftware,Kicad,Pcbnew,(7.0.0)
; #@! TF.FileFunction,Plated,1,2,PTH
FMAT,2
INCH
; #@! TA.AperFunction,Plated,PTH,ViaDrill
T1C0.0157
; #@! TA.AperFunction,Plated,PTH,ComponentDrill
T2C0.0315
; #@! TA.AperFunction,Plated,PTH,ComponentDrill
T3C0.0394
; #@! TA.AperFunction,Plated,PTH,ComponentDrill
T4C0.0472
; #@! TA.AperFunction,Plated,PTH,ComponentDrill
T5C0.0500
; #@! TA.AperFunction,Plated,PTH,ComponentDrill
T6C0.0512
; #@! TA.AperFunction,Plated,PTH,ComponentDrill
T7C0.0984
%
G90
G05
T1
X4.106Y-4.699
X4.14Y-4.491
X4.193Y-4.305
X4.206Y-4.69
X4.206Y-5.467
X4.225Y-5.138
X4.232Y-5.213
X4.24Y-4.619
X4.2599Y-4.7741
X4.2644Y-5.138
X4.283Y-4.395
X4.339Y-4.5075
X4.373Y-4.58
X4.458Y-4.5
X4.495Y-4.5471
X4.499Y-4.978
X4.514Y-5.42
X4.538Y-4.433
X4.538Y-4.545
X4.543Y-4.8467
X4.563Y-4.585
X4.5795Y-4.8227
X4.6087Y-4.6397
X4.613Y-4.595
X4.625Y-3.541
X4.634Y-4.685
X4.641Y-4.347
X4.647Y-5.213
X4.648Y-5.154
X4.652Y-4.903
X4.6787Y-4.4811
X4.69Y-4.94
X4.692Y-4.982
X4.723Y-4.29
X4.758Y-4.81
X4.801Y-4.75
X4.808Y-4.307
X4.824Y-3.32
X4.842Y-3.501
X4.847Y-4.14
X4.848Y-3.64
X4.928Y-5.094
X4.928Y-5.416
X4.947Y-4.708
X5.0Y-4.373
X5.057Y-3.093
X5.076Y-5.213
X5.329Y-5.416
X5.343Y-4.762
X5.353Y-5.094
X5.795Y-2.919
X6.615Y-4.155
T2
X6.6626Y-5.3666
X6.7492Y-5.0713
T3
X4.4417Y-4.2049
X4.4417Y-4.3033
X5.6649Y-4.2408
X5.8696Y-5.3983
X6.0664Y-5.3983
X6.2711Y-4.2408
X6.4554Y-4.68
X6.4554Y-4.825
X6.493Y-5.455
X6.4934Y-5.255
X6.7506Y-4.68
X6.7506Y-4.825
X6.896Y-5.4426
X7.096Y-5.443
T4
X4.4245Y-2.755
X4.5245Y-2.755
X4.6245Y-2.755
X4.7245Y-2.755
X4.8245Y-2.755
X4.9245Y-2.755
X5.0245Y-2.755
X5.1245Y-2.755
X5.2245Y-2.755
X5.3245Y-2.755
X5.4245Y-2.755
X5.5245Y-2.755
X5.6245Y-2.755
X5.7245Y-2.755
X5.8245Y-2.755
X5.9245Y-2.755
T5
X6.538Y-4.295
X6.688Y-4.295
X6.988Y-4.295
X7.138Y-4.295
T6
X7.043Y-4.5778
X7.043Y-4.7778
X7.043Y-5.0176
X7.043Y-5.2176
T7
X4.208Y-2.755
X4.208Y-3.9755
X7.1607Y-3.9755
X7.1607Y-2.755
T0
M30
