M48
; DRILL file {KiCad (7.0.0)} date Fri Jul 28 08:35:35 2023
; FORMAT={-:-/ absolute / inch / decimal}
; #@! TF.CreationDate,2023-07-28T08:35:35+03:00
; #@! TF.GenerationSoftware,Kicad,Pcbnew,(7.0.0)
; #@! TF.FileFunction,Plated,1,2,PTH
FMAT,2
INCH
; #@! TA.AperFunction,Plated,PTH,ViaDrill
T1C0.0157
; #@! TA.AperFunction,Plated,PTH,ComponentDrill
T2C0.0315
; #@! TA.AperFunction,Plated,PTH,ComponentDrill
T3C0.0394
; #@! TA.AperFunction,Plated,PTH,ComponentDrill
T4C0.0472
; #@! TA.AperFunction,Plated,PTH,ComponentDrill
T5C0.0500
; #@! TA.AperFunction,Plated,PTH,ComponentDrill
T6C0.0512
; #@! TA.AperFunction,Plated,PTH,ComponentDrill
T7C0.0984
%
G90
G05
T1
X3.548Y-3.144
X3.582Y-2.936
X3.648Y-3.135
X3.648Y-3.912
X3.667Y-3.583
X3.674Y-3.658
X3.682Y-3.064
X3.7019Y-3.2191
X3.7064Y-3.583
X3.82Y-2.975
X3.82Y-3.015
X3.9Y-2.945
X3.937Y-2.9921
X3.941Y-3.423
X3.956Y-3.865
X3.98Y-2.878
X3.98Y-2.99
X3.985Y-3.2917
X4.005Y-3.03
X4.0215Y-3.2677
X4.0507Y-3.0847
X4.055Y-3.04
X4.067Y-1.986
X4.076Y-3.13
X4.083Y-2.792
X4.089Y-3.658
X4.09Y-3.599
X4.1207Y-2.9261
X4.132Y-3.385
X4.134Y-3.427
X4.165Y-2.735
X4.243Y-3.195
X4.25Y-2.752
X4.266Y-1.765
X4.284Y-1.946
X4.289Y-2.585
X4.29Y-2.085
X4.37Y-3.539
X4.37Y-3.861
X4.389Y-3.153
X4.442Y-2.818
X4.499Y-1.538
X4.518Y-3.658
X4.771Y-3.861
X4.785Y-3.207
X4.795Y-3.539
X5.237Y-1.364
X6.057Y-2.6
T2
X6.1046Y-3.8116
X6.1912Y-3.5163
T3
X3.8837Y-2.6499
X3.8837Y-2.7483
X5.1069Y-2.6858
X5.3116Y-3.8433
X5.5084Y-3.8433
X5.7131Y-2.6858
X5.8974Y-3.125
X5.8974Y-3.27
X5.935Y-3.9
X5.9354Y-3.7
X6.1926Y-3.125
X6.1926Y-3.27
X6.338Y-3.8876
X6.538Y-3.888
T4
X3.8665Y-1.2
X3.9665Y-1.2
X4.0665Y-1.2
X4.1665Y-1.2
X4.2665Y-1.2
X4.3665Y-1.2
X4.4665Y-1.2
X4.5665Y-1.2
X4.6665Y-1.2
X4.7665Y-1.2
X4.8665Y-1.2
X4.9665Y-1.2
X5.0665Y-1.2
X5.1665Y-1.2
X5.2665Y-1.2
X5.3665Y-1.2
T5
X5.98Y-2.74
X6.13Y-2.74
X6.43Y-2.74
X6.58Y-2.74
T6
X6.485Y-3.0228
X6.485Y-3.2228
X6.485Y-3.4626
X6.485Y-3.6626
T7
X3.65Y-1.2
X3.65Y-2.4205
X6.6027Y-2.4205
X6.6027Y-1.2
T0
M30
