%TF.GenerationSoftware,KiCad,Pcbnew,(7.0.0)*%
%TF.CreationDate,2023-08-02T11:08:07+03:00*%
%TF.ProjectId,Digital_Timer_Switch,44696769-7461-46c5-9f54-696d65725f53,rev?*%
%TF.SameCoordinates,Original*%
%TF.FileFunction,Soldermask,Bot*%
%TF.FilePolarity,Negative*%
%FSLAX46Y46*%
G04 Gerber Fmt 4.6, Leading zero omitted, Abs format (unit mm)*
G04 Created by KiCad (PCBNEW (7.0.0)) date 2023-08-02 11:08:07*
%MOMM*%
%LPD*%
G01*
G04 APERTURE LIST*
G04 Aperture macros list*
%AMRoundRect*
0 Rectangle with rounded corners*
0 $1 Rounding radius*
0 $2 $3 $4 $5 $6 $7 $8 $9 X,Y pos of 4 corners*
0 Add a 4 corners polygon primitive as box body*
4,1,4,$2,$3,$4,$5,$6,$7,$8,$9,$2,$3,0*
0 Add four circle primitives for the rounded corners*
1,1,$1+$1,$2,$3*
1,1,$1+$1,$4,$5*
1,1,$1+$1,$6,$7*
1,1,$1+$1,$8,$9*
0 Add four rect primitives between the rounded corners*
20,1,$1+$1,$2,$3,$4,$5,0*
20,1,$1+$1,$4,$5,$6,$7,0*
20,1,$1+$1,$6,$7,$8,$9,0*
20,1,$1+$1,$8,$9,$2,$3,0*%
G04 Aperture macros list end*
%ADD10R,2.540000X2.540000*%
%ADD11C,2.540000*%
%ADD12R,2.600000X2.600000*%
%ADD13C,2.600000*%
%ADD14C,2.000000*%
%ADD15RoundRect,0.250000X-0.750000X0.600000X-0.750000X-0.600000X0.750000X-0.600000X0.750000X0.600000X0*%
%ADD16O,2.000000X1.700000*%
%ADD17C,3.000000*%
%ADD18R,1.800000X2.600000*%
%ADD19O,1.800000X2.600000*%
%ADD20C,1.800000*%
%ADD21R,2.000000X2.300000*%
%ADD22C,2.300000*%
%ADD23C,1.500000*%
G04 APERTURE END LIST*
D10*
%TO.C,U202*%
X181305199Y-109092999D03*
D11*
X177495200Y-109093000D03*
X169875200Y-109093000D03*
X166065200Y-109093000D03*
%TD*%
D12*
%TO.C,J101*%
X178892199Y-132527999D03*
D13*
X178892200Y-127448000D03*
%TD*%
D14*
%TO.C,C207*%
X163966200Y-118872000D03*
X171466200Y-118872000D03*
%TD*%
%TO.C,C206*%
X163966200Y-122555000D03*
X171466200Y-122555000D03*
%TD*%
D15*
%TO.C,J102*%
X112819200Y-106803500D03*
D16*
X112819199Y-109303499D03*
%TD*%
D17*
%TO.C,DS401*%
X106883200Y-69977000D03*
X106883200Y-100977700D03*
X181881780Y-100977700D03*
X181882300Y-69977000D03*
D18*
X112382299Y-69976999D03*
D19*
X114922299Y-69976999D03*
X117462299Y-69976999D03*
X120002299Y-69976999D03*
X122542299Y-69976999D03*
X125082299Y-69976999D03*
X127622299Y-69976999D03*
X130162299Y-69976999D03*
X132702299Y-69976999D03*
X135242299Y-69976999D03*
X137782299Y-69976999D03*
X140322299Y-69976999D03*
X142862299Y-69976999D03*
X145402299Y-69976999D03*
X147942299Y-69976999D03*
X150482299Y-69976999D03*
%TD*%
D20*
%TO.C,MOV201*%
X169229700Y-136311000D03*
X171429700Y-128811000D03*
%TD*%
D14*
%TO.C,TH201*%
X164922200Y-138557000D03*
X164932200Y-133477000D03*
%TD*%
D21*
%TO.C,PS201*%
X149087199Y-137117499D03*
D22*
X154087200Y-137117500D03*
X143887200Y-107717500D03*
X159287200Y-107717500D03*
%TD*%
D12*
%TO.C,J103*%
X178892199Y-121356999D03*
D13*
X178892200Y-116277000D03*
%TD*%
D14*
%TO.C,F201*%
X175158200Y-138243000D03*
X180238200Y-138253000D03*
%TD*%
D23*
%TO.C,TP306*%
X105232200Y-105537000D03*
%TD*%
%TO.C,TP303*%
X107772200Y-108077000D03*
%TD*%
%TO.C,TP301*%
X107772200Y-110617000D03*
%TD*%
%TO.C,TP304*%
X105232200Y-108077000D03*
%TD*%
%TO.C,TP302*%
X105232200Y-110617000D03*
%TD*%
%TO.C,TP305*%
X107772200Y-105537000D03*
%TD*%
M02*
