%TF.GenerationSoftware,KiCad,Pcbnew,(7.0.0)*%
%TF.CreationDate,2023-07-28T08:35:32+03:00*%
%TF.ProjectId,Digital_Timer_Switch,44696769-7461-46c5-9f54-696d65725f53,rev?*%
%TF.SameCoordinates,Original*%
%TF.FileFunction,Soldermask,Top*%
%TF.FilePolarity,Negative*%
%FSLAX46Y46*%
G04 Gerber Fmt 4.6, Leading zero omitted, Abs format (unit mm)*
G04 Created by KiCad (PCBNEW (7.0.0)) date 2023-07-28 08:35:32*
%MOMM*%
%LPD*%
G01*
G04 APERTURE LIST*
G04 Aperture macros list*
%AMRoundRect*
0 Rectangle with rounded corners*
0 $1 Rounding radius*
0 $2 $3 $4 $5 $6 $7 $8 $9 X,Y pos of 4 corners*
0 Add a 4 corners polygon primitive as box body*
4,1,4,$2,$3,$4,$5,$6,$7,$8,$9,$2,$3,0*
0 Add four circle primitives for the rounded corners*
1,1,$1+$1,$2,$3*
1,1,$1+$1,$4,$5*
1,1,$1+$1,$6,$7*
1,1,$1+$1,$8,$9*
0 Add four rect primitives between the rounded corners*
20,1,$1+$1,$2,$3,$4,$5,0*
20,1,$1+$1,$4,$5,$6,$7,0*
20,1,$1+$1,$6,$7,$8,$9,0*
20,1,$1+$1,$8,$9,$2,$3,0*%
%AMRotRect*
0 Rectangle, with rotation*
0 The origin of the aperture is its center*
0 $1 length*
0 $2 width*
0 $3 Rotation angle, in degrees counterclockwise*
0 Add horizontal line*
21,1,$1,$2,0,0,$3*%
G04 Aperture macros list end*
%ADD10RoundRect,0.200000X0.275000X-0.200000X0.275000X0.200000X-0.275000X0.200000X-0.275000X-0.200000X0*%
%ADD11R,1.600000X1.400000*%
%ADD12RoundRect,0.125000X0.125000X0.125000X-0.125000X0.125000X-0.125000X-0.125000X0.125000X-0.125000X0*%
%ADD13R,2.000000X1.300000*%
%ADD14R,2.000000X2.000000*%
%ADD15RoundRect,0.135000X0.135000X0.185000X-0.135000X0.185000X-0.135000X-0.185000X0.135000X-0.185000X0*%
%ADD16RoundRect,0.225000X-0.017678X0.335876X-0.335876X0.017678X0.017678X-0.335876X0.335876X-0.017678X0*%
%ADD17RoundRect,0.225000X-0.225000X-0.250000X0.225000X-0.250000X0.225000X0.250000X-0.225000X0.250000X0*%
%ADD18R,2.540000X2.540000*%
%ADD19C,2.540000*%
%ADD20RoundRect,0.200000X-0.200000X-0.275000X0.200000X-0.275000X0.200000X0.275000X-0.200000X0.275000X0*%
%ADD21RoundRect,0.140000X-0.140000X-0.170000X0.140000X-0.170000X0.140000X0.170000X-0.140000X0.170000X0*%
%ADD22RoundRect,0.218750X-0.218750X-0.256250X0.218750X-0.256250X0.218750X0.256250X-0.218750X0.256250X0*%
%ADD23RoundRect,0.225000X0.250000X-0.225000X0.250000X0.225000X-0.250000X0.225000X-0.250000X-0.225000X0*%
%ADD24RoundRect,0.135000X0.185000X-0.135000X0.185000X0.135000X-0.185000X0.135000X-0.185000X-0.135000X0*%
%ADD25RoundRect,0.140000X0.170000X-0.140000X0.170000X0.140000X-0.170000X0.140000X-0.170000X-0.140000X0*%
%ADD26RoundRect,0.150000X0.150000X-0.587500X0.150000X0.587500X-0.150000X0.587500X-0.150000X-0.587500X0*%
%ADD27R,0.900000X0.800000*%
%ADD28R,0.700000X0.700000*%
%ADD29R,2.600000X2.600000*%
%ADD30C,2.600000*%
%ADD31C,2.000000*%
%ADD32RoundRect,0.200000X0.200000X0.275000X-0.200000X0.275000X-0.200000X-0.275000X0.200000X-0.275000X0*%
%ADD33RoundRect,0.062500X-0.375000X-0.062500X0.375000X-0.062500X0.375000X0.062500X-0.375000X0.062500X0*%
%ADD34RoundRect,0.062500X-0.062500X-0.375000X0.062500X-0.375000X0.062500X0.375000X-0.062500X0.375000X0*%
%ADD35R,3.100000X3.100000*%
%ADD36RoundRect,0.250000X-0.750000X0.600000X-0.750000X-0.600000X0.750000X-0.600000X0.750000X0.600000X0*%
%ADD37O,2.000000X1.700000*%
%ADD38RoundRect,0.150000X-0.150000X0.512500X-0.150000X-0.512500X0.150000X-0.512500X0.150000X0.512500X0*%
%ADD39C,3.000000*%
%ADD40R,1.800000X2.600000*%
%ADD41O,1.800000X2.600000*%
%ADD42C,1.800000*%
%ADD43RoundRect,0.225000X0.225000X0.250000X-0.225000X0.250000X-0.225000X-0.250000X0.225000X-0.250000X0*%
%ADD44RoundRect,0.225000X0.335876X0.017678X0.017678X0.335876X-0.335876X-0.017678X-0.017678X-0.335876X0*%
%ADD45R,1.700000X0.900000*%
%ADD46RotRect,0.900000X0.800000X45.000000*%
%ADD47RoundRect,0.200000X-0.275000X0.200000X-0.275000X-0.200000X0.275000X-0.200000X0.275000X0.200000X0*%
%ADD48R,2.000000X2.300000*%
%ADD49C,2.300000*%
G04 APERTURE END LIST*
D10*
%TO.C,R404*%
X116332000Y-66485000D03*
X116332000Y-68135000D03*
%TD*%
D11*
%TO.C,SW307*%
X109663999Y-90986999D03*
X101663999Y-90986999D03*
X109663999Y-86486999D03*
X101663999Y-86486999D03*
%TD*%
D12*
%TO.C,D201*%
X105764600Y-74322700D03*
X103564600Y-74322700D03*
%TD*%
D13*
%TO.C,RV401*%
X106711999Y-65778999D03*
D14*
X110711999Y-66928999D03*
D13*
X106711999Y-68078999D03*
%TD*%
D15*
%TO.C,R202*%
X155706000Y-66040000D03*
X154686000Y-66040000D03*
%TD*%
D16*
%TO.C,C315*%
X91629242Y-80350992D03*
X90533226Y-81447008D03*
%TD*%
D11*
%TO.C,SW302*%
X109726999Y-99368999D03*
X101726999Y-99368999D03*
X109726999Y-94868999D03*
X101726999Y-94868999D03*
%TD*%
D17*
%TO.C,C203*%
X108826000Y-81153000D03*
X110376000Y-81153000D03*
%TD*%
D18*
%TO.C,U202*%
X167131999Y-69595999D03*
D19*
X163322000Y-69596000D03*
X155702000Y-69596000D03*
X151892000Y-69596000D03*
%TD*%
D11*
%TO.C,SW301*%
X99185999Y-99368999D03*
X91185999Y-99368999D03*
X99185999Y-94868999D03*
X91185999Y-94868999D03*
%TD*%
D20*
%TO.C,R302*%
X104902000Y-92928000D03*
X106552000Y-92928000D03*
%TD*%
D21*
%TO.C,C313*%
X93144200Y-90274400D03*
X94104200Y-90274400D03*
%TD*%
D17*
%TO.C,C306*%
X109715000Y-97028000D03*
X111265000Y-97028000D03*
%TD*%
D20*
%TO.C,R307*%
X104966000Y-84510000D03*
X106616000Y-84510000D03*
%TD*%
D22*
%TO.C,FB201*%
X107213300Y-73863200D03*
X108788300Y-73863200D03*
%TD*%
D23*
%TO.C,C301*%
X102793800Y-81809800D03*
X102793800Y-80259800D03*
%TD*%
D24*
%TO.C,R402*%
X112826800Y-70766400D03*
X112826800Y-69746400D03*
%TD*%
D20*
%TO.C,R306*%
X115570000Y-76164000D03*
X117220000Y-76164000D03*
%TD*%
D17*
%TO.C,C307*%
X120383000Y-97028000D03*
X121933000Y-97028000D03*
%TD*%
D25*
%TO.C,C302*%
X93522800Y-79637800D03*
X93522800Y-78677800D03*
%TD*%
D20*
%TO.C,R301*%
X94361000Y-92928000D03*
X96011000Y-92928000D03*
%TD*%
D26*
%TO.C,Q101*%
X102301000Y-68438500D03*
X104201000Y-68438500D03*
X103251000Y-66563500D03*
%TD*%
D23*
%TO.C,C204*%
X110363000Y-79274000D03*
X110363000Y-77724000D03*
%TD*%
%TO.C,C201*%
X107188000Y-72352200D03*
X107188000Y-70802200D03*
%TD*%
D27*
%TO.C,U302*%
X94832399Y-75567599D03*
X93432399Y-75567599D03*
X93432399Y-76667599D03*
X94832399Y-76667599D03*
%TD*%
D28*
%TO.C,D301*%
X93083199Y-89104399D03*
X94183199Y-89104399D03*
X94183199Y-87274399D03*
X93083199Y-87274399D03*
%TD*%
D29*
%TO.C,J101*%
X164718999Y-93030999D03*
D30*
X164719000Y-87951000D03*
%TD*%
D17*
%TO.C,C311*%
X109677200Y-88773000D03*
X111227200Y-88773000D03*
%TD*%
D31*
%TO.C,C207*%
X149793000Y-79375000D03*
X157293000Y-79375000D03*
%TD*%
%TO.C,C206*%
X149793000Y-83058000D03*
X157293000Y-83058000D03*
%TD*%
D17*
%TO.C,C310*%
X120408400Y-80365600D03*
X121958400Y-80365600D03*
%TD*%
D32*
%TO.C,R304*%
X91909400Y-78536800D03*
X90259400Y-78536800D03*
%TD*%
D33*
%TO.C,U301*%
X96316800Y-78804800D03*
X96316800Y-79304800D03*
X96316800Y-79804800D03*
X96316800Y-80304800D03*
X96316800Y-80804800D03*
X96316800Y-81304800D03*
X96316800Y-81804800D03*
X96316800Y-82304800D03*
D34*
X97004300Y-82992300D03*
X97504300Y-82992300D03*
X98004300Y-82992300D03*
X98504300Y-82992300D03*
X99004300Y-82992300D03*
X99504300Y-82992300D03*
X100004300Y-82992300D03*
X100504300Y-82992300D03*
D33*
X101191800Y-82304800D03*
X101191800Y-81804800D03*
X101191800Y-81304800D03*
X101191800Y-80804800D03*
X101191800Y-80304800D03*
X101191800Y-79804800D03*
X101191800Y-79304800D03*
X101191800Y-78804800D03*
D34*
X100504300Y-78117300D03*
X100004300Y-78117300D03*
X99504300Y-78117300D03*
X99004300Y-78117300D03*
X98504300Y-78117300D03*
X98004300Y-78117300D03*
X97504300Y-78117300D03*
X97004300Y-78117300D03*
D35*
X98754299Y-80554799D03*
%TD*%
D26*
%TO.C,Q201*%
X103733600Y-72339200D03*
X105633600Y-72339200D03*
X104683600Y-70464200D03*
%TD*%
D36*
%TO.C,J102*%
X98646000Y-67306500D03*
D37*
X98645999Y-69806499D03*
%TD*%
D38*
%TO.C,U201*%
X108798400Y-77165200D03*
X107848400Y-77165200D03*
X106898400Y-77165200D03*
X106898400Y-79440200D03*
X108798400Y-79440200D03*
%TD*%
D10*
%TO.C,R201*%
X102209600Y-74739000D03*
X102209600Y-73089000D03*
%TD*%
D39*
%TO.C,DS401*%
X92710000Y-30480000D03*
X92710000Y-61480700D03*
X167708580Y-61480700D03*
X167709100Y-30480000D03*
D40*
X98209099Y-30479999D03*
D41*
X100749099Y-30479999D03*
X103289099Y-30479999D03*
X105829099Y-30479999D03*
X108369099Y-30479999D03*
X110909099Y-30479999D03*
X113449099Y-30479999D03*
X115989099Y-30479999D03*
X118529099Y-30479999D03*
X121069099Y-30479999D03*
X123609099Y-30479999D03*
X126149099Y-30479999D03*
X128689099Y-30479999D03*
X131229099Y-30479999D03*
X133769099Y-30479999D03*
X136309099Y-30479999D03*
%TD*%
D17*
%TO.C,C305*%
X99174000Y-97155000D03*
X100724000Y-97155000D03*
%TD*%
D25*
%TO.C,C312*%
X96062800Y-76578400D03*
X96062800Y-75618400D03*
%TD*%
D42*
%TO.C,MOV201*%
X155056500Y-96814000D03*
X157256500Y-89314000D03*
%TD*%
D43*
%TO.C,C401*%
X133778100Y-26914500D03*
X132228100Y-26914500D03*
%TD*%
D20*
%TO.C,R403*%
X114047000Y-70104000D03*
X115697000Y-70104000D03*
%TD*%
D43*
%TO.C,C403*%
X100250100Y-26787500D03*
X98700100Y-26787500D03*
%TD*%
D17*
%TO.C,C309*%
X120383000Y-88773000D03*
X121933000Y-88773000D03*
%TD*%
D43*
%TO.C,C205*%
X108812200Y-75455900D03*
X107262200Y-75455900D03*
%TD*%
D31*
%TO.C,TH201*%
X150749000Y-99060000D03*
X150759000Y-93980000D03*
%TD*%
D23*
%TO.C,C202*%
X108762800Y-72352200D03*
X108762800Y-70802200D03*
%TD*%
D44*
%TO.C,C314*%
X91375242Y-84368008D03*
X90279226Y-83271992D03*
%TD*%
D11*
%TO.C,SW303*%
X120394999Y-99368999D03*
X112394999Y-99368999D03*
X120394999Y-94868999D03*
X112394999Y-94868999D03*
%TD*%
%TO.C,SW306*%
X120344199Y-82640999D03*
X112344199Y-82640999D03*
X120344199Y-78140999D03*
X112344199Y-78140999D03*
%TD*%
D45*
%TO.C,SW304*%
X90982799Y-73659999D03*
X90982799Y-77059999D03*
%TD*%
D26*
%TO.C,Q401*%
X112842000Y-68296000D03*
X114742000Y-68296000D03*
X113792000Y-66421000D03*
%TD*%
D46*
%TO.C,Y301*%
X92421667Y-83349482D03*
X93411616Y-82359533D03*
X92633799Y-81581716D03*
X91643850Y-82571665D03*
%TD*%
D23*
%TO.C,C303*%
X94792800Y-80184200D03*
X94792800Y-78634200D03*
%TD*%
D20*
%TO.C,R305*%
X115634000Y-84546000D03*
X117284000Y-84546000D03*
%TD*%
D17*
%TO.C,C402*%
X101748100Y-26787500D03*
X103298100Y-26787500D03*
%TD*%
D11*
%TO.C,SW305*%
X120394999Y-90986999D03*
X112394999Y-90986999D03*
X120394999Y-86486999D03*
X112394999Y-86486999D03*
%TD*%
D47*
%TO.C,R101*%
X102235000Y-70105000D03*
X102235000Y-71755000D03*
%TD*%
D48*
%TO.C,PS201*%
X134913999Y-97620499D03*
D49*
X139914000Y-97620500D03*
X129714000Y-68220500D03*
X145114000Y-68220500D03*
%TD*%
D29*
%TO.C,J103*%
X164718999Y-81859999D03*
D30*
X164719000Y-76780000D03*
%TD*%
D17*
%TO.C,C308*%
X93459000Y-73660000D03*
X95009000Y-73660000D03*
%TD*%
D23*
%TO.C,C304*%
X104317800Y-81796800D03*
X104317800Y-80246800D03*
%TD*%
D31*
%TO.C,F201*%
X160985000Y-98746000D03*
X166065000Y-98756000D03*
%TD*%
D20*
%TO.C,R303*%
X115824000Y-92928000D03*
X117474000Y-92928000D03*
%TD*%
M02*
